<svg width="402" height="277" viewBox="0 0 402 277" fill="none" xmlns="http://www.w3.org/2000/svg">
<g clip-path="url(#clip0_1_1876)">
<g clip-path="url(#clip1_1_1876)">
<g clip-path="url(#clip2_1_1876)">
<mask id="mask0_1_1876" style="mask-type:luminance" maskUnits="userSpaceOnUse" x="26" y="231" width="20" height="20">
<path d="M46 231H26V251H46V231Z" fill="white"/>
</mask>
<g mask="url(#mask0_1_1876)">
<path d="M44.0417 248.188C43.9869 248.283 43.908 248.362 43.8129 248.416C43.7179 248.471 43.6101 248.5 43.5003 248.5H28.5003C28.3907 248.5 28.283 248.471 28.1881 248.416C28.0931 248.361 28.0143 248.282 27.9596 248.187C27.9048 248.092 27.8759 247.985 27.876 247.875C27.876 247.765 27.9049 247.658 27.9597 247.563C29.1496 245.506 30.9831 244.031 33.123 243.331C32.0645 242.701 31.2422 241.741 30.7822 240.598C30.3222 239.456 30.2501 238.194 30.5769 237.006C30.9036 235.818 31.6112 234.771 32.591 234.024C33.5707 233.277 34.7685 232.873 36.0003 232.873C37.2322 232.873 38.4299 233.277 39.4097 234.024C40.3895 234.771 41.0971 235.818 41.4238 237.006C41.7506 238.194 41.6784 239.456 41.2185 240.598C40.7585 241.741 39.9361 242.701 38.8777 243.331C41.0175 244.031 42.8511 245.506 44.041 247.563C44.0959 247.658 44.1249 247.765 44.1251 247.875C44.1252 247.985 44.0965 248.093 44.0417 248.188Z" fill="#F7931A"/>
</g>
<mask id="mask1_1_1876" style="mask-type:luminance" maskUnits="userSpaceOnUse" x="26" y="181" width="20" height="20">
<path d="M46 181H26V201H46V181Z" fill="white"/>
</mask>
<g mask="url(#mask1_1_1876)">
<path d="M42.875 184.125H29.125C28.7935 184.125 28.4755 184.257 28.2411 184.491C28.0067 184.726 27.875 185.043 27.875 185.375V196.625C27.875 196.957 28.0067 197.274 28.2411 197.509C28.4755 197.743 28.7935 197.875 29.125 197.875H30.1711C30.2894 197.875 30.4052 197.842 30.5052 197.778C30.6052 197.715 30.6852 197.625 30.7359 197.518C31.0399 196.876 31.5197 196.334 32.1196 195.954C32.7196 195.575 33.415 195.373 34.125 195.373C34.835 195.373 35.5304 195.575 36.1304 195.954C36.7303 196.334 37.2101 196.876 37.5141 197.518C37.5648 197.625 37.6448 197.715 37.7448 197.778C37.8448 197.842 37.9606 197.875 38.0789 197.875H42.875C43.2065 197.875 43.5245 197.743 43.7589 197.509C43.9933 197.274 44.125 196.957 44.125 196.625V185.375C44.125 185.043 43.9933 184.726 43.7589 184.491C43.5245 184.257 43.2065 184.125 42.875 184.125ZM34.125 194.125C33.6305 194.125 33.1472 193.978 32.7361 193.704C32.325 193.429 32.0045 193.039 31.8153 192.582C31.6261 192.125 31.5766 191.622 31.673 191.137C31.7695 190.652 32.0076 190.207 32.3572 189.857C32.7069 189.508 33.1523 189.269 33.6373 189.173C34.1222 189.077 34.6249 189.126 35.0817 189.315C35.5385 189.505 35.929 189.825 36.2037 190.236C36.4784 190.647 36.625 191.131 36.625 191.625C36.625 192.288 36.3616 192.924 35.8928 193.393C35.4239 193.862 34.788 194.125 34.125 194.125ZM42.875 196.625H38.4555C38.183 196.155 37.8357 195.733 37.4273 195.375H41C41.1658 195.375 41.3247 195.309 41.4419 195.192C41.5592 195.075 41.625 194.916 41.625 194.75V187.25C41.625 187.084 41.5592 186.925 41.4419 186.808C41.3247 186.691 41.1658 186.625 41 186.625H31C30.8342 186.625 30.6753 186.691 30.5581 186.808C30.4408 186.925 30.375 187.084 30.375 187.25V194.75C30.3749 194.889 30.4209 195.023 30.5058 195.133C30.5907 195.243 30.7095 195.321 30.8438 195.355C30.4259 195.717 30.0714 196.147 29.7945 196.625H29.125V185.375H42.875V196.625Z" fill="#A4D963"/>
</g>
<mask id="mask2_1_1876" style="mask-type:luminance" maskUnits="userSpaceOnUse" x="26" y="133" width="20" height="20">
<path d="M46 133H26V153H46V133Z" fill="white"/>
</mask>
<g mask="url(#mask2_1_1876)">
<path d="M46 141.75V146.75C46 146.916 45.9342 147.075 45.8169 147.192C45.6997 147.309 45.5408 147.375 45.375 147.375C45.2092 147.375 45.0503 147.309 44.9331 147.192C44.8158 147.075 44.75 146.916 44.75 146.75V144.875H43.5V146.125C43.5 146.457 43.3683 146.774 43.1339 147.009C42.8995 147.243 42.5815 147.375 42.25 147.375H41.2586L38.5 150.134C38.3843 150.25 38.2467 150.343 38.095 150.405C37.9433 150.468 37.7806 150.501 37.6164 150.5H32.5086C32.3444 150.501 32.1817 150.468 32.03 150.405C31.8783 150.343 31.7407 150.25 31.625 150.134L28.8664 147.375C28.7498 147.259 28.6574 147.122 28.5945 146.97C28.5316 146.818 28.4995 146.656 28.5 146.491V144.875H27.25V146.75C27.25 146.916 27.1842 147.075 27.0669 147.192C26.9497 147.309 26.7908 147.375 26.625 147.375C26.4592 147.375 26.3003 147.309 26.1831 147.192C26.0658 147.075 26 146.916 26 146.75V141.75C26 141.584 26.0658 141.425 26.1831 141.308C26.3003 141.191 26.4592 141.125 26.625 141.125C26.7908 141.125 26.9497 141.191 27.0669 141.308C27.1842 141.425 27.25 141.584 27.25 141.75V143.625H28.5V139.25C28.5 138.918 28.6317 138.601 28.8661 138.366C29.1005 138.132 29.4185 138 29.75 138H34.75V136.75H32.875C32.7092 136.75 32.5503 136.684 32.4331 136.567C32.3158 136.45 32.25 136.291 32.25 136.125C32.25 135.959 32.3158 135.8 32.4331 135.683C32.5503 135.566 32.7092 135.5 32.875 135.5H37.875C38.0408 135.5 38.1997 135.566 38.3169 135.683C38.4342 135.8 38.5 135.959 38.5 136.125C38.5 136.291 38.4342 136.45 38.3169 136.567C38.1997 136.684 38.0408 136.75 37.875 136.75H36V138H37.6164C37.7806 137.999 37.9433 138.032 38.095 138.094C38.2467 138.157 38.3843 138.25 38.5 138.366L41.2586 141.125H42.25C42.5815 141.125 42.8995 141.257 43.1339 141.491C43.3683 141.726 43.5 142.043 43.5 142.375V143.625H44.75V141.75C44.75 141.584 44.8158 141.425 44.9331 141.308C45.0503 141.191 45.2092 141.125 45.375 141.125C45.5408 141.125 45.6997 141.191 45.8169 141.308C45.9342 141.425 46 141.584 46 141.75Z" fill="#319766"/>
</g>
<mask id="mask3_1_1876" style="mask-type:luminance" maskUnits="userSpaceOnUse" x="26" y="89" width="20" height="20">
<path d="M46 89H26V109H46V89Z" fill="white"/>
</mask>
<g mask="url(#mask3_1_1876)">
<path d="M42.875 94H39.75V93.375C39.75 92.8777 39.5525 92.4008 39.2008 92.0492C38.8492 91.6975 38.3723 91.5 37.875 91.5H34.125C33.6277 91.5 33.1508 91.6975 32.7992 92.0492C32.4475 92.4008 32.25 92.8777 32.25 93.375V94H29.125C28.7935 94 28.4755 94.1317 28.2411 94.3661C28.0067 94.6005 27.875 94.9185 27.875 95.25V105.25C27.875 105.582 28.0067 105.899 28.2411 106.134C28.4755 106.368 28.7935 106.5 29.125 106.5H42.875C43.2065 106.5 43.5245 106.368 43.7589 106.134C43.9933 105.899 44.125 105.582 44.125 105.25V95.25C44.125 94.9185 43.9933 94.6005 43.7589 94.3661C43.5245 94.1317 43.2065 94 42.875 94ZM37.875 100.875H36.625V102.125C36.625 102.291 36.5592 102.45 36.4419 102.567C36.3247 102.684 36.1658 102.75 36 102.75C35.8342 102.75 35.6753 102.684 35.5581 102.567C35.4408 102.45 35.375 102.291 35.375 102.125V100.875H34.125C33.9592 100.875 33.8003 100.809 33.6831 100.692C33.5658 100.575 33.5 100.416 33.5 100.25C33.5 100.084 33.5658 99.9253 33.6831 99.8081C33.8003 99.6908 33.9592 99.625 34.125 99.625H35.375V98.375C35.375 98.2092 35.4408 98.0503 35.5581 97.9331C35.6753 97.8158 35.8342 97.75 36 97.75C36.1658 97.75 36.3247 97.8158 36.4419 97.9331C36.5592 98.0503 36.625 98.2092 36.625 98.375V99.625H37.875C38.0408 99.625 38.1997 99.6908 38.3169 99.8081C38.4342 99.9253 38.5 100.084 38.5 100.25C38.5 100.416 38.4342 100.575 38.3169 100.692C38.1997 100.809 38.0408 100.875 37.875 100.875ZM38.5 94H33.5V93.375C33.5 93.2092 33.5658 93.0503 33.6831 92.9331C33.8003 92.8158 33.9592 92.75 34.125 92.75H37.875C38.0408 92.75 38.1997 92.8158 38.3169 92.9331C38.4342 93.0503 38.5 93.2092 38.5 93.375V94Z" fill="#F3BA2F"/>
</g>
<path d="M378 0.5H24C11.0213 0.5 0.5 11.0213 0.5 24V253C0.5 265.979 11.0213 276.5 24 276.5H378C390.979 276.5 401.5 265.979 401.5 253V24C401.5 11.0213 390.979 0.5 378 0.5Z" fill="url(#paint0_linear_1_1876)" fill-opacity="0.6" stroke="url(#paint1_linear_1_1876)"/>
<path d="M32.7613 26.3636H34.5226V34.017C34.5226 34.8314 34.3313 35.553 33.9488 36.1818C33.5662 36.8068 33.0283 37.2992 32.3351 37.6591C31.6419 38.0152 30.8294 38.1932 29.8976 38.1932C28.9696 38.1932 28.159 38.0152 27.4658 37.6591C26.7726 37.2992 26.2347 36.8068 25.8522 36.1818C25.4696 35.553 25.2783 34.8314 25.2783 34.017V26.3636H27.034V33.875C27.034 34.4015 27.1495 34.8693 27.3806 35.2784C27.6154 35.6875 27.9469 36.0095 28.3749 36.2443C28.8029 36.4754 29.3105 36.5909 29.8976 36.5909C30.4885 36.5909 30.998 36.4754 31.426 36.2443C31.8579 36.0095 32.1874 35.6875 32.4147 35.2784C32.6457 34.8693 32.7613 34.4015 32.7613 33.875V26.3636ZM43.1586 31.4034L41.6188 31.6761C41.5544 31.4792 41.4522 31.2917 41.312 31.1136C41.1756 30.9356 40.99 30.7898 40.7552 30.6761C40.5203 30.5625 40.2268 30.5057 39.8745 30.5057C39.3934 30.5057 38.9919 30.6136 38.67 30.8295C38.348 31.0417 38.187 31.3163 38.187 31.6534C38.187 31.9451 38.295 32.1799 38.5109 32.358C38.7268 32.536 39.0753 32.6818 39.5563 32.7955L40.9427 33.1136C41.7457 33.2992 42.3442 33.5852 42.7381 33.9716C43.1321 34.358 43.329 34.8598 43.329 35.4773C43.329 36 43.1775 36.4659 42.8745 36.875C42.5753 37.2803 42.1567 37.5985 41.6188 37.8295C41.0847 38.0606 40.4654 38.1761 39.7609 38.1761C38.7836 38.1761 37.9862 37.9678 37.3688 37.5511C36.7514 37.1307 36.3726 36.5341 36.2325 35.7614L37.8745 35.5114C37.9768 35.9394 38.187 36.2633 38.5052 36.483C38.8234 36.6989 39.2381 36.8068 39.7495 36.8068C40.3063 36.8068 40.7514 36.6913 41.0847 36.4602C41.4181 36.2254 41.5847 35.9394 41.5847 35.6023C41.5847 35.3295 41.4825 35.1004 41.2779 34.9148C41.0772 34.7292 40.7684 34.589 40.3518 34.4943L38.8745 34.1705C38.0601 33.9848 37.4578 33.6894 37.0677 33.2841C36.6813 32.8788 36.4881 32.3655 36.4881 31.7443C36.4881 31.2292 36.6321 30.7784 36.92 30.392C37.2078 30.0057 37.6056 29.7045 38.1131 29.4886C38.6207 29.2689 39.2022 29.1591 39.8575 29.1591C40.8006 29.1591 41.5431 29.3636 42.0847 29.7727C42.6264 30.178 42.9844 30.7216 43.1586 31.4034ZM48.6383 38.1761C47.7785 38.1761 47.0379 37.9924 46.4167 37.625C45.7993 37.2538 45.322 36.733 44.9849 36.0625C44.6516 35.3883 44.4849 34.5985 44.4849 33.6932C44.4849 32.7992 44.6516 32.0114 44.9849 31.3295C45.322 30.6477 45.7917 30.1155 46.394 29.733C47.0001 29.3504 47.7084 29.1591 48.519 29.1591C49.0114 29.1591 49.4887 29.2405 49.9508 29.4034C50.4129 29.5663 50.8277 29.822 51.1951 30.1705C51.5626 30.5189 51.8523 30.9716 52.0644 31.5284C52.2766 32.0814 52.3826 32.7538 52.3826 33.5455V34.1477H45.4451V32.875H50.7179C50.7179 32.428 50.6269 32.0322 50.4451 31.6875C50.2633 31.339 50.0076 31.0644 49.6781 30.8636C49.3523 30.6629 48.9697 30.5625 48.5304 30.5625C48.0531 30.5625 47.6364 30.6799 47.2804 30.9148C46.9281 31.1458 46.6554 31.4489 46.4622 31.8239C46.2728 32.1951 46.1781 32.5985 46.1781 33.0341V34.0284C46.1781 34.6117 46.2804 35.108 46.4849 35.517C46.6932 35.9261 46.983 36.2386 47.3542 36.4545C47.7254 36.6667 48.1591 36.7727 48.6554 36.7727C48.9773 36.7727 49.2709 36.7273 49.536 36.6364C49.8012 36.5417 50.0304 36.4015 50.2235 36.2159C50.4167 36.0303 50.5644 35.8011 50.6667 35.5284L52.2747 35.8182C52.1459 36.2917 51.9148 36.7064 51.5815 37.0625C51.2519 37.4148 50.8372 37.6894 50.3372 37.8864C49.841 38.0795 49.2747 38.1761 48.6383 38.1761ZM53.9476 38V29.2727H55.5896V30.6591H55.6805C55.8396 30.1894 56.1199 29.8201 56.5214 29.5511C56.9267 29.2784 57.3851 29.142 57.8964 29.142C58.0025 29.142 58.1275 29.1458 58.2714 29.1534C58.4192 29.161 58.5347 29.1705 58.618 29.1818V30.8068C58.5498 30.7879 58.4286 30.767 58.2544 30.7443C58.0801 30.7178 57.9059 30.7045 57.7317 30.7045C57.3301 30.7045 56.9722 30.7898 56.6578 30.9602C56.3472 31.1269 56.101 31.3598 55.9192 31.6591C55.7373 31.9545 55.6464 32.2917 55.6464 32.6705V38H53.9476ZM66.308 31.4034L64.7682 31.6761C64.7038 31.4792 64.6015 31.2917 64.4614 31.1136C64.325 30.9356 64.1394 30.7898 63.9046 30.6761C63.6697 30.5625 63.3762 30.5057 63.0239 30.5057C62.5428 30.5057 62.1413 30.6136 61.8193 30.8295C61.4974 31.0417 61.3364 31.3163 61.3364 31.6534C61.3364 31.9451 61.4443 32.1799 61.6602 32.358C61.8762 32.536 62.2246 32.6818 62.7057 32.7955L64.0921 33.1136C64.8951 33.2992 65.4936 33.5852 65.8875 33.9716C66.2815 34.358 66.4784 34.8598 66.4784 35.4773C66.4784 36 66.3269 36.4659 66.0239 36.875C65.7246 37.2803 65.3061 37.5985 64.7682 37.8295C64.2341 38.0606 63.6148 38.1761 62.9102 38.1761C61.933 38.1761 61.1356 37.9678 60.5182 37.5511C59.9008 37.1307 59.522 36.5341 59.3818 35.7614L61.0239 35.5114C61.1262 35.9394 61.3364 36.2633 61.6546 36.483C61.9727 36.6989 62.3875 36.8068 62.8989 36.8068C63.4557 36.8068 63.9008 36.6913 64.2341 36.4602C64.5674 36.2254 64.7341 35.9394 64.7341 35.6023C64.7341 35.3295 64.6318 35.1004 64.4273 34.9148C64.2265 34.7292 63.9178 34.589 63.5012 34.4943L62.0239 34.1705C61.2095 33.9848 60.6072 33.6894 60.2171 33.2841C59.8307 32.8788 59.6375 32.3655 59.6375 31.7443C59.6375 31.2292 59.7815 30.7784 60.0693 30.392C60.3572 30.0057 60.7549 29.7045 61.2625 29.4886C61.7701 29.2689 62.3515 29.1591 63.0068 29.1591C63.95 29.1591 64.6924 29.3636 65.2341 29.7727C65.7758 30.178 66.1337 30.7216 66.308 31.4034ZM73.06 38H71.1964L75.3839 26.3636H77.4123L81.5998 38H79.7362L76.4464 28.4773H76.3555L73.06 38ZM73.3725 33.4432H79.418V34.9205H73.3725V33.4432ZM84.5227 32.8182V38H82.8238V29.2727H84.4545V30.6932H84.5625C84.7632 30.2311 85.0776 29.8598 85.5056 29.5795C85.9375 29.2992 86.481 29.1591 87.1363 29.1591C87.731 29.1591 88.2518 29.2841 88.6988 29.5341C89.1458 29.7803 89.4924 30.1477 89.7386 30.6364C89.9848 31.125 90.1079 31.7292 90.1079 32.4489V38H88.409V32.6534C88.409 32.0208 88.2443 31.5265 87.9147 31.1705C87.5852 30.8106 87.1325 30.6307 86.5568 30.6307C86.1628 30.6307 85.8125 30.7159 85.5056 30.8864C85.2026 31.0568 84.9621 31.3068 84.784 31.6364C84.6098 31.9621 84.5227 32.3561 84.5227 32.8182ZM94.6061 38.1932C94.0531 38.1932 93.5531 38.0909 93.1061 37.8864C92.6591 37.678 92.305 37.3769 92.0436 36.983C91.786 36.589 91.6572 36.1061 91.6572 35.5341C91.6572 35.0417 91.7519 34.6364 91.9413 34.3182C92.1307 34 92.3864 33.7481 92.7084 33.5625C93.0303 33.3769 93.3902 33.2367 93.7879 33.142C94.1856 33.0473 94.5909 32.9754 95.0038 32.9261C95.5266 32.8655 95.9508 32.8163 96.2766 32.7784C96.6023 32.7367 96.8391 32.6705 96.9868 32.5795C97.1345 32.4886 97.2084 32.3409 97.2084 32.1364V32.0966C97.2084 31.6004 97.0682 31.2159 96.7879 30.9432C96.5114 30.6705 96.0985 30.5341 95.5493 30.5341C94.9773 30.5341 94.5266 30.661 94.197 30.9148C93.8712 31.1648 93.6459 31.4432 93.5209 31.75L91.9243 31.3864C92.1137 30.8561 92.3902 30.428 92.7538 30.1023C93.1212 29.7727 93.5436 29.5341 94.0209 29.3864C94.4981 29.2348 95 29.1591 95.5266 29.1591C95.875 29.1591 96.2444 29.2008 96.6345 29.2841C97.0284 29.3636 97.3959 29.5114 97.7368 29.7273C98.0815 29.9432 98.3637 30.2519 98.5834 30.6534C98.8031 31.0511 98.9129 31.5682 98.9129 32.2045V38H97.2538V36.8068H97.1856C97.0758 37.0265 96.911 37.2424 96.6913 37.4545C96.4716 37.6667 96.1894 37.8428 95.8447 37.983C95.5 38.1231 95.0872 38.1932 94.6061 38.1932ZM94.9754 36.8295C95.4451 36.8295 95.8466 36.7367 96.18 36.5511C96.5171 36.3655 96.7728 36.1231 96.947 35.8239C97.125 35.5208 97.2141 35.197 97.2141 34.8523V33.7273C97.1534 33.7879 97.036 33.8447 96.8618 33.8977C96.6913 33.947 96.4962 33.9905 96.2766 34.0284C96.0569 34.0625 95.8428 34.0947 95.6345 34.125C95.4262 34.1515 95.2519 34.1742 95.1118 34.1932C94.7822 34.2348 94.4811 34.3049 94.2084 34.4034C93.9394 34.5019 93.7235 34.6439 93.5606 34.8295C93.4016 35.0114 93.322 35.2538 93.322 35.5568C93.322 35.9773 93.4773 36.2955 93.7879 36.5114C94.0985 36.7235 94.4944 36.8295 94.9754 36.8295ZM102.555 26.3636V38H100.856V26.3636H102.555ZM105.594 41.2727C105.34 41.2727 105.109 41.2519 104.901 41.2102C104.693 41.1723 104.537 41.1307 104.435 41.0852L104.844 39.6932C105.155 39.7765 105.431 39.8125 105.674 39.8011C105.916 39.7898 106.13 39.6989 106.316 39.5284C106.505 39.358 106.672 39.0795 106.816 38.6932L107.026 38.1136L103.833 29.2727H105.651L107.861 36.0455H107.952L110.162 29.2727H111.986L108.389 39.1648C108.223 39.6193 108.011 40.0038 107.753 40.3182C107.496 40.6364 107.189 40.875 106.833 41.0341C106.477 41.1932 106.064 41.2727 105.594 41.2727ZM117.337 29.2727V30.6364H112.569V29.2727H117.337ZM113.848 27.1818H115.547V35.4375C115.547 35.767 115.596 36.0152 115.694 36.1818C115.793 36.3447 115.92 36.4564 116.075 36.517C116.234 36.5739 116.407 36.6023 116.592 36.6023C116.729 36.6023 116.848 36.5928 116.95 36.5739C117.052 36.5549 117.132 36.5398 117.189 36.5284L117.496 37.9318C117.397 37.9697 117.257 38.0076 117.075 38.0455C116.893 38.0871 116.666 38.1098 116.393 38.1136C115.946 38.1212 115.53 38.0417 115.143 37.875C114.757 37.7083 114.444 37.4508 114.206 37.1023C113.967 36.7538 113.848 36.3163 113.848 35.7898V27.1818ZM118.896 38V29.2727H120.595V38H118.896ZM119.754 27.9261C119.458 27.9261 119.205 27.8277 118.992 27.6307C118.784 27.4299 118.68 27.1913 118.68 26.9148C118.68 26.6345 118.784 26.3958 118.992 26.1989C119.205 25.9981 119.458 25.8977 119.754 25.8977C120.049 25.8977 120.301 25.9981 120.509 26.1989C120.722 26.3958 120.828 26.6345 120.828 26.9148C120.828 27.1913 120.722 27.4299 120.509 27.6307C120.301 27.8277 120.049 27.9261 119.754 27.9261ZM126.236 38.1761C125.392 38.1761 124.664 37.9848 124.054 37.6023C123.448 37.2159 122.983 36.6837 122.657 36.0057C122.331 35.3277 122.168 34.5511 122.168 33.6761C122.168 32.7898 122.335 32.0076 122.668 31.3295C123.001 30.6477 123.471 30.1155 124.077 29.733C124.683 29.3504 125.397 29.1591 126.219 29.1591C126.882 29.1591 127.473 29.2822 127.992 29.5284C128.511 29.7708 128.929 30.1117 129.248 30.5511C129.57 30.9905 129.761 31.5038 129.822 32.0909H128.168C128.077 31.6818 127.869 31.3295 127.543 31.0341C127.221 30.7386 126.789 30.5909 126.248 30.5909C125.774 30.5909 125.359 30.7159 125.003 30.9659C124.651 31.2121 124.376 31.5644 124.179 32.0227C123.983 32.4773 123.884 33.0152 123.884 33.6364C123.884 34.2727 123.981 34.822 124.174 35.2841C124.367 35.7462 124.64 36.1042 124.992 36.358C125.348 36.6117 125.767 36.7386 126.248 36.7386C126.57 36.7386 126.861 36.6799 127.123 36.5625C127.388 36.4413 127.609 36.2689 127.787 36.0455C127.969 35.822 128.096 35.553 128.168 35.2386H129.822C129.761 35.803 129.577 36.3068 129.27 36.75C128.964 37.1932 128.553 37.5417 128.037 37.7955C127.526 38.0492 126.926 38.1761 126.236 38.1761ZM137.858 31.4034L136.318 31.6761C136.254 31.4792 136.152 31.2917 136.011 31.1136C135.875 30.9356 135.69 30.7898 135.455 30.6761C135.22 30.5625 134.926 30.5057 134.574 30.5057C134.093 30.5057 133.691 30.6136 133.369 30.8295C133.047 31.0417 132.886 31.3163 132.886 31.6534C132.886 31.9451 132.994 32.1799 133.21 32.358C133.426 32.536 133.775 32.6818 134.256 32.7955L135.642 33.1136C136.445 33.2992 137.044 33.5852 137.438 33.9716C137.832 34.358 138.029 34.8598 138.029 35.4773C138.029 36 137.877 36.4659 137.574 36.875C137.275 37.2803 136.856 37.5985 136.318 37.8295C135.784 38.0606 135.165 38.1761 134.46 38.1761C133.483 38.1761 132.686 37.9678 132.068 37.5511C131.451 37.1307 131.072 36.5341 130.932 35.7614L132.574 35.5114C132.676 35.9394 132.886 36.2633 133.205 36.483C133.523 36.6989 133.938 36.8068 134.449 36.8068C135.006 36.8068 135.451 36.6913 135.784 36.4602C136.118 36.2254 136.284 35.9394 136.284 35.6023C136.284 35.3295 136.182 35.1004 135.977 34.9148C135.777 34.7292 135.468 34.589 135.051 34.4943L133.574 34.1705C132.76 33.9848 132.157 33.6894 131.767 33.2841C131.381 32.8788 131.188 32.3655 131.188 31.7443C131.188 31.2292 131.332 30.7784 131.619 30.392C131.907 30.0057 132.305 29.7045 132.813 29.4886C133.32 29.2689 133.902 29.1591 134.557 29.1591C135.5 29.1591 136.243 29.3636 136.784 29.7727C137.326 30.178 137.684 30.7216 137.858 31.4034Z" fill="url(#paint2_linear_1_1876)"/>
<path d="M310.415 89.624L317.481 100.223C317.634 100.452 317.572 100.763 317.342 100.916C317.26 100.971 317.164 101 317.065 101H302.934C302.657 101 302.434 100.776 302.434 100.5C302.434 100.401 302.463 100.305 302.518 100.223L309.583 89.624C309.737 89.3943 310.047 89.3322 310.277 89.4854C310.332 89.522 310.379 89.5691 310.415 89.624Z" fill="#319766"/>
<path d="M309.585 152.376L302.519 141.777C302.366 141.548 302.428 141.237 302.658 141.084C302.74 141.029 302.836 141 302.935 141H317.066C317.343 141 317.566 141.224 317.566 141.5C317.566 141.599 317.537 141.695 317.482 141.777L310.417 152.376C310.263 152.606 309.953 152.668 309.723 152.515C309.668 152.478 309.621 152.431 309.585 152.376Z" fill="#EE6A5F"/>
<path d="M310.415 185.624L317.481 196.223C317.634 196.452 317.572 196.763 317.342 196.916C317.26 196.971 317.164 197 317.065 197H302.934C302.657 197 302.434 196.776 302.434 196.5C302.434 196.401 302.463 196.305 302.518 196.223L309.583 185.624C309.737 185.394 310.047 185.332 310.277 185.485C310.332 185.522 310.379 185.569 310.415 185.624Z" fill="#319766"/>
<path d="M309.585 248.376L302.519 237.777C302.366 237.548 302.428 237.237 302.658 237.084C302.74 237.029 302.836 237 302.935 237H317.066C317.343 237 317.566 237.224 317.566 237.5C317.566 237.599 317.537 237.695 317.482 237.777L310.417 248.376C310.263 248.606 309.953 248.668 309.723 248.515C309.668 248.478 309.621 248.431 309.585 248.376Z" fill="#EE6A5F"/>
<path d="M59.0001 103H55.4092V91.3635H59.1592C60.288 91.3635 61.2539 91.5965 62.0569 92.0624C62.8599 92.5245 63.4755 93.1893 63.9035 94.0567C64.3315 94.9204 64.5456 95.9544 64.5456 97.159C64.5456 98.3711 64.3296 99.4147 63.8978 100.29C63.466 101.161 62.8372 101.831 62.0115 102.301C61.1857 102.767 60.1819 103 59.0001 103ZM56.8183 101.75H58.9092C59.8713 101.75 60.6687 101.564 61.3012 101.193C61.9338 100.822 62.4054 100.294 62.716 99.6079C63.0266 98.9222 63.1819 98.106 63.1819 97.159C63.1819 96.2196 63.0285 95.4109 62.7217 94.7329C62.4149 94.051 61.9565 93.5283 61.3467 93.1647C60.7368 92.7972 59.9774 92.6135 59.0683 92.6135H56.8183V101.75ZM69.9528 103.182C69.1649 103.182 68.4737 102.994 67.879 102.619C67.2881 102.244 66.8259 101.72 66.4926 101.045C66.1631 100.371 65.9983 99.5832 65.9983 98.6817C65.9983 97.7726 66.1631 96.9791 66.4926 96.301C66.8259 95.623 67.2881 95.0965 67.879 94.7215C68.4737 94.3465 69.1649 94.159 69.9528 94.159C70.7407 94.159 71.4301 94.3465 72.021 94.7215C72.6157 95.0965 73.0778 95.623 73.4074 96.301C73.7407 96.9791 73.9074 97.7726 73.9074 98.6817C73.9074 99.5832 73.7407 100.371 73.4074 101.045C73.0778 101.72 72.6157 102.244 72.021 102.619C71.4301 102.994 70.7407 103.182 69.9528 103.182ZM69.9528 101.977C70.5513 101.977 71.0437 101.824 71.4301 101.517C71.8165 101.21 72.1024 100.807 72.2881 100.307C72.4737 99.8067 72.5665 99.2651 72.5665 98.6817C72.5665 98.0984 72.4737 97.5548 72.2881 97.051C72.1024 96.5472 71.8165 96.1401 71.4301 95.8294C71.0437 95.5188 70.5513 95.3635 69.9528 95.3635C69.3543 95.3635 68.8619 95.5188 68.4756 95.8294C68.0892 96.1401 67.8032 96.5472 67.6176 97.051C67.432 97.5548 67.3392 98.0984 67.3392 98.6817C67.3392 99.2651 67.432 99.8067 67.6176 100.307C67.8032 100.807 68.0892 101.21 68.4756 101.517C68.8619 101.824 69.3543 101.977 69.9528 101.977ZM79.1797 103.182C78.3615 103.182 77.657 102.989 77.0661 102.602C76.4752 102.216 76.0206 101.684 75.7024 101.006C75.3842 100.328 75.2252 99.5529 75.2252 98.6817C75.2252 97.7954 75.388 97.0132 75.7138 96.3351C76.0433 95.6533 76.5017 95.1211 77.0888 94.7385C77.6797 94.3522 78.3691 94.159 79.157 94.159C79.7706 94.159 80.3236 94.2726 80.8161 94.4999C81.3085 94.7272 81.7119 95.0454 82.0263 95.4544C82.3407 95.8635 82.5358 96.3408 82.6115 96.8863H81.2706C81.1683 96.4885 80.9411 96.1363 80.5888 95.8294C80.2403 95.5188 79.7706 95.3635 79.1797 95.3635C78.657 95.3635 78.1986 95.4999 77.8047 95.7726C77.4146 96.0416 77.1096 96.4222 76.8899 96.9147C76.674 97.4033 76.5661 97.9772 76.5661 98.6363C76.5661 99.3105 76.6721 99.8976 76.8842 100.398C77.1002 100.898 77.4032 101.286 77.7933 101.562C78.1873 101.839 78.6494 101.977 79.1797 101.977C79.5282 101.977 79.8445 101.917 80.1286 101.795C80.4127 101.674 80.6532 101.5 80.8502 101.273C81.0471 101.045 81.1873 100.773 81.2706 100.455H82.6115C82.5358 100.97 82.3483 101.434 82.049 101.847C81.7536 102.256 81.3615 102.581 80.8729 102.824C80.388 103.062 79.8236 103.182 79.1797 103.182ZM88.0472 94.2726V95.409H83.5245V94.2726H88.0472ZM84.8427 92.1817H86.1836V100.5C86.1836 100.879 86.2385 101.163 86.3483 101.352C86.462 101.538 86.6059 101.663 86.7802 101.727C86.9582 101.788 87.1457 101.818 87.3427 101.818C87.4904 101.818 87.6116 101.811 87.7063 101.795C87.801 101.777 87.8767 101.761 87.9336 101.75L88.2063 102.955C88.1154 102.989 87.9885 103.023 87.8256 103.057C87.6627 103.095 87.4563 103.114 87.2063 103.114C86.8275 103.114 86.4563 103.032 86.0927 102.869C85.7328 102.706 85.4336 102.458 85.1949 102.125C84.9601 101.792 84.8427 101.371 84.8427 100.864V92.1817ZM93.196 103.182C92.4081 103.182 91.7168 102.994 91.1221 102.619C90.5312 102.244 90.0691 101.72 89.7357 101.045C89.4062 100.371 89.2414 99.5832 89.2414 98.6817C89.2414 97.7726 89.4062 96.9791 89.7357 96.301C90.0691 95.623 90.5312 95.0965 91.1221 94.7215C91.7168 94.3465 92.4081 94.159 93.196 94.159C93.9838 94.159 94.6732 94.3465 95.2641 94.7215C95.8588 95.0965 96.321 95.623 96.6505 96.301C96.9838 96.9791 97.1505 97.7726 97.1505 98.6817C97.1505 99.5832 96.9838 100.371 96.6505 101.045C96.321 101.72 95.8588 102.244 95.2641 102.619C94.6732 102.994 93.9838 103.182 93.196 103.182ZM93.196 101.977C93.7944 101.977 94.2869 101.824 94.6732 101.517C95.0596 101.21 95.3456 100.807 95.5312 100.307C95.7168 99.8067 95.8096 99.2651 95.8096 98.6817C95.8096 98.0984 95.7168 97.5548 95.5312 97.051C95.3456 96.5472 95.0596 96.1401 94.6732 95.8294C94.2869 95.5188 93.7944 95.3635 93.196 95.3635C92.5975 95.3635 92.105 95.5188 91.7187 95.8294C91.3323 96.1401 91.0463 96.5472 90.8607 97.051C90.6751 97.5548 90.5823 98.0984 90.5823 98.6817C90.5823 99.2651 90.6751 99.8067 90.8607 100.307C91.0463 100.807 91.3323 101.21 91.7187 101.517C92.105 101.824 92.5975 101.977 93.196 101.977ZM98.8774 103V94.2726H100.173V95.5908H100.264C100.423 95.159 100.711 94.8086 101.127 94.5397C101.544 94.2707 102.014 94.1363 102.536 94.1363C102.635 94.1363 102.758 94.1382 102.906 94.1419C103.053 94.1457 103.165 94.1514 103.241 94.159V95.5226C103.195 95.5113 103.091 95.4942 102.928 95.4715C102.769 95.445 102.601 95.4317 102.423 95.4317C101.998 95.4317 101.62 95.5207 101.286 95.6988C100.957 95.873 100.695 96.1154 100.502 96.426C100.313 96.7329 100.218 97.0832 100.218 97.4772V103H98.8774ZM110.692 96.2272L109.488 96.5681C109.412 96.3673 109.3 96.1722 109.152 95.9829C109.009 95.7897 108.812 95.6306 108.562 95.5056C108.312 95.3806 107.991 95.3181 107.601 95.3181C107.067 95.3181 106.622 95.4412 106.266 95.6874C105.914 95.9298 105.738 96.2385 105.738 96.6135C105.738 96.9469 105.859 97.2101 106.101 97.4033C106.344 97.5965 106.723 97.7575 107.238 97.8863L108.533 98.2044C109.313 98.3938 109.895 98.6836 110.277 99.0738C110.66 99.4601 110.851 99.9582 110.851 100.568C110.851 101.068 110.707 101.515 110.419 101.909C110.135 102.303 109.738 102.614 109.226 102.841C108.715 103.068 108.12 103.182 107.442 103.182C106.552 103.182 105.815 102.989 105.232 102.602C104.649 102.216 104.279 101.652 104.124 100.909L105.397 100.591C105.518 101.061 105.747 101.413 106.084 101.648C106.425 101.883 106.87 102 107.419 102C108.044 102 108.541 101.867 108.908 101.602C109.279 101.333 109.465 101.011 109.465 100.636C109.465 100.333 109.359 100.08 109.147 99.8749C108.935 99.6666 108.609 99.5113 108.169 99.409L106.715 99.0681C105.916 98.8787 105.329 98.5851 104.954 98.1874C104.582 97.7859 104.397 97.284 104.397 96.6817C104.397 96.1893 104.535 95.7537 104.812 95.3749C105.092 94.9961 105.473 94.6988 105.954 94.4829C106.438 94.2669 106.988 94.159 107.601 94.159C108.465 94.159 109.143 94.3484 109.635 94.7272C110.132 95.106 110.484 95.606 110.692 96.2272Z" fill="url(#paint3_linear_1_1876)"/>
<path d="M55.4092 151V139.364H62.4319V140.614H56.8183V144.545H62.0683V145.795H56.8183V149.75H62.5228V151H55.4092ZM65.8108 145.75V151H64.4699V142.273H65.7653V143.636H65.879C66.0835 143.193 66.3941 142.837 66.8108 142.568C67.2274 142.295 67.7653 142.159 68.4244 142.159C69.0153 142.159 69.5324 142.28 69.9756 142.523C70.4187 142.761 70.7634 143.125 71.0096 143.614C71.2559 144.098 71.379 144.712 71.379 145.455V151H70.0381V145.545C70.0381 144.86 69.86 144.326 69.504 143.943C69.1479 143.557 68.6593 143.364 68.0381 143.364C67.61 143.364 67.2274 143.456 66.8903 143.642C66.557 143.828 66.2937 144.098 66.1006 144.455C65.9074 144.811 65.8108 145.242 65.8108 145.75ZM77.032 154.455C76.3842 154.455 75.8274 154.371 75.3615 154.205C74.8956 154.042 74.5074 153.826 74.1967 153.557C73.8899 153.292 73.6456 153.008 73.4638 152.705L74.532 151.955C74.6532 152.114 74.8066 152.295 74.9922 152.5C75.1778 152.708 75.4316 152.888 75.7536 153.04C76.0793 153.195 76.5055 153.273 77.032 153.273C77.7365 153.273 78.318 153.102 78.7763 152.761C79.2346 152.42 79.4638 151.886 79.4638 151.159V149.386H79.3502C79.2517 149.545 79.1115 149.742 78.9297 149.977C78.7517 150.208 78.4941 150.415 78.157 150.597C77.8236 150.775 77.3729 150.864 76.8047 150.864C76.1002 150.864 75.4676 150.697 74.907 150.364C74.3502 150.03 73.9089 149.545 73.5831 148.909C73.2611 148.273 73.1002 147.5 73.1002 146.591C73.1002 145.697 73.2574 144.919 73.5717 144.256C73.8861 143.589 74.3236 143.074 74.8842 142.71C75.4449 142.343 76.0926 142.159 76.8274 142.159C77.3956 142.159 77.8464 142.254 78.1797 142.443C78.5168 142.629 78.7744 142.841 78.9524 143.08C79.1342 143.314 79.2744 143.508 79.3729 143.659H79.5092V142.273H80.8047V151.25C80.8047 152 80.6342 152.61 80.2933 153.08C79.9562 153.553 79.5017 153.9 78.9297 154.119C78.3615 154.343 77.7289 154.455 77.032 154.455ZM76.9865 149.659C77.5244 149.659 77.9789 149.536 78.3502 149.29C78.7214 149.044 79.0036 148.689 79.1967 148.227C79.3899 147.765 79.4865 147.212 79.4865 146.568C79.4865 145.939 79.3918 145.384 79.2024 144.903C79.013 144.422 78.7327 144.045 78.3615 143.773C77.9903 143.5 77.532 143.364 76.9865 143.364C76.4183 143.364 75.9449 143.508 75.5661 143.795C75.1911 144.083 74.9089 144.47 74.7195 144.955C74.5339 145.439 74.4411 145.977 74.4411 146.568C74.4411 147.174 74.5358 147.71 74.7252 148.176C74.9183 148.638 75.2024 149.002 75.5774 149.267C75.9562 149.528 76.4259 149.659 76.9865 149.659ZM82.9392 151V142.273H84.2802V151H82.9392ZM83.6211 140.818C83.3597 140.818 83.1343 140.729 82.9449 140.551C82.7593 140.373 82.6665 140.159 82.6665 139.909C82.6665 139.659 82.7593 139.445 82.9449 139.267C83.1343 139.089 83.3597 139 83.6211 139C83.8824 139 84.1059 139.089 84.2915 139.267C84.4809 139.445 84.5756 139.659 84.5756 139.909C84.5756 140.159 84.4809 140.373 84.2915 140.551C84.1059 140.729 83.8824 140.818 83.6211 140.818ZM87.757 145.75V151H86.4161V142.273H87.7116V143.636H87.8252C88.0298 143.193 88.3404 142.837 88.757 142.568C89.1737 142.295 89.7116 142.159 90.3707 142.159C90.9616 142.159 91.4786 142.28 91.9218 142.523C92.365 142.761 92.7097 143.125 92.9559 143.614C93.2021 144.098 93.3252 144.712 93.3252 145.455V151H91.9843V145.545C91.9843 144.86 91.8063 144.326 91.4502 143.943C91.0942 143.557 90.6055 143.364 89.9843 143.364C89.5563 143.364 89.1737 143.456 88.8366 143.642C88.5032 143.828 88.24 144.098 88.0468 144.455C87.8536 144.811 87.757 145.242 87.757 145.75ZM99.1146 151.182C98.2737 151.182 97.5483 150.996 96.9385 150.625C96.3324 150.25 95.8646 149.727 95.535 149.057C95.2093 148.383 95.0464 147.598 95.0464 146.705C95.0464 145.811 95.2093 145.023 95.535 144.341C95.8646 143.655 96.3229 143.121 96.91 142.739C97.501 142.352 98.1903 142.159 98.9782 142.159C99.4328 142.159 99.8816 142.235 100.325 142.386C100.768 142.538 101.171 142.784 101.535 143.125C101.899 143.462 102.188 143.909 102.404 144.466C102.62 145.023 102.728 145.708 102.728 146.523V147.091H96.001V145.932H101.364C101.364 145.439 101.266 145 101.069 144.614C100.876 144.227 100.599 143.922 100.239 143.699C99.8835 143.475 99.4631 143.364 98.9782 143.364C98.4441 143.364 97.982 143.496 97.5919 143.761C97.2055 144.023 96.9082 144.364 96.6998 144.784C96.4915 145.205 96.3873 145.655 96.3873 146.136V146.909C96.3873 147.568 96.501 148.127 96.7282 148.585C96.9593 149.04 97.2794 149.386 97.6885 149.625C98.0975 149.86 98.5729 149.977 99.1146 149.977C99.4669 149.977 99.785 149.928 100.069 149.83C100.357 149.727 100.605 149.576 100.813 149.375C101.022 149.17 101.183 148.917 101.296 148.614L102.592 148.977C102.455 149.417 102.226 149.803 101.904 150.136C101.582 150.466 101.185 150.723 100.711 150.909C100.238 151.091 99.7055 151.182 99.1146 151.182ZM108.107 151.182C107.266 151.182 106.541 150.996 105.931 150.625C105.325 150.25 104.857 149.727 104.527 149.057C104.202 148.383 104.039 147.598 104.039 146.705C104.039 145.811 104.202 145.023 104.527 144.341C104.857 143.655 105.315 143.121 105.902 142.739C106.493 142.352 107.183 142.159 107.971 142.159C108.425 142.159 108.874 142.235 109.317 142.386C109.76 142.538 110.164 142.784 110.527 143.125C110.891 143.462 111.181 143.909 111.397 144.466C111.613 145.023 111.721 145.708 111.721 146.523V147.091H104.993V145.932H110.357C110.357 145.439 110.259 145 110.062 144.614C109.868 144.227 109.592 143.922 109.232 143.699C108.876 143.475 108.455 143.364 107.971 143.364C107.437 143.364 106.974 143.496 106.584 143.761C106.198 144.023 105.901 144.364 105.692 144.784C105.484 145.205 105.38 145.655 105.38 146.136V146.909C105.38 147.568 105.493 148.127 105.721 148.585C105.952 149.04 106.272 149.386 106.681 149.625C107.09 149.86 107.565 149.977 108.107 149.977C108.459 149.977 108.777 149.928 109.062 149.83C109.349 149.727 109.598 149.576 109.806 149.375C110.014 149.17 110.175 148.917 110.289 148.614L111.584 148.977C111.448 149.417 111.219 149.803 110.897 150.136C110.575 150.466 110.177 150.723 109.704 150.909C109.23 151.091 108.698 151.182 108.107 151.182ZM113.44 151V142.273H114.736V143.591H114.827C114.986 143.159 115.274 142.809 115.69 142.54C116.107 142.271 116.577 142.136 117.099 142.136C117.198 142.136 117.321 142.138 117.469 142.142C117.617 142.146 117.728 142.152 117.804 142.159V143.523C117.759 143.511 117.654 143.494 117.492 143.472C117.332 143.445 117.164 143.432 116.986 143.432C116.562 143.432 116.183 143.521 115.849 143.699C115.52 143.873 115.259 144.116 115.065 144.426C114.876 144.733 114.781 145.083 114.781 145.477V151H113.44ZM125.255 144.227L124.051 144.568C123.975 144.367 123.863 144.172 123.716 143.983C123.572 143.79 123.375 143.631 123.125 143.506C122.875 143.381 122.555 143.318 122.164 143.318C121.63 143.318 121.185 143.441 120.829 143.688C120.477 143.93 120.301 144.239 120.301 144.614C120.301 144.947 120.422 145.21 120.664 145.403C120.907 145.597 121.286 145.758 121.801 145.886L123.096 146.205C123.877 146.394 124.458 146.684 124.841 147.074C125.223 147.46 125.414 147.958 125.414 148.568C125.414 149.068 125.27 149.515 124.983 149.909C124.699 150.303 124.301 150.614 123.789 150.841C123.278 151.068 122.683 151.182 122.005 151.182C121.115 151.182 120.378 150.989 119.795 150.602C119.212 150.216 118.842 149.652 118.687 148.909L119.96 148.591C120.081 149.061 120.31 149.413 120.647 149.648C120.988 149.883 121.433 150 121.983 150C122.608 150 123.104 149.867 123.471 149.602C123.842 149.333 124.028 149.011 124.028 148.636C124.028 148.333 123.922 148.08 123.71 147.875C123.498 147.667 123.172 147.511 122.733 147.409L121.278 147.068C120.479 146.879 119.892 146.585 119.517 146.188C119.145 145.786 118.96 145.284 118.96 144.682C118.96 144.189 119.098 143.754 119.375 143.375C119.655 142.996 120.036 142.699 120.517 142.483C121.002 142.267 121.551 142.159 122.164 142.159C123.028 142.159 123.706 142.348 124.199 142.727C124.695 143.106 125.047 143.606 125.255 144.227Z" fill="url(#paint4_linear_1_1876)"/>
<path d="M54.7725 188.614V187.364H63.4998V188.614H59.8407V199H58.4316V188.614H54.7725ZM67.5662 199.182C66.7253 199.182 65.9999 198.996 65.39 198.625C64.784 198.25 64.3162 197.727 63.9866 197.057C63.6609 196.383 63.498 195.598 63.498 194.705C63.498 193.811 63.6609 193.023 63.9866 192.341C64.3162 191.655 64.7745 191.121 65.3616 190.739C65.9525 190.352 66.6419 190.159 67.4298 190.159C67.8843 190.159 68.3332 190.235 68.7764 190.386C69.2196 190.538 69.623 190.784 69.9866 191.125C70.3503 191.462 70.64 191.909 70.8559 192.466C71.0718 193.023 71.1798 193.708 71.1798 194.523V195.091H64.4525V193.932H69.8162C69.8162 193.439 69.7177 193 69.5207 192.614C69.3275 192.227 69.051 191.922 68.6912 191.699C68.3351 191.475 67.9146 191.364 67.4298 191.364C66.8957 191.364 66.4336 191.496 66.0434 191.761C65.6571 192.023 65.3597 192.364 65.1514 192.784C64.9431 193.205 64.8389 193.655 64.8389 194.136V194.909C64.8389 195.568 64.9525 196.127 65.1798 196.585C65.4109 197.04 65.7309 197.386 66.14 197.625C66.5491 197.86 67.0245 197.977 67.5662 197.977C67.9184 197.977 68.2366 197.928 68.5207 197.83C68.8086 197.727 69.0567 197.576 69.265 197.375C69.4734 197.17 69.6343 196.917 69.748 196.614L71.0434 196.977C70.9071 197.417 70.6779 197.803 70.3559 198.136C70.034 198.466 69.6362 198.723 69.1628 198.909C68.6893 199.091 68.1571 199.182 67.5662 199.182ZM75.4678 199.205C74.9147 199.205 74.4128 199.1 73.9621 198.892C73.5113 198.68 73.1534 198.375 72.8882 197.977C72.6231 197.576 72.4905 197.091 72.4905 196.523C72.4905 196.023 72.589 195.617 72.7859 195.307C72.9829 194.992 73.2462 194.746 73.5757 194.568C73.9053 194.39 74.2689 194.258 74.6666 194.17C75.0681 194.08 75.4715 194.008 75.8768 193.955C76.4071 193.886 76.8371 193.835 77.1666 193.801C77.5 193.763 77.7424 193.701 77.8939 193.614C78.0492 193.527 78.1268 193.375 78.1268 193.159V193.114C78.1268 192.553 77.9734 192.117 77.6666 191.807C77.3636 191.496 76.9034 191.341 76.2859 191.341C75.6458 191.341 75.1439 191.481 74.7803 191.761C74.4166 192.042 74.1609 192.341 74.0132 192.659L72.7405 192.205C72.9678 191.674 73.2708 191.261 73.6496 190.966C74.0321 190.667 74.4488 190.458 74.8996 190.341C75.3541 190.22 75.8011 190.159 76.2405 190.159C76.5208 190.159 76.8428 190.193 77.2064 190.261C77.5738 190.326 77.928 190.46 78.2689 190.665C78.6136 190.869 78.8996 191.178 79.1268 191.591C79.3541 192.004 79.4678 192.557 79.4678 193.25V199H78.1268V197.818H78.0587C77.9678 198.008 77.8162 198.21 77.6041 198.426C77.392 198.642 77.1098 198.826 76.7575 198.977C76.4053 199.129 75.9753 199.205 75.4678 199.205ZM75.6723 198C76.2026 198 76.6496 197.896 77.0132 197.688C77.3806 197.479 77.6571 197.21 77.8428 196.881C78.0321 196.551 78.1268 196.205 78.1268 195.841V194.614C78.07 194.682 77.945 194.744 77.7518 194.801C77.5625 194.854 77.3428 194.902 77.0928 194.943C76.8465 194.981 76.606 195.015 76.3712 195.045C76.1401 195.072 75.9526 195.095 75.8087 195.114C75.4602 195.159 75.1344 195.233 74.8314 195.335C74.5321 195.434 74.2897 195.583 74.1041 195.784C73.9223 195.981 73.8314 196.25 73.8314 196.591C73.8314 197.057 74.0037 197.409 74.3484 197.648C74.6969 197.883 75.1382 198 75.6723 198ZM85.1407 199.182C84.3225 199.182 83.6179 198.989 83.027 198.602C82.4361 198.216 81.9816 197.684 81.6634 197.006C81.3452 196.328 81.1861 195.553 81.1861 194.682C81.1861 193.795 81.349 193.013 81.6747 192.335C82.0043 191.653 82.4626 191.121 83.0497 190.739C83.6407 190.352 84.33 190.159 85.1179 190.159C85.7316 190.159 86.2846 190.273 86.777 190.5C87.2694 190.727 87.6729 191.045 87.9872 191.455C88.3016 191.864 88.4967 192.341 88.5725 192.886H87.2316C87.1293 192.489 86.902 192.136 86.5497 191.83C86.2013 191.519 85.7316 191.364 85.1407 191.364C84.6179 191.364 84.1596 191.5 83.7657 191.773C83.3755 192.042 83.0706 192.422 82.8509 192.915C82.635 193.403 82.527 193.977 82.527 194.636C82.527 195.311 82.6331 195.898 82.8452 196.398C83.0611 196.898 83.3641 197.286 83.7543 197.562C84.1482 197.839 84.6104 197.977 85.1407 197.977C85.4891 197.977 85.8054 197.917 86.0895 197.795C86.3736 197.674 86.6141 197.5 86.8111 197.273C87.0081 197.045 87.1482 196.773 87.2316 196.455H88.5725C88.4967 196.97 88.3092 197.434 88.01 197.847C87.7145 198.256 87.3225 198.581 86.8338 198.824C86.349 199.062 85.7846 199.182 85.1407 199.182ZM91.5536 193.75V199H90.2127V187.364H91.5536V191.636H91.6672C91.8718 191.186 92.1786 190.828 92.5877 190.562C93.0006 190.294 93.5498 190.159 94.2354 190.159C94.8301 190.159 95.351 190.278 95.7979 190.517C96.2449 190.752 96.5915 191.114 96.8377 191.602C97.0877 192.087 97.2127 192.705 97.2127 193.455V199H95.8718V193.545C95.8718 192.852 95.6919 192.316 95.332 191.938C94.976 191.555 94.4816 191.364 93.8491 191.364C93.4097 191.364 93.0157 191.456 92.6672 191.642C92.3225 191.828 92.0498 192.098 91.8491 192.455C91.6521 192.811 91.5536 193.242 91.5536 193.75ZM103.005 199.182C102.164 199.182 101.439 198.996 100.829 198.625C100.223 198.25 99.7549 197.727 99.4254 197.057C99.0996 196.383 98.9367 195.598 98.9367 194.705C98.9367 193.811 99.0996 193.023 99.4254 192.341C99.7549 191.655 100.213 191.121 100.801 190.739C101.391 190.352 102.081 190.159 102.869 190.159C103.323 190.159 103.772 190.235 104.215 190.386C104.659 190.538 105.062 190.784 105.426 191.125C105.789 191.462 106.079 191.909 106.295 192.466C106.511 193.023 106.619 193.708 106.619 194.523V195.091H99.8913V193.932H105.255C105.255 193.439 105.157 193 104.96 192.614C104.766 192.227 104.49 191.922 104.13 191.699C103.774 191.475 103.354 191.364 102.869 191.364C102.335 191.364 101.873 191.496 101.482 191.761C101.096 192.023 100.799 192.364 100.59 192.784C100.382 193.205 100.278 193.655 100.278 194.136V194.909C100.278 195.568 100.391 196.127 100.619 196.585C100.85 197.04 101.17 197.386 101.579 197.625C101.988 197.86 102.463 197.977 103.005 197.977C103.357 197.977 103.676 197.928 103.96 197.83C104.248 197.727 104.496 197.576 104.704 197.375C104.912 197.17 105.073 196.917 105.187 196.614L106.482 196.977C106.346 197.417 106.117 197.803 105.795 198.136C105.473 198.466 105.075 198.723 104.602 198.909C104.128 199.091 103.596 199.182 103.005 199.182ZM108.339 199V190.273H109.634V191.591H109.725C109.884 191.159 110.172 190.809 110.589 190.54C111.005 190.271 111.475 190.136 111.998 190.136C112.096 190.136 112.219 190.138 112.367 190.142C112.515 190.146 112.626 190.152 112.702 190.159V191.523C112.657 191.511 112.553 191.494 112.39 191.472C112.231 191.445 112.062 191.432 111.884 191.432C111.46 191.432 111.081 191.521 110.748 191.699C110.418 191.873 110.157 192.116 109.964 192.426C109.774 192.733 109.679 193.083 109.679 193.477V199H108.339ZM120.153 192.227L118.949 192.568C118.873 192.367 118.761 192.172 118.614 191.983C118.47 191.79 118.273 191.631 118.023 191.506C117.773 191.381 117.453 191.318 117.063 191.318C116.528 191.318 116.083 191.441 115.727 191.688C115.375 191.93 115.199 192.239 115.199 192.614C115.199 192.947 115.32 193.21 115.563 193.403C115.805 193.597 116.184 193.758 116.699 193.886L117.994 194.205C118.775 194.394 119.356 194.684 119.739 195.074C120.121 195.46 120.313 195.958 120.313 196.568C120.313 197.068 120.169 197.515 119.881 197.909C119.597 198.303 119.199 198.614 118.688 198.841C118.176 199.068 117.581 199.182 116.903 199.182C116.013 199.182 115.277 198.989 114.693 198.602C114.11 198.216 113.741 197.652 113.585 196.909L114.858 196.591C114.979 197.061 115.208 197.413 115.546 197.648C115.886 197.883 116.331 198 116.881 198C117.506 198 118.002 197.867 118.369 197.602C118.741 197.333 118.926 197.011 118.926 196.636C118.926 196.333 118.82 196.08 118.608 195.875C118.396 195.667 118.07 195.511 117.631 195.409L116.176 195.068C115.377 194.879 114.79 194.585 114.415 194.188C114.044 193.786 113.858 193.284 113.858 192.682C113.858 192.189 113.996 191.754 114.273 191.375C114.553 190.996 114.934 190.699 115.415 190.483C115.9 190.267 116.449 190.159 117.063 190.159C117.926 190.159 118.604 190.348 119.097 190.727C119.593 191.106 119.945 191.606 120.153 192.227Z" fill="url(#paint5_linear_1_1876)"/>
<path d="M55.4092 235.364H57.091L61.0456 245.023H61.1819L65.1365 235.364H66.8183V247H65.5001V238.159H65.3865L61.7501 247H60.4774L56.841 238.159H56.7274V247H55.4092V235.364ZM71.7099 247.205C71.1569 247.205 70.655 247.1 70.2042 246.892C69.7535 246.68 69.3955 246.375 69.1304 245.977C68.8652 245.576 68.7327 245.091 68.7327 244.523C68.7327 244.023 68.8311 243.617 69.0281 243.307C69.2251 242.992 69.4883 242.746 69.8179 242.568C70.1474 242.39 70.5111 242.258 70.9088 242.17C71.3103 242.08 71.7137 242.008 72.119 241.955C72.6493 241.886 73.0792 241.835 73.4088 241.801C73.7421 241.763 73.9846 241.701 74.1361 241.614C74.2914 241.527 74.369 241.375 74.369 241.159V241.114C74.369 240.553 74.2156 240.117 73.9088 239.807C73.6058 239.496 73.1455 239.341 72.5281 239.341C71.888 239.341 71.3861 239.481 71.0224 239.761C70.6588 240.042 70.4031 240.341 70.2554 240.659L68.9827 240.205C69.2099 239.674 69.513 239.261 69.8917 238.966C70.2743 238.667 70.691 238.458 71.1417 238.341C71.5963 238.22 72.0433 238.159 72.4827 238.159C72.763 238.159 73.0849 238.193 73.4486 238.261C73.816 238.326 74.1702 238.46 74.5111 238.665C74.8558 238.869 75.1417 239.178 75.369 239.591C75.5963 240.004 75.7099 240.557 75.7099 241.25V247H74.369V245.818H74.3008C74.2099 246.008 74.0584 246.21 73.8463 246.426C73.6342 246.642 73.352 246.826 72.9997 246.977C72.6474 247.129 72.2175 247.205 71.7099 247.205ZM71.9145 246C72.4448 246 72.8917 245.896 73.2554 245.688C73.6228 245.479 73.8993 245.21 74.0849 244.881C74.2743 244.551 74.369 244.205 74.369 243.841V242.614C74.3122 242.682 74.1872 242.744 73.994 242.801C73.8046 242.854 73.5849 242.902 73.3349 242.943C73.0887 242.981 72.8482 243.015 72.6133 243.045C72.3823 243.072 72.1948 243.095 72.0508 243.114C71.7024 243.159 71.3766 243.233 71.0736 243.335C70.7743 243.434 70.5319 243.583 70.3463 243.784C70.1645 243.981 70.0736 244.25 70.0736 244.591C70.0736 245.057 70.2459 245.409 70.5906 245.648C70.9391 245.883 71.3804 246 71.9145 246ZM79.1783 241.75V247H77.8374V238.273H79.1328V239.636H79.2465C79.451 239.193 79.7616 238.837 80.1783 238.568C80.5949 238.295 81.1328 238.159 81.7919 238.159C82.3828 238.159 82.8999 238.28 83.3431 238.523C83.7862 238.761 84.1309 239.125 84.3771 239.614C84.6234 240.098 84.7465 240.712 84.7465 241.455V247H83.4056V241.545C83.4056 240.86 83.2275 240.326 82.8715 239.943C82.5154 239.557 82.0268 239.364 81.4056 239.364C80.9775 239.364 80.5949 239.456 80.2578 239.642C79.9245 239.828 79.6612 240.098 79.4681 240.455C79.2749 240.811 79.1783 241.242 79.1783 241.75ZM89.4449 247.205C88.8919 247.205 88.39 247.1 87.9392 246.892C87.4885 246.68 87.1305 246.375 86.8654 245.977C86.6002 245.576 86.4677 245.091 86.4677 244.523C86.4677 244.023 86.5661 243.617 86.7631 243.307C86.9601 242.992 87.2233 242.746 87.5529 242.568C87.8824 242.39 88.2461 242.258 88.6438 242.17C89.0453 242.08 89.4487 242.008 89.854 241.955C90.3843 241.886 90.8142 241.835 91.1438 241.801C91.4771 241.763 91.7196 241.701 91.8711 241.614C92.0264 241.527 92.104 241.375 92.104 241.159V241.114C92.104 240.553 91.9506 240.117 91.6438 239.807C91.3408 239.496 90.8805 239.341 90.2631 239.341C89.623 239.341 89.1211 239.481 88.7574 239.761C88.3938 240.042 88.1381 240.341 87.9904 240.659L86.7177 240.205C86.9449 239.674 87.248 239.261 87.6267 238.966C88.0093 238.667 88.426 238.458 88.8767 238.341C89.3313 238.22 89.7783 238.159 90.2177 238.159C90.498 238.159 90.8199 238.193 91.1836 238.261C91.551 238.326 91.9052 238.46 92.2461 238.665C92.5908 238.869 92.8767 239.178 93.104 239.591C93.3313 240.004 93.4449 240.557 93.4449 241.25V247H92.104V245.818H92.0358C91.9449 246.008 91.7934 246.21 91.5813 246.426C91.3692 246.642 91.087 246.826 90.7347 246.977C90.3824 247.129 89.9525 247.205 89.4449 247.205ZM89.6495 246C90.1798 246 90.6267 245.896 90.9904 245.688C91.3578 245.479 91.6343 245.21 91.8199 244.881C92.0093 244.551 92.104 244.205 92.104 243.841V242.614C92.0472 242.682 91.9222 242.744 91.729 242.801C91.5396 242.854 91.3199 242.902 91.0699 242.943C90.8237 242.981 90.5832 243.015 90.3483 243.045C90.1173 243.072 89.9298 243.095 89.7858 243.114C89.4374 243.159 89.1116 243.233 88.8086 243.335C88.5093 243.434 88.2669 243.583 88.0813 243.784C87.8995 243.981 87.8086 244.25 87.8086 244.591C87.8086 245.057 87.9809 245.409 88.3256 245.648C88.6741 245.883 89.1154 246 89.6495 246ZM99.0951 250.455C98.4474 250.455 97.8906 250.371 97.4246 250.205C96.9587 250.042 96.5705 249.826 96.2599 249.557C95.9531 249.292 95.7087 249.008 95.5269 248.705L96.5951 247.955C96.7163 248.114 96.8697 248.295 97.0553 248.5C97.2409 248.708 97.4947 248.888 97.8167 249.04C98.1424 249.195 98.5686 249.273 99.0951 249.273C99.7996 249.273 100.381 249.102 100.839 248.761C101.298 248.42 101.527 247.886 101.527 247.159V245.386H101.413C101.315 245.545 101.175 245.742 100.993 245.977C100.815 246.208 100.557 246.415 100.22 246.597C99.8868 246.775 99.436 246.864 98.8678 246.864C98.1633 246.864 97.5307 246.697 96.9701 246.364C96.4133 246.03 95.972 245.545 95.6462 244.909C95.3243 244.273 95.1633 243.5 95.1633 242.591C95.1633 241.697 95.3205 240.919 95.6349 240.256C95.9493 239.589 96.3868 239.074 96.9474 238.71C97.508 238.343 98.1557 238.159 98.8906 238.159C99.4587 238.159 99.9095 238.254 100.243 238.443C100.58 238.629 100.837 238.841 101.015 239.08C101.197 239.314 101.337 239.508 101.436 239.659H101.572V238.273H102.868V247.25C102.868 248 102.697 248.61 102.356 249.08C102.019 249.553 101.565 249.9 100.993 250.119C100.425 250.343 99.7921 250.455 99.0951 250.455ZM99.0496 245.659C99.5875 245.659 100.042 245.536 100.413 245.29C100.784 245.044 101.067 244.689 101.26 244.227C101.453 243.765 101.55 243.212 101.55 242.568C101.55 241.939 101.455 241.384 101.265 240.903C101.076 240.422 100.796 240.045 100.425 239.773C100.053 239.5 99.5951 239.364 99.0496 239.364C98.4815 239.364 98.008 239.508 97.6292 239.795C97.2542 240.083 96.972 240.47 96.7826 240.955C96.597 241.439 96.5042 241.977 96.5042 242.568C96.5042 243.174 96.5989 243.71 96.7883 244.176C96.9815 244.638 97.2656 245.002 97.6406 245.267C98.0193 245.528 98.489 245.659 99.0496 245.659ZM108.661 247.182C107.82 247.182 107.095 246.996 106.485 246.625C105.879 246.25 105.411 245.727 105.082 245.057C104.756 244.383 104.593 243.598 104.593 242.705C104.593 241.811 104.756 241.023 105.082 240.341C105.411 239.655 105.87 239.121 106.457 238.739C107.048 238.352 107.737 238.159 108.525 238.159C108.98 238.159 109.428 238.235 109.872 238.386C110.315 238.538 110.718 238.784 111.082 239.125C111.445 239.462 111.735 239.909 111.951 240.466C112.167 241.023 112.275 241.708 112.275 242.523V243.091H105.548V241.932H110.911C110.911 241.439 110.813 241 110.616 240.614C110.423 240.227 110.146 239.922 109.786 239.699C109.43 239.475 109.01 239.364 108.525 239.364C107.991 239.364 107.529 239.496 107.139 239.761C106.752 240.023 106.455 240.364 106.247 240.784C106.038 241.205 105.934 241.655 105.934 242.136V242.909C105.934 243.568 106.048 244.127 106.275 244.585C106.506 245.04 106.826 245.386 107.235 245.625C107.644 245.86 108.12 245.977 108.661 245.977C109.014 245.977 109.332 245.928 109.616 245.83C109.904 245.727 110.152 245.576 110.36 245.375C110.569 245.17 110.73 244.917 110.843 244.614L112.139 244.977C112.002 245.417 111.773 245.803 111.451 246.136C111.129 246.466 110.731 246.723 110.258 246.909C109.784 247.091 109.252 247.182 108.661 247.182ZM113.995 247V238.273H115.29V239.591H115.381C115.54 239.159 115.828 238.809 116.245 238.54C116.661 238.271 117.131 238.136 117.654 238.136C117.752 238.136 117.875 238.138 118.023 238.142C118.171 238.146 118.283 238.152 118.358 238.159V239.523C118.313 239.511 118.209 239.494 118.046 239.472C117.887 239.445 117.718 239.432 117.54 239.432C117.116 239.432 116.737 239.521 116.404 239.699C116.074 239.873 115.813 240.116 115.62 240.426C115.43 240.733 115.336 241.083 115.336 241.477V247H113.995ZM125.81 240.227L124.605 240.568C124.529 240.367 124.418 240.172 124.27 239.983C124.126 239.79 123.929 239.631 123.679 239.506C123.429 239.381 123.109 239.318 122.719 239.318C122.185 239.318 121.74 239.441 121.384 239.688C121.031 239.93 120.855 240.239 120.855 240.614C120.855 240.947 120.976 241.21 121.219 241.403C121.461 241.597 121.84 241.758 122.355 241.886L123.651 242.205C124.431 242.394 125.012 242.684 125.395 243.074C125.778 243.46 125.969 243.958 125.969 244.568C125.969 245.068 125.825 245.515 125.537 245.909C125.253 246.303 124.855 246.614 124.344 246.841C123.832 247.068 123.238 247.182 122.56 247.182C121.67 247.182 120.933 246.989 120.349 246.602C119.766 246.216 119.397 245.652 119.242 244.909L120.514 244.591C120.635 245.061 120.865 245.413 121.202 245.648C121.543 245.883 121.988 246 122.537 246C123.162 246 123.658 245.867 124.026 245.602C124.397 245.333 124.582 245.011 124.582 244.636C124.582 244.333 124.476 244.08 124.264 243.875C124.052 243.667 123.726 243.511 123.287 243.409L121.832 243.068C121.033 242.879 120.446 242.585 120.071 242.188C119.7 241.786 119.514 241.284 119.514 240.682C119.514 240.189 119.653 239.754 119.929 239.375C120.209 238.996 120.59 238.699 121.071 238.483C121.556 238.267 122.105 238.159 122.719 238.159C123.582 238.159 124.26 238.348 124.753 238.727C125.249 239.106 125.601 239.606 125.81 240.227Z" fill="url(#paint6_linear_1_1876)"/>
<path d="M24 120.5H378" stroke="#292929"/>
<path d="M24 168.5H378" stroke="#292929"/>
<path d="M24 216.5H378" stroke="#292929"/>
<path d="M192.636 104.455V89.9092H193.568V104.455H192.636ZM195.773 94.2728C195.705 93.6971 195.428 93.2501 194.943 92.9319C194.458 92.6137 193.864 92.4546 193.159 92.4546C192.644 92.4546 192.193 92.538 191.807 92.7046C191.424 92.8713 191.125 93.1005 190.909 93.3921C190.697 93.6838 190.591 94.0153 190.591 94.3865C190.591 94.6971 190.665 94.9641 190.812 95.1876C190.964 95.4073 191.157 95.591 191.392 95.7387C191.627 95.8827 191.873 96.002 192.131 96.0967C192.388 96.1876 192.625 96.2615 192.841 96.3183L194.023 96.6365C194.326 96.716 194.663 96.8259 195.034 96.966C195.409 97.1062 195.767 97.2974 196.108 97.5399C196.453 97.7785 196.737 98.0853 196.96 98.4603C197.184 98.8353 197.295 99.2956 197.295 99.841C197.295 100.47 197.131 101.038 196.801 101.545C196.475 102.053 195.998 102.456 195.369 102.756C194.744 103.055 193.985 103.205 193.091 103.205C192.258 103.205 191.536 103.07 190.926 102.801C190.32 102.532 189.843 102.157 189.494 101.676C189.15 101.195 188.955 100.636 188.909 100H190.364C190.402 100.439 190.549 100.803 190.807 101.091C191.068 101.375 191.398 101.587 191.795 101.727C192.197 101.864 192.629 101.932 193.091 101.932C193.629 101.932 194.112 101.845 194.54 101.67C194.968 101.492 195.307 101.246 195.557 100.932C195.807 100.614 195.932 100.242 195.932 99.8183C195.932 99.4319 195.824 99.1175 195.608 98.8751C195.392 98.6327 195.108 98.4357 194.756 98.2842C194.403 98.1327 194.023 98.0001 193.614 97.8865L192.182 97.4774C191.273 97.216 190.553 96.8429 190.023 96.3581C189.492 95.8732 189.227 95.2387 189.227 94.4546C189.227 93.8031 189.403 93.2349 189.756 92.7501C190.112 92.2615 190.589 91.8827 191.188 91.6137C191.79 91.341 192.462 91.2046 193.205 91.2046C193.955 91.2046 194.621 91.3391 195.205 91.6081C195.788 91.8732 196.25 92.2368 196.591 92.699C196.936 93.1611 197.117 93.6857 197.136 94.2728H195.773ZM199.088 103V101.977L202.929 97.7728C203.379 97.2804 203.751 96.8524 204.042 96.4887C204.334 96.1213 204.55 95.7766 204.69 95.4546C204.834 95.1289 204.906 94.788 204.906 94.4319C204.906 94.0228 204.807 93.6687 204.61 93.3694C204.417 93.0702 204.152 92.8391 203.815 92.6762C203.478 92.5134 203.099 92.4319 202.679 92.4319C202.232 92.4319 201.841 92.5247 201.508 92.7103C201.179 92.8921 200.923 93.1478 200.741 93.4774C200.563 93.8069 200.474 94.1933 200.474 94.6365H199.133C199.133 93.9546 199.29 93.3562 199.605 92.841C199.919 92.3259 200.347 91.9243 200.889 91.6365C201.434 91.3486 202.046 91.2046 202.724 91.2046C203.406 91.2046 204.01 91.3486 204.537 91.6365C205.063 91.9243 205.476 92.3126 205.775 92.8012C206.074 93.2899 206.224 93.8334 206.224 94.4319C206.224 94.8599 206.146 95.2785 205.991 95.6876C205.84 96.0929 205.574 96.5456 205.196 97.0456C204.821 97.5418 204.3 98.1478 203.633 98.8637L201.019 101.659V101.75H206.429V103H199.088ZM210.478 101.409L210.387 102.023C210.323 102.455 210.224 102.917 210.092 103.409C209.963 103.902 209.828 104.366 209.688 104.801C209.548 105.237 209.432 105.583 209.342 105.841H208.319C208.368 105.598 208.432 105.278 208.512 104.881C208.592 104.483 208.671 104.038 208.751 103.545C208.834 103.057 208.902 102.557 208.955 102.045L209.023 101.409H210.478ZM216.022 103.159C215.355 103.159 214.754 103.027 214.22 102.761C213.686 102.496 213.258 102.133 212.936 101.67C212.614 101.208 212.438 100.682 212.408 100.091H213.772C213.825 100.617 214.063 101.053 214.487 101.398C214.915 101.739 215.427 101.909 216.022 101.909C216.499 101.909 216.923 101.797 217.294 101.574C217.669 101.35 217.963 101.044 218.175 100.653C218.391 100.259 218.499 99.8145 218.499 99.3183C218.499 98.8107 218.387 98.3581 218.164 97.9603C217.944 97.5588 217.641 97.2425 217.254 97.0115C216.868 96.7804 216.427 96.663 215.931 96.6592C215.575 96.6554 215.209 96.7103 214.834 96.824C214.459 96.9338 214.15 97.0759 213.908 97.2501L212.59 97.091L213.294 91.3637H219.34V92.6137H214.476L214.067 96.0456H214.135C214.374 95.8562 214.673 95.699 215.033 95.574C215.393 95.449 215.768 95.3865 216.158 95.3865C216.87 95.3865 217.504 95.5569 218.061 95.8978C218.622 96.2349 219.061 96.6971 219.379 97.2842C219.701 97.8713 219.862 98.5418 219.862 99.2956C219.862 100.038 219.696 100.701 219.362 101.284C219.033 101.864 218.578 102.322 217.999 102.659C217.419 102.992 216.76 103.159 216.022 103.159ZM221.527 100.614V99.4546L226.64 91.3637H227.481V93.1592H226.913L223.05 99.2728V99.3637H229.936V100.614H221.527ZM227.004 103V100.261V99.7217V91.3637H228.345V103H227.004ZM232.109 103L237.313 92.7046V92.6137H231.313V91.3637H238.768V92.6819L233.586 103H232.109Z" fill="#646464"/>
<path d="M330.636 100.955V93.4546H331.909V100.955H330.636ZM327.523 97.841V96.5683H335.023V97.841H327.523ZM341.176 103.159C340.426 103.159 339.757 103.03 339.17 102.773C338.587 102.515 338.123 102.157 337.778 101.699C337.437 101.237 337.251 100.701 337.221 100.091H338.653C338.683 100.466 338.812 100.79 339.039 101.062C339.267 101.331 339.564 101.54 339.931 101.688C340.299 101.835 340.706 101.909 341.153 101.909C341.653 101.909 342.096 101.822 342.483 101.648C342.869 101.473 343.172 101.231 343.392 100.92C343.611 100.61 343.721 100.25 343.721 99.841C343.721 99.413 343.615 99.0361 343.403 98.7103C343.191 98.3808 342.88 98.1232 342.471 97.9376C342.062 97.752 341.562 97.6592 340.971 97.6592H340.039V96.4092H340.971C341.433 96.4092 341.839 96.3259 342.187 96.1592C342.539 95.9925 342.814 95.7577 343.011 95.4546C343.212 95.1516 343.312 94.7956 343.312 94.3865C343.312 93.9925 343.225 93.6497 343.051 93.3581C342.876 93.0664 342.63 92.8391 342.312 92.6762C341.998 92.5134 341.626 92.4319 341.198 92.4319C340.797 92.4319 340.418 92.5058 340.062 92.6535C339.71 92.7974 339.422 93.0077 339.198 93.2842C338.975 93.5569 338.854 93.8865 338.835 94.2728H337.471C337.494 93.663 337.678 93.1289 338.022 92.6706C338.367 92.2084 338.818 91.8486 339.375 91.591C339.935 91.3334 340.551 91.2046 341.221 91.2046C341.941 91.2046 342.558 91.3505 343.073 91.6421C343.589 91.93 343.984 92.3107 344.261 92.7842C344.537 93.2577 344.676 93.769 344.676 94.3183C344.676 94.9736 344.503 95.5323 344.159 95.9944C343.818 96.4565 343.354 96.7766 342.767 96.9546V97.0456C343.501 97.1668 344.075 97.4793 344.488 97.9831C344.901 98.4831 345.108 99.1024 345.108 99.841C345.108 100.473 344.935 101.042 344.591 101.545C344.25 102.045 343.784 102.439 343.193 102.727C342.602 103.015 341.93 103.159 341.176 103.159ZM350.748 103.159C350.081 103.159 349.481 103.027 348.947 102.761C348.413 102.496 347.985 102.133 347.663 101.67C347.341 101.208 347.164 100.682 347.134 100.091H348.498C348.551 100.617 348.789 101.053 349.214 101.398C349.642 101.739 350.153 101.909 350.748 101.909C351.225 101.909 351.649 101.797 352.021 101.574C352.396 101.35 352.689 101.044 352.901 100.653C353.117 100.259 353.225 99.8145 353.225 99.3183C353.225 98.8107 353.113 98.3581 352.89 97.9603C352.67 97.5588 352.367 97.2425 351.981 97.0115C351.594 96.7804 351.153 96.663 350.657 96.6592C350.301 96.6554 349.935 96.7103 349.56 96.824C349.185 96.9338 348.877 97.0759 348.634 97.2501L347.316 97.091L348.021 91.3637H354.066V92.6137H349.202L348.793 96.0456H348.861C349.1 95.8562 349.399 95.699 349.759 95.574C350.119 95.449 350.494 95.3865 350.884 95.3865C351.596 95.3865 352.231 95.5569 352.788 95.8978C353.348 96.2349 353.788 96.6971 354.106 97.2842C354.428 97.8713 354.589 98.5418 354.589 99.2956C354.589 100.038 354.422 100.701 354.089 101.284C353.759 101.864 353.305 102.322 352.725 102.659C352.146 102.992 351.486 103.159 350.748 103.159ZM362.458 100.818V100.205C362.458 99.7804 362.545 99.3921 362.719 99.0399C362.897 98.6838 363.155 98.3997 363.492 98.1876C363.833 97.9717 364.245 97.8637 364.73 97.8637C365.223 97.8637 365.636 97.9717 365.969 98.1876C366.302 98.3997 366.554 98.6838 366.725 99.0399C366.895 99.3921 366.98 99.7804 366.98 100.205V100.818C366.98 101.242 366.893 101.633 366.719 101.989C366.549 102.341 366.295 102.625 365.958 102.841C365.624 103.053 365.215 103.159 364.73 103.159C364.238 103.159 363.823 103.053 363.486 102.841C363.149 102.625 362.893 102.341 362.719 101.989C362.545 101.633 362.458 101.242 362.458 100.818ZM363.617 100.205V100.818C363.617 101.17 363.7 101.487 363.867 101.767C364.033 102.044 364.321 102.182 364.73 102.182C365.128 102.182 365.408 102.044 365.571 101.767C365.738 101.487 365.821 101.17 365.821 100.818V100.205C365.821 99.8524 365.742 99.538 365.583 99.2615C365.424 98.9812 365.139 98.841 364.73 98.841C364.333 98.841 364.047 98.9812 363.872 99.2615C363.702 99.538 363.617 99.8524 363.617 100.205ZM356.662 94.1592V93.5456C356.662 93.1213 356.749 92.7331 356.924 92.3808C357.102 92.0247 357.359 91.7406 357.696 91.5285C358.037 91.3126 358.45 91.2046 358.935 91.2046C359.427 91.2046 359.84 91.3126 360.174 91.5285C360.507 91.7406 360.759 92.0247 360.929 92.3808C361.1 92.7331 361.185 93.1213 361.185 93.5456V94.1592C361.185 94.5834 361.098 94.9736 360.924 95.3296C360.753 95.6819 360.499 95.966 360.162 96.1819C359.829 96.394 359.42 96.5001 358.935 96.5001C358.442 96.5001 358.028 96.394 357.691 96.1819C357.353 95.966 357.098 95.6819 356.924 95.3296C356.749 94.9736 356.662 94.5834 356.662 94.1592ZM357.821 93.5456V94.1592C357.821 94.5115 357.905 94.8278 358.071 95.1081C358.238 95.3846 358.526 95.5228 358.935 95.5228C359.333 95.5228 359.613 95.3846 359.776 95.1081C359.942 94.8278 360.026 94.5115 360.026 94.1592V93.5456C360.026 93.1933 359.946 92.8789 359.787 92.6024C359.628 92.3221 359.344 92.1819 358.935 92.1819C358.537 92.1819 358.251 92.3221 358.077 92.6024C357.906 92.8789 357.821 93.1933 357.821 93.5456ZM357.094 103L365.094 91.3637H366.389L358.389 103H357.094Z" fill="white" fill-opacity="0.51"/>
<path d="M332.227 144.557V145.807H327.136V144.557H332.227ZM333.697 151V149.977L337.538 145.773C337.989 145.28 338.36 144.852 338.652 144.489C338.943 144.121 339.159 143.777 339.299 143.455C339.443 143.129 339.515 142.788 339.515 142.432C339.515 142.023 339.417 141.669 339.22 141.369C339.027 141.07 338.761 140.839 338.424 140.676C338.087 140.513 337.708 140.432 337.288 140.432C336.841 140.432 336.451 140.525 336.117 140.71C335.788 140.892 335.532 141.148 335.35 141.477C335.172 141.807 335.083 142.193 335.083 142.636H333.742C333.742 141.955 333.9 141.356 334.214 140.841C334.528 140.326 334.957 139.924 335.498 139.636C336.044 139.348 336.655 139.205 337.333 139.205C338.015 139.205 338.619 139.348 339.146 139.636C339.672 139.924 340.085 140.312 340.385 140.801C340.684 141.29 340.833 141.833 340.833 142.432C340.833 142.86 340.756 143.278 340.6 143.688C340.449 144.093 340.184 144.545 339.805 145.045C339.43 145.542 338.909 146.148 338.242 146.864L335.629 149.659V149.75H341.038V151H333.697ZM346.701 151.159C346.034 151.159 345.434 151.027 344.9 150.761C344.366 150.496 343.938 150.133 343.616 149.67C343.294 149.208 343.118 148.682 343.087 148.091H344.451C344.504 148.617 344.743 149.053 345.167 149.398C345.595 149.739 346.106 149.909 346.701 149.909C347.178 149.909 347.602 149.797 347.974 149.574C348.349 149.35 348.642 149.044 348.854 148.653C349.07 148.259 349.178 147.814 349.178 147.318C349.178 146.811 349.066 146.358 348.843 145.96C348.623 145.559 348.32 145.242 347.934 145.011C347.547 144.78 347.106 144.663 346.61 144.659C346.254 144.655 345.888 144.71 345.513 144.824C345.138 144.934 344.83 145.076 344.587 145.25L343.269 145.091L343.974 139.364H350.019V140.614H345.155L344.746 144.045H344.815C345.053 143.856 345.352 143.699 345.712 143.574C346.072 143.449 346.447 143.386 346.837 143.386C347.549 143.386 348.184 143.557 348.741 143.898C349.301 144.235 349.741 144.697 350.059 145.284C350.381 145.871 350.542 146.542 350.542 147.295C350.542 148.038 350.375 148.701 350.042 149.284C349.712 149.864 349.258 150.322 348.678 150.659C348.099 150.992 347.44 151.159 346.701 151.159ZM358.411 148.818V148.205C358.411 147.78 358.498 147.392 358.672 147.04C358.85 146.684 359.108 146.4 359.445 146.188C359.786 145.972 360.199 145.864 360.683 145.864C361.176 145.864 361.589 145.972 361.922 146.188C362.255 146.4 362.507 146.684 362.678 147.04C362.848 147.392 362.933 147.78 362.933 148.205V148.818C362.933 149.242 362.846 149.633 362.672 149.989C362.502 150.341 362.248 150.625 361.911 150.841C361.577 151.053 361.168 151.159 360.683 151.159C360.191 151.159 359.776 151.053 359.439 150.841C359.102 150.625 358.846 150.341 358.672 149.989C358.498 149.633 358.411 149.242 358.411 148.818ZM359.57 148.205V148.818C359.57 149.17 359.653 149.487 359.82 149.767C359.986 150.044 360.274 150.182 360.683 150.182C361.081 150.182 361.361 150.044 361.524 149.767C361.691 149.487 361.774 149.17 361.774 148.818V148.205C361.774 147.852 361.695 147.538 361.536 147.261C361.377 146.981 361.093 146.841 360.683 146.841C360.286 146.841 360 146.981 359.826 147.261C359.655 147.538 359.57 147.852 359.57 148.205ZM352.615 142.159V141.545C352.615 141.121 352.702 140.733 352.877 140.381C353.055 140.025 353.312 139.741 353.649 139.528C353.99 139.312 354.403 139.205 354.888 139.205C355.38 139.205 355.793 139.312 356.127 139.528C356.46 139.741 356.712 140.025 356.882 140.381C357.053 140.733 357.138 141.121 357.138 141.545V142.159C357.138 142.583 357.051 142.973 356.877 143.33C356.706 143.682 356.452 143.966 356.115 144.182C355.782 144.394 355.373 144.5 354.888 144.5C354.396 144.5 353.981 144.394 353.644 144.182C353.307 143.966 353.051 143.682 352.877 143.33C352.702 142.973 352.615 142.583 352.615 142.159ZM353.774 141.545V142.159C353.774 142.511 353.858 142.828 354.024 143.108C354.191 143.384 354.479 143.523 354.888 143.523C355.286 143.523 355.566 143.384 355.729 143.108C355.896 142.828 355.979 142.511 355.979 142.159V141.545C355.979 141.193 355.899 140.879 355.74 140.602C355.581 140.322 355.297 140.182 354.888 140.182C354.49 140.182 354.204 140.322 354.03 140.602C353.86 140.879 353.774 141.193 353.774 141.545ZM353.047 151L361.047 139.364H362.343L354.343 151H353.047Z" fill="white" fill-opacity="0.51"/>
<path d="M330.636 196.955V189.455H331.909V196.955H330.636ZM327.523 193.841V192.568H335.023V193.841H327.523ZM341.522 187.364V199H340.113V188.841H340.045L337.204 190.727V189.295L340.113 187.364H341.522ZM348.253 187.205C348.731 187.208 349.208 187.299 349.685 187.477C350.163 187.655 350.598 187.951 350.992 188.364C351.386 188.773 351.702 189.331 351.941 190.04C352.18 190.748 352.299 191.636 352.299 192.705C352.299 193.739 352.2 194.657 352.003 195.46C351.81 196.259 351.53 196.934 351.163 197.483C350.799 198.032 350.356 198.449 349.833 198.733C349.314 199.017 348.727 199.159 348.072 199.159C347.42 199.159 346.839 199.03 346.327 198.773C345.82 198.511 345.403 198.15 345.077 197.688C344.755 197.222 344.549 196.682 344.458 196.068H345.844C345.969 196.602 346.217 197.044 346.589 197.392C346.964 197.737 347.458 197.909 348.072 197.909C348.969 197.909 349.678 197.517 350.197 196.733C350.719 195.949 350.981 194.841 350.981 193.409H350.89C350.678 193.727 350.426 194.002 350.134 194.233C349.842 194.464 349.519 194.642 349.163 194.767C348.806 194.892 348.428 194.955 348.026 194.955C347.36 194.955 346.748 194.79 346.191 194.46C345.638 194.127 345.195 193.67 344.861 193.091C344.532 192.508 344.367 191.841 344.367 191.091C344.367 190.379 344.526 189.727 344.844 189.136C345.166 188.542 345.617 188.068 346.197 187.716C346.78 187.364 347.466 187.193 348.253 187.205ZM348.253 188.455C347.776 188.455 347.346 188.574 346.964 188.812C346.585 189.047 346.284 189.366 346.06 189.767C345.841 190.165 345.731 190.606 345.731 191.091C345.731 191.576 345.837 192.017 346.049 192.415C346.265 192.809 346.558 193.123 346.93 193.358C347.305 193.589 347.731 193.705 348.208 193.705C348.568 193.705 348.903 193.634 349.214 193.494C349.524 193.35 349.795 193.155 350.026 192.909C350.261 192.659 350.445 192.377 350.577 192.062C350.71 191.744 350.776 191.413 350.776 191.068C350.776 190.614 350.666 190.187 350.447 189.79C350.231 189.392 349.931 189.07 349.549 188.824C349.17 188.578 348.738 188.455 348.253 188.455ZM360.145 196.818V196.205C360.145 195.78 360.232 195.392 360.406 195.04C360.585 194.684 360.842 194.4 361.179 194.188C361.52 193.972 361.933 193.864 362.418 193.864C362.91 193.864 363.323 193.972 363.656 194.188C363.99 194.4 364.242 194.684 364.412 195.04C364.583 195.392 364.668 195.78 364.668 196.205V196.818C364.668 197.242 364.581 197.633 364.406 197.989C364.236 198.341 363.982 198.625 363.645 198.841C363.312 199.053 362.903 199.159 362.418 199.159C361.925 199.159 361.511 199.053 361.174 198.841C360.836 198.625 360.581 198.341 360.406 197.989C360.232 197.633 360.145 197.242 360.145 196.818ZM361.304 196.205V196.818C361.304 197.17 361.388 197.487 361.554 197.767C361.721 198.044 362.009 198.182 362.418 198.182C362.816 198.182 363.096 198.044 363.259 197.767C363.425 197.487 363.509 197.17 363.509 196.818V196.205C363.509 195.852 363.429 195.538 363.27 195.261C363.111 194.981 362.827 194.841 362.418 194.841C362.02 194.841 361.734 194.981 361.56 195.261C361.389 195.538 361.304 195.852 361.304 196.205ZM354.35 190.159V189.545C354.35 189.121 354.437 188.733 354.611 188.381C354.789 188.025 355.047 187.741 355.384 187.528C355.725 187.312 356.138 187.205 356.622 187.205C357.115 187.205 357.528 187.312 357.861 187.528C358.194 187.741 358.446 188.025 358.617 188.381C358.787 188.733 358.872 189.121 358.872 189.545V190.159C358.872 190.583 358.785 190.973 358.611 191.33C358.441 191.682 358.187 191.966 357.85 192.182C357.516 192.394 357.107 192.5 356.622 192.5C356.13 192.5 355.715 192.394 355.378 192.182C355.041 191.966 354.785 191.682 354.611 191.33C354.437 190.973 354.35 190.583 354.35 190.159ZM355.509 189.545V190.159C355.509 190.511 355.592 190.828 355.759 191.108C355.925 191.384 356.213 191.523 356.622 191.523C357.02 191.523 357.3 191.384 357.463 191.108C357.63 190.828 357.713 190.511 357.713 190.159V189.545C357.713 189.193 357.634 188.879 357.475 188.602C357.316 188.322 357.031 188.182 356.622 188.182C356.225 188.182 355.939 188.322 355.764 188.602C355.594 188.879 355.509 189.193 355.509 189.545ZM354.781 199L362.781 187.364H364.077L356.077 199H354.781Z" fill="white" fill-opacity="0.51"/>
<path d="M332.227 240.557V241.807H327.136V240.557H332.227ZM338.335 235.364V247H336.926V236.841H336.858L334.017 238.727V237.295L336.926 235.364H338.335ZM345.157 247.159C344.301 247.159 343.572 246.926 342.969 246.46C342.367 245.991 341.907 245.311 341.589 244.42C341.271 243.527 341.111 242.447 341.111 241.182C341.111 239.924 341.271 238.85 341.589 237.96C341.911 237.066 342.373 236.384 342.975 235.915C343.581 235.441 344.308 235.205 345.157 235.205C346.005 235.205 346.731 235.441 347.333 235.915C347.939 236.384 348.401 237.066 348.719 237.96C349.041 238.85 349.202 239.924 349.202 241.182C349.202 242.447 349.043 243.527 348.725 244.42C348.407 245.311 347.947 245.991 347.344 246.46C346.742 246.926 346.013 247.159 345.157 247.159ZM345.157 245.909C346.005 245.909 346.664 245.5 347.134 244.682C347.604 243.864 347.839 242.697 347.839 241.182C347.839 240.174 347.731 239.316 347.515 238.608C347.303 237.9 346.996 237.36 346.594 236.989C346.197 236.617 345.717 236.432 345.157 236.432C344.316 236.432 343.659 236.847 343.185 237.676C342.712 238.502 342.475 239.67 342.475 241.182C342.475 242.189 342.581 243.045 342.793 243.75C343.005 244.455 343.31 244.991 343.708 245.358C344.11 245.725 344.592 245.909 345.157 245.909ZM356.973 244.818V244.205C356.973 243.78 357.06 243.392 357.235 243.04C357.413 242.684 357.67 242.4 358.007 242.188C358.348 241.972 358.761 241.864 359.246 241.864C359.738 241.864 360.151 241.972 360.485 242.188C360.818 242.4 361.07 242.684 361.24 243.04C361.411 243.392 361.496 243.78 361.496 244.205V244.818C361.496 245.242 361.409 245.633 361.235 245.989C361.064 246.341 360.81 246.625 360.473 246.841C360.14 247.053 359.731 247.159 359.246 247.159C358.754 247.159 358.339 247.053 358.002 246.841C357.665 246.625 357.409 246.341 357.235 245.989C357.06 245.633 356.973 245.242 356.973 244.818ZM358.132 244.205V244.818C358.132 245.17 358.216 245.487 358.382 245.767C358.549 246.044 358.837 246.182 359.246 246.182C359.644 246.182 359.924 246.044 360.087 245.767C360.254 245.487 360.337 245.17 360.337 244.818V244.205C360.337 243.852 360.257 243.538 360.098 243.261C359.939 242.981 359.655 242.841 359.246 242.841C358.848 242.841 358.562 242.981 358.388 243.261C358.218 243.538 358.132 243.852 358.132 244.205ZM351.178 238.159V237.545C351.178 237.121 351.265 236.733 351.439 236.381C351.617 236.025 351.875 235.741 352.212 235.528C352.553 235.312 352.966 235.205 353.451 235.205C353.943 235.205 354.356 235.312 354.689 235.528C355.022 235.741 355.274 236.025 355.445 236.381C355.615 236.733 355.701 237.121 355.701 237.545V238.159C355.701 238.583 355.613 238.973 355.439 239.33C355.269 239.682 355.015 239.966 354.678 240.182C354.344 240.394 353.935 240.5 353.451 240.5C352.958 240.5 352.543 240.394 352.206 240.182C351.869 239.966 351.613 239.682 351.439 239.33C351.265 238.973 351.178 238.583 351.178 238.159ZM352.337 237.545V238.159C352.337 238.511 352.42 238.828 352.587 239.108C352.754 239.384 353.041 239.523 353.451 239.523C353.848 239.523 354.129 239.384 354.291 239.108C354.458 238.828 354.541 238.511 354.541 238.159V237.545C354.541 237.193 354.462 236.879 354.303 236.602C354.144 236.322 353.86 236.182 353.451 236.182C353.053 236.182 352.767 236.322 352.593 236.602C352.422 236.879 352.337 237.193 352.337 237.545ZM351.61 247L359.61 235.364H360.905L352.905 247H351.61Z" fill="white" fill-opacity="0.51"/>
<path d="M192.636 152.455V137.909H193.568V152.455H192.636ZM195.773 142.273C195.705 141.697 195.428 141.25 194.943 140.932C194.458 140.614 193.864 140.455 193.159 140.455C192.644 140.455 192.193 140.538 191.807 140.705C191.424 140.871 191.125 141.1 190.909 141.392C190.697 141.684 190.591 142.015 190.591 142.386C190.591 142.697 190.665 142.964 190.812 143.188C190.964 143.407 191.157 143.591 191.392 143.739C191.627 143.883 191.873 144.002 192.131 144.097C192.388 144.187 192.625 144.261 192.841 144.318L194.023 144.636C194.326 144.716 194.663 144.826 195.034 144.966C195.409 145.106 195.767 145.297 196.108 145.54C196.453 145.778 196.737 146.085 196.96 146.46C197.184 146.835 197.295 147.295 197.295 147.841C197.295 148.47 197.131 149.038 196.801 149.545C196.475 150.053 195.998 150.456 195.369 150.756C194.744 151.055 193.985 151.205 193.091 151.205C192.258 151.205 191.536 151.07 190.926 150.801C190.32 150.532 189.843 150.157 189.494 149.676C189.15 149.195 188.955 148.636 188.909 148H190.364C190.402 148.439 190.549 148.803 190.807 149.091C191.068 149.375 191.398 149.587 191.795 149.727C192.197 149.864 192.629 149.932 193.091 149.932C193.629 149.932 194.112 149.845 194.54 149.67C194.968 149.492 195.307 149.246 195.557 148.932C195.807 148.614 195.932 148.242 195.932 147.818C195.932 147.432 195.824 147.117 195.608 146.875C195.392 146.633 195.108 146.436 194.756 146.284C194.403 146.133 194.023 146 193.614 145.886L192.182 145.477C191.273 145.216 190.553 144.843 190.023 144.358C189.492 143.873 189.227 143.239 189.227 142.455C189.227 141.803 189.403 141.235 189.756 140.75C190.112 140.261 190.589 139.883 191.188 139.614C191.79 139.341 192.462 139.205 193.205 139.205C193.955 139.205 194.621 139.339 195.205 139.608C195.788 139.873 196.25 140.237 196.591 140.699C196.936 141.161 197.117 141.686 197.136 142.273H195.773ZM202.951 151.159C202.474 151.152 201.997 151.061 201.519 150.886C201.042 150.712 200.607 150.419 200.213 150.006C199.819 149.589 199.502 149.027 199.264 148.318C199.025 147.606 198.906 146.712 198.906 145.636C198.906 144.606 199.002 143.693 199.196 142.898C199.389 142.098 199.669 141.426 200.037 140.881C200.404 140.331 200.847 139.915 201.366 139.631C201.889 139.347 202.478 139.205 203.133 139.205C203.785 139.205 204.364 139.335 204.872 139.597C205.383 139.854 205.8 140.214 206.122 140.676C206.444 141.138 206.652 141.67 206.747 142.273H205.36C205.232 141.75 204.982 141.316 204.61 140.972C204.239 140.627 203.747 140.455 203.133 140.455C202.232 140.455 201.521 140.847 201.002 141.631C200.487 142.415 200.228 143.515 200.224 144.932H200.315C200.527 144.61 200.779 144.335 201.071 144.108C201.366 143.877 201.692 143.699 202.048 143.574C202.404 143.449 202.781 143.386 203.179 143.386C203.845 143.386 204.455 143.553 205.008 143.886C205.561 144.216 206.004 144.672 206.338 145.256C206.671 145.835 206.838 146.5 206.838 147.25C206.838 147.97 206.677 148.629 206.355 149.227C206.033 149.822 205.58 150.295 204.997 150.648C204.417 150.996 203.735 151.167 202.951 151.159ZM202.951 149.909C203.429 149.909 203.857 149.79 204.235 149.551C204.618 149.312 204.919 148.992 205.139 148.591C205.362 148.189 205.474 147.742 205.474 147.25C205.474 146.769 205.366 146.331 205.15 145.938C204.938 145.54 204.644 145.223 204.269 144.989C203.898 144.754 203.474 144.636 202.997 144.636C202.637 144.636 202.302 144.708 201.991 144.852C201.68 144.992 201.408 145.186 201.173 145.432C200.942 145.678 200.76 145.96 200.627 146.278C200.495 146.593 200.429 146.924 200.429 147.273C200.429 147.735 200.537 148.167 200.752 148.568C200.972 148.97 201.271 149.294 201.65 149.54C202.033 149.786 202.466 149.909 202.951 149.909ZM210.228 149.409L210.137 150.023C210.073 150.455 209.974 150.917 209.842 151.409C209.713 151.902 209.578 152.366 209.438 152.801C209.298 153.237 209.182 153.583 209.092 153.841H208.069C208.118 153.598 208.182 153.278 208.262 152.881C208.342 152.483 208.421 152.038 208.501 151.545C208.584 151.057 208.652 150.557 208.705 150.045L208.773 149.409H210.228ZM215.827 151.159C215.35 151.152 214.872 151.061 214.395 150.886C213.918 150.712 213.482 150.419 213.088 150.006C212.694 149.589 212.378 149.027 212.139 148.318C211.901 147.606 211.781 146.712 211.781 145.636C211.781 144.606 211.878 143.693 212.071 142.898C212.264 142.098 212.545 141.426 212.912 140.881C213.28 140.331 213.723 139.915 214.242 139.631C214.764 139.347 215.353 139.205 216.009 139.205C216.66 139.205 217.24 139.335 217.747 139.597C218.259 139.854 218.675 140.214 218.997 140.676C219.319 141.138 219.528 141.67 219.622 142.273H218.236C218.107 141.75 217.857 141.316 217.486 140.972C217.115 140.627 216.622 140.455 216.009 140.455C215.107 140.455 214.397 140.847 213.878 141.631C213.363 142.415 213.103 143.515 213.1 144.932H213.191C213.403 144.61 213.655 144.335 213.946 144.108C214.242 143.877 214.567 143.699 214.924 143.574C215.28 143.449 215.656 143.386 216.054 143.386C216.721 143.386 217.331 143.553 217.884 143.886C218.437 144.216 218.88 144.672 219.213 145.256C219.547 145.835 219.713 146.5 219.713 147.25C219.713 147.97 219.552 148.629 219.23 149.227C218.908 149.822 218.456 150.295 217.872 150.648C217.293 150.996 216.611 151.167 215.827 151.159ZM215.827 149.909C216.304 149.909 216.732 149.79 217.111 149.551C217.494 149.312 217.795 148.992 218.014 148.591C218.238 148.189 218.35 147.742 218.35 147.25C218.35 146.769 218.242 146.331 218.026 145.938C217.814 145.54 217.52 145.223 217.145 144.989C216.774 144.754 216.35 144.636 215.872 144.636C215.513 144.636 215.177 144.708 214.867 144.852C214.556 144.992 214.283 145.186 214.049 145.432C213.817 145.678 213.636 145.96 213.503 146.278C213.37 146.593 213.304 146.924 213.304 147.273C213.304 147.735 213.412 148.167 213.628 148.568C213.848 148.97 214.147 149.294 214.526 149.54C214.908 149.786 215.342 149.909 215.827 149.909ZM225.355 151.159C224.575 151.159 223.885 151.021 223.287 150.744C222.692 150.464 222.228 150.08 221.895 149.591C221.561 149.098 221.397 148.538 221.4 147.909C221.397 147.417 221.493 146.962 221.69 146.545C221.887 146.125 222.156 145.775 222.497 145.494C222.842 145.21 223.226 145.03 223.65 144.955V144.886C223.094 144.742 222.65 144.43 222.321 143.949C221.991 143.464 221.828 142.913 221.832 142.295C221.828 141.705 221.978 141.176 222.281 140.71C222.584 140.244 223.001 139.877 223.531 139.608C224.065 139.339 224.673 139.205 225.355 139.205C226.029 139.205 226.631 139.339 227.162 139.608C227.692 139.877 228.109 140.244 228.412 140.71C228.719 141.176 228.874 141.705 228.878 142.295C228.874 142.913 228.705 143.464 228.372 143.949C228.042 144.43 227.605 144.742 227.059 144.886V144.955C227.48 145.03 227.859 145.21 228.196 145.494C228.533 145.775 228.802 146.125 229.003 146.545C229.203 146.962 229.306 147.417 229.309 147.909C229.306 148.538 229.135 149.098 228.798 149.591C228.465 150.08 228.001 150.464 227.406 150.744C226.815 151.021 226.131 151.159 225.355 151.159ZM225.355 149.909C225.881 149.909 226.336 149.824 226.719 149.653C227.101 149.483 227.397 149.242 227.605 148.932C227.813 148.621 227.919 148.258 227.923 147.841C227.919 147.402 227.806 147.013 227.582 146.676C227.359 146.339 227.054 146.074 226.667 145.881C226.285 145.687 225.847 145.591 225.355 145.591C224.859 145.591 224.416 145.687 224.025 145.881C223.639 146.074 223.334 146.339 223.111 146.676C222.891 147.013 222.783 147.402 222.787 147.841C222.783 148.258 222.883 148.621 223.088 148.932C223.296 149.242 223.594 149.483 223.98 149.653C224.366 149.824 224.825 149.909 225.355 149.909ZM225.355 144.386C225.772 144.386 226.141 144.303 226.463 144.136C226.789 143.97 227.044 143.737 227.23 143.438C227.416 143.138 227.51 142.788 227.514 142.386C227.51 141.992 227.417 141.65 227.236 141.358C227.054 141.062 226.802 140.835 226.48 140.676C226.158 140.513 225.783 140.432 225.355 140.432C224.919 140.432 224.539 140.513 224.213 140.676C223.887 140.835 223.635 141.062 223.457 141.358C223.279 141.65 223.192 141.992 223.196 142.386C223.192 142.788 223.281 143.138 223.463 143.438C223.649 143.737 223.904 143.97 224.23 144.136C224.556 144.303 224.931 144.386 225.355 144.386ZM234.803 151.159C234.137 151.159 233.536 151.027 233.002 150.761C232.468 150.496 232.04 150.133 231.718 149.67C231.396 149.208 231.22 148.682 231.19 148.091H232.553C232.606 148.617 232.845 149.053 233.269 149.398C233.697 149.739 234.209 149.909 234.803 149.909C235.281 149.909 235.705 149.797 236.076 149.574C236.451 149.35 236.745 149.044 236.957 148.653C237.173 148.259 237.281 147.814 237.281 147.318C237.281 146.811 237.169 146.358 236.945 145.96C236.726 145.559 236.423 145.242 236.036 145.011C235.65 144.78 235.209 144.663 234.713 144.659C234.356 144.655 233.991 144.71 233.616 144.824C233.241 144.934 232.932 145.076 232.69 145.25L231.372 145.091L232.076 139.364H238.122V140.614H233.258L232.849 144.045H232.917C233.156 143.856 233.455 143.699 233.815 143.574C234.175 143.449 234.55 143.386 234.94 143.386C235.652 143.386 236.286 143.557 236.843 143.898C237.404 144.235 237.843 144.697 238.161 145.284C238.483 145.871 238.644 146.542 238.644 147.295C238.644 148.038 238.478 148.701 238.144 149.284C237.815 149.864 237.36 150.322 236.781 150.659C236.201 150.992 235.542 151.159 234.803 151.159Z" fill="#646464"/>
<path d="M192.636 200.455V185.909H193.568V200.455H192.636ZM195.773 190.273C195.705 189.697 195.428 189.25 194.943 188.932C194.458 188.614 193.864 188.455 193.159 188.455C192.644 188.455 192.193 188.538 191.807 188.705C191.424 188.871 191.125 189.1 190.909 189.392C190.697 189.684 190.591 190.015 190.591 190.386C190.591 190.697 190.665 190.964 190.812 191.188C190.964 191.407 191.157 191.591 191.392 191.739C191.627 191.883 191.873 192.002 192.131 192.097C192.388 192.187 192.625 192.261 192.841 192.318L194.023 192.636C194.326 192.716 194.663 192.826 195.034 192.966C195.409 193.106 195.767 193.297 196.108 193.54C196.453 193.778 196.737 194.085 196.96 194.46C197.184 194.835 197.295 195.295 197.295 195.841C197.295 196.47 197.131 197.038 196.801 197.545C196.475 198.053 195.998 198.456 195.369 198.756C194.744 199.055 193.985 199.205 193.091 199.205C192.258 199.205 191.536 199.07 190.926 198.801C190.32 198.532 189.843 198.157 189.494 197.676C189.15 197.195 188.955 196.636 188.909 196H190.364C190.402 196.439 190.549 196.803 190.807 197.091C191.068 197.375 191.398 197.587 191.795 197.727C192.197 197.864 192.629 197.932 193.091 197.932C193.629 197.932 194.112 197.845 194.54 197.67C194.968 197.492 195.307 197.246 195.557 196.932C195.807 196.614 195.932 196.242 195.932 195.818C195.932 195.432 195.824 195.117 195.608 194.875C195.392 194.633 195.108 194.436 194.756 194.284C194.403 194.133 194.023 194 193.614 193.886L192.182 193.477C191.273 193.216 190.553 192.843 190.023 192.358C189.492 191.873 189.227 191.239 189.227 190.455C189.227 189.803 189.403 189.235 189.756 188.75C190.112 188.261 190.589 187.883 191.188 187.614C191.79 187.341 192.462 187.205 193.205 187.205C193.955 187.205 194.621 187.339 195.205 187.608C195.788 187.873 196.25 188.237 196.591 188.699C196.936 189.161 197.117 189.686 197.136 190.273H195.773ZM202.724 199.159C202.057 199.159 201.457 199.027 200.923 198.761C200.389 198.496 199.961 198.133 199.639 197.67C199.317 197.208 199.141 196.682 199.11 196.091H200.474C200.527 196.617 200.766 197.053 201.19 197.398C201.618 197.739 202.129 197.909 202.724 197.909C203.201 197.909 203.626 197.797 203.997 197.574C204.372 197.35 204.665 197.044 204.877 196.653C205.093 196.259 205.201 195.814 205.201 195.318C205.201 194.811 205.09 194.358 204.866 193.96C204.646 193.559 204.343 193.242 203.957 193.011C203.571 192.78 203.129 192.663 202.633 192.659C202.277 192.655 201.912 192.71 201.537 192.824C201.162 192.934 200.853 193.076 200.61 193.25L199.292 193.091L199.997 187.364H206.042V188.614H201.179L200.769 192.045H200.838C201.076 191.856 201.376 191.699 201.735 191.574C202.095 191.449 202.47 191.386 202.86 191.386C203.573 191.386 204.207 191.557 204.764 191.898C205.324 192.235 205.764 192.697 206.082 193.284C206.404 193.871 206.565 194.542 206.565 195.295C206.565 196.038 206.398 196.701 206.065 197.284C205.735 197.864 205.281 198.322 204.701 198.659C204.122 198.992 203.463 199.159 202.724 199.159ZM212.207 187.205C212.684 187.208 213.161 187.299 213.638 187.477C214.116 187.655 214.551 187.951 214.945 188.364C215.339 188.773 215.655 189.331 215.894 190.04C216.133 190.748 216.252 191.636 216.252 192.705C216.252 193.739 216.154 194.657 215.957 195.46C215.763 196.259 215.483 196.934 215.116 197.483C214.752 198.032 214.309 198.449 213.786 198.733C213.267 199.017 212.68 199.159 212.025 199.159C211.373 199.159 210.792 199.03 210.28 198.773C209.773 198.511 209.356 198.15 209.03 197.688C208.708 197.222 208.502 196.682 208.411 196.068H209.798C209.923 196.602 210.171 197.044 210.542 197.392C210.917 197.737 211.411 197.909 212.025 197.909C212.923 197.909 213.631 197.517 214.15 196.733C214.673 195.949 214.934 194.841 214.934 193.409H214.843C214.631 193.727 214.379 194.002 214.087 194.233C213.796 194.464 213.472 194.642 213.116 194.767C212.76 194.892 212.381 194.955 211.979 194.955C211.313 194.955 210.701 194.79 210.144 194.46C209.591 194.127 209.148 193.67 208.815 193.091C208.485 192.508 208.32 191.841 208.32 191.091C208.32 190.379 208.479 189.727 208.798 189.136C209.119 188.542 209.57 188.068 210.15 187.716C210.733 187.364 211.419 187.193 212.207 187.205ZM212.207 188.455C211.729 188.455 211.299 188.574 210.917 188.812C210.538 189.047 210.237 189.366 210.013 189.767C209.794 190.165 209.684 190.606 209.684 191.091C209.684 191.576 209.79 192.017 210.002 192.415C210.218 192.809 210.512 193.123 210.883 193.358C211.258 193.589 211.684 193.705 212.161 193.705C212.521 193.705 212.856 193.634 213.167 193.494C213.477 193.35 213.748 193.155 213.979 192.909C214.214 192.659 214.398 192.377 214.53 192.062C214.663 191.744 214.729 191.413 214.729 191.068C214.729 190.614 214.619 190.187 214.4 189.79C214.184 189.392 213.885 189.07 213.502 188.824C213.123 188.578 212.691 188.455 212.207 188.455ZM221.871 187.205C222.348 187.208 222.826 187.299 223.303 187.477C223.78 187.655 224.216 187.951 224.61 188.364C225.004 188.773 225.32 189.331 225.558 190.04C225.797 190.748 225.916 191.636 225.916 192.705C225.916 193.739 225.818 194.657 225.621 195.46C225.428 196.259 225.147 196.934 224.78 197.483C224.416 198.032 223.973 198.449 223.451 198.733C222.932 199.017 222.344 199.159 221.689 199.159C221.038 199.159 220.456 199.03 219.945 198.773C219.437 198.511 219.021 198.15 218.695 197.688C218.373 197.222 218.166 196.682 218.076 196.068H219.462C219.587 196.602 219.835 197.044 220.206 197.392C220.581 197.737 221.076 197.909 221.689 197.909C222.587 197.909 223.295 197.517 223.814 196.733C224.337 195.949 224.598 194.841 224.598 193.409H224.507C224.295 193.727 224.043 194.002 223.752 194.233C223.46 194.464 223.136 194.642 222.78 194.767C222.424 194.892 222.045 194.955 221.644 194.955C220.977 194.955 220.365 194.79 219.808 194.46C219.255 194.127 218.812 193.67 218.479 193.091C218.149 192.508 217.985 191.841 217.985 191.091C217.985 190.379 218.144 189.727 218.462 189.136C218.784 188.542 219.235 188.068 219.814 187.716C220.397 187.364 221.083 187.193 221.871 187.205ZM221.871 188.455C221.394 188.455 220.964 188.574 220.581 188.812C220.202 189.047 219.901 189.366 219.678 189.767C219.458 190.165 219.348 190.606 219.348 191.091C219.348 191.576 219.454 192.017 219.666 192.415C219.882 192.809 220.176 193.123 220.547 193.358C220.922 193.589 221.348 193.705 221.826 193.705C222.185 193.705 222.521 193.634 222.831 193.494C223.142 193.35 223.413 193.155 223.644 192.909C223.879 192.659 224.062 192.377 224.195 192.062C224.327 191.744 224.394 191.413 224.394 191.068C224.394 190.614 224.284 190.187 224.064 189.79C223.848 189.392 223.549 189.07 223.166 188.824C222.788 188.578 222.356 188.455 221.871 188.455Z" fill="#646464"/>
<path d="M192.636 248.455V233.909H193.568V248.455H192.636ZM195.773 238.273C195.705 237.697 195.428 237.25 194.943 236.932C194.458 236.614 193.864 236.455 193.159 236.455C192.644 236.455 192.193 236.538 191.807 236.705C191.424 236.871 191.125 237.1 190.909 237.392C190.697 237.684 190.591 238.015 190.591 238.386C190.591 238.697 190.665 238.964 190.812 239.188C190.964 239.407 191.157 239.591 191.392 239.739C191.627 239.883 191.873 240.002 192.131 240.097C192.388 240.187 192.625 240.261 192.841 240.318L194.023 240.636C194.326 240.716 194.663 240.826 195.034 240.966C195.409 241.106 195.767 241.297 196.108 241.54C196.453 241.778 196.737 242.085 196.96 242.46C197.184 242.835 197.295 243.295 197.295 243.841C197.295 244.47 197.131 245.038 196.801 245.545C196.475 246.053 195.998 246.456 195.369 246.756C194.744 247.055 193.985 247.205 193.091 247.205C192.258 247.205 191.536 247.07 190.926 246.801C190.32 246.532 189.843 246.157 189.494 245.676C189.15 245.195 188.955 244.636 188.909 244H190.364C190.402 244.439 190.549 244.803 190.807 245.091C191.068 245.375 191.398 245.587 191.795 245.727C192.197 245.864 192.629 245.932 193.091 245.932C193.629 245.932 194.112 245.845 194.54 245.67C194.968 245.492 195.307 245.246 195.557 244.932C195.807 244.614 195.932 244.242 195.932 243.818C195.932 243.432 195.824 243.117 195.608 242.875C195.392 242.633 195.108 242.436 194.756 242.284C194.403 242.133 194.023 242 193.614 241.886L192.182 241.477C191.273 241.216 190.553 240.843 190.023 240.358C189.492 239.873 189.227 239.239 189.227 238.455C189.227 237.803 189.403 237.235 189.756 236.75C190.112 236.261 190.589 235.883 191.188 235.614C191.79 235.341 192.462 235.205 193.205 235.205C193.955 235.205 194.621 235.339 195.205 235.608C195.788 235.873 196.25 236.237 196.591 236.699C196.936 237.161 197.117 237.686 197.136 238.273H195.773ZM202.815 247.159C202.035 247.159 201.345 247.021 200.747 246.744C200.152 246.464 199.688 246.08 199.355 245.591C199.021 245.098 198.857 244.538 198.86 243.909C198.857 243.417 198.953 242.962 199.15 242.545C199.347 242.125 199.616 241.775 199.957 241.494C200.302 241.21 200.686 241.03 201.11 240.955V240.886C200.554 240.742 200.11 240.43 199.781 239.949C199.451 239.464 199.288 238.913 199.292 238.295C199.288 237.705 199.438 237.176 199.741 236.71C200.044 236.244 200.461 235.877 200.991 235.608C201.525 235.339 202.133 235.205 202.815 235.205C203.489 235.205 204.091 235.339 204.622 235.608C205.152 235.877 205.569 236.244 205.872 236.71C206.179 237.176 206.334 237.705 206.338 238.295C206.334 238.913 206.165 239.464 205.832 239.949C205.502 240.43 205.065 240.742 204.519 240.886V240.955C204.94 241.03 205.319 241.21 205.656 241.494C205.993 241.775 206.262 242.125 206.463 242.545C206.663 242.962 206.766 243.417 206.769 243.909C206.766 244.538 206.595 245.098 206.258 245.591C205.925 246.08 205.461 246.464 204.866 246.744C204.275 247.021 203.591 247.159 202.815 247.159ZM202.815 245.909C203.341 245.909 203.796 245.824 204.179 245.653C204.561 245.483 204.857 245.242 205.065 244.932C205.273 244.621 205.379 244.258 205.383 243.841C205.379 243.402 205.266 243.013 205.042 242.676C204.819 242.339 204.514 242.074 204.127 241.881C203.745 241.687 203.307 241.591 202.815 241.591C202.319 241.591 201.876 241.687 201.485 241.881C201.099 242.074 200.794 242.339 200.571 242.676C200.351 243.013 200.243 243.402 200.247 243.841C200.243 244.258 200.343 244.621 200.548 244.932C200.756 245.242 201.054 245.483 201.44 245.653C201.826 245.824 202.285 245.909 202.815 245.909ZM202.815 240.386C203.232 240.386 203.601 240.303 203.923 240.136C204.249 239.97 204.504 239.737 204.69 239.438C204.876 239.138 204.97 238.788 204.974 238.386C204.97 237.992 204.877 237.65 204.696 237.358C204.514 237.062 204.262 236.835 203.94 236.676C203.618 236.513 203.243 236.432 202.815 236.432C202.379 236.432 201.999 236.513 201.673 236.676C201.347 236.835 201.095 237.062 200.917 237.358C200.739 237.65 200.652 237.992 200.656 238.386C200.652 238.788 200.741 239.138 200.923 239.438C201.109 239.737 201.364 239.97 201.69 240.136C202.016 240.303 202.391 240.386 202.815 240.386ZM212.332 235.205C212.809 235.208 213.286 235.299 213.763 235.477C214.241 235.655 214.676 235.951 215.07 236.364C215.464 236.773 215.78 237.331 216.019 238.04C216.258 238.748 216.377 239.636 216.377 240.705C216.377 241.739 216.279 242.657 216.082 243.46C215.888 244.259 215.608 244.934 215.241 245.483C214.877 246.032 214.434 246.449 213.911 246.733C213.392 247.017 212.805 247.159 212.15 247.159C211.498 247.159 210.917 247.03 210.405 246.773C209.898 246.511 209.481 246.15 209.155 245.688C208.833 245.222 208.627 244.682 208.536 244.068H209.923C210.048 244.602 210.296 245.044 210.667 245.392C211.042 245.737 211.536 245.909 212.15 245.909C213.048 245.909 213.756 245.517 214.275 244.733C214.798 243.949 215.059 242.841 215.059 241.409H214.968C214.756 241.727 214.504 242.002 214.212 242.233C213.921 242.464 213.597 242.642 213.241 242.767C212.885 242.892 212.506 242.955 212.104 242.955C211.438 242.955 210.826 242.79 210.269 242.46C209.716 242.127 209.273 241.67 208.94 241.091C208.61 240.508 208.445 239.841 208.445 239.091C208.445 238.379 208.604 237.727 208.923 237.136C209.244 236.542 209.695 236.068 210.275 235.716C210.858 235.364 211.544 235.193 212.332 235.205ZM212.332 236.455C211.854 236.455 211.424 236.574 211.042 236.812C210.663 237.047 210.362 237.366 210.138 237.767C209.919 238.165 209.809 238.606 209.809 239.091C209.809 239.576 209.915 240.017 210.127 240.415C210.343 240.809 210.637 241.123 211.008 241.358C211.383 241.589 211.809 241.705 212.286 241.705C212.646 241.705 212.981 241.634 213.292 241.494C213.602 241.35 213.873 241.155 214.104 240.909C214.339 240.659 214.523 240.377 214.655 240.062C214.788 239.744 214.854 239.413 214.854 239.068C214.854 238.614 214.744 238.187 214.525 237.79C214.309 237.392 214.01 237.07 213.627 236.824C213.248 236.578 212.816 236.455 212.332 236.455ZM221.928 247.159C221.261 247.159 220.661 247.027 220.127 246.761C219.593 246.496 219.165 246.133 218.843 245.67C218.521 245.208 218.344 244.682 218.314 244.091H219.678C219.731 244.617 219.969 245.053 220.394 245.398C220.822 245.739 221.333 245.909 221.928 245.909C222.405 245.909 222.829 245.797 223.201 245.574C223.576 245.35 223.869 245.044 224.081 244.653C224.297 244.259 224.405 243.814 224.405 243.318C224.405 242.811 224.293 242.358 224.07 241.96C223.85 241.559 223.547 241.242 223.161 241.011C222.774 240.78 222.333 240.663 221.837 240.659C221.481 240.655 221.115 240.71 220.74 240.824C220.365 240.934 220.057 241.076 219.814 241.25L218.496 241.091L219.201 235.364H225.246V236.614H220.382L219.973 240.045H220.041C220.28 239.856 220.579 239.699 220.939 239.574C221.299 239.449 221.674 239.386 222.064 239.386C222.776 239.386 223.411 239.557 223.968 239.898C224.528 240.235 224.968 240.697 225.286 241.284C225.608 241.871 225.769 242.542 225.769 243.295C225.769 244.038 225.602 244.701 225.269 245.284C224.939 245.864 224.485 246.322 223.905 246.659C223.326 246.992 222.666 247.159 221.928 247.159Z" fill="#646464"/>
<path d="M375 60H251C249.343 60 248 61.3431 248 63C248 64.6569 249.343 66 251 66H375C376.657 66 378 64.6569 378 63C378 61.3431 376.657 60 375 60Z" fill="#F7931A"/>
<path d="M328 60H204C202.343 60 201 61.3431 201 63C201 64.6569 202.343 66 204 66H328C329.657 66 331 64.6569 331 63C331 61.3431 329.657 60 328 60Z" fill="#A4D963"/>
<path d="M250 60H126C124.343 60 123 61.3431 123 63C123 64.6569 124.343 66 126 66H250C251.657 66 253 64.6569 253 63C253 61.3431 251.657 60 250 60Z" fill="#319766"/>
<path d="M151 60H27C25.3431 60 24 61.3431 24 63C24 64.6569 25.3431 66 27 66H151C152.657 66 154 64.6569 154 63C154 61.3431 152.657 60 151 60Z" fill="#F3BA2F"/>
</g>
</g>
</g>
<defs>
<linearGradient id="paint0_linear_1_1876" x1="201" y1="-9.81432e-09" x2="201" y2="277" gradientUnits="userSpaceOnUse">
<stop stop-color="#1F2321"/>
<stop offset="1" stop-color="#020B05"/>
</linearGradient>
<linearGradient id="paint1_linear_1_1876" x1="15.7031" y1="-14.4271" x2="464.861" y2="34.7071" gradientUnits="userSpaceOnUse">
<stop stop-color="white" stop-opacity="0.04"/>
<stop offset="1" stop-color="white" stop-opacity="0.12"/>
</linearGradient>
<linearGradient id="paint2_linear_1_1876" x1="81.4999" y1="20" x2="81.4999" y2="54.425" gradientUnits="userSpaceOnUse">
<stop stop-color="#F1F1EF"/>
<stop offset="1" stop-color="#F1F1EF" stop-opacity="0"/>
</linearGradient>
<linearGradient id="paint3_linear_1_1876" x1="83.0001" y1="84.9999" x2="83.0001" y2="119.425" gradientUnits="userSpaceOnUse">
<stop stop-color="#F1F1EF"/>
<stop offset="1" stop-color="#F1F1EF" stop-opacity="0"/>
</linearGradient>
<linearGradient id="paint4_linear_1_1876" x1="90.5001" y1="133" x2="90.5001" y2="167.425" gradientUnits="userSpaceOnUse">
<stop stop-color="#F1F1EF"/>
<stop offset="1" stop-color="#F1F1EF" stop-opacity="0"/>
</linearGradient>
<linearGradient id="paint5_linear_1_1876" x1="87.9998" y1="181" x2="87.9998" y2="215.425" gradientUnits="userSpaceOnUse">
<stop stop-color="#F1F1EF"/>
<stop offset="1" stop-color="#F1F1EF" stop-opacity="0"/>
</linearGradient>
<linearGradient id="paint6_linear_1_1876" x1="90.5001" y1="229" x2="90.5001" y2="263.425" gradientUnits="userSpaceOnUse">
<stop stop-color="#F1F1EF"/>
<stop offset="1" stop-color="#F1F1EF" stop-opacity="0"/>
</linearGradient>
<clipPath id="clip0_1_1876">
<rect width="402" height="277" fill="white"/>
</clipPath>
<clipPath id="clip1_1_1876">
<rect width="402" height="277" fill="white"/>
</clipPath>
<clipPath id="clip2_1_1876">
<rect width="402" height="277" fill="white"/>
</clipPath>
</defs>
</svg>
