<svg width="138" height="47" viewBox="0 0 138 47" fill="none" xmlns="http://www.w3.org/2000/svg">
<g filter="url(#filter0_f_1_1752)">
<path d="M68.9921 34.825C53.3026 34.825 40.5837 43.4556 40.5837 54.1021C40.5837 64.7485 53.3026 73.3792 68.9921 73.3792C84.6815 73.3792 97.4004 64.7485 97.4004 54.1021C97.4004 43.4556 84.6815 34.825 68.9921 34.825Z" fill="#62FFEC" fill-opacity="0.2"/>
</g>
<g filter="url(#filter1_f_1_1752)">
<path d="M68.9918 39.8979C60.0263 39.8979 52.7584 44.8946 52.7584 51.0583C52.7584 57.2221 60.0263 62.2188 68.9918 62.2188C77.9572 62.2188 85.2251 57.2221 85.2251 51.0583C85.2251 44.8946 77.9572 39.8979 68.9918 39.8979Z" fill="#62FFB4" fill-opacity="0.7"/>
</g>
<defs>
<filter id="filter0_f_1_1752" x="0.000160217" y="-5.75832" width="137.984" height="119.721" filterUnits="userSpaceOnUse" color-interpolation-filters="sRGB">
<feFlood flood-opacity="0" result="BackgroundImageFix"/>
<feBlend mode="normal" in="SourceGraphic" in2="BackgroundImageFix" result="shape"/>
<feGaussianBlur stdDeviation="20.2917" result="effect1_foregroundBlur_1_1752"/>
</filter>
<filter id="filter1_f_1_1752" x="32.4666" y="19.6062" width="73.0501" height="62.9042" filterUnits="userSpaceOnUse" color-interpolation-filters="sRGB">
<feFlood flood-opacity="0" result="BackgroundImageFix"/>
<feBlend mode="normal" in="SourceGraphic" in2="BackgroundImageFix" result="shape"/>
<feGaussianBlur stdDeviation="10.1458" result="effect1_foregroundBlur_1_1752"/>
</filter>
</defs>
</svg>
