<svg width="334" height="239" viewBox="0 0 334 239" fill="none" xmlns="http://www.w3.org/2000/svg">
<g clip-path="url(#clip0_1_1694)">
<mask id="mask0_1_1694" style="mask-type:alpha" maskUnits="userSpaceOnUse" x="0" y="0" width="334" height="239">
<path d="M0 23.9284C0 10.7131 10.7131 0 23.9284 0H334V214.358C334 227.574 323.287 238.287 310.072 238.287H0V23.9284Z" fill="#D9D9D9"/>
</mask>
<g mask="url(#mask0_1_1694)">
<path d="M376.872 3.4895H23.9284C10.9884 3.4895 0.498535 13.9794 0.498535 26.9194V255.236C0.498535 268.176 10.9884 278.666 23.9284 278.666H376.872C389.812 278.666 400.302 268.176 400.302 255.236V26.9194C400.302 13.9794 389.812 3.4895 376.872 3.4895Z" fill="url(#paint0_linear_1_1694)" stroke="url(#paint1_linear_1_1694)" stroke-width="0.997015"/>
<path d="M34.8389 33.0486H33.0715C33.0035 32.6709 32.877 32.3386 32.692 32.0516C32.5069 31.7645 32.2803 31.521 32.0122 31.3209C31.744 31.1207 31.4438 30.9696 31.1114 30.8676C30.7829 30.7657 30.4335 30.7147 30.0634 30.7147C29.395 30.7147 28.7964 30.8828 28.2677 31.2189C27.7428 31.555 27.3273 32.0478 27.0214 32.6974C26.7192 33.347 26.5682 34.14 26.5682 35.0766C26.5682 36.0208 26.7192 36.8176 27.0214 37.4672C27.3273 38.1168 27.7447 38.6077 28.2734 38.9401C28.8021 39.2725 29.3968 39.4386 30.0577 39.4386C30.4241 39.4386 30.7715 39.3895 31.1001 39.2913C31.4324 39.1893 31.7327 39.0402 32.0008 38.8437C32.2689 38.6474 32.4955 38.4076 32.6806 38.1243C32.8694 37.8374 32.9997 37.5087 33.0715 37.1386L34.8389 37.1443C34.7445 37.7146 34.5614 38.2396 34.2894 38.7191C34.0213 39.195 33.6757 39.6067 33.2528 39.9541C32.8335 40.2978 32.354 40.564 31.8139 40.7528C31.2738 40.9417 30.6847 41.0361 30.0465 41.0361C29.0419 41.0361 28.1469 40.7982 27.3613 40.3223C26.5758 39.8427 25.9564 39.1572 25.5032 38.266C25.0538 37.3746 24.8291 36.3116 24.8291 35.0766C24.8291 33.8379 25.0557 32.7748 25.5089 31.8874C25.9621 30.996 26.5815 30.3125 27.367 29.8366C28.1525 29.357 29.0457 29.1172 30.0465 29.1172C30.662 29.1172 31.236 29.206 31.7685 29.3835C32.3048 29.5571 32.7864 29.814 33.2131 30.1539C33.6398 30.49 33.993 30.9016 34.2724 31.3889C34.5519 31.8722 34.7407 32.4255 34.8389 33.0486ZM41.9904 37.269V32.1762H43.6898V40.8775H42.0244V39.3706H41.9338C41.7336 39.8351 41.4125 40.2222 40.9708 40.5319C40.5327 40.8378 39.9869 40.9907 39.3336 40.9907C38.7746 40.9907 38.2799 40.868 37.8494 40.6225C37.4226 40.3733 37.0865 40.0051 36.841 39.5179C36.5994 39.0307 36.4785 38.4284 36.4785 37.7108V32.1762H38.1722V37.5068C38.1722 38.0998 38.3366 38.5719 38.6652 38.9231C38.9937 39.2743 39.4204 39.4499 39.9453 39.4499C40.2626 39.4499 40.5779 39.3706 40.8914 39.2119C41.2087 39.0534 41.4711 38.8135 41.6789 38.4926C41.8903 38.1716 41.9942 37.7637 41.9904 37.269ZM45.6467 40.8775V32.1762H47.2838V33.5585H47.3745C47.533 33.0902 47.8125 32.722 48.2129 32.4538C48.617 32.1819 49.0739 32.0459 49.5838 32.0459C49.6895 32.0459 49.8141 32.0497 49.9577 32.0573C50.1049 32.0648 50.2201 32.0743 50.3032 32.0856V33.7057C50.2352 33.6869 50.1144 33.666 49.9406 33.6434C49.7669 33.617 49.5932 33.6037 49.4195 33.6037C49.0192 33.6037 48.6622 33.6888 48.3488 33.8587C48.0391 34.0249 47.7936 34.2571 47.6124 34.5555C47.4311 34.85 47.3405 35.1862 47.3405 35.5639V40.8775H45.6467ZM51.4499 40.8775V32.1762H53.0871V33.5585H53.1777C53.3363 33.0902 53.6158 32.722 54.0161 32.4538C54.4202 32.1819 54.8771 32.0459 55.387 32.0459C55.4927 32.0459 55.6173 32.0497 55.7609 32.0573C55.9081 32.0648 56.0233 32.0743 56.1065 32.0856V33.7057C56.0385 33.6869 55.9176 33.666 55.7438 33.6434C55.5702 33.617 55.3965 33.6037 55.2227 33.6037C54.8224 33.6037 54.4655 33.6888 54.152 33.8587C53.8423 34.0249 53.5969 34.2571 53.4156 34.5555C53.2344 34.85 53.1437 35.1862 53.1437 35.5639V40.8775H51.4499ZM60.6917 41.053C59.8345 41.053 59.0961 40.8699 58.4768 40.5036C57.8612 40.1335 57.3853 39.6142 57.0492 38.9457C56.7169 38.2736 56.5507 37.4861 56.5507 36.5835C56.5507 35.6922 56.7169 34.9067 57.0492 34.2269C57.3853 33.5471 57.8536 33.0165 58.4541 32.6351C59.0584 32.2537 59.7646 32.0629 60.5728 32.0629C61.0637 32.0629 61.5396 32.1441 62.0003 32.3065C62.461 32.4689 62.8746 32.7239 63.2409 33.0713C63.6073 33.4187 63.8961 33.87 64.1076 34.4252C64.3192 34.9765 64.4248 35.6469 64.4248 36.4363V37.0367H57.5081V35.7678H62.7651C62.7651 35.3221 62.6744 34.9275 62.4931 34.5838C62.3119 34.2363 62.0569 33.9626 61.7284 33.7624C61.4036 33.5623 61.0221 33.4622 60.5841 33.4622C60.1083 33.4622 59.6928 33.5792 59.3379 33.8134C58.9866 34.0437 58.7147 34.3459 58.5221 34.7198C58.3333 35.0899 58.2389 35.4921 58.2389 35.9264V36.9177C58.2389 37.4993 58.3409 37.9941 58.5448 38.4019C58.7524 38.8097 59.0414 39.1213 59.4115 39.3366C59.7816 39.5481 60.214 39.6538 60.7088 39.6538C61.0297 39.6538 61.3224 39.6086 61.5867 39.5179C61.8512 39.4235 62.0797 39.2837 62.2722 39.0987C62.4648 38.9136 62.6121 38.6851 62.7141 38.4132L64.3173 38.7022C64.1889 39.1743 63.9584 39.5877 63.6261 39.9428C63.2975 40.294 62.8841 40.5678 62.3856 40.7642C61.8908 40.9567 61.3262 41.053 60.6917 41.053ZM67.6789 35.7111V40.8775H65.9852V32.1762H67.611V33.5925H67.7186C67.9188 33.1317 68.2323 32.7616 68.659 32.4821C69.0895 32.2026 69.6315 32.0629 70.2848 32.0629C70.8777 32.0629 71.397 32.1876 71.8426 32.4368C72.2882 32.6823 72.6338 33.0486 72.8792 33.5358C73.1248 34.023 73.2475 34.6254 73.2475 35.3429V40.8775H71.5537V35.5468C71.5537 34.9161 71.3894 34.4233 71.0609 34.0683C70.7323 33.7095 70.281 33.5302 69.7069 33.5302C69.3142 33.5302 68.9649 33.6151 68.659 33.7851C68.3569 33.955 68.117 34.2042 67.9395 34.5328C67.7658 34.8576 67.6789 35.2504 67.6789 35.7111ZM78.8652 41.053C78.023 41.053 77.2979 40.8623 76.6899 40.4809C76.0856 40.0957 75.6211 39.5651 75.2964 38.8891C74.9716 38.2131 74.8092 37.4389 74.8092 36.5665C74.8092 35.6828 74.9754 34.9029 75.3077 34.2269C75.6401 33.5471 76.1084 33.0165 76.7126 32.6351C77.3168 32.2537 78.0287 32.0629 78.8483 32.0629C79.5091 32.0629 80.0983 32.1857 80.6157 32.4311C81.133 32.6728 81.5504 33.0127 81.8676 33.4508C82.1886 33.8889 82.3793 34.4006 82.4397 34.986H80.7912C80.7006 34.5781 80.4929 34.2269 80.1681 33.9323C79.8472 33.6377 79.4166 33.4905 78.8766 33.4905C78.4045 33.4905 77.9909 33.6151 77.636 33.8644C77.2847 34.1098 77.011 34.4611 76.8146 34.918C76.6181 35.3712 76.5199 35.9075 76.5199 36.5269C76.5199 37.1613 76.6162 37.7089 76.8089 38.1697C77.0015 38.6304 77.2734 38.9873 77.6246 39.2404C77.9797 39.4933 78.3969 39.6198 78.8766 39.6198C79.1975 39.6198 79.4883 39.5613 79.749 39.4442C80.0133 39.3234 80.2342 39.1515 80.4117 38.9288C80.593 38.706 80.7196 38.4378 80.7912 38.1243H82.4397C82.3793 38.687 82.1961 39.1893 81.8903 39.6312C81.5844 40.0731 81.1746 40.4205 80.6609 40.6736C80.1512 40.9265 79.5526 41.053 78.8652 41.053ZM85.0027 44.1404C84.7497 44.1404 84.5193 44.1196 84.3116 44.0781C84.1038 44.0403 83.949 43.9988 83.8471 43.9534L84.255 42.5656C84.5647 42.6487 84.8403 42.6845 85.082 42.6732C85.3237 42.6619 85.537 42.5713 85.7221 42.4013C85.9109 42.2314 86.0771 41.9537 86.2206 41.5686L86.4303 40.9907L83.2466 32.1762H85.0594L87.263 38.9288H87.3536L89.5572 32.1762H91.3757L87.7898 42.0388C87.6236 42.4919 87.4121 42.8753 87.1553 43.1887C86.8986 43.506 86.5927 43.7439 86.2376 43.9025C85.8826 44.0611 85.471 44.1404 85.0027 44.1404ZM97.6671 40.8775H95.8091L99.9837 29.2758H102.007L106.181 40.8775H104.324L101.044 31.3832H100.953L97.6671 40.8775ZM97.9787 36.3343H104.006V37.8071H97.9787V36.3343ZM109.095 35.7111V40.8775H107.401V32.1762H109.028V33.5925H109.135C109.336 33.1317 109.649 32.7616 110.075 32.4821C110.506 32.2026 111.048 32.0629 111.702 32.0629C112.294 32.0629 112.813 32.1876 113.259 32.4368C113.705 32.6823 114.051 33.0486 114.296 33.5358C114.541 34.023 114.664 34.6254 114.664 35.3429V40.8775H112.971V35.5468C112.971 34.9161 112.806 34.4233 112.477 34.0683C112.149 33.7095 111.698 33.5302 111.123 33.5302C110.731 33.5302 110.382 33.6151 110.075 33.7851C109.773 33.955 109.534 34.2042 109.357 34.5328C109.182 34.8576 109.095 35.2504 109.095 35.7111ZM119.149 41.0701C118.598 41.0701 118.099 40.9681 117.654 40.7642C117.208 40.5564 116.854 40.2562 116.594 39.8635C116.337 39.4707 116.209 38.9892 116.209 38.4189C116.209 37.928 116.303 37.5239 116.492 37.2066C116.681 36.8894 116.936 36.6382 117.257 36.4532C117.578 36.2682 117.937 36.1284 118.333 36.034C118.73 35.9395 119.133 35.8679 119.545 35.8187C120.067 35.7583 120.489 35.7092 120.814 35.6714C121.139 35.6299 121.376 35.5639 121.522 35.4731C121.67 35.3825 121.744 35.2352 121.744 35.0314V34.9917C121.744 34.497 121.604 34.1136 121.324 33.8417C121.049 33.5698 120.637 33.4338 120.089 33.4338C119.519 33.4338 119.07 33.5604 118.741 33.8134C118.416 34.0627 118.191 34.3402 118.067 34.6461L116.475 34.2836C116.664 33.7549 116.94 33.3281 117.302 33.0033C117.669 32.6747 118.089 32.4368 118.565 32.2896C119.042 32.1384 119.542 32.0629 120.067 32.0629C120.415 32.0629 120.782 32.1045 121.171 32.1876C121.564 32.2668 121.93 32.4142 122.27 32.6294C122.614 32.8447 122.895 33.1525 123.114 33.5528C123.334 33.9493 123.442 34.4649 123.442 35.0993V40.8775H121.788V39.6878H121.721C121.611 39.9069 121.446 40.1221 121.228 40.3336C121.009 40.5451 120.728 40.7207 120.384 40.8605C120.041 41.0002 119.629 41.0701 119.149 41.0701ZM119.517 39.7104C119.986 39.7104 120.386 39.6179 120.718 39.4329C121.055 39.2478 121.309 39.0062 121.482 38.7078C121.661 38.4057 121.75 38.0828 121.75 37.7391V36.6175C121.689 36.6779 121.571 36.7346 121.398 36.7874C121.228 36.8366 121.034 36.8799 120.814 36.9177C120.595 36.9517 120.382 36.9838 120.174 37.014C119.967 37.0404 119.792 37.0631 119.653 37.082C119.325 37.1235 119.025 37.1934 118.752 37.2916C118.484 37.3898 118.269 37.5314 118.106 37.7164C117.948 37.8978 117.868 38.1395 117.868 38.4415C117.868 38.8608 118.024 39.178 118.333 39.3933C118.643 39.6048 119.038 39.7104 119.517 39.7104ZM127.074 29.2758V40.8775H125.38V29.2758H127.074ZM130.104 44.1404C129.851 44.1404 129.621 44.1196 129.413 44.0781C129.205 44.0403 129.051 43.9988 128.948 43.9534L129.356 42.5656C129.666 42.6487 129.942 42.6845 130.183 42.6732C130.425 42.6619 130.638 42.5713 130.823 42.4013C131.012 42.2314 131.178 41.9537 131.322 41.5686L131.531 40.9907L128.348 32.1762H130.16L132.364 38.9288H132.454L134.659 32.1762H136.476L132.891 42.0388C132.725 42.4919 132.513 42.8753 132.256 43.1887C132 43.506 131.694 43.7439 131.339 43.9025C130.984 44.0611 130.572 44.1404 130.104 44.1404ZM141.811 32.1762V33.5358H137.059V32.1762H141.811ZM138.333 30.0915H140.027V38.3226C140.027 38.6511 140.076 38.8986 140.174 39.0647C140.272 39.2271 140.399 39.3385 140.554 39.3989C140.713 39.4556 140.884 39.4839 141.07 39.4839C141.205 39.4839 141.324 39.4745 141.427 39.4556C141.528 39.4367 141.607 39.4216 141.664 39.4102L141.97 40.8095C141.872 40.8472 141.732 40.885 141.551 40.9228C141.37 40.9643 141.142 40.9869 140.871 40.9907C140.426 40.9983 140.01 40.919 139.625 40.7528C139.239 40.5866 138.928 40.3299 138.69 39.9824C138.453 39.635 138.333 39.1988 138.333 38.6739V30.0915ZM143.366 40.8775V32.1762H145.06V40.8775H143.366ZM144.221 30.8336C143.927 30.8336 143.674 30.7355 143.463 30.5391C143.254 30.3389 143.15 30.101 143.15 29.8253C143.15 29.5459 143.254 29.3079 143.463 29.1116C143.674 28.9114 143.927 28.8113 144.221 28.8113C144.516 28.8113 144.767 28.9114 144.975 29.1116C145.186 29.3079 145.292 29.5459 145.292 29.8253C145.292 30.101 145.186 30.3389 144.975 30.5391C144.767 30.7355 144.516 30.8336 144.221 30.8336ZM150.685 41.053C149.842 41.053 149.118 40.8623 148.509 40.4809C147.905 40.0957 147.441 39.5651 147.116 38.8891C146.791 38.2131 146.628 37.4389 146.628 36.5665C146.628 35.6828 146.795 34.9029 147.127 34.2269C147.46 33.5471 147.928 33.0165 148.532 32.6351C149.137 32.2537 149.848 32.0629 150.668 32.0629C151.329 32.0629 151.917 32.1857 152.435 32.4311C152.952 32.6728 153.37 33.0127 153.687 33.4508C154.008 33.8889 154.198 34.4006 154.259 34.986H152.61C152.52 34.5781 152.312 34.2269 151.987 33.9323C151.667 33.6377 151.236 33.4905 150.696 33.4905C150.224 33.4905 149.811 33.6151 149.456 33.8644C149.104 34.1098 148.83 34.4611 148.634 34.918C148.438 35.3712 148.339 35.9075 148.339 36.5269C148.339 37.1613 148.436 37.7089 148.628 38.1697C148.82 38.6304 149.093 38.9873 149.444 39.2404C149.799 39.4933 150.216 39.6198 150.696 39.6198C151.017 39.6198 151.308 39.5613 151.568 39.4442C151.832 39.3234 152.054 39.1515 152.231 38.9288C152.413 38.706 152.539 38.4378 152.61 38.1243H154.259C154.198 38.687 154.016 39.1893 153.71 39.6312C153.404 40.0731 152.994 40.4205 152.481 40.6736C151.97 40.9265 151.372 41.053 150.685 41.053ZM162.271 34.3005L160.737 34.5724C160.672 34.3761 160.57 34.1892 160.431 34.0116C160.294 33.8341 160.11 33.6888 159.875 33.5754C159.641 33.4622 159.349 33.4055 158.997 33.4055C158.517 33.4055 158.118 33.5131 157.797 33.7284C157.476 33.9399 157.315 34.2137 157.315 34.5498C157.315 34.8406 157.423 35.0747 157.638 35.2523C157.853 35.4298 158.2 35.5751 158.68 35.6885L160.063 36.0056C160.863 36.1907 161.46 36.4758 161.852 36.8611C162.245 37.2463 162.442 37.7466 162.442 38.3623C162.442 38.8834 162.29 39.3479 161.988 39.7558C161.69 40.1599 161.273 40.4772 160.737 40.7075C160.204 40.9379 159.586 41.053 158.884 41.053C157.909 41.053 157.115 40.8454 156.499 40.4299C155.883 40.0108 155.505 39.4159 155.366 38.6455L157.003 38.3963C157.106 38.823 157.315 39.1459 157.632 39.365C157.949 39.5802 158.363 39.6878 158.872 39.6878C159.428 39.6878 159.871 39.5727 160.204 39.3423C160.536 39.1082 160.703 38.823 160.703 38.4869C160.703 38.2149 160.6 37.9865 160.397 37.8015C160.196 37.6164 159.888 37.4766 159.474 37.3822L158 37.0594C157.188 36.8742 156.588 36.5797 156.199 36.1756C155.814 35.7715 155.621 35.2598 155.621 34.6404C155.621 34.1269 155.765 33.6774 156.052 33.2922C156.339 32.907 156.735 32.6067 157.241 32.3915C157.748 32.1724 158.327 32.0629 158.98 32.0629C159.92 32.0629 160.661 32.2668 161.201 32.6747C161.741 33.0788 162.098 33.6208 162.271 34.3005Z" fill="url(#paint2_linear_1_1694)"/>
<path d="M309.488 92.3475L316.533 102.915C316.686 103.143 316.624 103.453 316.395 103.606C316.313 103.661 316.217 103.69 316.119 103.69H302.03C301.754 103.69 301.531 103.466 301.531 103.191C301.531 103.092 301.56 102.997 301.615 102.915L308.659 92.3475C308.812 92.1185 309.122 92.0565 309.351 92.2093C309.406 92.2458 309.453 92.2927 309.488 92.3475Z" fill="#319766"/>
<path d="M308.661 154.912L301.616 144.345C301.463 144.116 301.525 143.806 301.754 143.654C301.836 143.599 301.932 143.57 302.031 143.57H316.119C316.396 143.57 316.618 143.793 316.618 144.069C316.618 144.167 316.589 144.263 316.534 144.345L309.49 154.912C309.337 155.141 309.028 155.203 308.798 155.051C308.744 155.014 308.697 154.967 308.661 154.912Z" fill="#EE6A5F"/>
<path d="M309.488 188.061L316.533 198.628C316.686 198.857 316.624 199.167 316.395 199.319C316.313 199.374 316.217 199.403 316.119 199.403H302.03C301.754 199.403 301.531 199.18 301.531 198.904C301.531 198.806 301.56 198.71 301.615 198.628L308.659 188.061C308.812 187.832 309.122 187.77 309.351 187.922C309.406 187.959 309.453 188.006 309.488 188.061Z" fill="#319766"/>
<path d="M55.2437 105.683V94.0818H62.2454V95.3281H56.6485V99.2482H61.8829V100.494H56.6485V104.437H62.336V105.683H55.2437ZM65.2743 96.9822L67.359 100.54L69.4436 96.9822H70.9844L68.1747 101.332L70.9844 105.683H69.4436L67.359 102.308L65.2743 105.683H63.7334L66.4979 101.332L63.7334 96.9822H65.2743ZM72.5731 108.947V96.9822H73.8647V98.3645H74.0232C74.1214 98.2134 74.2574 98.0208 74.4311 97.7866C74.6087 97.5487 74.8617 97.3372 75.1902 97.1522C75.5225 96.9634 75.972 96.8689 76.5385 96.8689C77.2711 96.8689 77.9169 97.0521 78.4759 97.4184C79.0348 97.7848 79.471 98.304 79.7845 98.9762C80.0978 99.6485 80.2546 100.441 80.2546 101.355C80.2546 102.277 80.0978 103.075 79.7845 103.751C79.471 104.424 79.0367 104.945 78.4815 105.316C77.9263 105.681 77.2863 105.865 76.5611 105.865C76.0022 105.865 75.5546 105.772 75.2185 105.587C74.8825 105.398 74.6237 105.185 74.4425 104.947C74.2612 104.705 74.1214 104.505 74.0232 104.346H73.91V108.947H72.5731ZM73.8873 101.332C73.8873 101.99 73.9836 102.57 74.1763 103.072C74.3688 103.571 74.6502 103.962 75.0202 104.245C75.3904 104.524 75.8436 104.664 76.3799 104.664C76.9388 104.664 77.4052 104.517 77.7791 104.222C78.1568 103.924 78.44 103.523 78.6288 103.021C78.8214 102.515 78.9177 101.953 78.9177 101.332C78.9177 100.721 78.8233 100.17 78.6344 99.6787C78.4494 99.184 78.168 98.7931 77.7904 98.506C77.4166 98.2153 76.9464 98.0698 76.3799 98.0698C75.836 98.0698 75.3791 98.2077 75.009 98.4834C74.6389 98.7553 74.3594 99.1368 74.1706 99.6277C73.9818 100.115 73.8873 100.683 73.8873 101.332ZM85.6231 105.865C84.7847 105.865 84.0615 105.679 83.4535 105.31C82.8492 104.936 82.3828 104.414 82.0542 103.746C81.7295 103.074 81.567 102.292 81.567 101.401C81.567 100.51 81.7295 99.7243 82.0542 99.0442C82.3828 98.3607 82.8397 97.8282 83.4251 97.4467C84.0143 97.0616 84.7016 96.8689 85.4871 96.8689C85.9403 96.8689 86.3878 96.9444 86.8297 97.0956C87.2716 97.2466 87.6738 97.4921 88.0363 97.832C88.3989 98.1681 88.6878 98.6137 88.9031 99.1689C89.1183 99.7243 89.2259 100.407 89.2259 101.22V101.786H82.5188V100.631H87.8664C87.8664 100.139 87.7682 99.7014 87.5718 99.3161C87.3792 98.931 87.1035 98.6269 86.7447 98.4041C86.3897 98.1813 85.9706 98.0698 85.4871 98.0698C84.9546 98.0698 84.4939 98.202 84.1049 98.4665C83.7197 98.727 83.4233 99.0669 83.2155 99.4861C83.0078 99.9058 82.9039 100.354 82.9039 100.834V101.605C82.9039 102.262 83.0173 102.819 83.2438 103.276C83.4742 103.729 83.7934 104.074 84.2013 104.313C84.609 104.547 85.083 104.664 85.6231 104.664C85.9743 104.664 86.2915 104.615 86.5747 104.517C86.8618 104.414 87.1091 104.264 87.3169 104.063C87.5246 103.859 87.6851 103.607 87.7984 103.305L89.09 103.666C88.954 104.105 88.7255 104.49 88.4046 104.822C88.0835 105.151 87.687 105.407 87.2149 105.593C86.7428 105.774 86.2122 105.865 85.6231 105.865ZM92.2775 100.449V105.683H90.9406V96.9822H92.2322V98.3418H92.3455C92.5494 97.9 92.859 97.5449 93.2745 97.2768C93.6899 97.0049 94.2262 96.8689 94.8833 96.8689C95.4725 96.8689 95.988 96.9898 96.4298 97.2315C96.8717 97.4694 97.2154 97.832 97.4609 98.3191C97.7063 98.8026 97.8291 99.4143 97.8291 100.155V105.683H96.4922V100.245C96.4922 99.5616 96.3147 99.0292 95.9597 98.6477C95.6046 98.2625 95.1175 98.0698 94.4981 98.0698C94.0714 98.0698 93.6899 98.1624 93.3539 98.3474C93.0214 98.5326 92.759 98.8025 92.5664 99.1575C92.3738 99.5125 92.2775 99.9426 92.2775 100.449ZM106.116 98.931L104.916 99.2708C104.84 99.0706 104.728 98.8761 104.581 98.6874C104.437 98.4948 104.241 98.3361 103.992 98.2115C103.742 98.0869 103.423 98.0246 103.034 98.0246C102.502 98.0246 102.058 98.1473 101.703 98.3928C101.353 98.6345 101.177 98.9422 101.177 99.3161C101.177 99.6485 101.298 99.9107 101.539 100.103C101.781 100.297 102.158 100.457 102.673 100.585L103.964 100.903C104.741 101.091 105.322 101.38 105.702 101.769C106.084 102.154 106.275 102.651 106.275 103.259C106.275 103.757 106.131 104.203 105.844 104.596C105.561 104.989 105.165 105.299 104.655 105.525C104.145 105.751 103.552 105.865 102.876 105.865C101.989 105.865 101.254 105.672 100.673 105.287C100.091 104.902 99.7224 104.339 99.5677 103.599L100.837 103.282C100.958 103.75 101.186 104.101 101.522 104.335C101.862 104.57 102.306 104.686 102.853 104.686C103.476 104.686 103.972 104.554 104.338 104.29C104.707 104.021 104.893 103.7 104.893 103.327C104.893 103.024 104.787 102.772 104.576 102.568C104.364 102.36 104.039 102.205 103.601 102.103L102.151 101.763C101.354 101.575 100.768 101.282 100.394 100.886C100.024 100.485 99.84 99.9845 99.84 99.3841C99.84 98.8932 99.9776 98.4589 100.253 98.0812C100.533 97.7035 100.912 97.4071 101.391 97.1919C101.875 96.9765 102.423 96.8689 103.034 96.8689C103.896 96.8689 104.572 97.0578 105.062 97.4354C105.557 97.8131 105.909 98.3116 106.116 98.931ZM111.617 105.865C110.778 105.865 110.054 105.679 109.447 105.31C108.843 104.936 108.376 104.414 108.047 103.746C107.722 103.074 107.561 102.292 107.561 101.401C107.561 100.51 107.722 99.7243 108.047 99.0442C108.376 98.3607 108.833 97.8282 109.418 97.4467C110.008 97.0616 110.695 96.8689 111.48 96.8689C111.934 96.8689 112.381 96.9444 112.823 97.0956C113.265 97.2466 113.668 97.4921 114.03 97.832C114.392 98.1681 114.682 98.6137 114.897 99.1689C115.111 99.7243 115.219 100.407 115.219 101.22V101.786H108.512V100.631H113.86C113.86 100.139 113.761 99.7014 113.565 99.3161C113.373 98.931 113.097 98.6269 112.738 98.4041C112.383 98.1813 111.964 98.0698 111.48 98.0698C110.948 98.0698 110.487 98.202 110.098 98.4665C109.713 98.727 109.416 99.0669 109.209 99.4861C109.002 99.9058 108.897 100.354 108.897 100.834V101.605C108.897 102.262 109.011 102.819 109.237 103.276C109.467 103.729 109.787 104.074 110.195 104.313C110.603 104.547 111.076 104.664 111.617 104.664C111.968 104.664 112.285 104.615 112.568 104.517C112.855 104.414 113.102 104.264 113.311 104.063C113.518 103.859 113.679 103.607 113.792 103.305L115.083 103.666C114.948 104.105 114.718 104.49 114.398 104.822C114.077 105.151 113.681 105.407 113.208 105.593C112.736 105.774 112.206 105.865 111.617 105.865ZM123.097 98.931L121.896 99.2708C121.821 99.0706 121.71 98.8761 121.562 98.6874C121.418 98.4948 121.222 98.3361 120.973 98.2115C120.724 98.0869 120.404 98.0246 120.016 98.0246C119.483 98.0246 119.04 98.1473 118.685 98.3928C118.334 98.6345 118.157 98.9422 118.157 99.3161C118.157 99.6485 118.279 99.9107 118.52 100.103C118.761 100.297 119.139 100.457 119.653 100.585L120.945 100.903C121.723 101.091 122.303 101.38 122.684 101.769C123.065 102.154 123.256 102.651 123.256 103.259C123.256 103.757 123.112 104.203 122.825 104.596C122.542 104.989 122.145 105.299 121.636 105.525C121.126 105.751 120.533 105.865 119.857 105.865C118.97 105.865 118.235 105.672 117.654 105.287C117.071 104.902 116.704 104.339 116.549 103.599L117.818 103.282C117.939 103.75 118.167 104.101 118.503 104.335C118.843 104.57 119.287 104.686 119.834 104.686C120.457 104.686 120.952 104.554 121.319 104.29C121.689 104.021 121.874 103.7 121.874 103.327C121.874 103.024 121.768 102.772 121.557 102.568C121.345 102.36 121.021 102.205 120.582 102.103L119.132 101.763C118.335 101.575 117.749 101.282 117.376 100.886C117.006 100.485 116.821 99.9845 116.821 99.3841C116.821 98.8932 116.959 98.4589 117.234 98.0812C117.514 97.7035 117.893 97.4071 118.373 97.1919C118.856 96.9765 119.403 96.8689 120.016 96.8689C120.877 96.8689 121.553 97.0578 122.044 97.4354C122.538 97.8131 122.89 98.3116 123.097 98.931Z" fill="#F1F1EF"/>
<path d="M61.5882 144.839C61.5202 144.265 61.2446 143.819 60.7612 143.502C60.2778 143.185 59.6848 143.027 58.9824 143.027C58.4688 143.027 58.0194 143.11 57.6342 143.276C57.2527 143.442 56.9544 143.67 56.7391 143.961C56.5277 144.252 56.4219 144.582 56.4219 144.952C56.4219 145.262 56.4956 145.528 56.6428 145.752C56.7939 145.97 56.9865 146.153 57.2206 146.301C57.4548 146.445 57.7003 146.563 57.9571 146.658C58.2139 146.748 58.4499 146.821 58.6652 146.878L59.8435 147.195C60.1456 147.275 60.4817 147.385 60.8518 147.524C61.2257 147.664 61.5825 147.854 61.9225 148.097C62.2662 148.334 62.5494 148.64 62.7722 149.014C62.995 149.388 63.1065 149.846 63.1065 150.391C63.1065 151.018 62.9422 151.584 62.6136 152.09C62.2888 152.596 61.813 152.998 61.186 153.297C60.5629 153.595 59.8057 153.745 58.9144 153.745C58.0836 153.745 57.3642 153.61 56.7561 153.342C56.1519 153.074 55.676 152.7 55.3286 152.22C54.9849 151.741 54.7904 151.183 54.7451 150.549H56.1953C56.2331 150.987 56.3803 151.35 56.6372 151.637C56.8978 151.92 57.2263 152.132 57.6229 152.271C58.0232 152.408 58.4537 152.476 58.9144 152.476C59.4507 152.476 59.9322 152.389 60.359 152.214C60.7857 152.037 61.1237 151.792 61.373 151.479C61.6222 151.161 61.7469 150.791 61.7469 150.368C61.7469 149.983 61.6393 149.669 61.424 149.428C61.2087 149.186 60.9255 148.99 60.5743 148.838C60.223 148.688 59.8435 148.555 59.4356 148.442L58.008 148.034C57.1017 147.774 56.3841 147.402 55.8554 146.918C55.3267 146.435 55.0624 145.803 55.0624 145.021C55.0624 144.371 55.2379 143.805 55.5892 143.321C55.9441 142.833 56.42 142.457 57.0167 142.188C57.6172 141.916 58.2875 141.781 59.0277 141.781C59.7755 141.781 60.4402 141.914 61.0217 142.182C61.6034 142.447 62.0641 142.809 62.404 143.27C62.7477 143.731 62.9289 144.254 62.9479 144.839H61.5882ZM67.4765 153.745C66.925 153.745 66.4247 153.64 65.9753 153.433C65.5258 153.221 65.169 152.917 64.9046 152.52C64.6403 152.121 64.5081 151.637 64.5081 151.071C64.5081 150.572 64.6063 150.167 64.8027 149.858C64.999 149.544 65.2615 149.299 65.59 149.122C65.9187 148.944 66.2812 148.813 66.6777 148.725C67.0781 148.635 67.4803 148.563 67.8844 148.51C68.4131 148.442 68.8417 148.391 69.1702 148.357C69.5026 148.319 69.7443 148.257 69.8954 148.17C70.0502 148.084 70.1277 147.932 70.1277 147.717V147.672C70.1277 147.113 69.9747 146.678 69.6687 146.369C69.3666 146.059 68.9078 145.904 68.2923 145.904C67.654 145.904 67.1536 146.044 66.791 146.323C66.4284 146.603 66.1736 146.901 66.0262 147.218L64.7573 146.766C64.984 146.236 65.2861 145.824 65.6637 145.53C66.0452 145.232 66.4605 145.024 66.91 144.907C67.3631 144.787 67.8088 144.726 68.2469 144.726C68.5264 144.726 68.8474 144.76 69.2099 144.827C69.5762 144.892 69.9294 145.026 70.2692 145.23C70.6129 145.434 70.8981 145.742 71.1247 146.153C71.3512 146.565 71.4646 147.117 71.4646 147.808V153.54H70.1277V152.362H70.0597C69.969 152.551 69.818 152.753 69.6064 152.968C69.395 153.183 69.1136 153.367 68.7624 153.517C68.4112 153.669 67.9826 153.745 67.4765 153.745ZM67.6804 152.543C68.2091 152.543 68.6548 152.44 69.0173 152.232C69.3837 152.024 69.6594 151.756 69.8444 151.428C70.0332 151.099 70.1277 150.754 70.1277 150.391V149.167C70.071 149.235 69.9464 149.297 69.7538 149.354C69.5649 149.407 69.3459 149.455 69.0966 149.495C68.8512 149.533 68.6113 149.567 68.3772 149.597C68.1468 149.624 67.9599 149.647 67.8164 149.666C67.4689 149.711 67.1441 149.785 66.842 149.886C66.5437 149.985 66.3019 150.134 66.1169 150.334C65.9356 150.53 65.845 150.799 65.845 151.139C65.845 151.603 66.0169 151.954 66.3605 152.192C66.7079 152.427 67.1479 152.543 67.6804 152.543ZM80.3891 144.839L77.1715 153.54H75.8119L72.5943 144.839H74.0445L76.4463 151.773H76.5371L78.9389 144.839H80.3891ZM81.8347 153.54V144.839H83.1716V153.54H81.8347ZM82.5145 143.389C82.2539 143.389 82.0291 143.3 81.8404 143.123C81.6553 142.945 81.5627 142.732 81.5627 142.482C81.5627 142.233 81.6553 142.02 81.8404 141.842C82.0291 141.665 82.2539 141.576 82.5145 141.576C82.7751 141.576 82.9978 141.665 83.1829 141.842C83.3717 142.02 83.4661 142.233 83.4661 142.482C83.4661 142.732 83.3717 142.945 83.1829 143.123C82.9978 143.3 82.7751 143.389 82.5145 143.389ZM86.6381 148.306V153.54H85.3011V144.839H86.5928V146.198H86.706C86.91 145.757 87.2197 145.402 87.6351 145.134C88.0505 144.861 88.5868 144.726 89.2439 144.726C89.8331 144.726 90.3485 144.846 90.7904 145.089C91.2323 145.326 91.5759 145.689 91.8214 146.176C92.0669 146.659 92.1896 147.271 92.1896 148.012V153.54H90.8527V148.102C90.8527 147.419 90.6752 146.886 90.3202 146.504C89.9653 146.12 89.478 145.927 88.8587 145.927C88.432 145.927 88.0505 146.019 87.7144 146.204C87.3821 146.39 87.1196 146.659 86.927 147.015C86.7343 147.37 86.6381 147.8 86.6381 148.306ZM97.8258 156.985C97.18 156.985 96.6248 156.901 96.1603 156.736C95.6958 156.573 95.3087 156.358 94.999 156.09C94.6931 155.826 94.4495 155.542 94.2683 155.24L95.3333 154.493C95.4541 154.651 95.6071 154.831 95.7921 155.036C95.9772 155.243 96.2302 155.423 96.5512 155.574C96.876 155.729 97.3008 155.807 97.8258 155.807C98.5282 155.807 99.1079 155.636 99.5649 155.296C100.021 154.956 100.251 154.424 100.251 153.699V151.931H100.137C100.038 152.09 99.8988 152.286 99.7174 152.52C99.5403 152.751 99.2836 152.957 98.9475 153.139C98.6151 153.316 98.1657 153.405 97.5992 153.405C96.8967 153.405 96.2661 153.238 95.7072 152.906C95.1519 152.573 94.712 152.09 94.3872 151.456C94.0662 150.821 93.9057 150.051 93.9057 149.145C93.9057 148.253 94.0624 147.477 94.3759 146.816C94.6893 146.151 95.1255 145.638 95.6844 145.275C96.2434 144.909 96.8892 144.726 97.6218 144.726C98.1883 144.726 98.6377 144.82 98.9701 145.009C99.3062 145.194 99.563 145.406 99.7403 145.644C99.9218 145.877 100.061 146.071 100.16 146.221H100.296V144.839H101.587V153.79C101.587 154.537 101.417 155.146 101.077 155.614C100.741 156.086 100.288 156.432 99.7174 156.65C99.1514 156.873 98.5207 156.985 97.8258 156.985ZM97.7805 152.203C98.3168 152.203 98.7699 152.081 99.14 151.835C99.5101 151.59 99.7911 151.236 99.9846 150.776C100.177 150.315 100.273 149.764 100.273 149.122C100.273 148.494 100.179 147.941 99.9896 147.462C99.8011 146.982 99.5215 146.606 99.1514 146.335C98.7813 146.063 98.3243 145.927 97.7805 145.927C97.214 145.927 96.7419 146.071 96.3642 146.357C95.9903 146.644 95.709 147.03 95.5202 147.513C95.3351 147.996 95.2426 148.532 95.2426 149.122C95.2426 149.726 95.337 150.26 95.5258 150.725C95.7184 151.185 96.0017 151.548 96.3756 151.813C96.7532 152.073 97.2215 152.203 97.7805 152.203ZM109.879 146.788L108.678 147.128C108.603 146.927 108.491 146.733 108.344 146.544C108.2 146.352 108.004 146.193 107.754 146.069C107.505 145.944 107.186 145.881 106.797 145.881C106.265 145.881 105.821 146.004 105.466 146.25C105.114 146.491 104.939 146.8 104.939 147.173C104.939 147.505 105.06 147.768 105.302 147.96C105.543 148.153 105.921 148.314 106.434 148.442L107.726 148.76C108.504 148.948 109.083 149.237 109.465 149.626C109.847 150.011 110.037 150.507 110.037 151.116C110.037 151.614 109.894 152.06 109.607 152.453C109.324 152.845 108.927 153.156 108.417 153.382C107.908 153.608 107.315 153.722 106.639 153.722C105.751 153.722 105.017 153.529 104.435 153.144C103.853 152.759 103.485 152.196 103.331 151.456L104.599 151.139C104.72 151.607 104.949 151.958 105.285 152.192C105.625 152.427 106.068 152.543 106.616 152.543C107.239 152.543 107.733 152.411 108.1 152.147C108.47 151.878 108.656 151.557 108.656 151.183C108.656 150.881 108.55 150.629 108.338 150.425C108.126 150.217 107.802 150.062 107.363 149.96L105.914 149.62C105.116 149.432 104.531 149.139 104.157 148.743C103.787 148.342 103.602 147.841 103.602 147.241C103.602 146.75 103.74 146.316 104.016 145.938C104.295 145.56 104.675 145.264 105.154 145.049C105.638 144.833 106.185 144.726 106.797 144.726C107.659 144.726 108.335 144.914 108.825 145.292C109.32 145.67 109.672 146.168 109.879 146.788Z" fill="#F1F1EF"/>
<path d="M55.2437 201.397V189.796H62.2454V191.042H56.6485V194.961H61.8829V196.208H56.6485V200.151H62.336V201.397H55.2437ZM66.8378 201.601C66.2864 201.601 65.786 201.497 65.3366 201.289C64.8872 201.078 64.5303 200.774 64.2659 200.377C64.0016 199.977 63.8694 199.494 63.8694 198.927C63.8694 198.429 63.9676 198.024 64.1639 197.715C64.3604 197.401 64.6229 197.156 64.9514 196.978C65.28 196.801 65.6425 196.669 66.039 196.581C66.4393 196.492 66.8415 196.42 67.2456 196.367C67.7743 196.298 68.2031 196.247 68.5316 196.214C68.864 196.176 69.1057 196.114 69.2567 196.027C69.4115 195.94 69.4889 195.789 69.4889 195.573V195.529C69.4889 194.969 69.336 194.535 69.0301 194.226C68.728 193.915 68.2692 193.761 67.6535 193.761C67.0153 193.761 66.5149 193.9 66.1524 194.18C65.7898 194.46 65.5348 194.758 65.3876 195.075L64.1187 194.622C64.3453 194.093 64.6474 193.681 65.0251 193.387C65.4064 193.089 65.8219 192.881 66.2713 192.764C66.7245 192.643 67.1701 192.582 67.6082 192.582C67.8877 192.582 68.2087 192.616 68.5713 192.684C68.9376 192.749 69.2907 192.883 69.6306 193.087C69.9743 193.29 70.2594 193.598 70.4859 194.01C70.7125 194.422 70.8259 194.973 70.8259 195.664V201.397H69.4889V200.219H69.421C69.3304 200.408 69.1792 200.609 68.9678 200.825C68.7563 201.04 68.4749 201.224 68.1237 201.374C67.7725 201.526 67.3438 201.601 66.8378 201.601ZM67.0417 200.4C67.5704 200.4 68.0161 200.296 68.3786 200.089C68.7449 199.881 69.0206 199.612 69.2058 199.284C69.3945 198.955 69.4889 198.61 69.4889 198.247V197.024C69.4323 197.092 69.3076 197.154 69.115 197.211C68.9263 197.263 68.7072 197.311 68.458 197.352C68.2124 197.39 67.9726 197.424 67.7385 197.454C67.5081 197.481 67.3212 197.504 67.1777 197.523C66.8303 197.568 66.5054 197.641 66.2033 197.743C65.9049 197.842 65.6633 197.99 65.4782 198.191C65.297 198.387 65.2063 198.655 65.2063 198.995C65.2063 199.46 65.3781 199.811 65.7218 200.049C66.0692 200.283 66.5092 200.4 67.0417 200.4ZM72.9469 201.397V192.696H74.2386V194.01H74.3292C74.4878 193.579 74.7748 193.23 75.1902 192.962C75.6057 192.694 76.074 192.56 76.5951 192.56C76.6933 192.56 76.8161 192.561 76.9633 192.565C77.1106 192.569 77.222 192.575 77.2975 192.582V193.942C77.2523 193.93 77.1484 193.913 76.986 193.892C76.8273 193.865 76.6593 193.852 76.4819 193.852C76.0588 193.852 75.6812 193.94 75.3489 194.118C75.0202 194.291 74.7597 194.534 74.5671 194.843C74.3783 195.149 74.2838 195.498 74.2838 195.891V201.397H72.9469ZM79.9001 196.163V201.397H78.5632V192.696H79.8549V194.055H79.9681C80.1721 193.613 80.4818 193.258 80.8971 192.99C81.3126 192.718 81.8489 192.582 82.506 192.582C83.0952 192.582 83.6106 192.703 84.0525 192.945C84.4944 193.183 84.838 193.546 85.0835 194.033C85.329 194.516 85.4517 195.128 85.4517 195.869V201.397H84.1148V195.958C84.1148 195.275 83.9373 194.743 83.5823 194.361C83.2274 193.976 82.7401 193.784 82.1208 193.784C81.6941 193.784 81.3126 193.876 80.9765 194.061C80.6441 194.246 80.3817 194.516 80.1891 194.872C79.9964 195.227 79.9001 195.656 79.9001 196.163ZM87.5756 201.397V192.696H88.9126V201.397H87.5756ZM88.2554 191.245C87.9949 191.245 87.7702 191.157 87.5813 190.979C87.3963 190.802 87.3038 190.588 87.3038 190.339C87.3038 190.09 87.3963 189.877 87.5813 189.699C87.7702 189.522 87.9949 189.433 88.2554 189.433C88.516 189.433 88.7389 189.522 88.9239 189.699C89.1128 189.877 89.2072 190.09 89.2072 190.339C89.2072 190.588 89.1128 190.802 88.9239 190.979C88.7389 191.157 88.516 191.245 88.2554 191.245ZM92.3791 196.163V201.397H91.0422V192.696H92.3337V194.055H92.4471C92.651 193.613 92.9606 193.258 93.3761 192.99C93.7915 192.718 94.3277 192.582 94.9849 192.582C95.574 192.582 96.0896 192.703 96.5314 192.945C96.9732 193.183 97.3169 193.546 97.5624 194.033C97.8079 194.516 97.9306 195.128 97.9306 195.869V201.397H96.5938V195.958C96.5938 195.275 96.4162 194.743 96.0612 194.361C95.7062 193.976 95.2191 193.784 94.5997 193.784C94.1729 193.784 93.7915 193.876 93.4553 194.061C93.123 194.246 92.8605 194.516 92.668 194.872C92.4754 195.227 92.3791 195.656 92.3791 196.163ZM103.567 204.842C102.921 204.842 102.365 204.758 101.901 204.592C101.437 204.43 101.049 204.215 100.74 203.946C100.434 203.682 100.191 203.399 100.01 203.097L101.074 202.349C101.195 202.508 101.348 202.688 101.533 202.893C101.718 203.1 101.971 203.279 102.292 203.431C102.617 203.585 103.041 203.663 103.567 203.663C104.269 203.663 104.849 203.493 105.306 203.153C105.763 202.813 105.992 202.28 105.992 201.556V199.788H105.878C105.78 199.946 105.64 200.143 105.459 200.377C105.282 200.607 105.025 200.814 104.689 200.995C104.357 201.173 103.907 201.261 103.341 201.261C102.638 201.261 102.007 201.095 101.448 200.763C100.893 200.43 100.453 199.946 100.128 199.312C99.8071 198.678 99.6467 197.907 99.6467 197.001C99.6467 196.11 99.8031 195.334 100.117 194.673C100.43 194.008 100.867 193.495 101.425 193.132C101.985 192.766 102.63 192.582 103.362 192.582C103.93 192.582 104.378 192.677 104.711 192.866C105.047 193.051 105.304 193.262 105.481 193.501C105.663 193.734 105.802 193.927 105.901 194.078H106.036V192.696H107.329V201.646C107.329 202.394 107.158 203.002 106.818 203.471C106.482 203.942 106.03 204.288 105.459 204.507C104.892 204.73 104.262 204.842 103.567 204.842ZM103.521 200.06C104.057 200.06 104.511 199.937 104.881 199.692C105.251 199.447 105.532 199.093 105.725 198.632C105.918 198.172 106.014 197.62 106.014 196.978C106.014 196.351 105.92 195.798 105.73 195.318C105.542 194.839 105.263 194.463 104.892 194.192C104.522 193.919 104.065 193.784 103.521 193.784C102.955 193.784 102.483 193.927 102.105 194.214C101.731 194.501 101.45 194.887 101.261 195.37C101.076 195.853 100.984 196.389 100.984 196.978C100.984 197.582 101.078 198.117 101.267 198.581C101.459 199.042 101.742 199.405 102.116 199.669C102.494 199.929 102.963 200.06 103.521 200.06ZM115.62 194.644L114.418 194.984C114.344 194.784 114.232 194.589 114.084 194.401C113.941 194.209 113.744 194.05 113.495 193.925C113.246 193.801 112.927 193.738 112.538 193.738C112.006 193.738 111.562 193.861 111.207 194.107C110.856 194.348 110.68 194.656 110.68 195.03C110.68 195.362 110.801 195.624 111.042 195.817C111.284 196.01 111.662 196.171 112.175 196.298L113.467 196.616C114.245 196.805 114.825 197.094 115.206 197.483C115.588 197.868 115.778 198.364 115.778 198.972C115.778 199.471 115.635 199.916 115.348 200.309C115.064 200.702 114.668 201.012 114.158 201.239C113.649 201.465 113.055 201.579 112.379 201.579C111.492 201.579 110.757 201.386 110.176 201C109.594 200.615 109.226 200.053 109.071 199.312L110.341 198.995C110.461 199.464 110.69 199.815 111.026 200.049C111.366 200.283 111.809 200.4 112.357 200.4C112.98 200.4 113.474 200.267 113.841 200.003C114.211 199.735 114.396 199.414 114.396 199.04C114.396 198.738 114.291 198.486 114.079 198.281C113.867 198.074 113.543 197.918 113.104 197.817L111.655 197.477C110.857 197.288 110.272 196.995 109.898 196.599C109.528 196.199 109.344 195.698 109.344 195.098C109.344 194.606 109.481 194.173 109.756 193.795C110.037 193.417 110.415 193.121 110.895 192.905C111.378 192.69 111.926 192.582 112.538 192.582C113.399 192.582 114.075 192.771 114.566 193.149C115.06 193.527 115.412 194.025 115.62 194.644Z" fill="#F1F1EF"/>
<path d="M33.8984 252.245C38.8542 252.245 42.8716 248.228 42.8716 243.272C42.8716 238.316 38.8542 234.299 33.8984 234.299C28.9427 234.299 24.9253 238.316 24.9253 243.272C24.9253 248.228 28.9427 252.245 33.8984 252.245Z" stroke="#F7931A" stroke-width="0.997015"/>
<path d="M58.8238 249.254H55.2437V237.652H58.9825C60.1079 237.652 61.0709 237.885 61.8715 238.348C62.6721 238.81 63.2859 239.472 63.7126 240.337C64.1393 241.198 64.3528 242.23 64.3528 243.43C64.3528 244.639 64.1374 245.679 63.7069 246.552C63.2764 247.42 62.6495 248.088 61.8262 248.557C61.0029 249.021 60.0021 249.254 58.8238 249.254ZM56.6485 248.007H58.7332C59.6924 248.007 60.4875 247.822 61.1181 247.452C61.7488 247.082 62.219 246.556 62.5286 245.872C62.8383 245.188 62.9932 244.374 62.9932 243.43C62.9932 242.494 62.8402 241.687 62.5343 241.011C62.2284 240.331 61.7714 239.81 61.1634 239.448C60.5553 239.081 59.7982 238.899 58.8918 238.899H56.6485V248.007ZM66.209 249.254V240.553H67.5459V249.254H66.209ZM66.8888 239.102C66.6282 239.102 66.4034 239.013 66.2147 238.836C66.0296 238.658 65.937 238.445 65.937 238.196C65.937 237.947 66.0296 237.733 66.2147 237.556C66.4034 237.378 66.6282 237.29 66.8888 237.29C67.1494 237.29 67.3721 237.378 67.5572 237.556C67.746 237.733 67.8404 237.947 67.8404 238.196C67.8404 238.445 67.746 238.658 67.5572 238.836C67.3721 239.013 67.1494 239.102 66.8888 239.102ZM73.1877 252.698C72.5419 252.698 71.9867 252.615 71.5222 252.449C71.0577 252.287 70.6707 252.071 70.3609 251.803C70.055 251.539 69.8114 251.256 69.6302 250.954L70.6952 250.206C70.816 250.364 70.969 250.545 71.154 250.749C71.3391 250.957 71.5921 251.136 71.9131 251.288C72.2379 251.442 72.6628 251.52 73.1877 251.52C73.8901 251.52 74.4699 251.349 74.9268 251.009C75.3838 250.669 75.6123 250.137 75.6123 249.412V247.645H75.499C75.4008 247.803 75.261 247.999 75.0798 248.234C74.9023 248.464 74.6455 248.67 74.3094 248.852C73.977 249.029 73.5276 249.118 72.9611 249.118C72.2587 249.118 71.628 248.952 71.0691 248.62C70.5139 248.287 70.074 247.803 69.7491 247.169C69.4281 246.535 69.2677 245.764 69.2677 244.858C69.2677 243.967 69.4244 243.191 69.7378 242.53C70.0512 241.865 70.4874 241.351 71.0463 240.988C71.6054 240.623 72.2511 240.439 72.9837 240.439C73.5502 240.439 73.9997 240.534 74.332 240.722C74.6681 240.908 74.9249 241.119 75.1024 241.357C75.2837 241.591 75.4234 241.784 75.5216 241.935H75.6575V240.553H76.9492V249.503C76.9492 250.251 76.7792 250.859 76.4393 251.328C76.1032 251.799 75.6501 252.145 75.0798 252.363C74.5133 252.587 73.8825 252.698 73.1877 252.698ZM73.1424 247.917C73.6787 247.917 74.1318 247.794 74.502 247.549C74.8721 247.304 75.1534 246.95 75.346 246.489C75.5386 246.028 75.6349 245.477 75.6349 244.835C75.6349 244.208 75.5405 243.654 75.3517 243.175C75.1628 242.695 74.8833 242.319 74.5133 242.048C74.1432 241.776 73.6862 241.641 73.1424 241.641C72.5759 241.641 72.1039 241.784 71.7262 242.07C71.3523 242.357 71.071 242.743 70.8821 243.227C70.6971 243.709 70.6046 244.246 70.6046 244.835C70.6046 245.439 70.699 245.974 70.8878 246.438C71.0803 246.899 71.3636 247.262 71.7375 247.526C72.1151 247.786 72.5834 247.917 73.1424 247.917ZM79.0773 249.254V240.553H80.4143V249.254H79.0773ZM79.7572 239.102C79.4965 239.102 79.2718 239.013 79.083 238.836C78.8979 238.658 78.8054 238.445 78.8054 238.196C78.8054 237.947 78.8979 237.733 79.083 237.556C79.2718 237.378 79.4965 237.29 79.7572 237.29C80.0177 237.29 80.2405 237.378 80.4256 237.556C80.6144 237.733 80.7088 237.947 80.7088 238.196C80.7088 238.445 80.6144 238.658 80.4256 238.836C80.2405 239.013 80.0177 239.102 79.7572 239.102ZM82.7251 249.254V237.652H86.7811C87.5893 237.652 88.2559 237.792 88.7808 238.071C89.3058 238.347 89.6967 238.719 89.9534 239.187C90.2103 239.651 90.3387 240.167 90.3387 240.734C90.3387 241.233 90.2499 241.644 90.0725 241.969C89.8987 242.294 89.6684 242.551 89.3813 242.739C89.0981 242.928 88.7903 243.067 88.4579 243.158V243.272C88.8129 243.295 89.1699 243.419 89.5286 243.646C89.8874 243.872 90.1876 244.197 90.4293 244.62C90.671 245.043 90.7918 245.56 90.7918 246.172C90.7918 246.753 90.6597 247.277 90.3953 247.741C90.131 248.206 89.7136 248.574 89.1434 248.846C88.5732 249.118 87.8311 249.254 86.9171 249.254H82.7251ZM84.13 248.007H86.9171C87.8348 248.007 88.4862 247.83 88.8715 247.475C89.2605 247.116 89.4549 246.681 89.4549 246.172C89.4549 245.779 89.3549 245.417 89.1547 245.084C88.9545 244.748 88.6695 244.48 88.2993 244.28C87.9292 244.076 87.4911 243.975 86.9851 243.975H84.13V248.007ZM84.13 242.75H86.7359C87.1588 242.75 87.5403 242.667 87.8801 242.501C88.2238 242.335 88.4957 242.101 88.6959 241.799C88.8998 241.497 89.0018 241.142 89.0018 240.734C89.0018 240.224 88.8243 239.791 88.4693 239.436C88.1142 239.078 87.5515 238.899 86.7811 238.899H84.13V242.75ZM93.461 252.517C93.2344 252.517 93.0324 252.498 92.8549 252.46C92.6774 252.426 92.5546 252.392 92.4867 252.358L92.8265 251.18C93.1514 251.263 93.4384 251.293 93.6877 251.271C93.9369 251.248 94.1578 251.136 94.3505 250.937C94.5468 250.74 94.7262 250.42 94.8886 249.979L95.1378 249.299L91.9202 240.553H93.3704L95.7723 247.486H95.8629L98.2648 240.553H99.7154L96.0216 250.523C95.8554 250.972 95.6496 251.344 95.4041 251.639C95.1586 251.937 94.8735 252.158 94.5487 252.302C94.2277 252.445 93.8651 252.517 93.461 252.517ZM104.945 240.553V241.685H100.435V240.553H104.945ZM101.749 238.468H103.086V246.761C103.086 247.139 103.141 247.422 103.251 247.611C103.364 247.796 103.508 247.921 103.682 247.985C103.859 248.045 104.045 248.075 104.242 248.075C104.389 248.075 104.51 248.068 104.605 248.052C104.699 248.034 104.775 248.018 104.831 248.007L105.103 249.209C105.013 249.243 104.886 249.277 104.723 249.311C104.562 249.348 104.356 249.367 104.106 249.367C103.728 249.367 103.358 249.286 102.996 249.123C102.638 248.961 102.339 248.713 102.101 248.381C101.867 248.049 101.749 247.63 101.749 247.124V238.468ZM110.191 249.435C109.353 249.435 108.63 249.25 108.022 248.88C107.417 248.506 106.951 247.985 106.623 247.317C106.298 246.645 106.135 245.862 106.135 244.972C106.135 244.08 106.298 243.295 106.623 242.615C106.951 241.931 107.408 241.398 107.994 241.017C108.583 240.632 109.27 240.439 110.055 240.439C110.509 240.439 110.956 240.515 111.398 240.665C111.84 240.817 112.242 241.062 112.605 241.402C112.967 241.738 113.256 242.184 113.471 242.739C113.687 243.295 113.794 243.978 113.794 244.79V245.356H107.087V244.201H112.434C112.434 243.709 112.337 243.272 112.14 242.887C111.948 242.501 111.672 242.197 111.313 241.975C110.958 241.751 110.539 241.641 110.055 241.641C109.523 241.641 109.062 241.772 108.674 242.036C108.288 242.298 107.992 242.638 107.784 243.056C107.576 243.476 107.472 243.925 107.472 244.404V245.175C107.472 245.832 107.586 246.389 107.812 246.846C108.042 247.3 108.362 247.645 108.769 247.883C109.177 248.117 109.652 248.234 110.191 248.234C110.543 248.234 110.86 248.185 111.143 248.087C111.43 247.985 111.678 247.834 111.885 247.634C112.093 247.429 112.254 247.177 112.367 246.875L113.659 247.237C113.522 247.675 113.294 248.06 112.973 248.392C112.652 248.721 112.255 248.978 111.783 249.163C111.311 249.344 110.78 249.435 110.191 249.435Z" fill="url(#paint3_linear_1_1694)"/>
<path d="M23.9282 123.131H376.872" stroke="#292929" stroke-width="0.997015"/>
<path d="M23.9282 170.988H376.872" stroke="#292929" stroke-width="0.997015"/>
<path d="M23.9282 218.845H376.872" stroke="#292929" stroke-width="0.997015"/>
<path d="M192.061 107.134V92.6316H192.99V107.134H192.061ZM195.189 96.9822C195.121 96.4082 194.845 95.9625 194.361 95.6453C193.878 95.328 193.285 95.1694 192.583 95.1694C192.069 95.1694 191.619 95.2525 191.235 95.4186C190.853 95.5848 190.555 95.8134 190.339 96.1041C190.128 96.3949 190.022 96.7254 190.022 97.0955C190.022 97.4052 190.096 97.6714 190.243 97.8942C190.394 98.1133 190.587 98.2964 190.821 98.4437C191.055 98.5873 191.3 98.7062 191.558 98.8006C191.814 98.8913 192.05 98.9649 192.265 99.0216L193.444 99.3388C193.746 99.4181 194.082 99.5276 194.452 99.6673C194.826 99.807 195.183 99.9974 195.523 100.24C195.867 100.477 196.15 100.783 196.372 101.157C196.596 101.531 196.706 101.989 196.706 102.534C196.706 103.161 196.543 103.727 196.214 104.233C195.889 104.739 195.413 105.141 194.786 105.44C194.163 105.738 193.406 105.888 192.515 105.888C191.684 105.888 190.964 105.753 190.356 105.485C189.752 105.217 189.276 104.843 188.928 104.363C188.586 103.884 188.391 103.326 188.345 102.692H189.796C189.834 103.13 189.98 103.493 190.238 103.78C190.498 104.063 190.827 104.275 191.223 104.414C191.623 104.551 192.054 104.619 192.515 104.619C193.051 104.619 193.533 104.532 193.959 104.357C194.386 104.18 194.724 103.935 194.973 103.622C195.223 103.305 195.347 102.934 195.347 102.511C195.347 102.126 195.24 101.812 195.024 101.571C194.809 101.329 194.526 101.133 194.175 100.981C193.823 100.831 193.444 100.698 193.036 100.585L191.608 100.177C190.702 99.9167 189.984 99.5446 189.456 99.0612C188.926 98.5778 188.662 97.9452 188.662 97.1634C188.662 96.5139 188.838 95.9474 189.19 95.464C189.545 94.9769 190.02 94.5992 190.617 94.331C191.218 94.0591 191.888 93.9231 192.628 93.9231C193.376 93.9231 194.04 94.0572 194.622 94.3254C195.204 94.5897 195.664 94.9522 196.004 95.4131C196.348 95.8738 196.529 96.3968 196.548 96.9822H195.189ZM198.494 105.683V104.663L202.323 100.472C202.772 99.9805 203.143 99.5541 203.433 99.1915C203.724 98.8251 203.94 98.4815 204.079 98.1604C204.223 97.8357 204.294 97.4958 204.294 97.1408C204.294 96.7329 204.196 96.3799 203.999 96.0815C203.807 95.7832 203.543 95.5527 203.207 95.3903C202.871 95.228 202.493 95.1468 202.074 95.1468C201.628 95.1468 201.239 95.2393 200.907 95.4243C200.579 95.6056 200.323 95.8605 200.142 96.1891C199.964 96.5177 199.876 96.9029 199.876 97.3448H198.539C198.539 96.6649 198.695 96.0683 199.009 95.5546C199.322 95.0411 199.749 94.6407 200.289 94.3537C200.833 94.0667 201.443 93.9231 202.119 93.9231C202.799 93.9231 203.401 94.0667 203.927 94.3537C204.451 94.6407 204.863 95.0278 205.161 95.515C205.459 96.0022 205.609 96.5441 205.609 97.1408C205.609 97.5675 205.531 97.9849 205.376 98.3927C205.226 98.7968 204.96 99.2482 204.584 99.7462C204.21 100.242 203.69 100.846 203.025 101.56L200.419 104.346V104.437H205.813V105.683H198.494ZM209.85 104.097L209.759 104.709C209.695 105.14 209.597 105.601 209.465 106.091C209.336 106.583 209.202 107.045 209.062 107.479C208.923 107.914 208.807 108.259 208.717 108.516H207.697C207.746 108.274 207.81 107.955 207.89 107.559C207.969 107.162 208.048 106.718 208.128 106.227C208.211 105.74 208.279 105.242 208.331 104.731L208.399 104.097H209.85ZM215.377 105.842C214.712 105.842 214.113 105.71 213.581 105.445C213.048 105.181 212.622 104.819 212.3 104.357C211.979 103.897 211.804 103.372 211.774 102.783H213.134C213.187 103.308 213.424 103.742 213.847 104.086C214.274 104.426 214.784 104.596 215.377 104.596C215.853 104.596 216.276 104.484 216.645 104.262C217.019 104.038 217.312 103.733 217.524 103.343C217.739 102.951 217.847 102.507 217.847 102.012C217.847 101.507 217.735 101.055 217.513 100.658C217.294 100.259 216.991 99.9426 216.606 99.7123C216.221 99.4823 215.781 99.3652 215.287 99.3614C214.932 99.3577 214.567 99.4124 214.193 99.5257C213.819 99.6352 213.511 99.7771 213.27 99.9506L211.956 99.7921L212.657 94.0817H218.685V95.328H213.836L213.428 98.7497H213.496C213.734 98.5608 214.032 98.4041 214.391 98.2795C214.75 98.1549 215.124 98.0925 215.513 98.0925C216.223 98.0925 216.855 98.2624 217.41 98.6023C217.97 98.9384 218.407 99.3992 218.724 99.9845C219.045 100.57 219.206 101.239 219.206 101.989C219.206 102.73 219.04 103.391 218.707 103.973C218.379 104.551 217.926 105.007 217.348 105.343C216.77 105.675 216.113 105.842 215.377 105.842ZM220.866 103.305V102.149L225.964 94.0817H226.802V95.8719H226.236L222.384 101.968V102.058H229.25V103.305H220.866ZM226.326 105.683V102.953V102.415V94.0817H227.663V105.683H226.326ZM231.416 105.683L236.605 95.4186V95.328H230.623V94.0817H238.055V95.396L232.889 105.683H231.416Z" fill="#444444"/>
<path d="M329.649 103.645V96.1666H330.918V103.645H329.649ZM326.545 100.54V99.271H334.023V100.54H326.545ZM340.158 105.842C339.41 105.842 338.743 105.714 338.158 105.457C337.576 105.2 337.114 104.843 336.77 104.387C336.43 103.926 336.244 103.391 336.214 102.783H337.642C337.672 103.157 337.801 103.48 338.027 103.751C338.254 104.02 338.55 104.228 338.916 104.376C339.283 104.522 339.689 104.596 340.135 104.596C340.633 104.596 341.075 104.509 341.461 104.336C341.846 104.161 342.148 103.92 342.367 103.61C342.585 103.301 342.695 102.942 342.695 102.534C342.695 102.107 342.589 101.731 342.378 101.406C342.167 101.078 341.857 100.821 341.449 100.637C341.041 100.451 340.543 100.359 339.953 100.359H339.024V99.1124H339.953C340.414 99.1124 340.819 99.0294 341.166 98.8632C341.517 98.697 341.791 98.4628 341.987 98.1607C342.188 97.8586 342.287 97.5036 342.287 97.0957C342.287 96.7029 342.201 96.3611 342.027 96.0704C341.853 95.7796 341.607 95.553 341.29 95.3906C340.977 95.2282 340.606 95.147 340.18 95.147C339.78 95.147 339.402 95.2207 339.047 95.3679C338.696 95.5114 338.409 95.7211 338.186 95.9967C337.963 96.2686 337.843 96.5972 337.824 96.9824H336.464C336.487 96.3744 336.67 95.8419 337.013 95.385C337.357 94.9241 337.807 94.5654 338.362 94.3086C338.92 94.0518 339.535 93.9233 340.203 93.9233C340.92 93.9233 341.536 94.0688 342.049 94.3595C342.563 94.6466 342.957 95.0261 343.233 95.4982C343.509 95.9703 343.647 96.4801 343.647 97.0277C343.647 97.6811 343.475 98.2381 343.132 98.6988C342.792 99.1596 342.329 99.4787 341.744 99.6562V99.7464C342.476 99.868 343.048 100.179 343.46 100.682C343.872 101.18 344.078 101.797 344.078 102.534C344.078 103.164 343.905 103.731 343.562 104.233C343.222 104.731 342.758 105.124 342.169 105.411C341.579 105.699 340.909 105.842 340.158 105.842ZM349.701 105.842C349.036 105.842 348.438 105.711 347.905 105.445C347.373 105.181 346.946 104.819 346.625 104.358C346.304 103.897 346.128 103.373 346.098 102.783H347.458C347.511 103.308 347.748 103.742 348.172 104.086C348.598 104.426 349.108 104.596 349.701 104.596C350.177 104.596 350.599 104.484 350.97 104.262C351.344 104.039 351.636 103.733 351.848 103.344C352.063 102.951 352.171 102.507 352.171 102.013C352.171 101.507 352.059 101.055 351.837 100.659C351.617 100.259 351.315 99.9428 350.93 99.7125C350.545 99.4825 350.105 99.3655 349.61 99.3617C349.255 99.3579 348.89 99.4126 348.517 99.526C348.143 99.6354 347.836 99.7773 347.593 99.9508L346.279 99.7923L346.982 94.082H353.009V95.3282H348.16L347.752 98.7499H347.82C348.058 98.5611 348.356 98.4043 348.715 98.2797C349.074 98.1551 349.448 98.0928 349.837 98.0928C350.547 98.0928 351.18 98.2626 351.735 98.6025C352.293 98.9386 352.732 99.3994 353.049 99.9847C353.37 100.57 353.531 101.239 353.531 101.99C353.531 102.73 353.364 103.391 353.032 103.973C352.703 104.551 352.25 105.008 351.672 105.344C351.095 105.676 350.437 105.842 349.701 105.842ZM361.376 103.508V102.897C361.376 102.473 361.463 102.086 361.636 101.735C361.814 101.381 362.071 101.097 362.407 100.886C362.747 100.671 363.158 100.563 363.641 100.563C364.133 100.563 364.545 100.671 364.877 100.886C365.209 101.097 365.46 101.381 365.63 101.735C365.8 102.086 365.885 102.473 365.885 102.897V103.508C365.885 103.931 365.798 104.321 365.624 104.676C365.455 105.027 365.202 105.31 364.866 105.525C364.533 105.736 364.125 105.842 363.641 105.842C363.151 105.842 362.737 105.736 362.401 105.525C362.065 105.31 361.81 105.027 361.636 104.676C361.463 104.321 361.376 103.931 361.376 103.508ZM362.532 102.897V103.508C362.532 103.859 362.614 104.175 362.781 104.454C362.946 104.73 363.234 104.868 363.641 104.868C364.038 104.868 364.317 104.73 364.48 104.454C364.646 104.175 364.729 103.859 364.729 103.508V102.897C364.729 102.545 364.65 102.232 364.492 101.956C364.333 101.677 364.049 101.537 363.641 101.537C363.246 101.537 362.96 101.677 362.786 101.956C362.616 102.232 362.532 102.545 362.532 102.897ZM355.597 96.8691V96.2574C355.597 95.8343 355.684 95.4473 355.859 95.096C356.036 94.741 356.292 94.4577 356.628 94.2463C356.968 94.031 357.38 93.9233 357.864 93.9233C358.354 93.9233 358.766 94.031 359.099 94.2463C359.431 94.4577 359.682 94.741 359.852 95.096C360.022 95.4473 360.107 95.8343 360.107 96.2574V96.8691C360.107 97.2921 360.02 97.6811 359.847 98.036C359.676 98.3873 359.423 98.6705 359.087 98.8858C358.755 99.0973 358.347 99.203 357.864 99.203C357.372 99.203 356.959 99.0973 356.623 98.8858C356.286 98.6705 356.032 98.3873 355.859 98.036C355.684 97.6811 355.597 97.2921 355.597 96.8691ZM356.753 96.2574V96.8691C356.753 97.2204 356.837 97.5357 357.002 97.8152C357.169 98.0909 357.456 98.2286 357.864 98.2286C358.26 98.2286 358.54 98.0909 358.702 97.8152C358.868 97.5357 358.951 97.2204 358.951 96.8691V96.2574C358.951 95.9061 358.872 95.5926 358.713 95.317C358.555 95.0375 358.271 94.8977 357.864 94.8977C357.467 94.8977 357.182 95.0375 357.008 95.317C356.838 95.5926 356.753 95.9061 356.753 96.2574ZM356.028 105.684L364.004 94.082H365.295L357.319 105.684H356.028Z" fill="#444444"/>
<path d="M331.235 147.117V148.363H326.16V147.117H331.235ZM332.701 153.54V152.52L336.531 148.329C336.98 147.837 337.35 147.411 337.641 147.049C337.931 146.682 338.147 146.339 338.286 146.018C338.43 145.693 338.502 145.353 338.502 144.998C338.502 144.59 338.404 144.237 338.208 143.938C338.015 143.64 337.75 143.41 337.414 143.247C337.078 143.085 336.7 143.004 336.281 143.004C335.836 143.004 335.447 143.097 335.114 143.281C334.786 143.462 334.531 143.718 334.349 144.046C334.172 144.375 334.083 144.76 334.083 145.201H332.746C332.746 144.522 332.903 143.925 333.217 143.412C333.53 142.898 333.957 142.497 334.497 142.21C335.041 141.923 335.65 141.781 336.326 141.781C337.006 141.781 337.608 141.923 338.134 142.21C338.658 142.497 339.07 142.884 339.369 143.372C339.667 143.859 339.816 144.401 339.816 144.998C339.816 145.425 339.739 145.841 339.583 146.25C339.433 146.654 339.169 147.105 338.791 147.603C338.417 148.099 337.898 148.703 337.233 149.417L334.627 152.203V152.294H340.02V153.54H332.701ZM345.666 153.699C345.001 153.699 344.403 153.567 343.871 153.302C343.338 153.038 342.912 152.676 342.59 152.214C342.269 151.754 342.094 151.229 342.063 150.64H343.423C343.476 151.164 343.714 151.599 344.137 151.943C344.564 152.283 345.073 152.453 345.666 152.453C346.142 152.453 346.565 152.341 346.935 152.119C347.309 151.895 347.601 151.59 347.813 151.2C348.028 150.807 348.136 150.364 348.136 149.869C348.136 149.364 348.024 148.912 347.802 148.515C347.583 148.116 347.28 147.799 346.896 147.569C346.51 147.339 346.07 147.222 345.576 147.218C345.221 147.214 344.856 147.269 344.482 147.383C344.108 147.492 343.801 147.634 343.559 147.807L342.245 147.649L342.947 141.939H348.974V143.185H344.125L343.717 146.606H343.786C344.023 146.418 344.321 146.261 344.68 146.136C345.039 146.012 345.413 145.949 345.802 145.949C346.512 145.949 347.145 146.12 347.7 146.46C348.259 146.795 348.697 147.256 349.014 147.841C349.335 148.427 349.496 149.096 349.496 149.846C349.496 150.587 349.329 151.248 348.997 151.829C348.668 152.408 348.216 152.864 347.637 153.2C347.06 153.532 346.403 153.699 345.666 153.699ZM357.341 151.365V150.754C357.341 150.33 357.428 149.943 357.602 149.592C357.779 149.237 358.036 148.954 358.372 148.743C358.712 148.527 359.124 148.42 359.607 148.42C360.098 148.42 360.51 148.527 360.842 148.743C361.174 148.954 361.425 149.237 361.596 149.592C361.765 149.943 361.85 150.33 361.85 150.754V151.365C361.85 151.788 361.763 152.177 361.59 152.532C361.42 152.883 361.167 153.166 360.831 153.382C360.498 153.593 360.09 153.699 359.607 153.699C359.116 153.699 358.702 153.593 358.366 153.382C358.03 153.166 357.775 152.883 357.602 152.532C357.428 152.177 357.341 151.788 357.341 151.365ZM358.497 150.754V151.365C358.497 151.716 358.58 152.032 358.746 152.311C358.912 152.587 359.199 152.725 359.607 152.725C360.003 152.725 360.283 152.587 360.445 152.311C360.612 152.032 360.694 151.716 360.694 151.365V150.754C360.694 150.402 360.616 150.089 360.457 149.812C360.298 149.533 360.015 149.394 359.607 149.394C359.211 149.394 358.926 149.533 358.752 149.812C358.582 150.089 358.497 150.402 358.497 150.754ZM351.563 144.726V144.114C351.563 143.691 351.649 143.304 351.824 142.953C352.001 142.598 352.258 142.315 352.594 142.103C352.934 141.887 353.345 141.781 353.829 141.781C354.319 141.781 354.731 141.887 355.064 142.103C355.396 142.315 355.647 142.598 355.817 142.953C355.987 143.304 356.072 143.691 356.072 144.114V144.726C356.072 145.148 355.985 145.537 355.812 145.893C355.641 146.244 355.388 146.527 355.052 146.743C354.72 146.954 354.312 147.06 353.829 147.06C353.338 147.06 352.925 146.954 352.589 146.743C352.253 146.527 351.997 146.244 351.824 145.893C351.649 145.537 351.563 145.148 351.563 144.726ZM352.718 144.114V144.726C352.718 145.077 352.802 145.393 352.967 145.672C353.134 145.947 353.421 146.086 353.829 146.086C354.226 146.086 354.505 145.947 354.667 145.672C354.834 145.393 354.917 145.077 354.917 144.726V144.114C354.917 143.763 354.837 143.45 354.678 143.173C354.52 142.894 354.237 142.755 353.829 142.755C353.432 142.755 353.147 142.894 352.973 143.173C352.804 143.45 352.718 143.763 352.718 144.114ZM351.993 153.54L359.969 141.939H361.262L353.285 153.54H351.993Z" fill="#444444"/>
<path d="M329.649 199.358V191.88H330.918V199.358H329.649ZM326.545 196.253V194.984H334.023V196.253H326.545ZM340.503 189.796V201.397H339.098V191.268H339.03L336.198 193.149V191.721L339.098 189.796H340.503ZM347.214 189.637C347.69 189.64 348.166 189.731 348.641 189.908C349.118 190.086 349.552 190.381 349.944 190.793C350.337 191.2 350.652 191.757 350.891 192.464C351.129 193.169 351.247 194.055 351.247 195.121C351.247 196.152 351.149 197.067 350.952 197.867C350.76 198.664 350.481 199.337 350.115 199.884C349.752 200.432 349.31 200.847 348.789 201.131C348.271 201.414 347.686 201.555 347.033 201.555C346.383 201.555 345.804 201.427 345.293 201.171C344.788 200.909 344.372 200.549 344.047 200.089C343.726 199.624 343.521 199.086 343.43 198.474H344.812C344.936 199.006 345.184 199.447 345.554 199.794C345.928 200.138 346.421 200.309 347.033 200.309C347.927 200.309 348.634 199.918 349.152 199.137C349.672 198.355 349.933 197.25 349.933 195.823H349.843C349.631 196.14 349.38 196.414 349.089 196.644C348.798 196.874 348.476 197.052 348.121 197.176C347.765 197.301 347.388 197.364 346.987 197.364C346.323 197.364 345.713 197.199 345.158 196.87C344.606 196.538 344.165 196.083 343.832 195.505C343.504 194.924 343.339 194.259 343.339 193.511C343.339 192.802 343.498 192.152 343.815 191.562C344.136 190.97 344.585 190.497 345.164 190.147C345.745 189.796 346.429 189.625 347.214 189.637ZM347.214 190.883C346.738 190.883 346.309 191.002 345.928 191.239C345.55 191.474 345.25 191.792 345.027 192.191C344.809 192.588 344.699 193.028 344.699 193.511C344.699 193.995 344.805 194.435 345.016 194.832C345.231 195.224 345.524 195.537 345.894 195.772C346.268 196.002 346.693 196.118 347.169 196.118C347.528 196.118 347.862 196.047 348.172 195.907C348.481 195.764 348.751 195.569 348.981 195.324C349.216 195.075 349.399 194.794 349.531 194.48C349.663 194.163 349.729 193.832 349.729 193.489C349.729 193.036 349.619 192.61 349.401 192.214C349.186 191.818 348.887 191.496 348.506 191.251C348.128 191.006 347.697 190.883 347.214 190.883ZM359.07 199.221V198.61C359.07 198.186 359.157 197.8 359.33 197.449C359.509 197.094 359.765 196.811 360.101 196.599C360.441 196.384 360.853 196.276 361.336 196.276C361.827 196.276 362.239 196.384 362.571 196.599C362.904 196.811 363.155 197.094 363.324 197.449C363.495 197.8 363.58 198.186 363.58 198.61V199.221C363.58 199.644 363.493 200.034 363.318 200.389C363.149 200.74 362.896 201.023 362.56 201.238C362.228 201.45 361.82 201.555 361.336 201.555C360.845 201.555 360.432 201.45 360.096 201.238C359.759 201.023 359.505 200.74 359.33 200.389C359.157 200.034 359.07 199.644 359.07 199.221ZM360.226 198.61V199.221C360.226 199.572 360.309 199.888 360.475 200.168C360.641 200.444 360.928 200.581 361.336 200.581C361.733 200.581 362.012 200.444 362.175 200.168C362.34 199.888 362.424 199.572 362.424 199.221V198.61C362.424 198.258 362.344 197.945 362.186 197.669C362.027 197.39 361.744 197.25 361.336 197.25C360.939 197.25 360.654 197.39 360.481 197.669C360.31 197.945 360.226 198.258 360.226 198.61ZM353.292 192.582V191.97C353.292 191.547 353.379 191.16 353.553 190.81C353.73 190.455 353.987 190.171 354.323 189.959C354.663 189.744 355.075 189.637 355.558 189.637C356.049 189.637 356.461 189.744 356.793 189.959C357.125 190.171 357.376 190.455 357.547 190.81C357.716 191.16 357.801 191.547 357.801 191.97V192.582C357.801 193.005 357.714 193.394 357.541 193.75C357.371 194.101 357.118 194.384 356.782 194.599C356.449 194.811 356.041 194.916 355.558 194.916C355.067 194.916 354.653 194.811 354.317 194.599C353.981 194.384 353.726 194.101 353.553 193.75C353.379 193.394 353.292 193.005 353.292 192.582ZM354.448 191.97V192.582C354.448 192.933 354.531 193.249 354.697 193.528C354.863 193.804 355.15 193.942 355.558 193.942C355.954 193.942 356.234 193.804 356.396 193.528C356.563 193.249 356.645 192.933 356.645 192.582V191.97C356.645 191.619 356.567 191.306 356.408 191.03C356.249 190.751 355.965 190.611 355.558 190.611C355.162 190.611 354.877 190.751 354.702 191.03C354.533 191.306 354.448 191.619 354.448 191.97ZM353.722 201.397L361.698 189.796H362.99L355.014 201.397H353.722Z" fill="#444444"/>
<path d="M331.235 242.83V244.076H326.16V242.83H331.235ZM337.325 237.652V249.254H335.92V239.125H335.853L333.02 241.005V239.578L335.92 237.652H337.325ZM344.127 249.412C343.273 249.412 342.547 249.18 341.945 248.715C341.345 248.248 340.887 247.57 340.57 246.681C340.252 245.791 340.093 244.714 340.093 243.453C340.093 242.199 340.252 241.128 340.57 240.241C340.891 239.349 341.351 238.669 341.951 238.202C342.556 237.729 343.28 237.494 344.127 237.494C344.972 237.494 345.696 237.729 346.296 238.202C346.901 238.669 347.361 239.349 347.678 240.241C347.999 241.128 348.16 242.199 348.16 243.453C348.16 244.714 348.001 245.791 347.684 246.681C347.367 247.57 346.909 248.248 346.307 248.715C345.707 249.18 344.98 249.412 344.127 249.412ZM344.127 248.166C344.972 248.166 345.629 247.758 346.098 246.943C346.567 246.127 346.801 244.964 346.801 243.453C346.801 242.448 346.693 241.593 346.478 240.887C346.266 240.181 345.96 239.642 345.56 239.273C345.164 238.902 344.685 238.717 344.127 238.717C343.288 238.717 342.633 239.131 342.161 239.958C341.689 240.781 341.453 241.946 341.453 243.453C341.453 244.457 341.559 245.31 341.77 246.013C341.981 246.716 342.285 247.251 342.682 247.617C343.083 247.982 343.564 248.166 344.127 248.166ZM355.908 247.078V246.467C355.908 246.043 355.994 245.656 356.169 245.306C356.346 244.951 356.603 244.667 356.939 244.456C357.278 244.241 357.69 244.133 358.174 244.133C358.664 244.133 359.076 244.241 359.409 244.456C359.741 244.667 359.992 244.951 360.162 245.306C360.332 245.656 360.417 246.043 360.417 246.467V247.078C360.417 247.501 360.33 247.891 360.157 248.246C359.986 248.597 359.733 248.88 359.397 249.095C359.065 249.307 358.657 249.412 358.174 249.412C357.683 249.412 357.27 249.307 356.934 249.095C356.598 248.88 356.342 248.597 356.169 248.246C355.994 247.891 355.908 247.501 355.908 247.078ZM357.063 246.467V247.078C357.063 247.429 357.147 247.745 357.312 248.024C357.479 248.301 357.766 248.438 358.174 248.438C358.571 248.438 358.85 248.301 359.012 248.024C359.179 247.745 359.262 247.429 359.262 247.078V246.467C359.262 246.115 359.182 245.802 359.023 245.526C358.865 245.247 358.582 245.107 358.174 245.107C357.777 245.107 357.492 245.247 357.318 245.526C357.149 245.802 357.063 246.115 357.063 246.467ZM350.13 240.439V239.827C350.13 239.404 350.217 239.017 350.39 238.666C350.568 238.311 350.825 238.028 351.161 237.816C351.501 237.601 351.913 237.494 352.396 237.494C352.887 237.494 353.298 237.601 353.63 237.816C353.962 238.028 354.214 238.311 354.384 238.666C354.554 239.017 354.639 239.404 354.639 239.827V240.439C354.639 240.862 354.552 241.251 354.378 241.607C354.209 241.958 353.955 242.241 353.619 242.456C353.286 242.667 352.879 242.773 352.396 242.773C351.905 242.773 351.491 242.667 351.155 242.456C350.819 242.241 350.564 241.958 350.39 241.607C350.217 241.251 350.13 240.862 350.13 240.439ZM351.285 239.827V240.439C351.285 240.79 351.368 241.106 351.535 241.385C351.701 241.66 351.987 241.799 352.396 241.799C352.792 241.799 353.072 241.66 353.234 241.385C353.4 241.106 353.483 240.79 353.483 240.439V239.827C353.483 239.476 353.404 239.163 353.246 238.887C353.087 238.608 352.804 238.468 352.396 238.468C351.999 238.468 351.714 238.608 351.541 238.887C351.37 239.163 351.285 239.476 351.285 239.827ZM350.561 249.254L358.537 237.652H359.828L351.852 249.254H350.561Z" fill="#444444"/>
<path d="M192.061 154.991V140.488H192.99V154.991H192.061ZM195.189 144.839C195.121 144.265 194.845 143.819 194.361 143.502C193.878 143.185 193.285 143.027 192.583 143.027C192.069 143.027 191.619 143.109 191.235 143.276C190.853 143.441 190.555 143.67 190.339 143.961C190.128 144.252 190.022 144.582 190.022 144.952C190.022 145.262 190.096 145.528 190.243 145.752C190.394 145.97 190.587 146.153 190.821 146.301C191.055 146.444 191.3 146.563 191.558 146.658C191.814 146.748 192.05 146.821 192.265 146.878L193.444 147.195C193.746 147.275 194.082 147.385 194.452 147.524C194.826 147.664 195.183 147.854 195.523 148.096C195.867 148.334 196.15 148.64 196.372 149.014C196.596 149.388 196.706 149.846 196.706 150.391C196.706 151.018 196.543 151.584 196.214 152.09C195.889 152.596 195.413 152.998 194.786 153.297C194.163 153.595 193.406 153.745 192.515 153.745C191.684 153.745 190.964 153.61 190.356 153.342C189.752 153.074 189.276 152.7 188.928 152.22C188.586 151.741 188.391 151.183 188.345 150.549H189.796C189.834 150.987 189.98 151.35 190.238 151.637C190.498 151.92 190.827 152.131 191.223 152.271C191.623 152.408 192.054 152.475 192.515 152.475C193.051 152.475 193.533 152.389 193.959 152.214C194.386 152.037 194.724 151.791 194.973 151.478C195.223 151.161 195.347 150.79 195.347 150.368C195.347 149.983 195.24 149.669 195.024 149.428C194.809 149.186 194.526 148.99 194.175 148.838C193.823 148.688 193.444 148.555 193.036 148.441L191.608 148.034C190.702 147.773 189.984 147.402 189.456 146.918C188.926 146.434 188.662 145.802 188.662 145.021C188.662 144.371 188.838 143.804 189.19 143.321C189.545 142.833 190.02 142.456 190.617 142.188C191.218 141.916 191.888 141.78 192.628 141.78C193.376 141.78 194.04 141.914 194.622 142.182C195.204 142.446 195.664 142.809 196.004 143.27C196.348 143.731 196.529 144.254 196.548 144.839H195.189ZM202.345 153.699C201.87 153.692 201.394 153.601 200.918 153.427C200.442 153.253 200.008 152.961 199.615 152.549C199.223 152.133 198.907 151.573 198.669 150.866C198.431 150.156 198.312 149.265 198.312 148.192C198.312 147.165 198.408 146.255 198.602 145.462C198.794 144.665 199.073 143.995 199.44 143.451C199.806 142.903 200.248 142.488 200.765 142.205C201.286 141.922 201.874 141.78 202.527 141.78C203.177 141.78 203.754 141.91 204.261 142.171C204.77 142.427 205.186 142.786 205.507 143.247C205.828 143.708 206.035 144.238 206.13 144.839H204.747C204.619 144.318 204.37 143.885 203.999 143.542C203.629 143.198 203.139 143.027 202.527 143.027C201.628 143.027 200.92 143.418 200.402 144.199C199.889 144.981 199.63 146.078 199.626 147.49H199.717C199.929 147.169 200.18 146.895 200.471 146.669C200.765 146.438 201.09 146.261 201.445 146.136C201.8 146.012 202.176 145.949 202.573 145.949C203.237 145.949 203.845 146.115 204.396 146.447C204.948 146.776 205.389 147.231 205.722 147.813C206.054 148.391 206.221 149.054 206.221 149.801C206.221 150.519 206.06 151.176 205.739 151.773C205.418 152.366 204.966 152.837 204.385 153.189C203.807 153.536 203.127 153.707 202.345 153.699ZM202.345 152.452C202.822 152.452 203.249 152.334 203.625 152.096C204.007 151.857 204.307 151.538 204.527 151.138C204.749 150.738 204.861 150.292 204.861 149.801C204.861 149.322 204.753 148.885 204.538 148.493C204.326 148.097 204.033 147.78 203.659 147.547C203.289 147.313 202.867 147.195 202.391 147.195C202.032 147.195 201.698 147.267 201.388 147.411C201.078 147.55 200.807 147.744 200.573 147.989C200.342 148.234 200.161 148.515 200.028 148.832C199.897 149.146 199.831 149.476 199.831 149.824C199.831 150.285 199.939 150.716 200.153 151.115C200.372 151.516 200.67 151.839 201.048 152.085C201.43 152.33 201.862 152.452 202.345 152.452ZM209.601 151.954L209.51 152.566C209.446 152.997 209.347 153.457 209.216 153.948C209.087 154.44 208.953 154.902 208.813 155.336C208.673 155.771 208.558 156.116 208.468 156.373H207.448C207.497 156.13 207.561 155.811 207.64 155.416C207.72 155.019 207.799 154.575 207.879 154.084C207.961 153.597 208.029 153.099 208.082 152.588L208.15 151.954H209.601ZM215.183 153.699C214.707 153.692 214.231 153.601 213.755 153.427C213.28 153.253 212.845 152.961 212.452 152.549C212.059 152.133 211.744 151.573 211.506 150.866C211.269 150.156 211.149 149.265 211.149 148.192C211.149 147.165 211.246 146.255 211.438 145.462C211.631 144.665 211.911 143.995 212.277 143.451C212.643 142.903 213.085 142.488 213.603 142.205C214.123 141.922 214.71 141.78 215.364 141.78C216.013 141.78 216.592 141.91 217.097 142.171C217.608 142.427 218.022 142.786 218.343 143.247C218.664 143.708 218.873 144.238 218.967 144.839H217.585C217.456 144.318 217.207 143.885 216.837 143.542C216.467 143.198 215.975 143.027 215.364 143.027C214.465 143.027 213.757 143.418 213.24 144.199C212.726 144.981 212.467 146.078 212.464 147.49H212.555C212.766 147.169 213.017 146.895 213.307 146.669C213.603 146.438 213.927 146.261 214.283 146.136C214.637 146.012 215.012 145.949 215.409 145.949C216.074 145.949 216.682 146.115 217.234 146.447C217.785 146.776 218.227 147.231 218.559 147.813C218.892 148.391 219.057 149.054 219.057 149.801C219.057 150.519 218.897 151.176 218.576 151.773C218.255 152.366 217.804 152.837 217.222 153.189C216.644 153.536 215.965 153.707 215.183 153.699ZM215.183 152.452C215.658 152.452 216.085 152.334 216.463 152.096C216.845 151.857 217.145 151.538 217.363 151.138C217.587 150.738 217.698 150.292 217.698 149.801C217.698 149.322 217.591 148.885 217.375 148.493C217.164 148.097 216.871 147.78 216.497 147.547C216.127 147.313 215.704 147.195 215.228 147.195C214.87 147.195 214.535 147.267 214.226 147.411C213.916 147.55 213.643 147.744 213.41 147.989C213.179 148.234 212.998 148.515 212.866 148.832C212.733 149.146 212.667 149.476 212.667 149.824C212.667 150.285 212.775 150.716 212.99 151.115C213.21 151.516 213.508 151.839 213.886 152.085C214.267 152.33 214.699 152.452 215.183 152.452ZM224.682 153.699C223.905 153.699 223.217 153.561 222.621 153.285C222.027 153.006 221.565 152.623 221.233 152.135C220.9 151.644 220.736 151.086 220.739 150.458C220.736 149.968 220.832 149.514 221.028 149.099C221.225 148.68 221.493 148.331 221.833 148.051C222.177 147.767 222.56 147.588 222.983 147.513V147.444C222.428 147.301 221.985 146.99 221.657 146.51C221.328 146.027 221.166 145.477 221.17 144.861C221.166 144.273 221.316 143.746 221.618 143.281C221.92 142.816 222.335 142.45 222.864 142.182C223.396 141.914 224.002 141.78 224.682 141.78C225.354 141.78 225.955 141.914 226.484 142.182C227.012 142.45 227.428 142.816 227.73 143.281C228.036 143.746 228.191 144.273 228.195 144.861C228.191 145.477 228.022 146.027 227.69 146.51C227.361 146.99 226.926 147.301 226.381 147.444V147.513C226.801 147.588 227.179 147.767 227.515 148.051C227.851 148.331 228.119 148.68 228.32 149.099C228.519 149.514 228.622 149.968 228.625 150.458C228.622 151.086 228.451 151.644 228.115 152.135C227.783 152.623 227.321 153.006 226.727 153.285C226.138 153.561 225.456 153.699 224.682 153.699ZM224.682 152.452C225.207 152.452 225.66 152.368 226.042 152.197C226.423 152.028 226.718 151.787 226.926 151.478C227.133 151.168 227.239 150.806 227.243 150.391C227.239 149.953 227.126 149.565 226.903 149.229C226.68 148.893 226.376 148.629 225.991 148.436C225.61 148.243 225.173 148.147 224.682 148.147C224.188 148.147 223.746 148.243 223.356 148.436C222.972 148.629 222.667 148.893 222.445 149.229C222.226 149.565 222.118 149.953 222.122 150.391C222.118 150.806 222.218 151.168 222.422 151.478C222.63 151.787 222.927 152.028 223.312 152.197C223.696 152.368 224.154 152.452 224.682 152.452ZM224.682 146.946C225.098 146.946 225.466 146.863 225.787 146.697C226.112 146.531 226.366 146.299 226.552 146.001C226.737 145.702 226.831 145.353 226.835 144.952C226.831 144.559 226.738 144.218 226.558 143.927C226.376 143.632 226.125 143.406 225.804 143.247C225.483 143.085 225.109 143.004 224.682 143.004C224.248 143.004 223.869 143.085 223.544 143.247C223.219 143.406 222.968 143.632 222.79 143.927C222.613 144.218 222.526 144.559 222.53 144.952C222.526 145.353 222.615 145.702 222.796 146.001C222.982 146.299 223.236 146.531 223.561 146.697C223.886 146.863 224.26 146.946 224.682 146.946ZM234.102 153.699C233.438 153.699 232.839 153.567 232.307 153.302C231.774 153.038 231.347 152.676 231.026 152.214C230.705 151.754 230.53 151.229 230.5 150.64H231.859C231.912 151.164 232.15 151.599 232.573 151.943C233 152.283 233.51 152.452 234.102 152.452C234.579 152.452 235.002 152.341 235.371 152.118C235.745 151.895 236.038 151.59 236.25 151.2C236.465 150.807 236.573 150.364 236.573 149.869C236.573 149.364 236.461 148.912 236.238 148.515C236.019 148.115 235.717 147.799 235.332 147.569C234.947 147.339 234.507 147.222 234.012 147.218C233.657 147.214 233.293 147.269 232.919 147.383C232.545 147.492 232.237 147.634 231.996 147.807L230.681 147.649L231.383 141.939H237.411V143.185H232.562L232.154 146.606H232.222C232.46 146.418 232.758 146.261 233.117 146.136C233.476 146.012 233.85 145.949 234.239 145.949C234.949 145.949 235.581 146.119 236.136 146.459C236.695 146.795 237.133 147.256 237.45 147.841C237.771 148.427 237.932 149.096 237.932 149.846C237.932 150.587 237.766 151.248 237.433 151.829C237.105 152.408 236.652 152.864 236.074 153.2C235.496 153.532 234.839 153.699 234.102 153.699Z" fill="#444444"/>
<path d="M192.061 202.848V188.345H192.99V202.848H192.061ZM195.189 192.696C195.121 192.122 194.845 191.676 194.361 191.359C193.878 191.042 193.285 190.883 192.583 190.883C192.069 190.883 191.619 190.966 191.235 191.133C190.853 191.298 190.555 191.526 190.339 191.818C190.128 192.109 190.022 192.439 190.022 192.809C190.022 193.119 190.096 193.385 190.243 193.608C190.394 193.827 190.587 194.01 190.821 194.158C191.055 194.301 191.3 194.42 191.558 194.515C191.814 194.604 192.05 194.678 192.265 194.735L193.444 195.052C193.746 195.132 194.082 195.241 194.452 195.381C194.826 195.52 195.183 195.711 195.523 195.953C195.867 196.19 196.15 196.497 196.372 196.87C196.596 197.244 196.706 197.703 196.706 198.247C196.706 198.874 196.543 199.441 196.214 199.946C195.889 200.453 195.413 200.855 194.786 201.154C194.163 201.452 193.406 201.601 192.515 201.601C191.684 201.601 190.964 201.467 190.356 201.198C189.752 200.93 189.276 200.556 188.928 200.077C188.586 199.597 188.391 199.04 188.345 198.406H189.796C189.834 198.844 189.98 199.206 190.238 199.494C190.498 199.777 190.827 199.988 191.223 200.128C191.623 200.264 192.054 200.332 192.515 200.332C193.051 200.332 193.533 200.245 193.959 200.071C194.386 199.893 194.724 199.648 194.973 199.335C195.223 199.018 195.347 198.647 195.347 198.224C195.347 197.84 195.24 197.525 195.024 197.284C194.809 197.043 194.526 196.847 194.175 196.695C193.823 196.544 193.444 196.412 193.036 196.298L191.608 195.89C190.702 195.63 189.984 195.258 189.456 194.775C188.926 194.291 188.662 193.659 188.662 192.877C188.662 192.227 188.838 191.661 189.19 191.177C189.545 190.69 190.02 190.313 190.617 190.045C191.218 189.773 191.888 189.637 192.628 189.637C193.376 189.637 194.04 189.771 194.622 190.039C195.204 190.303 195.664 190.666 196.004 191.127C196.348 191.587 196.529 192.111 196.548 192.696H195.189ZM202.119 201.555C201.454 201.555 200.856 201.424 200.323 201.159C199.791 200.894 199.364 200.532 199.043 200.071C198.722 199.61 198.547 199.086 198.516 198.497H199.876C199.929 199.021 200.167 199.456 200.59 199.8C201.016 200.14 201.526 200.309 202.119 200.309C202.595 200.309 203.018 200.197 203.388 199.975C203.762 199.752 204.054 199.447 204.266 199.057C204.481 198.664 204.589 198.22 204.589 197.726C204.589 197.22 204.478 196.769 204.255 196.372C204.035 195.972 203.733 195.656 203.348 195.426C202.963 195.195 202.523 195.079 202.028 195.075C201.673 195.071 201.309 195.126 200.936 195.239C200.562 195.349 200.254 195.491 200.011 195.664L198.697 195.506L199.4 189.796H205.427V191.042H200.579L200.17 194.463H200.239C200.476 194.274 200.775 194.118 201.133 193.993C201.492 193.868 201.866 193.806 202.255 193.806C202.965 193.806 203.598 193.976 204.153 194.316C204.711 194.652 205.15 195.113 205.467 195.698C205.788 196.283 205.949 196.952 205.949 197.703C205.949 198.444 205.782 199.105 205.45 199.686C205.121 200.264 204.668 200.721 204.09 201.057C203.513 201.389 202.856 201.555 202.119 201.555ZM211.574 189.637C212.049 189.64 212.525 189.731 213 189.908C213.477 190.086 213.911 190.381 214.304 190.793C214.696 191.2 215.011 191.757 215.25 192.464C215.488 193.17 215.607 194.055 215.607 195.121C215.607 196.152 215.509 197.067 215.312 197.867C215.119 198.664 214.84 199.337 214.474 199.884C214.111 200.432 213.669 200.848 213.148 201.131C212.631 201.414 212.045 201.555 211.392 201.555C210.742 201.555 210.163 201.427 209.652 201.171C209.147 200.909 208.731 200.549 208.406 200.089C208.085 199.624 207.88 199.086 207.789 198.474H209.172C209.296 199.006 209.544 199.447 209.914 199.794C210.288 200.138 210.78 200.309 211.392 200.309C212.288 200.309 212.993 199.918 213.511 199.137C214.032 198.355 214.293 197.25 214.293 195.823H214.202C213.99 196.14 213.739 196.414 213.448 196.644C213.158 196.874 212.835 197.052 212.48 197.177C212.125 197.301 211.747 197.364 211.346 197.364C210.682 197.364 210.072 197.199 209.517 196.87C208.965 196.538 208.524 196.083 208.192 195.506C207.863 194.924 207.698 194.259 207.698 193.512C207.698 192.802 207.857 192.152 208.175 191.562C208.495 190.97 208.945 190.498 209.523 190.147C210.104 189.796 210.788 189.625 211.574 189.637ZM211.574 190.883C211.097 190.883 210.668 191.002 210.288 191.239C209.91 191.474 209.61 191.792 209.386 192.191C209.168 192.588 209.058 193.028 209.058 193.512C209.058 193.995 209.164 194.435 209.375 194.832C209.591 195.224 209.884 195.537 210.254 195.772C210.627 196.002 211.052 196.118 211.528 196.118C211.887 196.118 212.221 196.047 212.531 195.907C212.84 195.764 213.11 195.569 213.34 195.324C213.575 195.075 213.758 194.794 213.89 194.48C214.022 194.163 214.088 193.833 214.088 193.489C214.088 193.036 213.978 192.61 213.76 192.214C213.545 191.818 213.247 191.497 212.865 191.251C212.487 191.006 212.056 190.883 211.574 190.883ZM221.209 189.637C221.684 189.64 222.161 189.731 222.637 189.908C223.112 190.086 223.547 190.381 223.94 190.793C224.332 191.2 224.648 191.757 224.885 192.464C225.123 193.17 225.242 194.055 225.242 195.121C225.242 196.152 225.144 197.067 224.948 197.867C224.755 198.664 224.475 199.337 224.109 199.884C223.746 200.432 223.305 200.848 222.784 201.131C222.267 201.414 221.68 201.555 221.027 201.555C220.378 201.555 219.798 201.427 219.289 201.171C218.782 200.909 218.367 200.549 218.042 200.089C217.721 199.624 217.515 199.086 217.425 198.474H218.807C218.932 199.006 219.179 199.447 219.549 199.794C219.923 200.138 220.416 200.309 221.027 200.309C221.923 200.309 222.629 199.918 223.146 199.137C223.667 198.355 223.928 197.25 223.928 195.823H223.837C223.626 196.14 223.374 196.414 223.084 196.644C222.793 196.874 222.47 197.052 222.115 197.177C221.76 197.301 221.382 197.364 220.982 197.364C220.317 197.364 219.707 197.199 219.152 196.87C218.601 196.538 218.159 196.083 217.827 195.506C217.498 194.924 217.334 194.259 217.334 193.512C217.334 192.802 217.493 192.152 217.81 191.562C218.131 190.97 218.581 190.498 219.158 190.147C219.739 189.796 220.423 189.625 221.209 189.637ZM221.209 190.883C220.733 190.883 220.305 191.002 219.923 191.239C219.545 191.474 219.245 191.792 219.022 192.191C218.803 192.588 218.693 193.028 218.693 193.512C218.693 193.995 218.799 194.435 219.01 194.832C219.226 195.224 219.519 195.537 219.889 195.772C220.263 196.002 220.687 196.118 221.164 196.118C221.522 196.118 221.857 196.047 222.166 195.907C222.476 195.764 222.746 195.569 222.977 195.324C223.211 195.075 223.393 194.794 223.526 194.48C223.657 194.163 223.724 193.833 223.724 193.489C223.724 193.036 223.615 192.61 223.395 192.214C223.18 191.818 222.882 191.497 222.5 191.251C222.123 191.006 221.692 190.883 221.209 190.883Z" fill="#444444"/>
<path d="M192.061 250.704V236.202H192.99V250.704H192.061ZM195.189 240.553C195.121 239.978 194.845 239.533 194.361 239.216C193.878 238.899 193.285 238.74 192.583 238.74C192.069 238.74 191.619 238.823 191.235 238.989C190.853 239.155 190.555 239.383 190.339 239.674C190.128 239.965 190.022 240.295 190.022 240.665C190.022 240.975 190.096 241.242 190.243 241.465C190.394 241.683 190.587 241.867 190.821 242.014C191.055 242.158 191.3 242.276 191.558 242.371C191.814 242.461 192.05 242.535 192.265 242.592L193.444 242.909C193.746 242.988 194.082 243.098 194.452 243.238C194.826 243.377 195.183 243.568 195.523 243.81C195.867 244.047 196.15 244.353 196.372 244.727C196.596 245.101 196.706 245.56 196.706 246.104C196.706 246.731 196.543 247.297 196.214 247.803C195.889 248.309 195.413 248.711 194.786 249.01C194.163 249.308 193.406 249.458 192.515 249.458C191.684 249.458 190.964 249.323 190.356 249.055C189.752 248.787 189.276 248.413 188.928 247.934C188.586 247.454 188.391 246.897 188.345 246.263H189.796C189.834 246.7 189.98 247.063 190.238 247.35C190.498 247.633 190.827 247.845 191.223 247.984C191.623 248.121 192.054 248.189 192.515 248.189C193.051 248.189 193.533 248.102 193.959 247.928C194.386 247.75 194.724 247.505 194.973 247.192C195.223 246.875 195.347 246.504 195.347 246.081C195.347 245.696 195.24 245.382 195.024 245.141C194.809 244.9 194.526 244.703 194.175 244.552C193.823 244.401 193.444 244.269 193.036 244.155L191.608 243.747C190.702 243.487 189.984 243.115 189.456 242.631C188.926 242.148 188.662 241.516 188.662 240.734C188.662 240.084 188.838 239.518 189.19 239.034C189.545 238.547 190.02 238.17 190.617 237.902C191.218 237.629 191.888 237.494 192.628 237.494C193.376 237.494 194.04 237.627 194.622 237.896C195.204 238.16 195.664 238.523 196.004 238.983C196.348 239.444 196.529 239.967 196.548 240.553H195.189ZM202.21 249.412C201.432 249.412 200.744 249.275 200.148 248.998C199.555 248.719 199.092 248.336 198.76 247.849C198.427 247.357 198.264 246.799 198.267 246.172C198.264 245.681 198.359 245.228 198.556 244.812C198.752 244.393 199.02 244.044 199.36 243.764C199.704 243.481 200.087 243.301 200.51 243.227V243.158C199.955 243.014 199.513 242.703 199.185 242.224C198.856 241.74 198.693 241.191 198.697 240.575C198.693 239.986 198.843 239.459 199.145 238.994C199.447 238.53 199.863 238.164 200.391 237.896C200.924 237.627 201.53 237.494 202.21 237.494C202.882 237.494 203.482 237.627 204.011 237.896C204.54 238.164 204.955 238.53 205.258 238.994C205.564 239.459 205.718 239.986 205.722 240.575C205.718 241.191 205.55 241.74 205.218 242.224C204.889 242.703 204.453 243.014 203.909 243.158V243.227C204.328 243.301 204.706 243.481 205.042 243.764C205.378 244.044 205.646 244.393 205.847 244.812C206.046 245.228 206.149 245.681 206.152 246.172C206.149 246.799 205.978 247.357 205.642 247.849C205.31 248.336 204.848 248.719 204.255 248.998C203.665 249.275 202.983 249.412 202.21 249.412ZM202.21 248.166C202.734 248.166 203.188 248.081 203.57 247.911C203.95 247.741 204.246 247.501 204.453 247.192C204.66 246.882 204.766 246.52 204.77 246.104C204.766 245.666 204.653 245.278 204.43 244.942C204.208 244.606 203.904 244.342 203.518 244.15C203.137 243.956 202.7 243.861 202.21 243.861C201.715 243.861 201.274 243.956 200.884 244.15C200.499 244.342 200.195 244.606 199.972 244.942C199.753 245.278 199.645 245.666 199.649 246.104C199.645 246.52 199.745 246.882 199.949 247.192C200.157 247.501 200.454 247.741 200.839 247.911C201.224 248.081 201.681 248.166 202.21 248.166ZM202.21 242.659C202.625 242.659 202.993 242.577 203.314 242.41C203.639 242.245 203.894 242.012 204.079 241.714C204.265 241.415 204.358 241.066 204.362 240.665C204.358 240.272 204.266 239.931 204.085 239.64C203.904 239.345 203.652 239.119 203.331 238.96C203.01 238.798 202.636 238.717 202.21 238.717C201.775 238.717 201.396 238.798 201.071 238.96C200.746 239.119 200.495 239.345 200.317 239.64C200.14 239.931 200.053 240.272 200.057 240.665C200.053 241.066 200.142 241.415 200.323 241.714C200.509 242.012 200.763 242.245 201.088 242.41C201.413 242.577 201.787 242.659 202.21 242.659ZM211.698 237.494C212.174 237.497 212.649 237.588 213.125 237.765C213.602 237.942 214.035 238.238 214.428 238.649C214.821 239.057 215.136 239.613 215.374 240.32C215.613 241.026 215.731 241.912 215.731 242.977C215.731 244.008 215.634 244.924 215.437 245.724C215.244 246.521 214.965 247.194 214.599 247.741C214.236 248.288 213.794 248.704 213.273 248.987C212.755 249.271 212.17 249.412 211.517 249.412C210.867 249.412 210.288 249.283 209.777 249.027C209.272 248.766 208.856 248.406 208.531 247.946C208.21 247.481 208.004 246.942 207.914 246.33H209.296C209.421 246.863 209.668 247.303 210.038 247.65C210.412 247.994 210.905 248.166 211.517 248.166C212.412 248.166 213.118 247.775 213.635 246.993C214.157 246.212 214.417 245.107 214.417 243.679H214.326C214.115 243.996 213.864 244.271 213.573 244.501C213.283 244.731 212.96 244.909 212.605 245.033C212.25 245.158 211.872 245.221 211.471 245.221C210.807 245.221 210.197 245.056 209.641 244.727C209.09 244.395 208.648 243.939 208.316 243.362C207.987 242.781 207.823 242.116 207.823 241.368C207.823 240.658 207.981 240.008 208.299 239.419C208.62 238.827 209.069 238.354 209.647 238.003C210.229 237.652 210.913 237.482 211.698 237.494ZM211.698 238.74C211.222 238.74 210.793 238.859 210.412 239.096C210.034 239.33 209.734 239.648 209.511 240.048C209.293 240.445 209.183 240.885 209.183 241.368C209.183 241.852 209.289 242.291 209.5 242.688C209.715 243.081 210.008 243.394 210.378 243.628C210.752 243.859 211.177 243.974 211.652 243.974C212.011 243.974 212.345 243.904 212.655 243.764C212.965 243.62 213.235 243.426 213.465 243.181C213.699 242.932 213.883 242.65 214.014 242.336C214.147 242.019 214.213 241.689 214.213 241.345C214.213 240.893 214.103 240.467 213.885 240.071C213.669 239.674 213.371 239.353 212.989 239.108C212.612 238.863 212.181 238.74 211.698 238.74ZM221.266 249.412C220.601 249.412 220.002 249.281 219.47 249.015C218.938 248.751 218.511 248.389 218.19 247.928C217.869 247.467 217.692 246.943 217.662 246.353H219.022C219.075 246.878 219.312 247.312 219.736 247.656C220.163 247.996 220.672 248.166 221.266 248.166C221.741 248.166 222.164 248.054 222.535 247.832C222.909 247.609 223.201 247.303 223.412 246.914C223.628 246.521 223.735 246.077 223.735 245.583C223.735 245.077 223.624 244.625 223.401 244.229C223.182 243.829 222.88 243.513 222.495 243.282C222.109 243.052 221.669 242.935 221.175 242.932C220.82 242.928 220.455 242.982 220.081 243.096C219.707 243.206 219.4 243.347 219.158 243.521L217.844 243.362L218.547 237.652H224.574V238.899H219.724L219.316 242.319H219.384C219.623 242.131 219.921 241.974 220.28 241.85C220.639 241.725 221.012 241.662 221.401 241.662C222.111 241.662 222.744 241.833 223.3 242.173C223.858 242.509 224.297 242.969 224.614 243.555C224.935 244.14 225.095 244.809 225.095 245.56C225.095 246.3 224.929 246.961 224.597 247.543C224.268 248.121 223.815 248.578 223.237 248.914C222.659 249.246 222.001 249.412 221.266 249.412Z" fill="#444444"/>
<path d="M373.881 62.8118H250.251C248.599 62.8118 247.26 64.1509 247.26 65.8028C247.26 67.4547 248.599 68.7939 250.251 68.7939H373.881C375.533 68.7939 376.872 67.4547 376.872 65.8028C376.872 64.1509 375.533 62.8118 373.881 62.8118Z" fill="#F7931A"/>
<path d="M327.021 62.8118H203.391C201.739 62.8118 200.4 64.1509 200.4 65.8028C200.4 67.4547 201.739 68.7939 203.391 68.7939H327.021C328.673 68.7939 330.012 67.4547 330.012 65.8028C330.012 64.1509 328.673 62.8118 327.021 62.8118Z" fill="#A4D963"/>
<path d="M249.254 62.8118H125.624C123.972 62.8118 122.633 64.1509 122.633 65.8028C122.633 67.4547 123.972 68.7939 125.624 68.7939H249.254C250.906 68.7939 252.245 67.4547 252.245 65.8028C252.245 64.1509 250.906 62.8118 249.254 62.8118Z" fill="#319766"/>
<path d="M150.549 62.8118H26.9193C25.2674 62.8118 23.9282 64.1509 23.9282 65.8028C23.9282 67.4547 25.2674 68.7939 26.9193 68.7939H150.549C152.201 68.7939 153.54 67.4547 153.54 65.8028C153.54 64.1509 152.201 62.8118 150.549 62.8118Z" fill="#F3BA2F"/>
</g>
<mask id="mask1_1_1694" style="mask-type:luminance" maskUnits="userSpaceOnUse" x="23" y="137" width="21" height="21">
<path d="M43.8685 137.588H23.9282V157.528H43.8685V137.588Z" fill="white"/>
</mask>
<g mask="url(#mask1_1_1694)">
<path d="M33.9054 142.058C33.9403 141.574 34.1 141.108 34.3689 140.705C34.6379 140.301 35.0068 139.974 35.4397 139.756C35.8726 139.537 36.3547 139.436 36.839 139.458C37.3232 139.482 37.7931 139.631 38.2027 139.891C38.2495 139.921 38.2872 139.964 38.3119 140.015C38.3365 140.065 38.3472 140.12 38.3427 140.176C38.3382 140.232 38.3188 140.286 38.2865 140.331C38.2541 140.377 38.2102 140.414 38.159 140.436C37.447 140.757 36.8427 141.275 36.4184 141.931C35.9943 142.586 35.7683 143.351 35.7678 144.131C35.7678 144.222 35.7678 144.314 35.7771 144.403C35.7814 144.46 35.7702 144.516 35.7445 144.567C35.7189 144.618 35.68 144.661 35.6319 144.691C35.5838 144.721 35.5284 144.738 35.4716 144.738C35.4148 144.739 35.3589 144.725 35.3097 144.696C34.8507 144.434 34.4753 144.047 34.2268 143.579C33.9783 143.113 33.8669 142.585 33.9054 142.058ZM42.6223 150.099C42.6233 150.455 42.5247 150.804 42.3375 151.107C42.1503 151.41 41.882 151.654 41.5629 151.812L41.5286 151.827L38.5041 153.116C38.4742 153.13 38.4432 153.14 38.4115 153.148L33.4264 154.394C33.3769 154.406 33.3262 154.413 33.2752 154.413H25.1745C24.844 154.413 24.5269 154.282 24.2932 154.048C24.0595 153.815 23.9282 153.497 23.9282 153.166V150.051C23.9282 149.721 24.0595 149.404 24.2932 149.169C24.5269 148.936 24.844 148.805 25.1745 148.805H27.4092L29.1711 147.042C29.4021 146.809 29.6769 146.626 29.9794 146.5C30.282 146.376 30.6063 146.311 30.9338 146.312H34.8331C35.1622 146.312 35.4871 146.387 35.7834 146.53C36.0796 146.673 36.3397 146.882 36.5439 147.14C36.748 147.399 36.8911 147.699 36.9625 148.021C37.0338 148.342 37.0315 148.675 36.9556 148.996L40.2147 148.246C40.4983 148.171 40.7955 148.162 41.0833 148.22C41.371 148.278 41.6416 148.401 41.8742 148.58C42.1068 148.759 42.2952 148.989 42.4249 149.252C42.5547 149.515 42.6222 149.805 42.6223 150.099ZM41.376 150.099C41.3759 149.996 41.3521 149.894 41.3063 149.802C41.2606 149.709 41.1942 149.629 41.1124 149.566C41.0304 149.503 40.9353 149.461 40.8341 149.441C40.733 149.422 40.6287 149.425 40.5293 149.452L40.5052 149.459L35.2864 150.659C35.2407 150.669 35.1939 150.674 35.1469 150.674H32.6521C32.4868 150.674 32.3284 150.608 32.2115 150.491C32.0946 150.375 32.029 150.216 32.029 150.051C32.029 149.885 32.0946 149.727 32.2115 149.61C32.3284 149.493 32.4868 149.428 32.6521 149.428H34.8331C35.0809 149.428 35.3187 149.329 35.494 149.154C35.6693 148.979 35.7678 148.741 35.7678 148.493C35.7678 148.245 35.6693 148.008 35.494 147.832C35.3187 147.657 35.0809 147.558 34.8331 147.558H30.9338C30.7701 147.558 30.6079 147.59 30.4567 147.653C30.3054 147.716 30.1681 147.807 30.0529 147.924L28.2902 149.686V153.166H33.1974L38.0601 151.951L41.0201 150.691C41.1277 150.634 41.2179 150.548 41.2807 150.445C41.3434 150.34 41.3764 150.22 41.376 150.099ZM37.014 144.131C37.014 144.686 37.1785 145.228 37.4866 145.689C37.7947 146.15 38.2327 146.509 38.7451 146.722C39.2574 146.934 39.8212 146.99 40.3652 146.881C40.9092 146.774 41.4088 146.506 41.8009 146.114C42.1931 145.722 42.4601 145.222 42.5684 144.678C42.6766 144.134 42.6211 143.57 42.4088 143.058C42.1965 142.545 41.8372 142.108 41.376 141.799C40.9149 141.491 40.3728 141.327 39.8181 141.327C39.0745 141.327 38.3612 141.623 37.8354 142.148C37.3095 142.674 37.014 143.388 37.014 144.131Z" fill="#287650"/>
</g>
<mask id="mask2_1_1694" style="mask-type:luminance" maskUnits="userSpaceOnUse" x="23" y="185" width="21" height="21">
<path d="M43.8685 185.445H23.9282V205.385H43.8685V185.445Z" fill="white"/>
</mask>
<g mask="url(#mask2_1_1694)">
<path d="M37.014 195.415C37.014 196.031 36.8312 196.633 36.4888 197.146C36.1466 197.658 35.6599 198.058 35.0906 198.293C34.5213 198.53 33.8948 198.591 33.2904 198.471C32.6861 198.35 32.1309 198.054 31.6952 197.618C31.2595 197.183 30.9627 196.627 30.8424 196.023C30.7223 195.418 30.784 194.792 31.0198 194.222C31.2556 193.653 31.6549 193.167 32.1673 192.825C32.6796 192.482 33.282 192.299 33.8983 192.299C34.7246 192.299 35.5171 192.627 36.1014 193.211C36.6857 193.796 37.014 194.588 37.014 195.415ZM43.2453 190.43V200.4C43.2453 200.565 43.1797 200.724 43.0627 200.841C42.9459 200.957 42.7875 201.023 42.6222 201.023H25.1744C25.0091 201.023 24.8507 200.957 24.7338 200.841C24.6169 200.724 24.5513 200.565 24.5513 200.4V190.43C24.5513 190.264 24.6169 190.106 24.7338 189.989C24.8507 189.872 25.0091 189.807 25.1744 189.807H42.6222C42.7875 189.807 42.9459 189.872 43.0627 189.989C43.1797 190.106 43.2453 190.264 43.2453 190.43ZM41.999 194.04C41.2915 193.831 40.6475 193.448 40.1257 192.926C39.604 192.405 39.221 191.761 39.0119 191.053H28.7847C28.5755 191.761 28.1926 192.405 27.6708 192.926C27.1491 193.448 26.5051 193.831 25.7975 194.04V196.79C26.5051 196.999 27.1491 197.382 27.6708 197.903C28.1926 198.425 28.5755 199.069 28.7847 199.777H39.0119C39.221 199.069 39.604 198.425 40.1257 197.903C40.6475 197.382 41.2915 196.999 41.999 196.79V194.04Z" fill="#7FA84E"/>
</g>
<mask id="mask3_1_1694" style="mask-type:luminance" maskUnits="userSpaceOnUse" x="23" y="87" width="21" height="21">
<path d="M43.8685 87.7373H23.9282V107.678H43.8685V87.7373Z" fill="white"/>
</mask>
<g mask="url(#mask3_1_1694)">
<path d="M38.2602 94.7142V94.2803C38.2602 92.3267 35.3135 90.853 31.4057 90.853C27.4979 90.853 24.5513 92.3267 24.5513 94.2803V97.3959C24.5513 99.0231 26.5959 100.316 29.5363 100.704V101.135C29.5363 103.088 32.483 104.562 36.3908 104.562C40.2986 104.562 43.2453 103.088 43.2453 101.135V98.0191C43.2453 96.4067 41.2653 95.1122 38.2602 94.7142ZM28.2901 99.1773C26.7641 98.7513 25.7975 98.0495 25.7975 97.3959V96.3C26.4331 96.7502 27.2845 97.1132 28.2901 97.357V99.1773ZM34.5214 97.357C35.527 97.1132 36.3784 96.7502 37.014 96.3V97.3959C37.014 98.0495 36.0474 98.7513 34.5214 99.1773V97.357ZM33.2752 102.916C31.7492 102.49 30.7826 101.788 30.7826 101.135V100.81C30.9875 100.818 31.1947 100.823 31.4057 100.823C31.7079 100.823 32.0032 100.813 32.2929 100.796C32.6148 100.911 32.9427 101.009 33.2752 101.088V102.916ZM33.2752 99.4406C32.6562 99.532 32.0314 99.5776 31.4057 99.5769C30.7801 99.5776 30.1553 99.532 29.5363 99.4406V97.5876C30.1562 97.6683 30.7806 97.7084 31.4057 97.7075C32.0309 97.7084 32.6553 97.6683 33.2752 97.5876V99.4406ZM38.2602 103.179C37.0205 103.362 35.7611 103.362 34.5214 103.179V101.322C35.1411 101.405 35.7656 101.446 36.3908 101.446C37.016 101.447 37.6404 101.407 38.2602 101.327V103.179ZM41.999 101.135C41.999 101.788 41.0324 102.49 39.5065 102.916V101.095C40.5121 100.852 41.3634 100.489 41.999 100.039V101.135Z" fill="#B99027"/>
</g>
<path d="M0 0H334V214.358C334 227.574 323.287 238.287 310.072 238.287H0V0Z" fill="url(#paint4_linear_1_1694)"/>
</g>
<defs>
<linearGradient id="paint0_linear_1_1694" x1="200.4" y1="2.99099" x2="200.4" y2="279.164" gradientUnits="userSpaceOnUse">
<stop stop-color="#1F2321"/>
<stop offset="1" stop-color="#020B05" stop-opacity="0.7"/>
</linearGradient>
<linearGradient id="paint1_linear_1_1694" x1="15.6563" y1="-11.393" x2="463.473" y2="37.5945" gradientUnits="userSpaceOnUse">
<stop stop-color="white" stop-opacity="0.04"/>
<stop offset="1" stop-color="white" stop-opacity="0.12"/>
</linearGradient>
<linearGradient id="paint2_linear_1_1694" x1="93.7194" y1="22.9312" x2="93.7194" y2="57.2534" gradientUnits="userSpaceOnUse">
<stop stop-color="#F1F1EF"/>
<stop offset="1" stop-color="#F1F1EF" stop-opacity="0"/>
</linearGradient>
<linearGradient id="paint3_linear_1_1694" x1="84.2477" y1="231.307" x2="84.2477" y2="265.63" gradientUnits="userSpaceOnUse">
<stop stop-color="#F1F1EF"/>
<stop offset="1" stop-color="#F1F1EF" stop-opacity="0"/>
</linearGradient>
<linearGradient id="paint4_linear_1_1694" x1="162.089" y1="0" x2="162.089" y2="238.287" gradientUnits="userSpaceOnUse">
<stop stop-color="#0F1611" stop-opacity="0"/>
<stop offset="1" stop-color="#030C06" stop-opacity="0.9"/>
</linearGradient>
<clipPath id="clip0_1_1694">
<rect width="334" height="238.287" fill="white"/>
</clipPath>
</defs>
</svg>
