<svg width="648" height="279" viewBox="0 0 648 279" fill="none" xmlns="http://www.w3.org/2000/svg">
<g clip-path="url(#clip0_1_1531)">
<g clip-path="url(#clip1_1_1531)">
<g clip-path="url(#clip2_1_1531)">
<mask id="mask0_1_1531" style="mask-type:alpha" maskUnits="userSpaceOnUse" x="1" y="0" width="647" height="279">
<path d="M1.99561 0H647.998V254.214C647.998 267.428 637.286 278.14 624.072 278.14H1.99561V0Z" fill="#D9D9D9"/>
</mask>
<g mask="url(#mask0_1_1531)">
<path d="M2.99243 24.8477C2.99243 11.1247 14.1171 0 27.8401 0H647.998V256.76C647.998 270.483 636.873 281.607 623.15 281.607H2.99243V24.8477Z" fill="url(#paint0_linear_1_1531)"/>
<path d="M115.842 235.536V281.607" stroke="#18382C" stroke-width="1.03532" stroke-dasharray="6.21 6.21"/>
<path d="M210.059 159.44V281.607" stroke="#18382C" stroke-width="1.03532" stroke-dasharray="6.21 6.21"/>
<path d="M306.339 212.241V281.607" stroke="#18382C" stroke-width="1.03532" stroke-dasharray="6.21 6.21"/>
<path d="M405.731 70.4014V281.607" stroke="#18382C" stroke-width="1.03532" stroke-dasharray="6.21 6.21"/>
<path d="M505.124 136.662V281.607" stroke="#18382C" stroke-width="1.03532" stroke-dasharray="6.21 6.21"/>
<path d="M597.264 32.0951V281.607" stroke="#18382C" stroke-width="1.03532" stroke-dasharray="6.21 6.21"/>
<path d="M2.99243 250.547H647.998" stroke="#18382C" stroke-width="1.03532" stroke-dasharray="6.21 6.21"/>
<path d="M334.296 198.781L647.998 198.782" stroke="#18382C" stroke-width="1.03532" stroke-dasharray="6.21 6.21"/>
<path d="M164.505 198.781H272.178" stroke="#18382C" stroke-width="1.03532" stroke-dasharray="6.21 6.21"/>
<path d="M2.99243 198.781H57.8645" stroke="#18382C" stroke-width="1.03532" stroke-dasharray="6.21 6.21"/>
<path d="M356.038 147.016H647.998" stroke="#18382C" stroke-width="1.03532" stroke-dasharray="6.21 6.21"/>
<path d="M371.564 95.2494L647.994 95.2495" stroke="#18382C" stroke-width="1.03532" stroke-dasharray="6.21 6.21"/>
<path d="M567.24 43.4838H647.995" stroke="#18382C" stroke-width="1.03532" stroke-dasharray="6.21 6.21"/>
<mask id="mask1_1_1531" style="mask-type:alpha" maskUnits="userSpaceOnUse" x="2" y="25" width="646" height="257">
<path d="M3.51001 50.0685C3.51001 36.6314 14.403 25.7385 27.84 25.7385H623.15C636.587 25.7385 647.48 36.6314 647.48 50.0686V256.76C647.48 270.198 636.587 281.09 623.15 281.09H3.51001V50.0685Z" fill="url(#paint1_linear_1_1531)" stroke="url(#paint2_linear_1_1531)" stroke-width="1.03532"/>
</mask>
<g mask="url(#mask1_1_1531)">
<path d="M25.6769 185.191C12.163 185.191 0.920654 199.367 0.920654 199.367V358.967H649.032V74.0259C637.91 55.5995 618.831 31.3036 597.206 31.3036C526.936 31.3036 571.578 136.73 502.411 136.73C441.786 136.73 462.178 68.8587 408.718 68.8587C341.754 68.8587 369.036 211.476 306.757 211.476C262.115 211.476 258.532 158.359 212.513 158.359C164.564 158.359 168.146 235.296 115.236 235.296C77.4288 235.296 67.0122 185.191 25.6769 185.191Z" fill="url(#paint3_linear_1_1531)"/>
<path d="M0.920654 199.367C0.920654 199.367 12.163 185.192 25.6769 185.192C67.0122 185.192 77.4288 235.296 115.236 235.296C168.146 235.296 164.564 158.36 212.513 158.36C258.532 158.36 262.115 211.476 306.757 211.476C369.036 211.476 341.754 68.3452 408.718 68.3452C462.178 68.3452 441.786 136.73 502.411 136.73C571.578 136.73 526.936 31.8215 597.206 31.8215C618.831 31.8215 637.91 56.1175 649.032 74.5438" stroke="url(#paint4_linear_1_1531)" stroke-width="2.09971" stroke-linecap="round"/>
<g filter="url(#filter0_f_1_1531)">
<path d="M406.245 82.7441C414.229 82.7441 420.701 76.2722 420.701 68.2888C420.701 60.3054 414.229 53.8335 406.245 53.8335C398.262 53.8335 391.79 60.3054 391.79 68.2888C391.79 76.2722 398.262 82.7441 406.245 82.7441Z" fill="#A4D963" fill-opacity="0.25"/>
</g>
<path d="M406.167 84.4322C415.057 84.4322 422.264 77.2778 422.264 68.4523C422.264 59.6269 415.057 52.4724 406.167 52.4724C397.276 52.4724 390.069 59.6269 390.069 68.4523C390.069 77.2778 397.276 84.4322 406.167 84.4322Z" fill="#4C4F49" fill-opacity="0.06"/>
<path d="M406.168 78.8737C411.966 78.8737 416.667 74.2078 416.667 68.4521C416.667 62.6963 411.966 58.0304 406.168 58.0304C400.37 58.0304 395.669 62.6963 395.669 68.4521C395.669 74.2078 400.37 78.8737 406.168 78.8737Z" fill="#9DA098" fill-opacity="0.06"/>
<path d="M406.168 73.3154C408.874 73.3154 411.067 71.1379 411.067 68.4519C411.067 65.7659 408.874 63.5885 406.168 63.5885C403.462 63.5885 401.269 65.7659 401.269 68.4519C401.269 71.1379 403.462 73.3154 406.168 73.3154Z" fill="#ECFF77"/>
<g filter="url(#filter1_f_1_1531)">
<path d="M212.546 169.264C218.538 169.264 223.394 164.407 223.394 158.416C223.394 152.425 218.538 147.568 212.546 147.568C206.555 147.568 201.698 152.425 201.698 158.416C201.698 164.407 206.555 169.264 212.546 169.264Z" fill="#A4D963" fill-opacity="0.71"/>
</g>
<path d="M212.49 170.531C219.162 170.531 224.57 165.162 224.57 158.539C224.57 151.916 219.162 146.547 212.49 146.547C205.818 146.547 200.409 151.916 200.409 158.539C200.409 165.162 205.818 170.531 212.49 170.531Z" fill="#4C4F49" fill-opacity="0.06"/>
<path d="M212.49 166.361C216.841 166.361 220.368 162.859 220.368 158.54C220.368 154.22 216.841 150.719 212.49 150.719C208.138 150.719 204.611 154.22 204.611 158.54C204.611 162.859 208.138 166.361 212.49 166.361Z" fill="#9DA098" fill-opacity="0.06"/>
<path d="M212.49 162.189C214.52 162.189 216.166 160.555 216.166 158.539C216.166 156.523 214.52 154.889 212.49 154.889C210.459 154.889 208.813 156.523 208.813 158.539C208.813 160.555 210.459 162.189 212.49 162.189Z" fill="#ECFF77"/>
</g>
<path d="M30.6387 34.3038V32.739H39.9624V34.3038H36.2035V44.7864H34.3917V34.3038H30.6387ZM44.0459 44.9687C43.1988 44.9687 42.4596 44.7746 41.8283 44.3864C41.1968 43.9981 40.7066 43.455 40.3576 42.7569C40.0086 42.0588 39.834 41.2431 39.834 40.3098C39.834 39.3725 40.0086 38.5528 40.3576 37.8509C40.7066 37.1489 41.1968 36.6037 41.8283 36.2155C42.4596 35.8273 43.1988 35.6332 44.0459 35.6332C44.893 35.6332 45.6323 35.8273 46.2637 36.2155C46.895 36.6037 47.3853 37.1489 47.7343 37.8509C48.0833 38.5528 48.2578 39.3725 48.2578 40.3098C48.2578 41.2431 48.0833 42.0588 47.7343 42.7569C47.3853 43.455 46.895 43.9981 46.2637 44.3864C45.6323 44.7746 44.893 44.9687 44.0459 44.9687ZM44.0518 43.4923C44.6009 43.4923 45.0558 43.3471 45.4166 43.0569C45.7774 42.7667 46.044 42.3804 46.2166 41.8981C46.3931 41.4157 46.4813 40.8843 46.4813 40.3039C46.4813 39.7274 46.3931 39.1979 46.2166 38.7156C46.044 38.2293 45.7774 37.8391 45.4166 37.5449C45.0558 37.2508 44.6009 37.1038 44.0518 37.1038C43.4989 37.1038 43.04 37.2508 42.6754 37.5449C42.3146 37.8391 42.0459 38.2293 41.8694 38.7156C41.6969 39.1979 41.6105 39.7274 41.6105 40.3039C41.6105 40.8843 41.6969 41.4157 41.8694 41.8981C42.0459 42.3804 42.3146 42.7667 42.6754 43.0569C43.04 43.3471 43.4989 43.4923 44.0518 43.4923ZM54.1076 35.7508V37.1626H49.1722V35.7508H54.1076ZM50.4957 33.5861H52.2545V42.1334C52.2545 42.4745 52.3056 42.7314 52.4076 42.904C52.5094 43.0725 52.6408 43.1883 52.8016 43.251C52.9663 43.3098 53.1448 43.3392 53.337 43.3392C53.4782 43.3392 53.6017 43.3295 53.7075 43.3098C53.8134 43.2903 53.8958 43.2745 53.9546 43.2628L54.2723 44.7158C54.1703 44.7549 54.0253 44.7942 53.8369 44.8334C53.6487 44.8766 53.4135 44.9001 53.131 44.904C52.6684 44.9119 52.2369 44.8295 51.8369 44.6569C51.4369 44.4844 51.1134 44.2177 50.8663 43.8569C50.6192 43.4961 50.4957 43.0431 50.4957 42.498V33.5861ZM58.3514 44.9863C57.7789 44.9863 57.2612 44.8805 56.7984 44.6687C56.3356 44.453 55.969 44.1412 55.6984 43.7334C55.4317 43.3256 55.2983 42.8255 55.2983 42.2333C55.2983 41.7235 55.3964 41.3039 55.5925 40.9745C55.7886 40.6451 56.0533 40.3843 56.3867 40.1922C56.7199 39.9999 57.0926 39.8549 57.5043 39.7568C57.916 39.6588 58.3357 39.5842 58.7631 39.5333C59.3043 39.4705 59.7436 39.4195 60.0808 39.3804C60.4181 39.3372 60.6632 39.2686 60.8162 39.1744C60.9691 39.0803 61.0456 38.9274 61.0456 38.7156V38.6744C61.0456 38.1607 60.9005 37.7627 60.6103 37.4802C60.324 37.1979 59.8965 37.0567 59.3279 37.0567C58.7357 37.0567 58.269 37.1881 57.9279 37.4508C57.5905 37.7097 57.3573 37.9979 57.2279 38.3156L55.5749 37.9391C55.771 37.3901 56.0572 36.9469 56.4337 36.6096C56.8141 36.2685 57.2514 36.0215 57.7455 35.8684C58.2396 35.7116 58.7592 35.6332 59.3043 35.6332C59.6651 35.6332 60.0475 35.6763 60.4514 35.7626C60.8593 35.8449 61.2397 35.9979 61.5927 36.2214C61.9496 36.4449 62.2417 36.7646 62.4692 37.1803C62.6965 37.5921 62.8103 38.1273 62.8103 38.7862V44.7864H61.0926V43.5511H61.022C60.9083 43.7785 60.7377 44.002 60.5103 44.2216C60.2828 44.4412 59.9906 44.6237 59.6338 44.7687C59.2769 44.9139 58.8494 44.9863 58.3514 44.9863ZM58.7337 43.5746C59.22 43.5746 59.6357 43.4785 59.9808 43.2863C60.3299 43.0942 60.5946 42.8432 60.775 42.5333C60.9593 42.2196 61.0514 41.8843 61.0514 41.5274V40.3627C60.9887 40.4254 60.8671 40.4843 60.6868 40.5392C60.5103 40.5901 60.3083 40.6353 60.0808 40.6745C59.8533 40.7098 59.6318 40.7432 59.4161 40.7745C59.2005 40.802 59.02 40.8255 58.875 40.845C58.5337 40.8882 58.222 40.9608 57.9397 41.0628C57.6612 41.1646 57.4376 41.3118 57.269 41.5039C57.1043 41.6921 57.0219 41.9431 57.0219 42.2569C57.0219 42.6922 57.1827 43.0216 57.5043 43.2451C57.8259 43.4647 58.2357 43.5746 58.7337 43.5746ZM66.5806 32.739V44.7864H64.8218V32.739H66.5806ZM72.8094 44.7864V32.739H80.3625V34.3038H74.6271V37.9744H79.9683V39.5333H74.6271V43.2216H80.4331V44.7864H72.8094ZM84.9474 44.9863C84.3749 44.9863 83.8573 44.8805 83.3946 44.6687C82.9318 44.453 82.5651 44.1412 82.2945 43.7334C82.0278 43.3256 81.8945 42.8255 81.8945 42.2333C81.8945 41.7235 81.9925 41.3039 82.1886 40.9745C82.3847 40.6451 82.6494 40.3843 82.9827 40.1922C83.3161 39.9999 83.6886 39.8549 84.1004 39.7568C84.5122 39.6588 84.9318 39.5842 85.3593 39.5333C85.9005 39.4705 86.3396 39.4195 86.677 39.3804C87.0143 39.3372 87.2593 39.2686 87.4122 39.1744C87.5653 39.0803 87.6417 38.9274 87.6417 38.7156V38.6744C87.6417 38.1607 87.4966 37.7627 87.2064 37.4802C86.9201 37.1979 86.4927 37.0567 85.924 37.0567C85.3319 37.0567 84.8651 37.1881 84.524 37.4508C84.1867 37.7097 83.9533 37.9979 83.8239 38.3156L82.1709 37.9391C82.367 37.3901 82.6533 36.9469 83.0298 36.6096C83.4102 36.2685 83.8475 36.0215 84.3416 35.8684C84.8357 35.7116 85.3554 35.6332 85.9005 35.6332C86.2613 35.6332 86.6436 35.6763 87.0476 35.7626C87.4554 35.8449 87.8358 35.9979 88.1887 36.2214C88.5456 36.4449 88.8378 36.7646 89.0652 37.1803C89.2927 37.5921 89.4065 38.1273 89.4065 38.7862V44.7864H87.6888V43.5511H87.6182C87.5044 43.7785 87.3339 44.002 87.1064 44.2216C86.8789 44.4412 86.5868 44.6237 86.2299 44.7687C85.873 44.9139 85.4455 44.9863 84.9474 44.9863ZM85.3299 43.5746C85.8162 43.5746 86.2319 43.4785 86.5769 43.2863C86.9259 43.0942 87.1907 42.8432 87.3711 42.5333C87.5554 42.2196 87.6476 41.8843 87.6476 41.5274V40.3627C87.5848 40.4254 87.4633 40.4843 87.2828 40.5392C87.1064 40.5901 86.9044 40.6353 86.677 40.6745C86.4495 40.7098 86.2279 40.7432 86.0123 40.7745C85.7965 40.802 85.6162 40.8255 85.471 40.845C85.1299 40.8882 84.8181 40.9608 84.5357 41.0628C84.2573 41.1646 84.0338 41.3118 83.8651 41.5039C83.7004 41.6921 83.6181 41.9431 83.6181 42.2569C83.6181 42.6922 83.7789 43.0216 84.1004 43.2451C84.422 43.4647 84.8318 43.5746 85.3299 43.5746ZM91.4178 44.7864V35.7508H93.1179V37.1862H93.212C93.3767 36.6999 93.6669 36.3175 94.0826 36.0391C94.5022 35.7567 94.9767 35.6155 95.5062 35.6155C95.616 35.6155 95.7454 35.6195 95.8944 35.6273C96.0473 35.6351 96.167 35.6449 96.2533 35.6567V37.3391C96.1827 37.3195 96.0572 37.2979 95.8768 37.2744C95.6964 37.247 95.516 37.2332 95.3356 37.2332C94.9199 37.2332 94.5493 37.3214 94.2238 37.4979C93.9023 37.6705 93.6474 37.9117 93.459 38.2214C93.2708 38.5274 93.1767 38.8764 93.1767 39.2686V44.7864H91.4178ZM99.203 39.4215V44.7864H97.444V35.7508H99.1323V37.2214H99.2441C99.452 36.743 99.7772 36.3587 100.221 36.0685C100.667 35.7783 101.231 35.6332 101.909 35.6332C102.525 35.6332 103.064 35.7626 103.527 36.0215C103.989 36.2764 104.348 36.6567 104.603 37.1626C104.857 37.6686 104.985 38.294 104.985 39.0391V44.7864H103.227V39.2509C103.227 38.596 103.056 38.0842 102.715 37.7156C102.373 37.3431 101.905 37.1567 101.308 37.1567C100.901 37.1567 100.538 37.245 100.221 37.4214C99.9068 37.598 99.6579 37.8568 99.4735 38.1979C99.2931 38.5352 99.203 38.943 99.203 39.4215ZM107.013 44.7864V35.7508H108.771V44.7864H107.013ZM107.901 34.3567C107.595 34.3567 107.333 34.2547 107.114 34.0507C106.897 33.8429 106.79 33.5958 106.79 33.3095C106.79 33.0193 106.897 32.7723 107.114 32.5684C107.333 32.3606 107.595 32.2566 107.901 32.2566C108.207 32.2566 108.468 32.3606 108.684 32.5684C108.903 32.7723 109.013 33.0193 109.013 33.3095C109.013 33.5958 108.903 33.8429 108.684 34.0507C108.468 34.2547 108.207 34.3567 107.901 34.3567ZM112.566 39.4215V44.7864H110.807V35.7508H112.495V37.2214H112.607C112.815 36.743 113.14 36.3587 113.584 36.0685C114.03 35.7783 114.593 35.6332 115.271 35.6332C115.887 35.6332 116.427 35.7626 116.889 36.0215C117.352 36.2764 117.711 36.6567 117.966 37.1626C118.221 37.6686 118.348 38.294 118.348 39.0391V44.7864H116.589V39.2509C116.589 38.596 116.419 38.0842 116.078 37.7156C115.737 37.3431 115.267 37.1567 114.671 37.1567C114.263 37.1567 113.901 37.245 113.584 37.4214C113.269 37.598 113.02 37.8568 112.836 38.1979C112.656 38.5352 112.566 38.943 112.566 39.4215ZM124.164 48.3629C123.446 48.3629 122.829 48.2688 122.312 48.0806C121.797 47.8923 121.377 47.6433 121.052 47.3335C120.726 47.0236 120.483 46.6845 120.323 46.3158L121.835 45.6922C121.941 45.8648 122.081 46.0472 122.258 46.2394C122.438 46.4355 122.681 46.6021 122.987 46.7393C123.297 46.8766 123.695 46.9453 124.182 46.9453C124.849 46.9453 125.399 46.7825 125.835 46.457C126.27 46.1354 126.488 45.6217 126.488 44.9157V43.1392H126.376C126.27 43.3314 126.117 43.5452 125.917 43.7805C125.721 44.0157 125.451 44.2197 125.105 44.3923C124.76 44.5647 124.311 44.6511 123.758 44.6511C123.044 44.6511 122.401 44.4844 121.829 44.151C121.26 43.8138 120.809 43.3177 120.476 42.6628C120.146 42.004 119.982 41.1941 119.982 40.2333C119.982 39.2725 120.144 38.4489 120.47 37.7627C120.799 37.0764 121.251 36.5508 121.823 36.1861C122.395 35.8175 123.044 35.6332 123.77 35.6332C124.331 35.6332 124.784 35.7273 125.129 35.9156C125.474 36.0998 125.743 36.3155 125.934 36.5626C126.131 36.8097 126.282 37.0273 126.388 37.2156H126.518V35.7508H128.241V44.9863C128.241 45.7628 128.061 46.4002 127.7 46.8982C127.339 47.3962 126.85 47.7648 126.234 48.0041C125.623 48.2433 124.932 48.3629 124.164 48.3629ZM124.147 43.1922C124.652 43.1922 125.08 43.0745 125.429 42.8393C125.782 42.6 126.049 42.2589 126.228 41.8157C126.413 41.3686 126.506 40.8333 126.506 40.2098C126.506 39.6019 126.415 39.0666 126.234 38.6039C126.054 38.1411 125.79 37.7803 125.441 37.5214C125.092 37.2587 124.66 37.1273 124.147 37.1273C123.617 37.1273 123.176 37.2646 122.823 37.5391C122.47 37.8097 122.203 38.1784 122.022 38.645C121.846 39.1117 121.758 39.6333 121.758 40.2098C121.758 40.802 121.848 41.3216 122.028 41.7686C122.209 42.2157 122.476 42.5647 122.829 42.8157C123.186 43.0667 123.624 43.1922 124.147 43.1922ZM137.039 37.9568L135.445 38.2391C135.378 38.0352 135.272 37.841 135.127 37.6568C134.986 37.4725 134.794 37.3214 134.551 37.2038C134.307 37.0862 134.003 37.0273 133.639 37.0273C133.141 37.0273 132.725 37.1391 132.392 37.3626C132.058 37.5822 131.892 37.8665 131.892 38.2156C131.892 38.5175 132.004 38.7607 132.227 38.945C132.451 39.1293 132.811 39.2804 133.31 39.398L134.745 39.7274C135.577 39.9196 136.196 40.2157 136.603 40.6156C137.012 41.0157 137.215 41.5353 137.215 42.1745C137.215 42.7158 137.059 43.1981 136.745 43.6217C136.435 44.0413 136.002 44.3706 135.445 44.6099C134.892 44.8491 134.251 44.9687 133.521 44.9687C132.51 44.9687 131.684 44.7531 131.045 44.3216C130.405 43.8863 130.014 43.2686 129.868 42.4686L131.568 42.2098C131.675 42.6529 131.892 42.9883 132.221 43.2157C132.551 43.4392 132.981 43.5511 133.51 43.5511C134.086 43.5511 134.547 43.4314 134.892 43.1922C135.237 42.949 135.41 42.6529 135.41 42.3039C135.41 42.0216 135.303 41.7843 135.092 41.5921C134.884 41.4 134.565 41.2549 134.133 41.1569L132.604 40.8215C131.76 40.6294 131.137 40.3234 130.733 39.9038C130.333 39.4842 130.133 38.9529 130.133 38.3097C130.133 37.7763 130.282 37.3097 130.58 36.9097C130.878 36.5096 131.29 36.1979 131.815 35.9744C132.341 35.7469 132.943 35.6332 133.622 35.6332C134.598 35.6332 135.366 35.8449 135.927 36.2685C136.488 36.6881 136.859 37.2508 137.039 37.9568Z" fill="url(#paint5_linear_1_1531)"/>
<path d="M46.4743 124.238H38.1918C33.6174 124.238 29.9092 127.946 29.9092 132.52V132.521C29.9092 137.095 33.6174 140.803 38.1918 140.803H46.4743C51.0486 140.803 54.7569 137.095 54.7569 132.521V132.52C54.7569 127.946 51.0486 124.238 46.4743 124.238Z" fill="#0D2D1D"/>
<mask id="mask2_1_1531" style="mask-type:luminance" maskUnits="userSpaceOnUse" x="36" y="126" width="13" height="13">
<path d="M48.5445 126.308H36.1206V138.732H48.5445V126.308Z" fill="white"/>
</mask>
<g mask="url(#mask2_1_1531)">
<path d="M47.7666 129.027V132.133C47.7667 132.209 47.744 132.285 47.7013 132.349C47.6586 132.413 47.5979 132.462 47.5269 132.491C47.456 132.521 47.3779 132.528 47.3025 132.513C47.2272 132.498 47.158 132.461 47.1036 132.408L45.8254 131.129L42.9942 133.96C42.9581 133.997 42.9152 134.025 42.8681 134.045C42.821 134.065 42.7704 134.075 42.7194 134.075C42.6684 134.075 42.6179 134.065 42.5708 134.045C42.5236 134.025 42.4808 133.997 42.4447 133.96L40.7782 132.293L37.5587 135.513C37.4858 135.586 37.387 135.627 37.284 135.627C37.1809 135.627 37.0821 135.586 37.0093 135.513C36.9365 135.44 36.8955 135.342 36.8955 135.239C36.8955 135.135 36.9365 135.037 37.0093 134.964L40.5035 131.47C40.5395 131.434 40.5824 131.405 40.6296 131.386C40.6766 131.366 40.7272 131.356 40.7782 131.356C40.8292 131.356 40.8797 131.366 40.9268 131.386C40.974 131.405 41.0169 131.434 41.0529 131.47L42.7194 133.136L45.2765 130.579L43.9977 129.301C43.9433 129.247 43.9063 129.178 43.8913 129.103C43.8763 129.027 43.884 128.949 43.9134 128.879C43.9428 128.807 43.9927 128.746 44.0566 128.704C44.1205 128.661 44.1955 128.638 44.2724 128.638H47.3784C47.4814 128.638 47.5801 128.679 47.6528 128.752C47.7257 128.825 47.7666 128.923 47.7666 129.027Z" fill="#319766"/>
</g>
<path d="M61.5725 134.733V133.984L64.8814 128.748H65.4255V129.91H65.0578L62.5578 133.866V133.925H67.0138V134.733H61.5725ZM65.1167 136.278V134.506V134.156V128.748H65.9844V136.278H65.1167ZM70.7473 128.645C71.0561 128.648 71.3649 128.707 71.6738 128.822C71.9826 128.937 72.2644 129.128 72.5194 129.395C72.7743 129.66 72.9789 130.022 73.1334 130.48C73.2878 130.938 73.3651 131.513 73.3651 132.204C73.3651 132.873 73.3012 133.467 73.1738 133.988C73.0488 134.504 72.8675 134.941 72.6297 135.297C72.3944 135.652 72.1076 135.921 71.7694 136.105C71.4336 136.289 71.0537 136.38 70.6296 136.38C70.2081 136.38 69.8319 136.298 69.501 136.131C69.1725 135.962 68.9028 135.727 68.6921 135.428C68.4837 135.127 68.3502 134.778 68.2913 134.38H69.1885C69.2693 134.726 69.4299 135.012 69.6701 135.238C69.9127 135.46 70.2325 135.572 70.6296 135.572C71.2105 135.572 71.6689 135.319 72.0047 134.811C72.3429 134.304 72.5121 133.587 72.5121 132.66H72.4533C72.316 132.866 72.153 133.044 71.9643 133.193C71.7756 133.343 71.5659 133.458 71.3355 133.539C71.1051 133.62 70.8601 133.66 70.6002 133.66C70.1688 133.66 69.7731 133.553 69.4127 133.341C69.0549 133.124 68.7681 132.829 68.5524 132.454C68.3392 132.077 68.2325 131.645 68.2325 131.16C68.2325 130.699 68.3355 130.278 68.5414 129.895C68.7497 129.511 69.0414 129.204 69.4164 128.976C69.7939 128.748 70.2375 128.638 70.7473 128.645ZM70.7473 129.454C70.4385 129.454 70.1603 129.531 69.9127 129.686C69.6676 129.838 69.4728 130.044 69.3281 130.303C69.186 130.56 69.1149 130.846 69.1149 131.16C69.1149 131.473 69.1836 131.76 69.3208 132.017C69.4605 132.272 69.6504 132.475 69.8907 132.627C70.1333 132.776 70.4091 132.851 70.7179 132.851C70.9507 132.851 71.1676 132.806 71.3686 132.716C71.5696 132.622 71.7449 132.496 71.8944 132.337C72.0463 132.174 72.1653 131.992 72.251 131.788C72.3368 131.583 72.3797 131.369 72.3797 131.145C72.3797 130.851 72.3086 130.575 72.1665 130.318C72.0268 130.061 71.8331 129.852 71.5855 129.693C71.3404 129.533 71.0611 129.454 70.7473 129.454ZM78.6077 134.866V134.469C78.6077 134.194 78.6642 133.943 78.7769 133.716C78.8921 133.485 79.0587 133.301 79.2769 133.164C79.4975 133.024 79.7647 132.954 80.0784 132.954C80.397 132.954 80.6642 133.024 80.8799 133.164C81.0955 133.301 81.2585 133.485 81.3689 133.716C81.4792 133.943 81.5343 134.194 81.5343 134.469V134.866C81.5343 135.14 81.478 135.393 81.3652 135.624C81.2549 135.851 81.0907 136.035 80.8725 136.175C80.6568 136.312 80.3921 136.38 80.0784 136.38C79.7598 136.38 79.4913 136.312 79.2732 136.175C79.0551 136.035 78.8897 135.851 78.7769 135.624C78.6642 135.393 78.6077 135.14 78.6077 134.866ZM79.3578 134.469V134.866C79.3578 135.094 79.4117 135.299 79.5195 135.48C79.6274 135.659 79.8137 135.748 80.0784 135.748C80.3357 135.748 80.5171 135.659 80.6225 135.48C80.7304 135.299 80.7843 135.094 80.7843 134.866V134.469C80.7843 134.241 80.7328 134.038 80.6299 133.859C80.5269 133.678 80.3431 133.587 80.0784 133.587C79.821 133.587 79.636 133.678 79.5232 133.859C79.413 134.038 79.3578 134.241 79.3578 134.469ZM74.8576 130.557V130.16C74.8576 129.885 74.9141 129.634 75.0268 129.406C75.142 129.176 75.3086 128.992 75.5268 128.855C75.7474 128.715 76.0146 128.645 76.3283 128.645C76.6469 128.645 76.9141 128.715 77.1298 128.855C77.3454 128.992 77.5084 129.176 77.6188 129.406C77.7291 129.634 77.7842 129.885 77.7842 130.16V130.557C77.7842 130.831 77.7279 131.084 77.6151 131.315C77.5047 131.542 77.3406 131.727 77.1224 131.866C76.9067 132.003 76.642 132.072 76.3283 132.072C76.0097 132.072 75.7413 132.003 75.5231 131.866C75.3049 131.727 75.1396 131.542 75.0268 131.315C74.9141 131.084 74.8576 130.831 74.8576 130.557ZM75.6077 130.16V130.557C75.6077 130.785 75.6615 130.99 75.7694 131.171C75.8773 131.35 76.0636 131.44 76.3283 131.44C76.5856 131.44 76.767 131.35 76.8724 131.171C76.9803 130.99 77.0342 130.785 77.0342 130.557V130.16C77.0342 129.932 76.9827 129.729 76.8798 129.549C76.7768 129.368 76.593 129.277 76.3283 129.277C76.0709 129.277 75.8859 129.368 75.7731 129.549C75.6628 129.729 75.6077 129.932 75.6077 130.16ZM75.1371 136.278L80.3137 128.748H81.152L75.9754 136.278H75.1371ZM86.1427 136.278V128.748H90.6576V129.557H87.0545V132.102H90.3193V132.91H87.0545V136.278H86.1427ZM91.9995 136.278V130.631H92.8377V131.483H92.8966C92.9995 131.204 93.1858 130.977 93.4554 130.804C93.725 130.629 94.029 130.542 94.3672 130.542C94.4309 130.542 94.5106 130.543 94.6062 130.546C94.7018 130.548 94.7741 130.552 94.8231 130.557V131.44C94.7937 131.433 94.7263 131.421 94.6209 131.407C94.5179 131.389 94.4089 131.381 94.2936 131.381C94.0192 131.381 93.774 131.439 93.5583 131.553C93.3451 131.666 93.176 131.823 93.051 132.024C92.9285 132.222 92.8671 132.449 92.8671 132.705V136.278H91.9995ZM97.9325 136.395C97.4227 136.395 96.9753 136.275 96.5905 136.031C96.2082 135.789 95.9091 135.449 95.6935 135.014C95.4803 134.577 95.3736 134.067 95.3736 133.483C95.3736 132.895 95.4803 132.382 95.6935 131.943C95.9091 131.504 96.2082 131.163 96.5905 130.921C96.9753 130.678 97.4227 130.557 97.9325 130.557C98.4423 130.557 98.8884 130.678 99.2707 130.921C99.6556 131.163 99.9547 131.504 100.168 131.943C100.383 132.382 100.491 132.895 100.491 133.483C100.491 134.067 100.383 134.577 100.168 135.014C99.9547 135.449 99.6556 135.789 99.2707 136.031C98.8884 136.275 98.4423 136.395 97.9325 136.395ZM97.9325 135.616C98.3198 135.616 98.6384 135.517 98.8884 135.319C99.1385 135.12 99.3235 134.859 99.4436 134.535C99.5636 134.212 99.6238 133.861 99.6238 133.483C99.6238 133.106 99.5636 132.755 99.4436 132.429C99.3235 132.103 99.1385 131.839 98.8884 131.638C98.6384 131.437 98.3198 131.337 97.9325 131.337C97.5453 131.337 97.2266 131.437 96.9766 131.638C96.7266 131.839 96.5415 132.103 96.4215 132.429C96.3013 132.755 96.2413 133.106 96.2413 133.483C96.2413 133.861 96.3013 134.212 96.4215 134.535C96.5415 134.859 96.7266 135.12 96.9766 135.319C97.2266 135.517 97.5453 135.616 97.9325 135.616ZM101.774 136.278V130.631H102.613V131.513H102.686C102.804 131.211 102.994 130.977 103.257 130.811C103.519 130.642 103.834 130.557 104.201 130.557C104.573 130.557 104.883 130.642 105.131 130.811C105.381 130.977 105.576 131.211 105.716 131.513H105.775C105.919 131.221 106.136 130.99 106.426 130.818C106.715 130.644 107.062 130.557 107.466 130.557C107.971 130.557 108.384 130.715 108.705 131.032C109.026 131.345 109.186 131.834 109.186 132.498V136.278H108.319V132.498C108.319 132.082 108.205 131.784 107.977 131.605C107.749 131.426 107.48 131.337 107.171 131.337C106.775 131.337 106.467 131.457 106.249 131.697C106.031 131.935 105.921 132.236 105.921 132.601V136.278H105.039V132.411C105.039 132.089 104.935 131.83 104.727 131.634C104.519 131.436 104.25 131.337 103.921 131.337C103.696 131.337 103.485 131.397 103.289 131.516C103.096 131.637 102.939 131.803 102.819 132.017C102.701 132.227 102.642 132.471 102.642 132.749V136.278H101.774ZM114.47 128.748V136.278H113.602V128.748H114.47ZM117.679 136.41C117.321 136.41 116.996 136.342 116.705 136.208C116.413 136.07 116.182 135.874 116.01 135.616C115.839 135.356 115.753 135.042 115.753 134.675C115.753 134.352 115.817 134.089 115.943 133.888C116.071 133.685 116.241 133.525 116.455 133.41C116.668 133.295 116.903 133.209 117.161 133.152C117.421 133.093 117.682 133.048 117.944 133.013C118.287 132.969 118.565 132.936 118.779 132.914C118.994 132.889 119.151 132.849 119.249 132.792C119.35 132.737 119.4 132.638 119.4 132.498V132.469C119.4 132.107 119.301 131.824 119.102 131.623C118.906 131.423 118.608 131.322 118.208 131.322C117.795 131.322 117.47 131.413 117.234 131.594C116.999 131.776 116.834 131.969 116.738 132.174L115.914 131.88C116.062 131.537 116.257 131.27 116.503 131.079C116.75 130.885 117.02 130.751 117.311 130.675C117.605 130.596 117.895 130.557 118.179 130.557C118.361 130.557 118.569 130.579 118.804 130.623C119.042 130.665 119.271 130.752 119.491 130.884C119.715 131.017 119.9 131.216 120.047 131.483C120.194 131.751 120.268 132.108 120.268 132.557V136.278H119.4V135.513H119.356C119.297 135.636 119.199 135.767 119.062 135.907C118.924 136.046 118.742 136.165 118.513 136.263C118.286 136.361 118.008 136.41 117.679 136.41ZM117.812 135.631C118.154 135.631 118.444 135.564 118.679 135.428C118.917 135.294 119.096 135.12 119.216 134.907C119.339 134.694 119.4 134.469 119.4 134.234V133.439C119.363 133.483 119.282 133.524 119.157 133.561C119.035 133.595 118.892 133.626 118.731 133.653C118.571 133.678 118.416 133.7 118.264 133.719C118.115 133.736 117.993 133.75 117.899 133.763C117.674 133.792 117.464 133.84 117.267 133.907C117.074 133.97 116.917 134.067 116.797 134.197C116.679 134.325 116.62 134.498 116.62 134.719C116.62 135.021 116.732 135.249 116.955 135.402C117.18 135.555 117.466 135.631 117.812 135.631ZM125.81 131.895L125.03 132.115C124.981 131.986 124.909 131.86 124.814 131.738C124.72 131.612 124.593 131.509 124.431 131.429C124.27 131.348 124.062 131.307 123.81 131.307C123.464 131.307 123.176 131.387 122.946 131.546C122.717 131.703 122.604 131.903 122.604 132.145C122.604 132.361 122.682 132.531 122.839 132.657C122.996 132.781 123.241 132.885 123.575 132.969L124.413 133.175C124.918 133.298 125.293 133.485 125.542 133.737C125.789 133.988 125.912 134.31 125.912 134.704C125.912 135.027 125.82 135.317 125.633 135.572C125.45 135.827 125.192 136.027 124.862 136.175C124.531 136.321 124.146 136.395 123.707 136.395C123.131 136.395 122.655 136.271 122.277 136.02C121.899 135.77 121.661 135.405 121.56 134.925L122.383 134.719C122.462 135.022 122.61 135.251 122.828 135.402C123.048 135.555 123.336 135.631 123.692 135.631C124.096 135.631 124.418 135.545 124.655 135.373C124.896 135.199 125.015 134.991 125.015 134.748C125.015 134.552 124.947 134.388 124.81 134.256C124.672 134.121 124.462 134.021 124.178 133.954L123.236 133.733C122.719 133.611 122.34 133.421 122.096 133.164C121.856 132.904 121.736 132.579 121.736 132.189C121.736 131.871 121.826 131.589 122.005 131.344C122.186 131.099 122.432 130.906 122.743 130.767C123.057 130.627 123.412 130.557 123.81 130.557C124.368 130.557 124.807 130.68 125.126 130.925C125.447 131.169 125.675 131.493 125.81 131.895ZM129.633 130.631V131.366H126.707V130.631H129.633ZM127.559 129.277H128.428V134.661C128.428 134.905 128.463 135.089 128.534 135.212C128.607 135.332 128.701 135.412 128.814 135.454C128.929 135.493 129.05 135.513 129.177 135.513C129.273 135.513 129.352 135.508 129.413 135.498C129.474 135.486 129.523 135.476 129.56 135.469L129.737 136.249C129.678 136.271 129.595 136.293 129.49 136.314C129.385 136.339 129.251 136.351 129.09 136.351C128.844 136.351 128.604 136.299 128.369 136.193C128.136 136.088 127.942 135.928 127.788 135.711C127.636 135.496 127.559 135.224 127.559 134.896V129.277ZM133.767 136.278V130.631H134.606V131.513H134.679C134.797 131.211 134.987 130.977 135.25 130.811C135.512 130.642 135.827 130.557 136.194 130.557C136.567 130.557 136.877 130.642 137.124 130.811C137.374 130.977 137.569 131.211 137.709 131.513H137.768C137.912 131.221 138.13 130.99 138.419 130.818C138.708 130.644 139.055 130.557 139.459 130.557C139.964 130.557 140.377 130.715 140.698 131.032C141.019 131.345 141.179 131.834 141.179 132.498V136.278H140.312V132.498C140.312 132.082 140.198 131.784 139.97 131.605C139.742 131.426 139.474 131.337 139.165 131.337C138.768 131.337 138.46 131.457 138.242 131.697C138.024 131.935 137.914 132.236 137.914 132.601V136.278H137.032V132.411C137.032 132.089 136.928 131.83 136.72 131.634C136.512 131.436 136.244 131.337 135.915 131.337C135.689 131.337 135.479 131.397 135.283 131.516C135.089 131.637 134.932 131.803 134.812 132.017C134.694 132.227 134.636 132.471 134.636 132.749V136.278H133.767ZM145.018 136.395C144.509 136.395 144.061 136.275 143.677 136.031C143.295 135.789 142.996 135.449 142.779 135.014C142.566 134.577 142.46 134.067 142.46 133.483C142.46 132.895 142.566 132.382 142.779 131.943C142.996 131.504 143.295 131.163 143.677 130.921C144.061 130.678 144.509 130.557 145.018 130.557C145.529 130.557 145.974 130.678 146.357 130.921C146.742 131.163 147.041 131.504 147.254 131.943C147.47 132.382 147.577 132.895 147.577 133.483C147.577 134.067 147.47 134.577 147.254 135.014C147.041 135.449 146.742 135.789 146.357 136.031C145.974 136.275 145.529 136.395 145.018 136.395ZM145.018 135.616C145.406 135.616 145.724 135.517 145.974 135.319C146.225 135.12 146.41 134.859 146.53 134.535C146.65 134.212 146.71 133.861 146.71 133.483C146.71 133.106 146.65 132.755 146.53 132.429C146.41 132.103 146.225 131.839 145.974 131.638C145.724 131.437 145.406 131.337 145.018 131.337C144.632 131.337 144.313 131.437 144.062 131.638C143.813 131.839 143.628 132.103 143.508 132.429C143.387 132.755 143.328 133.106 143.328 133.483C143.328 133.861 143.387 134.212 143.508 134.535C143.628 134.859 143.813 135.12 144.062 135.319C144.313 135.517 144.632 135.616 145.018 135.616ZM149.729 132.881V136.278H148.861V130.631H149.699V131.513H149.773C149.905 131.226 150.106 130.996 150.376 130.821C150.645 130.645 150.993 130.557 151.42 130.557C151.802 130.557 152.136 130.635 152.424 130.793C152.71 130.947 152.933 131.182 153.092 131.498C153.252 131.812 153.332 132.209 153.332 132.69V136.278H152.463V132.749C152.463 132.305 152.349 131.959 152.118 131.712C151.888 131.462 151.571 131.337 151.169 131.337C150.892 131.337 150.645 131.397 150.427 131.516C150.211 131.637 150.041 131.812 149.916 132.043C149.791 132.273 149.729 132.552 149.729 132.881ZM157.331 130.631V131.366H154.405V130.631H157.331ZM155.258 129.277H156.125V134.661C156.125 134.905 156.161 135.089 156.232 135.212C156.305 135.332 156.399 135.412 156.512 135.454C156.627 135.493 156.748 135.513 156.876 135.513C156.971 135.513 157.049 135.508 157.111 135.498C157.172 135.486 157.222 135.476 157.258 135.469L157.434 136.249C157.375 136.271 157.293 136.293 157.188 136.314C157.083 136.339 156.95 136.351 156.787 136.351C156.542 136.351 156.303 136.299 156.066 136.193C155.834 136.088 155.641 135.928 155.486 135.711C155.334 135.496 155.258 135.224 155.258 134.896V129.277ZM159.584 132.881V136.278H158.717V128.748H159.584V131.513H159.658C159.79 131.221 159.989 130.99 160.253 130.818C160.52 130.644 160.876 130.557 161.32 130.557C161.705 130.557 162.042 130.634 162.331 130.789C162.62 130.941 162.844 131.174 163.004 131.491C163.165 131.804 163.246 132.204 163.246 132.69V136.278H162.379V132.749C162.379 132.3 162.262 131.953 162.029 131.708C161.799 131.461 161.479 131.337 161.07 131.337C160.786 131.337 160.53 131.397 160.305 131.516C160.082 131.637 159.905 131.812 159.776 132.043C159.648 132.273 159.584 132.552 159.584 132.881Z" fill="white" fill-opacity="0.6"/>
<path opacity="0.9" d="M41.0536 111.749V77.8663H43.2241V111.749H41.0536ZM47.314 88.7063C47.1905 87.5504 46.6699 86.6504 45.7521 86.0063C44.8433 85.3621 43.661 85.0401 42.205 85.0401C41.1815 85.0401 40.3035 85.1945 39.5711 85.5033C38.8388 85.8121 38.2784 86.2313 37.8902 86.7606C37.5019 87.2901 37.3034 87.8945 37.2946 88.5739C37.2946 89.1387 37.4226 89.6284 37.6784 90.0431C37.9432 90.4578 38.3005 90.8108 38.7505 91.1019C39.2005 91.3843 39.699 91.6226 40.2461 91.8167C40.7933 92.0108 41.3448 92.174 41.9006 92.3064L44.4419 92.9417C45.4654 93.18 46.4493 93.502 47.3933 93.9079C48.3464 94.3138 49.1979 94.8256 49.9479 95.4433C50.7067 96.0609 51.3067 96.8065 51.7479 97.6801C52.1891 98.5537 52.4097 99.5772 52.4097 100.75C52.4097 102.339 52.0038 103.737 51.192 104.947C50.3802 106.147 49.2066 107.086 47.6713 107.766C46.1448 108.437 44.2962 108.772 42.1256 108.772C40.0168 108.772 38.1858 108.445 36.6328 107.792C35.0887 107.139 33.8798 106.187 33.0062 104.934C32.1415 103.68 31.6739 102.154 31.6033 100.354H36.4342C36.5049 101.298 36.796 102.083 37.3078 102.709C37.8197 103.336 38.4858 103.804 39.3065 104.113C40.1359 104.421 41.0623 104.576 42.0859 104.576C43.1536 104.576 44.0889 104.417 44.8919 104.099C45.7037 103.773 46.3389 103.323 46.7978 102.749C47.2567 102.167 47.4904 101.487 47.4993 100.711C47.4904 100.005 47.2831 99.4228 46.8772 98.9639C46.4713 98.4962 45.9022 98.108 45.1698 97.7992C44.4463 97.4816 43.5992 97.1992 42.6286 96.9521L39.5446 96.158C37.3122 95.5844 35.5475 94.7153 34.2504 93.5505C32.9622 92.377 32.318 90.8196 32.318 88.8784C32.318 87.2812 32.7503 85.8827 33.6151 84.6827C34.4886 83.4827 35.6755 82.5517 37.1754 81.89C38.6755 81.2194 40.3741 80.884 42.2712 80.884C44.1947 80.884 45.8801 81.2194 47.3273 81.89C48.7832 82.5517 49.9258 83.4738 50.7553 84.6562C51.5847 85.8297 52.0127 87.1798 52.0391 88.7063H47.314ZM65.201 108.732C63.4362 108.732 61.8568 108.401 60.4626 107.739C59.0686 107.069 57.9612 106.151 57.1405 104.986C56.3287 103.821 55.8964 102.489 55.8434 100.989H60.6083C60.6965 102.1 61.1774 103.009 62.0509 103.715C62.9245 104.412 63.9745 104.761 65.201 104.761C66.1628 104.761 67.0187 104.541 67.7687 104.099C68.5187 103.658 69.1099 103.045 69.5423 102.26C69.9746 101.474 70.1865 100.579 70.1776 99.5727C70.1865 98.5492 69.9702 97.6404 69.5291 96.8462C69.0879 96.0521 68.4834 95.43 67.7158 94.98C66.9481 94.5211 66.0657 94.2917 65.0687 94.2917C64.2569 94.2829 63.4584 94.4329 62.673 94.7418C61.8877 95.0506 61.2657 95.4564 60.8068 95.9594L56.3729 95.2314L57.7891 81.2547H73.513V85.3577H61.8524L61.0715 92.5446H61.2304C61.7333 91.9535 62.4436 91.4637 63.3613 91.0755C64.2789 90.6784 65.2848 90.4798 66.3789 90.4798C68.0202 90.4798 69.4849 90.8681 70.7733 91.6446C72.0615 92.4123 73.0762 93.4712 73.8174 94.8212C74.5587 96.1712 74.9292 97.7154 74.9292 99.4537C74.9292 101.245 74.5145 102.842 73.6851 104.245C72.8645 105.639 71.7218 106.738 70.2571 107.54C68.8012 108.335 67.1158 108.732 65.201 108.732ZM83.3859 104.655L83.2138 106.111C83.0903 107.223 82.8697 108.352 82.552 109.499C82.2432 110.656 81.9167 111.719 81.5726 112.69C81.2284 113.66 80.9505 114.423 80.7387 114.979H77.5092C77.6327 114.441 77.8004 113.708 78.0122 112.782C78.2328 111.855 78.4445 110.814 78.6475 109.658C78.8505 108.503 78.9873 107.329 79.0578 106.138L79.1505 104.655H83.3859ZM88.0737 108.361L99.6019 85.543V85.3577H86.2207V81.2547H104.684V85.4504L93.1694 108.361H88.0737ZM117.257 80.884C118.554 80.8929 119.816 81.1223 121.042 81.5723C122.279 82.0135 123.39 82.7371 124.378 83.743C125.366 84.74 126.152 86.0768 126.734 87.7534C127.316 89.4299 127.608 91.5035 127.608 93.9741C127.616 96.3035 127.37 98.386 126.866 100.221C126.372 102.047 125.662 103.592 124.736 104.854C123.809 106.116 122.693 107.077 121.387 107.739C120.081 108.401 118.612 108.732 116.979 108.732C115.267 108.732 113.75 108.397 112.426 107.726C111.112 107.055 110.048 106.138 109.237 104.972C108.424 103.808 107.926 102.476 107.74 100.976H112.572C112.819 102.052 113.322 102.908 114.081 103.544C114.848 104.17 115.814 104.483 116.979 104.483C118.859 104.483 120.306 103.667 121.32 102.035C122.335 100.403 122.843 98.1345 122.843 95.2314H122.657C122.225 96.0079 121.664 96.6786 120.977 97.2433C120.289 97.7992 119.507 98.2272 118.634 98.5272C117.769 98.8271 116.851 98.9772 115.881 98.9772C114.292 98.9772 112.863 98.5977 111.593 97.8389C110.33 97.08 109.33 96.0388 108.588 94.7153C107.856 93.3917 107.485 91.8784 107.476 90.1755C107.476 88.4107 107.882 86.8268 108.694 85.4239C109.515 84.012 110.657 82.9003 112.122 82.0885C113.586 81.2679 115.298 80.8664 117.257 80.884ZM117.271 84.8547C116.318 84.8547 115.458 85.0886 114.69 85.5563C113.93 86.015 113.331 86.6415 112.89 87.4356C112.457 88.221 112.241 89.099 112.241 90.0696C112.25 91.0313 112.466 91.9049 112.89 92.6902C113.322 93.4756 113.908 94.0976 114.65 94.5564C115.4 95.0153 116.256 95.2447 117.217 95.2447C117.932 95.2447 118.599 95.1079 119.216 94.8344C119.834 94.5609 120.372 94.1815 120.831 93.6962C121.299 93.202 121.66 92.6417 121.917 92.0152C122.181 91.3887 122.309 90.727 122.3 90.0298C122.3 89.1034 122.079 88.2474 121.638 87.4622C121.206 86.6768 120.611 86.0459 119.852 85.5694C119.101 85.093 118.241 84.8547 117.271 84.8547ZM140.694 108.732C138.929 108.732 137.349 108.401 135.955 107.739C134.561 107.069 133.454 106.151 132.632 104.986C131.821 103.821 131.388 102.489 131.336 100.989H136.101C136.189 102.1 136.67 103.009 137.543 103.715C138.417 104.412 139.467 104.761 140.694 104.761C141.656 104.761 142.511 104.541 143.261 104.099C144.011 103.658 144.602 103.045 145.035 102.26C145.467 101.474 145.679 100.579 145.67 99.5727C145.679 98.5492 145.463 97.6404 145.021 96.8462C144.581 96.0521 143.975 95.43 143.208 94.98C142.44 94.5211 141.558 94.2917 140.561 94.2917C139.749 94.2829 138.951 94.4329 138.165 94.7418C137.38 95.0506 136.758 95.4564 136.299 95.9594L131.865 95.2314L133.281 81.2547H149.006V85.3577H137.345L136.564 92.5446H136.723C137.225 91.9535 137.936 91.4637 138.853 91.0755C139.771 90.6784 140.777 90.4798 141.871 90.4798C143.513 90.4798 144.977 90.8681 146.265 91.6446C147.554 92.4123 148.568 93.4712 149.31 94.8212C150.051 96.1712 150.421 97.7154 150.421 99.4537C150.421 101.245 150.007 102.842 149.177 104.245C148.357 105.639 147.214 106.738 145.749 107.54C144.293 108.335 142.609 108.732 140.694 108.732ZM156.205 108.652C155.402 108.652 154.713 108.37 154.14 107.806C153.567 107.24 153.284 106.553 153.293 105.741C153.284 104.947 153.567 104.267 154.14 103.702C154.713 103.137 155.402 102.855 156.205 102.855C156.981 102.855 157.656 103.137 158.229 103.702C158.813 104.267 159.108 104.947 159.117 105.741C159.108 106.278 158.966 106.769 158.693 107.21C158.429 107.651 158.075 108.004 157.634 108.268C157.202 108.524 156.725 108.652 156.205 108.652ZM172.229 108.877C170.05 108.877 168.179 108.326 166.616 107.223C165.064 106.111 163.868 104.51 163.03 102.418C162.2 100.319 161.785 97.7903 161.785 94.8344C161.794 91.8784 162.214 89.3637 163.043 87.2901C163.882 85.2077 165.077 83.6194 166.63 82.5252C168.192 81.4311 170.058 80.884 172.229 80.884C174.399 80.884 176.266 81.4311 177.828 82.5252C179.389 83.6194 180.585 85.2077 181.415 87.2901C182.252 89.3725 182.672 91.8873 182.672 94.8344C182.672 97.7992 182.252 100.332 181.415 102.431C180.585 104.523 179.389 106.12 177.828 107.223C176.275 108.326 174.408 108.877 172.229 108.877ZM172.229 104.735C173.923 104.735 175.26 103.901 176.24 102.233C177.228 100.557 177.721 98.0904 177.721 94.8344C177.721 92.6814 177.497 90.8725 177.046 89.4077C176.597 87.9431 175.962 86.8401 175.141 86.0989C174.32 85.3489 173.35 84.9739 172.229 84.9739C170.543 84.9739 169.211 85.8121 168.231 87.4886C167.252 89.1563 166.758 91.605 166.749 94.8344C166.74 96.9962 166.956 98.814 167.398 100.288C167.848 101.761 168.483 102.873 169.304 103.623C170.125 104.364 171.1 104.735 172.229 104.735ZM196.344 108.877C194.163 108.877 192.293 108.326 190.731 107.223C189.179 106.111 187.982 104.51 187.144 102.418C186.315 100.319 185.9 97.7903 185.9 94.8344C185.909 91.8784 186.328 89.3637 187.158 87.2901C187.996 85.2077 189.192 83.6194 190.745 82.5252C192.306 81.4311 194.172 80.884 196.344 80.884C198.514 80.884 200.38 81.4311 201.942 82.5252C203.503 83.6194 204.7 85.2077 205.529 87.2901C206.367 89.3725 206.786 91.8873 206.786 94.8344C206.786 97.7992 206.367 100.332 205.529 102.431C204.7 104.523 203.503 106.12 201.942 107.223C200.389 108.326 198.523 108.877 196.344 108.877ZM196.344 104.735C198.037 104.735 199.374 103.901 200.353 102.233C201.342 100.557 201.836 98.0904 201.836 94.8344C201.836 92.6814 201.611 90.8725 201.161 89.4077C200.711 87.9431 200.076 86.8401 199.255 86.0989C198.434 85.3489 197.464 84.9739 196.344 84.9739C194.658 84.9739 193.326 85.8121 192.346 87.4886C191.367 89.1563 190.872 91.605 190.863 94.8344C190.854 96.9962 191.071 98.814 191.512 100.288C191.962 101.761 192.597 102.873 193.419 103.623C194.239 104.364 195.214 104.735 196.344 104.735Z" fill="url(#paint6_linear_1_1531)"/>
<path d="M2.99243 281.607V25.3657C2.99243 11.6426 14.1171 0.517944 27.8401 0.517944H647.998" stroke="url(#paint7_linear_1_1531)" stroke-width="1.03532"/>
</g>
<path d="M0.00170898 15.9507H647.001V254.214C647.001 267.428 636.289 278.14 623.075 278.14H0.00170898V15.9507Z" fill="url(#paint8_linear_1_1531)"/>
</g>
</g>
</g>
<defs>
<filter id="filter0_f_1_1531" x="380.824" y="42.8674" width="50.8428" height="50.8428" filterUnits="userSpaceOnUse" color-interpolation-filters="sRGB">
<feFlood flood-opacity="0" result="BackgroundImageFix"/>
<feBlend mode="normal" in="SourceGraphic" in2="BackgroundImageFix" result="shape"/>
<feGaussianBlur stdDeviation="5.48305" result="effect1_foregroundBlur_1_1531"/>
</filter>
<filter id="filter1_f_1_1531" x="193.469" y="139.339" width="38.1554" height="38.1553" filterUnits="userSpaceOnUse" color-interpolation-filters="sRGB">
<feFlood flood-opacity="0" result="BackgroundImageFix"/>
<feBlend mode="normal" in="SourceGraphic" in2="BackgroundImageFix" result="shape"/>
<feGaussianBlur stdDeviation="4.11479" result="effect1_foregroundBlur_1_1531"/>
</filter>
<linearGradient id="paint0_linear_1_1531" x1="325.495" y1="0" x2="325.495" y2="281.607" gradientUnits="userSpaceOnUse">
<stop stop-color="#1F2321"/>
<stop offset="1" stop-color="#020B05" stop-opacity="0.7"/>
</linearGradient>
<linearGradient id="paint1_linear_1_1531" x1="325.495" y1="25.2208" x2="325.495" y2="281.608" gradientUnits="userSpaceOnUse">
<stop stop-color="#0C160F"/>
<stop offset="1" stop-color="#0E1810" stop-opacity="0.31"/>
</linearGradient>
<linearGradient id="paint2_linear_1_1531" x1="325.495" y1="25.2208" x2="325.495" y2="281.608" gradientUnits="userSpaceOnUse">
<stop stop-color="#6CF0C8" stop-opacity="0.3"/>
<stop offset="1" stop-color="#6CF0C8" stop-opacity="0.15"/>
</linearGradient>
<linearGradient id="paint3_linear_1_1531" x1="378.869" y1="13.6631" x2="378.869" y2="358.967" gradientUnits="userSpaceOnUse">
<stop stop-color="#2E3A38" stop-opacity="0.16"/>
<stop offset="1" stop-color="#090A08" stop-opacity="0"/>
</linearGradient>
<linearGradient id="paint4_linear_1_1531" x1="649.005" y1="32.2869" x2="0.971952" y2="235.176" gradientUnits="userSpaceOnUse">
<stop stop-color="#319766"/>
<stop offset="1" stop-color="#ECFF77"/>
</linearGradient>
<linearGradient id="paint5_linear_1_1531" x1="84.2412" y1="24.848" x2="84.2412" y2="66.3167" gradientUnits="userSpaceOnUse">
<stop stop-color="#F1F1EF"/>
<stop offset="1" stop-color="#F1F1EF" stop-opacity="0"/>
</linearGradient>
<linearGradient id="paint6_linear_1_1531" x1="119.632" y1="72.4722" x2="119.632" y2="138.251" gradientUnits="userSpaceOnUse">
<stop stop-color="#F1F1EF"/>
<stop offset="1" stop-color="#F1F1EF" stop-opacity="0"/>
</linearGradient>
<linearGradient id="paint7_linear_1_1531" x1="28.1879" y1="-14.1221" x2="736.298" y2="108.356" gradientUnits="userSpaceOnUse">
<stop stop-color="white" stop-opacity="0.04"/>
<stop offset="1" stop-color="white" stop-opacity="0.12"/>
</linearGradient>
<linearGradient id="paint8_linear_1_1531" x1="313.987" y1="15.9507" x2="313.987" y2="278.14" gradientUnits="userSpaceOnUse">
<stop stop-color="#0F1611" stop-opacity="0"/>
<stop offset="1" stop-color="#030C06" stop-opacity="0.9"/>
</linearGradient>
<clipPath id="clip0_1_1531">
<rect width="648" height="278.14" fill="white"/>
</clipPath>
<clipPath id="clip1_1_1531">
<rect width="648" height="278.14" fill="white"/>
</clipPath>
<clipPath id="clip2_1_1531">
<rect width="647.996" height="278.14" fill="white" transform="translate(0.00170898)"/>
</clipPath>
</defs>
</svg>
