<svg width="448" height="278" viewBox="0 0 448 278" fill="none" xmlns="http://www.w3.org/2000/svg">
<g clip-path="url(#clip0_1_1591)">
<path d="M394.296 0.497803H56.7445C48.2225 0.497803 41.314 7.4063 41.314 15.9284V78.6461C41.314 87.1682 48.2225 94.0767 56.7445 94.0767H394.296C402.818 94.0767 409.727 87.1682 409.727 78.6461V15.9284C409.727 7.4063 402.818 0.497803 394.296 0.497803Z" fill="url(#paint0_linear_1_1591)" stroke="url(#paint1_linear_1_1591)" stroke-width="0.99552"/>
<path d="M67.3497 37.8297C72.9856 37.8297 77.5544 33.3726 77.5544 27.8745C77.5544 22.3764 72.9856 17.9193 67.3497 17.9193C61.7138 17.9193 57.145 22.3764 57.145 27.8745C57.145 33.3726 61.7138 37.8297 67.3497 37.8297Z" fill="#A4D963"/>
<path d="M72.7079 23.5192H61.993C61.7561 23.5192 61.5291 23.611 61.3616 23.7743C61.1942 23.9377 61.1001 24.1592 61.1001 24.3902V31.3589C61.1001 31.5899 61.1942 31.8114 61.3616 31.9748C61.5291 32.1382 61.7561 32.23 61.993 32.23H72.7079C72.9447 32.23 73.1718 32.1382 73.3392 31.9748C73.5068 31.8114 73.6007 31.5899 73.6007 31.3589V24.3902C73.6007 24.1592 73.5068 23.9377 73.3392 23.7743C73.1718 23.611 72.9447 23.5192 72.7079 23.5192ZM67.7969 30.4878H66.904C66.7856 30.4878 66.672 30.4419 66.5883 30.3603C66.5046 30.2785 66.4575 30.1677 66.4575 30.0523C66.4575 29.9368 66.5046 29.826 66.5883 29.7442C66.672 29.6626 66.7856 29.6167 66.904 29.6167H67.7969C67.9153 29.6167 68.0288 29.6626 68.1125 29.7442C68.1964 29.826 68.2434 29.9368 68.2434 30.0523C68.2434 30.1677 68.1964 30.2785 68.1125 30.3603C68.0288 30.4419 67.9153 30.4878 67.7969 30.4878ZM71.3685 30.4878H69.5827C69.4643 30.4878 69.3508 30.4419 69.267 30.3603C69.1833 30.2785 69.1362 30.1677 69.1362 30.0523C69.1362 29.9368 69.1833 29.826 69.267 29.7442C69.3508 29.6626 69.4643 29.6167 69.5827 29.6167H71.3685C71.487 29.6167 71.6004 29.6626 71.6842 29.7442C71.7679 29.826 71.815 29.9368 71.815 30.0523C71.815 30.1677 71.7679 30.2785 71.6842 30.3603C71.6004 30.4419 71.487 30.4878 71.3685 30.4878ZM61.993 25.6969V24.3902H72.7079V25.6969H61.993Z" fill="black"/>
<path d="M91.2017 22.2635H92.8759L96.8128 31.8793H96.9485L100.885 22.2635H102.559V33.8477H101.247V25.0464H101.134L97.5142 33.8477H96.2472L92.627 25.0464H92.514V33.8477H91.2017V22.2635ZM108.402 34.0287C107.618 34.0287 106.93 33.8421 106.337 33.4687C105.749 33.0954 105.289 32.5732 104.958 31.902C104.629 31.2307 104.466 30.4463 104.466 29.5489C104.466 28.6438 104.629 27.8539 104.958 27.1788C105.289 26.5039 105.749 25.9797 106.337 25.6064C106.93 25.2331 107.618 25.0464 108.402 25.0464C109.187 25.0464 109.873 25.2331 110.461 25.6064C111.053 25.9797 111.513 26.5039 111.842 27.1788C112.173 27.8539 112.339 28.6438 112.339 29.5489C112.339 30.4463 112.173 31.2307 111.842 31.902C111.513 32.5732 111.053 33.0954 110.461 33.4687C109.873 33.8421 109.187 34.0287 108.402 34.0287ZM108.402 32.8296C108.998 32.8296 109.488 32.6769 109.873 32.3714C110.258 32.0659 110.542 31.6644 110.727 31.1666C110.912 30.6688 111.004 30.1297 111.004 29.5489C111.004 28.9682 110.912 28.427 110.727 27.9255C110.542 27.4239 110.258 27.0187 109.873 26.7094C109.488 26.4001 108.998 26.2455 108.402 26.2455C107.807 26.2455 107.316 26.4001 106.932 26.7094C106.547 27.0187 106.263 27.4239 106.078 27.9255C105.892 28.427 105.801 28.9682 105.801 29.5489C105.801 30.1297 105.892 30.6688 106.078 31.1666C106.263 31.6644 106.547 32.0659 106.932 32.3714C107.316 32.6769 107.807 32.8296 108.402 32.8296ZM115.394 28.6212V33.8477H114.059V25.1595H115.348V26.5171H115.461C115.664 26.0759 115.974 25.7214 116.389 25.4537C116.803 25.1822 117.339 25.0464 117.995 25.0464C118.583 25.0464 119.098 25.1671 119.539 25.4084C119.981 25.646 120.323 26.008 120.568 26.4944C120.814 26.9771 120.937 27.588 120.937 28.3271V33.8477H119.602V28.4177C119.602 27.735 119.424 27.2034 119.07 26.8225C118.716 26.4379 118.229 26.2455 117.611 26.2455C117.185 26.2455 116.803 26.3379 116.468 26.5227C116.136 26.7076 115.874 26.9771 115.681 27.3316C115.489 27.6861 115.394 28.1159 115.394 28.6212ZM126.835 25.1595V26.2908H122.333V25.1595H126.835ZM123.645 23.078H124.98V31.3589C124.98 31.736 125.035 32.0189 125.145 32.2074C125.257 32.3922 125.401 32.5166 125.574 32.5807C125.751 32.6411 125.938 32.6712 126.134 32.6712C126.282 32.6712 126.402 32.6637 126.497 32.6486C126.59 32.6297 126.666 32.6147 126.723 32.6033L126.994 33.8024C126.904 33.8364 126.777 33.8703 126.615 33.9043C126.453 33.942 126.248 33.9608 125.999 33.9608C125.622 33.9608 125.252 33.8798 124.89 33.7176C124.531 33.5554 124.234 33.3085 123.996 32.9766C123.762 32.6448 123.645 32.2262 123.645 31.7209V23.078ZM130.047 28.6212V33.8477H128.712V22.2635H130.047V26.5171H130.16C130.363 26.0683 130.669 25.712 131.076 25.448C131.487 25.1803 132.034 25.0464 132.717 25.0464C133.308 25.0464 133.827 25.1652 134.272 25.4027C134.717 25.6366 135.062 25.9967 135.307 26.4832C135.556 26.9658 135.68 27.5804 135.68 28.3271V33.8477H134.345V28.4177C134.345 27.7276 134.166 27.194 133.808 26.8169C133.453 26.436 132.962 26.2455 132.331 26.2455C131.894 26.2455 131.502 26.3379 131.156 26.5227C130.812 26.7076 130.54 26.9771 130.34 27.3316C130.144 27.6861 130.047 28.1159 130.047 28.6212ZM139.139 22.2635V33.8477H137.804V22.2635H139.139ZM142.125 37.1058C141.898 37.1058 141.697 37.0869 141.52 37.0492C141.343 37.0153 141.22 36.9813 141.152 36.9474L141.491 35.7709C141.816 35.8539 142.102 35.8841 142.351 35.8614C142.6 35.8388 142.821 35.7276 143.013 35.5277C143.209 35.3315 143.389 35.013 143.55 34.5718L143.799 33.893L140.586 25.1595H142.035L144.433 32.083H144.523L146.922 25.1595H148.369L144.682 35.1147C144.516 35.5635 144.31 35.9349 144.066 36.229C143.82 36.527 143.535 36.7476 143.211 36.8908C142.891 37.0342 142.528 37.1058 142.125 37.1058ZM153.974 33.8477V25.1595H155.309V33.8477H153.974ZM154.653 23.7115C154.393 23.7115 154.168 23.6229 153.98 23.4456C153.795 23.2684 153.703 23.0554 153.703 22.8065C153.703 22.5576 153.795 22.3446 153.98 22.1673C154.168 21.9901 154.393 21.9015 154.653 21.9015C154.913 21.9015 155.136 21.9901 155.321 22.1673C155.509 22.3446 155.604 22.5576 155.604 22.8065C155.604 23.0554 155.509 23.2684 155.321 23.4456C155.136 23.6229 154.913 23.7115 154.653 23.7115ZM158.77 28.6212V33.8477H157.435V25.1595H158.726V26.5171H158.838C159.042 26.0759 159.351 25.7214 159.766 25.4537C160.181 25.1822 160.717 25.0464 161.373 25.0464C161.961 25.0464 162.476 25.1671 162.917 25.4084C163.358 25.646 163.701 26.008 163.946 26.4944C164.191 26.9771 164.313 27.588 164.313 28.3271V33.8477H162.978V28.4177C162.978 27.735 162.801 27.2034 162.447 26.8225C162.092 26.4379 161.607 26.2455 160.987 26.2455C160.561 26.2455 160.181 26.3379 159.846 26.5227C159.513 26.7076 159.251 26.9771 159.059 27.3316C158.867 27.6861 158.77 28.1159 158.77 28.6212ZM169.964 34.0287C169.15 34.0287 168.448 33.8364 167.859 33.4518C167.271 33.0671 166.819 32.5373 166.503 31.8624C166.186 31.1874 166.027 30.4162 166.027 29.5489C166.027 28.6665 166.189 27.8878 166.514 27.2128C166.842 26.534 167.298 26.0042 167.882 25.6233C168.471 25.2388 169.157 25.0464 169.941 25.0464C170.552 25.0464 171.103 25.1595 171.593 25.3858C172.083 25.6121 172.485 25.9289 172.798 26.336C173.111 26.7433 173.305 27.2185 173.381 27.7615H172.046C171.944 27.3655 171.717 27.0149 171.367 26.7094C171.02 26.4001 170.552 26.2455 169.964 26.2455C169.443 26.2455 168.987 26.3813 168.595 26.6528C168.207 26.9206 167.903 27.2995 167.684 27.7898C167.469 28.2762 167.362 28.8475 167.362 29.5037C167.362 30.1749 167.467 30.7593 167.679 31.2571C167.893 31.7548 168.195 32.1414 168.584 32.4167C168.976 32.6919 169.436 32.8296 169.964 32.8296C170.31 32.8296 170.626 32.7693 170.909 32.6486C171.191 32.5279 171.43 32.3544 171.627 32.1282C171.823 31.902 171.963 31.6304 172.046 31.3136H173.381C173.305 31.8265 173.119 32.2884 172.82 32.6995C172.526 33.1068 172.136 33.431 171.649 33.6724C171.167 33.9099 170.605 34.0287 169.964 34.0287ZM178.542 34.0287C177.759 34.0287 177.07 33.8421 176.479 33.4687C175.89 33.0954 175.43 32.5732 175.098 31.902C174.77 31.2307 174.606 30.4463 174.606 29.5489C174.606 28.6438 174.77 27.8539 175.098 27.1788C175.43 26.5039 175.89 25.9797 176.479 25.6064C177.07 25.2331 177.759 25.0464 178.542 25.0464C179.327 25.0464 180.014 25.2331 180.602 25.6064C181.193 25.9797 181.653 26.5039 181.982 27.1788C182.313 27.8539 182.48 28.6438 182.48 29.5489C182.48 30.4463 182.313 31.2307 181.982 31.902C181.653 32.5732 181.193 33.0954 180.602 33.4687C180.014 33.8421 179.327 34.0287 178.542 34.0287ZM178.542 32.8296C179.139 32.8296 179.629 32.6769 180.014 32.3714C180.398 32.0659 180.683 31.6644 180.868 31.1666C181.052 30.6688 181.145 30.1297 181.145 29.5489C181.145 28.9682 181.052 28.427 180.868 27.9255C180.683 27.4239 180.398 27.0187 180.014 26.7094C179.629 26.4001 179.139 26.2455 178.542 26.2455C177.947 26.2455 177.457 26.4001 177.072 26.7094C176.688 27.0187 176.403 27.4239 176.218 27.9255C176.034 28.427 175.941 28.9682 175.941 29.5489C175.941 30.1297 176.034 30.6688 176.218 31.1666C176.403 31.6644 176.688 32.0659 177.072 32.3714C177.457 32.6769 177.947 32.8296 178.542 32.8296ZM184.199 33.8477V25.1595H185.488V26.5171H185.602C185.783 26.0533 186.074 25.6931 186.479 25.4367C186.882 25.1765 187.367 25.0464 187.932 25.0464C188.506 25.0464 188.982 25.1765 189.363 25.4367C189.748 25.6931 190.048 26.0533 190.263 26.5171H190.353C190.575 26.0683 190.909 25.712 191.354 25.448C191.799 25.1803 192.332 25.0464 192.955 25.0464C193.732 25.0464 194.367 25.2896 194.861 25.7761C195.355 26.2588 195.602 27.0111 195.602 28.033V33.8477H194.268V28.033C194.268 27.392 194.091 26.9337 193.741 26.6585C193.391 26.3832 192.977 26.2455 192.503 26.2455C191.891 26.2455 191.418 26.4303 191.083 26.7999C190.747 27.1657 190.579 27.6295 190.579 28.1914V33.8477H189.221V27.8972C189.221 27.4032 189.061 27.0054 188.74 26.7038C188.42 26.3983 188.008 26.2455 187.502 26.2455C187.156 26.2455 186.831 26.3379 186.529 26.5227C186.232 26.7076 185.99 26.9639 185.806 27.292C185.625 27.6163 185.534 27.9915 185.534 28.4177V33.8477H184.199ZM201.367 34.0287C200.529 34.0287 199.808 33.8439 199.2 33.4744C198.597 33.1011 198.131 32.5807 197.804 31.9132C197.479 31.2421 197.317 30.4615 197.317 29.5715C197.317 28.6816 197.479 27.8972 197.804 27.2185C198.131 26.5359 198.588 26.0042 199.173 25.6233C199.761 25.2388 200.447 25.0464 201.231 25.0464C201.683 25.0464 202.13 25.1218 202.571 25.2727C203.013 25.4235 203.414 25.6686 203.777 26.008C204.138 26.3436 204.427 26.7886 204.642 27.3429C204.857 27.8972 204.964 28.5797 204.964 29.3905V29.9561H198.268V28.8022H203.607C203.607 28.312 203.509 27.8746 203.313 27.4899C203.121 27.1054 202.845 26.8017 202.487 26.5793C202.132 26.3568 201.714 26.2455 201.231 26.2455C200.7 26.2455 200.24 26.3775 199.851 26.6416C199.466 26.9017 199.171 27.2411 198.962 27.6597C198.755 28.0782 198.652 28.527 198.652 29.0059V29.7752C198.652 30.4313 198.765 30.9875 198.991 31.4437C199.221 31.8963 199.54 32.2414 199.947 32.4789C200.354 32.7126 200.828 32.8296 201.367 32.8296C201.718 32.8296 202.035 32.7805 202.317 32.6825C202.604 32.5807 202.851 32.4299 203.058 32.23C203.265 32.0264 203.425 31.7738 203.539 31.472L204.829 31.8341C204.693 32.2715 204.465 32.6561 204.144 32.988C203.824 33.316 203.427 33.5725 202.957 33.7572C202.485 33.9382 201.955 34.0287 201.367 34.0287Z" fill="white" fill-opacity="0.4"/>
<path opacity="0.9" d="M62.5029 74.302V58.0116H63.5465V74.302H62.5029ZM65.5129 63.2232C65.4534 62.6675 65.2032 62.2348 64.762 61.9251C64.325 61.6155 63.7566 61.4606 63.0566 61.4606C62.5644 61.4606 62.1423 61.5348 61.7902 61.6833C61.4381 61.8318 61.1687 62.0333 60.9821 62.2878C60.7954 62.5424 60.7 62.833 60.6958 63.1596C60.6958 63.4311 60.7573 63.6665 60.8803 63.8659C61.0076 64.0653 61.1794 64.235 61.3957 64.3751C61.6121 64.5107 61.8518 64.6253 62.1148 64.7186C62.3778 64.812 62.643 64.8904 62.9102 64.9541L64.132 65.2596C64.6241 65.3741 65.0971 65.529 65.551 65.7241C66.0092 65.9192 66.4186 66.1653 66.7792 66.4623C67.144 66.7592 67.4325 67.1176 67.6446 67.5376C67.8567 67.9576 67.9628 68.4497 67.9628 69.014C67.9628 69.7775 67.7676 70.4499 67.3774 71.0312C66.987 71.6081 66.4228 72.0599 65.6847 72.3866C64.9508 72.709 64.062 72.8702 63.0184 72.8702C62.0045 72.8702 61.1242 72.7132 60.3776 72.3992C59.6352 72.0854 59.054 71.6272 58.634 71.0248C58.2183 70.4223 57.9934 69.6884 57.9595 68.823H60.2821C60.3161 69.277 60.456 69.6545 60.7021 69.9557C60.9482 70.257 61.2685 70.4818 61.663 70.6303C62.0618 70.7787 62.5072 70.853 62.9993 70.853C63.5127 70.853 63.9624 70.7766 64.3483 70.6239C64.7387 70.4669 65.0441 70.2506 65.2647 69.9749C65.4853 69.6948 65.5977 69.3682 65.602 68.9949C65.5977 68.6555 65.498 68.3755 65.3028 68.1548C65.1077 67.9301 64.8341 67.7434 64.482 67.5949C64.1341 67.4422 63.7268 67.3065 63.2602 67.1877L61.7776 66.8058C60.7042 66.5301 59.8558 66.1122 59.2321 65.5523C58.6128 64.988 58.3031 64.2393 58.3031 63.306C58.3031 62.5381 58.511 61.8658 58.9267 61.2887C59.3467 60.7118 59.9173 60.2643 60.6385 59.9461C61.3597 59.6236 62.1763 59.4625 63.0884 59.4625C64.0132 59.4625 64.8235 59.6236 65.5193 59.9461C66.2192 60.2643 66.7685 60.7076 67.1673 61.276C67.5661 61.8403 67.7719 62.4893 67.7846 63.2232H65.5129ZM74.1126 72.8511C73.2641 72.8511 72.5047 72.692 71.8344 72.3739C71.1641 72.0514 70.6317 71.6102 70.2372 71.0502C69.847 70.4902 69.6391 69.8497 69.6136 69.1285H71.9044C71.9469 69.6631 72.1781 70.1 72.5981 70.4394C73.0181 70.7745 73.5229 70.9421 74.1126 70.9421C74.575 70.9421 74.9864 70.836 75.347 70.6239C75.7077 70.4118 75.9919 70.1169 76.1998 69.7394C76.4076 69.3618 76.5095 68.9313 76.5052 68.4476C76.5095 67.9555 76.4056 67.5185 76.1934 67.1367C75.9813 66.755 75.6907 66.4559 75.3216 66.2395C74.9525 66.019 74.5283 65.9087 74.049 65.9087C73.6586 65.9044 73.2747 65.9764 72.8971 66.125C72.5195 66.2734 72.2205 66.4686 71.9999 66.7104L69.8682 66.3604L70.549 59.6407H78.1088V61.6133H72.5026L72.1272 65.0686H72.2036C72.4454 64.7844 72.7868 64.549 73.2281 64.3623C73.6693 64.1714 74.1529 64.0759 74.6789 64.0759C75.468 64.0759 76.1722 64.2626 76.7915 64.6359C77.4109 65.005 77.8988 65.514 78.2551 66.1631C78.6115 66.8122 78.7896 67.5546 78.7896 68.3904C78.7896 69.2515 78.5903 70.0194 78.1915 70.6939C77.797 71.3642 77.2476 71.8923 76.5433 72.2784C75.8434 72.6602 75.0331 72.8511 74.1126 72.8511ZM80.563 72.6729V70.9675L85.0874 66.5323C85.5201 66.0953 85.8807 65.7071 86.1692 65.3677C86.4576 65.0283 86.674 64.6996 86.8183 64.3814C86.9624 64.0633 87.0346 63.7239 87.0346 63.3632C87.0346 62.9518 86.9412 62.5996 86.7546 62.307C86.5679 62.01 86.3113 61.7808 85.9846 61.6197C85.658 61.4585 85.2868 61.3778 84.8711 61.3778C84.4426 61.3778 84.0672 61.4669 83.7447 61.6451C83.4223 61.8191 83.172 62.0672 82.9938 62.3897C82.8199 62.712 82.733 63.096 82.733 63.5414H80.4867C80.4867 62.7141 80.6754 61.9951 81.053 61.3842C81.4305 60.7734 81.9502 60.3003 82.612 59.9652C83.278 59.63 84.0417 59.4625 84.9028 59.4625C85.7768 59.4625 86.5446 59.6258 87.2064 59.9525C87.8682 60.2791 88.3816 60.7267 88.7463 61.2951C89.1155 61.8636 89.3 62.5126 89.3 63.2424C89.3 63.7302 89.2066 64.2096 89.02 64.6805C88.8333 65.1514 88.5045 65.6731 88.0336 66.2458C87.567 66.8186 86.9116 67.5122 86.0674 68.3267L83.8211 70.6112V70.7003H89.4972V72.6729H80.563ZM94.0641 70.8911L93.9815 71.5912C93.922 72.1257 93.816 72.6686 93.6632 73.2201C93.5148 73.7759 93.3578 74.2871 93.1923 74.7537C93.0269 75.2204 92.8933 75.5874 92.7914 75.8546H91.2388C91.2981 75.5959 91.3788 75.2437 91.4806 74.7983C91.5866 74.3529 91.6885 73.8523 91.786 73.2965C91.8836 72.7408 91.9494 72.1765 91.9832 71.6038L92.0279 70.8911H94.0641ZM96.3179 72.6729L101.86 61.7024V61.6133H95.427V59.6407H104.304V61.6579L98.7678 72.6729H96.3179ZM110.349 59.4625C110.972 59.4667 111.579 59.5771 112.169 59.7934C112.762 60.0055 113.297 60.3534 113.773 60.837C114.248 61.3163 114.625 61.959 114.905 62.7651C115.185 63.5711 115.325 64.5681 115.325 65.7558C115.329 66.8758 115.21 67.877 114.968 68.7594C114.731 69.6376 114.39 70.3799 113.944 70.9866C113.499 71.5933 112.962 72.0557 112.334 72.3739C111.706 72.692 111 72.8511 110.215 72.8511C109.393 72.8511 108.663 72.6898 108.027 72.3675C107.394 72.045 106.883 71.6038 106.493 71.0438C106.102 70.4839 105.862 69.8433 105.774 69.1221H108.096C108.215 69.6397 108.457 70.0512 108.822 70.3566C109.19 70.6579 109.655 70.8084 110.215 70.8084C111.119 70.8084 111.815 70.4161 112.302 69.6312C112.79 68.8463 113.034 67.7561 113.034 66.3604H112.946C112.737 66.7337 112.468 67.0562 112.137 67.3277C111.806 67.5949 111.43 67.8006 111.01 67.9449C110.595 68.0891 110.154 68.1612 109.687 68.1612C108.924 68.1612 108.236 67.9788 107.625 67.614C107.018 67.2491 106.537 66.7486 106.181 66.1122C105.829 65.4759 105.65 64.7484 105.646 63.9296C105.646 63.0812 105.841 62.3196 106.232 61.6451C106.626 60.9664 107.175 60.4318 107.879 60.0416C108.584 59.647 109.407 59.454 110.349 59.4625ZM110.355 61.3715C109.897 61.3715 109.483 61.484 109.115 61.7088C108.749 61.9294 108.461 62.2306 108.249 62.6124C108.041 62.9899 107.937 63.412 107.937 63.8787C107.941 64.3411 108.046 64.7611 108.249 65.1386C108.457 65.5162 108.738 65.8153 109.095 66.0359C109.456 66.2565 109.867 66.3668 110.329 66.3668C110.674 66.3668 110.993 66.301 111.291 66.1695C111.588 66.038 111.846 65.8556 112.066 65.6222C112.291 65.3847 112.466 65.1153 112.589 64.8141C112.716 64.5129 112.777 64.1948 112.773 63.8596C112.773 63.4142 112.667 63.0026 112.455 62.6251C112.248 62.2475 111.961 61.9442 111.596 61.7151C111.235 61.4861 110.822 61.3715 110.355 61.3715ZM121.616 72.8511C120.768 72.8511 120.009 72.692 119.339 72.3739C118.668 72.0514 118.135 71.6102 117.741 71.0502C117.351 70.4902 117.143 69.8497 117.118 69.1285H119.408C119.45 69.6631 119.682 70.1 120.102 70.4394C120.521 70.7745 121.027 70.9421 121.616 70.9421C122.078 70.9421 122.491 70.836 122.851 70.6239C123.211 70.4118 123.496 70.1169 123.703 69.7394C123.911 69.3618 124.014 68.9313 124.009 68.4476C124.014 67.9555 123.909 67.5185 123.697 67.1367C123.485 66.755 123.194 66.4559 122.825 66.2395C122.457 66.019 122.032 65.9087 121.553 65.9087C121.163 65.9044 120.778 65.9764 120.401 66.125C120.024 66.2734 119.724 66.4686 119.504 66.7104L117.372 66.3604L118.053 59.6407H125.613V61.6133H120.007L119.631 65.0686H119.707C119.949 64.7844 120.29 64.549 120.731 64.3623C121.173 64.1714 121.656 64.0759 122.183 64.0759C122.971 64.0759 123.676 64.2626 124.295 64.6359C124.915 65.005 125.402 65.514 125.759 66.1631C126.115 66.8122 126.293 67.5546 126.293 68.3904C126.293 69.2515 126.094 70.0194 125.695 70.6939C125.301 71.3642 124.751 71.8923 124.048 72.2784C123.348 72.6602 122.537 72.8511 121.616 72.8511ZM129.074 72.8129C128.688 72.8129 128.357 72.6772 128.081 72.4056C127.806 72.1341 127.669 71.8032 127.674 71.413C127.669 71.0312 127.806 70.7045 128.081 70.433C128.357 70.1615 128.688 70.0257 129.074 70.0257C129.447 70.0257 129.772 70.1615 130.048 70.433C130.327 70.7045 130.47 71.0312 130.474 71.413C130.47 71.6717 130.402 71.9072 130.271 72.1193C130.143 72.3315 129.973 72.5011 129.761 72.6284C129.553 72.7514 129.324 72.8129 129.074 72.8129ZM136.778 72.9211C135.73 72.9211 134.831 72.656 134.079 72.1257C133.333 71.5912 132.758 70.8211 132.355 69.8158C131.957 68.8061 131.757 67.5907 131.757 66.1695C131.762 64.7484 131.963 63.5393 132.362 62.5424C132.764 61.5412 133.34 60.7775 134.086 60.2515C134.837 59.7255 135.734 59.4625 136.778 59.4625C137.822 59.4625 138.719 59.7255 139.469 60.2515C140.221 60.7775 140.795 61.5412 141.194 62.5424C141.598 63.5435 141.799 64.7526 141.799 66.1695C141.799 67.5949 141.598 68.8125 141.194 69.8221C140.795 70.8275 140.221 71.5954 139.469 72.1257C138.723 72.656 137.826 72.9211 136.778 72.9211ZM136.778 70.9294C137.593 70.9294 138.235 70.5285 138.706 69.7267C139.181 68.9206 139.418 67.7349 139.418 66.1695C139.418 65.1344 139.311 64.2648 139.094 63.5605C138.878 62.8563 138.572 62.326 138.178 61.9697C137.784 61.6091 137.317 61.4288 136.778 61.4288C135.968 61.4288 135.327 61.8318 134.856 62.6378C134.385 63.4396 134.148 64.6169 134.143 66.1695C134.139 67.2089 134.243 68.0828 134.456 68.7913C134.672 69.4997 134.977 70.0342 135.372 70.3948C135.766 70.7512 136.235 70.9294 136.778 70.9294ZM148.371 72.9211C147.324 72.9211 146.425 72.656 145.673 72.1257C144.927 71.5912 144.352 70.8211 143.949 69.8158C143.55 68.8061 143.351 67.5907 143.351 66.1695C143.355 64.7484 143.557 63.5393 143.955 62.5424C144.358 61.5412 144.934 60.7775 145.68 60.2515C146.431 59.7255 147.328 59.4625 148.371 59.4625C149.415 59.4625 150.312 59.7255 151.063 60.2515C151.815 60.7775 152.389 61.5412 152.788 62.5424C153.19 63.5435 153.392 64.7526 153.392 66.1695C153.392 67.5949 153.19 68.8125 152.788 69.8221C152.389 70.8275 151.815 71.5954 151.063 72.1257C150.316 72.656 149.419 72.9211 148.371 72.9211ZM148.371 70.9294C149.186 70.9294 149.829 70.5285 150.299 69.7267C150.775 68.9206 151.012 67.7349 151.012 66.1695C151.012 65.1344 150.905 64.2648 150.688 63.5605C150.472 62.8563 150.166 62.326 149.772 61.9697C149.377 61.6091 148.911 61.4288 148.371 61.4288C147.562 61.4288 146.921 61.8318 146.45 62.6378C145.979 63.4396 145.741 64.6169 145.737 66.1695C145.733 67.2089 145.836 68.0828 146.049 68.7913C146.266 69.4997 146.571 70.0342 146.965 70.3948C147.36 70.7512 147.829 70.9294 148.371 70.9294Z" fill="url(#paint2_linear_1_1591)"/>
<path d="M163.178 63.5775L160.377 73.9796H159.461L162.261 63.5775H163.178ZM167.382 72.673V63.9848H170.42C171.025 63.9848 171.524 64.0894 171.917 64.2988C172.311 64.5052 172.603 64.7838 172.795 65.1345C172.988 65.4823 173.084 65.8684 173.084 66.2926C173.084 66.6659 173.017 66.9742 172.884 67.2174C172.755 67.4606 172.581 67.653 172.367 67.7943C172.154 67.9358 171.924 68.0404 171.675 68.1083V68.1931C171.941 68.2101 172.208 68.3034 172.477 68.4731C172.746 68.6428 172.971 68.886 173.152 69.2028C173.333 69.5196 173.424 69.907 173.424 70.3652C173.424 70.8007 173.324 71.1924 173.126 71.5403C172.928 71.8881 172.616 72.1639 172.189 72.3676C171.762 72.5711 171.206 72.673 170.522 72.673H167.382ZM168.434 71.7397H170.522C171.209 71.7397 171.696 71.6068 171.985 71.3409C172.277 71.0722 172.422 70.7469 172.422 70.3652C172.422 70.0711 172.347 69.7995 172.197 69.5506C172.047 69.299 171.834 69.0982 171.557 68.9482C171.279 68.7955 170.952 68.7192 170.572 68.7192H168.434V71.7397ZM168.434 67.8029H170.385C170.703 67.8029 170.989 67.7407 171.242 67.6162C171.5 67.4918 171.703 67.3164 171.854 67.0901C172.006 66.8639 172.083 66.598 172.083 66.2926C172.083 65.9108 171.949 65.587 171.683 65.3212C171.418 65.0525 170.997 64.9181 170.42 64.9181H168.434V67.8029ZM174.438 64.9181V63.9848H180.954V64.9181H178.222V72.673H177.17V64.9181H174.438ZM188.969 66.6999H187.916C187.854 66.3972 187.745 66.1314 187.59 65.9023C187.437 65.6733 187.25 65.4809 187.029 65.3253C186.812 65.167 186.57 65.0482 186.305 64.969C186.039 64.8898 185.761 64.8502 185.472 64.8502C184.947 64.8502 184.47 64.9832 184.043 65.249C183.619 65.5149 183.281 65.9065 183.029 66.4241C182.78 66.9417 182.656 67.5766 182.656 68.3289C182.656 69.0811 182.78 69.7161 183.029 70.2337C183.281 70.7512 183.619 71.143 184.043 71.4088C184.47 71.6747 184.947 71.8076 185.472 71.8076C185.761 71.8076 186.039 71.768 186.305 71.6888C186.57 71.6096 186.812 71.4922 187.029 71.3367C187.25 71.1783 187.437 70.9846 187.59 70.7555C187.745 70.5236 187.854 70.2577 187.916 69.9579H188.969C188.889 70.4019 188.745 70.7993 188.536 71.15C188.327 71.5007 188.067 71.7991 187.755 72.0451C187.444 72.2883 187.095 72.4736 186.707 72.6009C186.323 72.7281 185.911 72.7917 185.472 72.7917C184.732 72.7917 184.073 72.6108 183.496 72.2488C182.919 71.8867 182.465 71.372 182.134 70.7045C181.803 70.0371 181.638 69.2452 181.638 68.3289C181.638 67.4126 181.803 66.6207 182.134 65.9532C182.465 65.2857 182.919 64.771 183.496 64.4091C184.073 64.047 184.732 63.866 185.472 63.866C185.911 63.866 186.323 63.9296 186.707 64.057C187.095 64.1842 187.444 64.3708 187.755 64.6169C188.067 64.8601 188.327 65.1571 188.536 65.5078C188.745 65.8557 188.889 66.253 188.969 66.6999Z" fill="url(#paint3_linear_1_1591)"/>
<path d="M368.786 88.1035H83.2777C74.7557 88.1035 67.8472 95.012 67.8472 103.534V166.252C67.8472 174.774 74.7557 181.682 83.2777 181.682H368.786C377.308 181.682 384.216 174.774 384.216 166.252V103.534C384.216 95.012 377.308 88.1035 368.786 88.1035Z" fill="url(#paint4_linear_1_1591)" stroke="url(#paint5_linear_1_1591)" stroke-width="0.99552"/>
<path d="M219.22 109.87V121.453H217.862L211.55 112.358H211.436V121.453H210.034V109.87H211.392L217.727 118.987H217.84V109.87H219.22ZM225.171 121.635C224.333 121.635 223.611 121.449 223.003 121.08C222.4 120.707 221.935 120.186 221.607 119.519C221.282 118.848 221.12 118.067 221.12 117.178C221.12 116.288 221.282 115.503 221.607 114.824C221.935 114.141 222.391 113.61 222.975 113.229C223.564 112.844 224.25 112.652 225.034 112.652C225.487 112.652 225.934 112.728 226.375 112.878C226.816 113.029 227.217 113.274 227.58 113.614C227.942 113.949 228.23 114.394 228.445 114.949C228.66 115.503 228.767 116.185 228.767 116.996V117.562H222.071V116.408H227.41C227.41 115.917 227.312 115.48 227.116 115.096C226.924 114.711 226.648 114.407 226.291 114.185C225.935 113.962 225.517 113.852 225.034 113.852C224.503 113.852 224.043 113.983 223.654 114.247C223.269 114.508 222.973 114.847 222.766 115.265C222.558 115.684 222.455 116.132 222.455 116.611V117.381C222.455 118.037 222.568 118.593 222.794 119.049C223.024 119.502 223.343 119.847 223.75 120.085C224.158 120.318 224.631 120.435 225.171 120.435C225.521 120.435 225.838 120.386 226.12 120.289C226.407 120.186 226.654 120.036 226.861 119.836C227.069 119.632 227.229 119.38 227.342 119.078L228.632 119.439C228.496 119.877 228.268 120.262 227.947 120.593C227.627 120.922 227.231 121.178 226.759 121.363C226.289 121.544 225.758 121.635 225.171 121.635ZM234.258 112.765V113.896H229.756V112.765H234.258ZM231.068 110.684H232.403V118.965C232.403 119.342 232.458 119.625 232.567 119.813C232.68 119.998 232.823 120.122 232.996 120.186C233.174 120.247 233.361 120.277 233.557 120.277C233.704 120.277 233.825 120.27 233.919 120.254C234.013 120.236 234.088 120.22 234.145 120.209L234.417 121.409C234.326 121.442 234.2 121.476 234.038 121.51C233.875 121.548 233.67 121.567 233.421 121.567C233.044 121.567 232.675 121.485 232.312 121.323C231.954 121.161 231.656 120.914 231.418 120.582C231.185 120.251 231.068 119.832 231.068 119.327V110.684ZM240.29 121.453V109.87H244.339C245.147 109.87 245.813 110.009 246.336 110.288C246.861 110.563 247.251 110.935 247.507 111.402C247.764 111.866 247.892 112.38 247.892 112.947C247.892 113.444 247.804 113.855 247.626 114.179C247.452 114.504 247.222 114.76 246.936 114.949C246.653 115.137 246.346 115.276 246.014 115.367V115.48C246.368 115.503 246.725 115.628 247.083 115.854C247.441 116.08 247.741 116.404 247.983 116.826C248.224 117.249 248.344 117.765 248.344 118.376C248.344 118.957 248.213 119.479 247.948 119.943C247.684 120.407 247.268 120.774 246.699 121.046C246.129 121.318 245.388 121.453 244.476 121.453H240.29ZM241.692 120.209H244.476C245.392 120.209 246.043 120.032 246.427 119.677C246.815 119.319 247.009 118.885 247.009 118.376C247.009 117.984 246.91 117.623 246.71 117.29C246.51 116.955 246.225 116.687 245.855 116.487C245.486 116.284 245.049 116.182 244.543 116.182H241.692V120.209ZM241.692 114.96H244.294C244.717 114.96 245.098 114.877 245.437 114.711C245.78 114.545 246.052 114.312 246.252 114.01C246.455 113.708 246.557 113.354 246.557 112.947C246.557 112.437 246.38 112.005 246.026 111.65C245.671 111.293 245.109 111.114 244.339 111.114H241.692V114.96ZM252.707 121.657C252.156 121.657 251.656 121.553 251.207 121.346C250.758 121.135 250.402 120.831 250.138 120.435C249.874 120.036 249.743 119.553 249.743 118.987C249.743 118.49 249.841 118.086 250.037 117.777C250.233 117.463 250.495 117.218 250.823 117.041C251.151 116.864 251.513 116.733 251.909 116.645C252.308 116.555 252.711 116.484 253.114 116.431C253.641 116.362 254.07 116.312 254.398 116.278C254.73 116.24 254.971 116.178 255.122 116.092C255.276 116.005 255.354 115.854 255.354 115.639V115.594C255.354 115.035 255.201 114.601 254.896 114.293C254.594 113.983 254.135 113.829 253.521 113.829C252.884 113.829 252.384 113.968 252.022 114.247C251.66 114.527 251.406 114.824 251.258 115.141L249.992 114.689C250.218 114.16 250.519 113.749 250.897 113.455C251.277 113.158 251.692 112.95 252.141 112.833C252.593 112.713 253.038 112.652 253.476 112.652C253.755 112.652 254.075 112.686 254.438 112.754C254.803 112.818 255.156 112.952 255.495 113.156C255.839 113.359 256.123 113.666 256.349 114.078C256.575 114.489 256.689 115.039 256.689 115.729V121.453H255.354V120.277H255.286C255.195 120.466 255.044 120.667 254.833 120.882C254.622 121.097 254.341 121.28 253.991 121.43C253.639 121.582 253.211 121.657 252.707 121.657ZM252.91 120.458C253.438 120.458 253.883 120.354 254.245 120.147C254.611 119.939 254.886 119.671 255.071 119.344C255.259 119.015 255.354 118.671 255.354 118.309V117.087C255.297 117.155 255.173 117.216 254.98 117.273C254.792 117.326 254.573 117.374 254.324 117.415C254.079 117.452 253.84 117.486 253.606 117.516C253.376 117.543 253.189 117.566 253.046 117.585C252.699 117.63 252.375 117.703 252.073 117.805C251.775 117.903 251.534 118.052 251.349 118.252C251.168 118.448 251.078 118.716 251.078 119.055C251.078 119.519 251.249 119.87 251.593 120.107C251.939 120.341 252.378 120.458 252.91 120.458ZM260.141 109.87V121.453H258.806V109.87H260.141ZM264.824 121.657C264.274 121.657 263.774 121.553 263.326 121.346C262.877 121.135 262.52 120.831 262.257 120.435C261.993 120.036 261.86 119.553 261.86 118.987C261.86 118.49 261.959 118.086 262.155 117.777C262.351 117.463 262.613 117.218 262.941 117.041C263.269 116.864 263.631 116.733 264.027 116.645C264.427 116.555 264.828 116.484 265.231 116.431C265.76 116.362 266.188 116.312 266.515 116.278C266.848 116.24 267.089 116.178 267.24 116.092C267.395 116.005 267.471 115.854 267.471 115.639V115.594C267.471 115.035 267.319 114.601 267.013 114.293C266.712 113.983 266.254 113.829 265.639 113.829C265.001 113.829 264.503 113.968 264.14 114.247C263.778 114.527 263.524 114.824 263.377 115.141L262.109 114.689C262.335 114.16 262.637 113.749 263.014 113.455C263.396 113.158 263.81 112.95 264.259 112.833C264.712 112.713 265.157 112.652 265.594 112.652C265.872 112.652 266.193 112.686 266.555 112.754C266.921 112.818 267.274 112.952 267.614 113.156C267.956 113.359 268.241 113.666 268.467 114.078C268.694 114.489 268.806 115.039 268.806 115.729V121.453H267.471V120.277H267.403C267.313 120.466 267.163 120.667 266.952 120.882C266.74 121.097 266.459 121.28 266.108 121.43C265.758 121.582 265.33 121.657 264.824 121.657ZM265.028 120.458C265.556 120.458 266.001 120.354 266.363 120.147C266.729 119.939 267.004 119.671 267.188 119.344C267.378 119.015 267.471 118.671 267.471 118.309V117.087C267.415 117.155 267.291 117.216 267.098 117.273C266.91 117.326 266.691 117.374 266.442 117.415C266.197 117.452 265.958 117.486 265.724 117.516C265.494 117.543 265.307 117.566 265.164 117.585C264.817 117.63 264.493 117.703 264.191 117.805C263.893 117.903 263.651 118.052 263.467 118.252C263.286 118.448 263.195 118.716 263.195 119.055C263.195 119.519 263.367 119.87 263.71 120.107C264.058 120.341 264.497 120.458 265.028 120.458ZM272.26 116.227V121.453H270.925V112.765H272.214V114.122H272.327C272.53 113.681 272.84 113.327 273.255 113.059C273.669 112.787 274.205 112.652 274.861 112.652C275.449 112.652 275.964 112.772 276.406 113.014C276.847 113.251 277.189 113.614 277.435 114.1C277.68 114.582 277.803 115.194 277.803 115.933V121.453H276.468V116.023C276.468 115.341 276.291 114.809 275.936 114.428C275.582 114.044 275.095 113.852 274.477 113.852C274.051 113.852 273.669 113.943 273.334 114.128C273.002 114.314 272.74 114.582 272.548 114.938C272.355 115.292 272.26 115.721 272.26 116.227ZM283.453 121.635C282.638 121.635 281.937 121.442 281.349 121.057C280.76 120.673 280.308 120.143 279.991 119.468C279.674 118.793 279.516 118.022 279.516 117.155C279.516 116.272 279.678 115.493 280.003 114.818C280.33 114.139 280.787 113.61 281.372 113.229C281.96 112.844 282.646 112.652 283.43 112.652C284.042 112.652 284.592 112.765 285.082 112.991C285.572 113.217 285.974 113.534 286.287 113.942C286.6 114.349 286.794 114.824 286.869 115.367H285.535C285.432 114.972 285.206 114.62 284.856 114.316C284.509 114.006 284.042 113.852 283.453 113.852C282.933 113.852 282.477 113.987 282.084 114.259C281.696 114.527 281.393 114.905 281.174 115.396C280.958 115.881 280.851 116.453 280.851 117.109C280.851 117.781 280.957 118.365 281.168 118.863C281.383 119.361 281.684 119.747 282.072 120.022C282.465 120.298 282.925 120.435 283.453 120.435C283.8 120.435 284.114 120.375 284.398 120.254C284.681 120.133 284.92 119.96 285.116 119.734C285.312 119.507 285.451 119.236 285.535 118.92H286.869C286.794 119.432 286.607 119.894 286.309 120.306C286.016 120.713 285.624 121.036 285.139 121.278C284.656 121.515 284.094 121.635 283.453 121.635ZM292.145 121.635C291.308 121.635 290.586 121.449 289.979 121.08C289.376 120.707 288.91 120.186 288.581 119.519C288.258 118.848 288.095 118.067 288.095 117.178C288.095 116.288 288.258 115.503 288.581 114.824C288.91 114.141 289.366 113.61 289.95 113.229C290.538 112.844 291.225 112.652 292.009 112.652C292.462 112.652 292.909 112.728 293.35 112.878C293.791 113.029 294.193 113.274 294.554 113.614C294.917 113.949 295.205 114.394 295.42 114.949C295.634 115.503 295.742 116.185 295.742 116.996V117.562H289.045V116.408H294.385C294.385 115.917 294.287 115.48 294.09 115.096C293.898 114.711 293.623 114.407 293.265 114.185C292.911 113.962 292.492 113.852 292.009 113.852C291.477 113.852 291.017 113.983 290.629 114.247C290.245 114.508 289.948 114.847 289.741 115.265C289.534 115.684 289.43 116.132 289.43 116.611V117.381C289.43 118.037 289.543 118.593 289.769 119.049C290 119.502 290.318 119.847 290.726 120.085C291.133 120.318 291.606 120.435 292.145 120.435C292.496 120.435 292.812 120.386 293.095 120.289C293.382 120.186 293.628 120.036 293.837 119.836C294.044 119.632 294.204 119.38 294.317 119.078L295.607 119.439C295.471 119.877 295.243 120.262 294.923 120.593C294.602 120.922 294.206 121.178 293.734 121.363C293.263 121.544 292.733 121.635 292.145 121.635Z" fill="url(#paint6_linear_1_1591)"/>
<path opacity="0.9" d="M213.989 161.907V145.618H215.033V161.907H213.989ZM216.999 150.829C216.94 150.274 216.69 149.841 216.249 149.531C215.812 149.221 215.243 149.066 214.543 149.066C214.051 149.066 213.628 149.141 213.277 149.289C212.925 149.437 212.655 149.639 212.469 149.893C212.282 150.148 212.186 150.439 212.182 150.766C212.182 151.037 212.244 151.272 212.366 151.471C212.494 151.671 212.666 151.841 212.882 151.981C213.099 152.116 213.338 152.231 213.601 152.324C213.864 152.418 214.129 152.497 214.397 152.559L215.619 152.865C216.11 152.98 216.583 153.135 217.037 153.33C217.495 153.525 217.905 153.771 218.266 154.068C218.63 154.365 218.919 154.724 219.131 155.144C219.343 155.563 219.449 156.056 219.449 156.62C219.449 157.384 219.254 158.056 218.864 158.637C218.474 159.213 217.909 159.665 217.171 159.992C216.437 160.315 215.548 160.476 214.505 160.476C213.491 160.476 212.61 160.319 211.863 160.005C211.122 159.691 210.54 159.233 210.12 158.63C209.704 158.028 209.48 157.294 209.445 156.429H211.769C211.803 156.883 211.942 157.26 212.188 157.562C212.435 157.863 212.754 158.088 213.15 158.236C213.548 158.384 213.994 158.459 214.486 158.459C214.999 158.459 215.448 158.382 215.835 158.23C216.225 158.073 216.53 157.857 216.751 157.581C216.971 157.301 217.084 156.974 217.088 156.6C217.084 156.261 216.984 155.981 216.789 155.761C216.594 155.536 216.32 155.349 215.968 155.201C215.621 155.048 215.213 154.912 214.746 154.793L213.264 154.412C212.191 154.136 211.342 153.718 210.719 153.158C210.099 152.594 209.79 151.845 209.79 150.912C209.79 150.144 209.997 149.471 210.413 148.895C210.833 148.318 211.404 147.871 212.125 147.552C212.846 147.229 213.662 147.068 214.574 147.068C215.499 147.068 216.309 147.229 217.005 147.552C217.705 147.871 218.255 148.314 218.654 148.882C219.052 149.446 219.258 150.096 219.271 150.829H216.999ZM220.833 157.861V155.983L226.362 147.246H227.928V149.919H226.973L223.251 155.818V155.919H230.969V157.861H220.833ZM227.05 160.279V157.288L227.075 156.448V147.246H229.302V160.279H227.05ZM237.169 147.068C237.793 147.072 238.399 147.183 238.988 147.399C239.583 147.612 240.117 147.959 240.592 148.443C241.067 148.922 241.445 149.565 241.725 150.371C242.005 151.177 242.145 152.174 242.145 153.362C242.149 154.482 242.031 155.483 241.789 156.365C241.551 157.243 241.209 157.986 240.764 158.592C240.318 159.199 239.782 159.661 239.154 159.98C238.526 160.298 237.82 160.457 237.035 160.457C236.212 160.457 235.482 160.296 234.846 159.973C234.214 159.651 233.703 159.21 233.313 158.65C232.923 158.09 232.683 157.449 232.593 156.728H234.916C235.035 157.245 235.277 157.657 235.641 157.962C236.011 158.264 236.475 158.414 237.035 158.414C237.939 158.414 238.634 158.022 239.123 157.237C239.611 156.452 239.854 155.362 239.854 153.966H239.765C239.557 154.339 239.288 154.662 238.956 154.934C238.626 155.201 238.251 155.407 237.831 155.551C237.414 155.695 236.973 155.767 236.507 155.767C235.743 155.767 235.056 155.585 234.445 155.219C233.839 154.855 233.357 154.354 233 153.718C232.649 153.082 232.471 152.354 232.466 151.535C232.466 150.687 232.661 149.925 233.051 149.251C233.446 148.572 233.996 148.038 234.7 147.648C235.403 147.252 236.227 147.06 237.169 147.068ZM237.176 148.978C236.717 148.978 236.303 149.09 235.934 149.315C235.57 149.535 235.281 149.837 235.069 150.218C234.861 150.595 234.757 151.017 234.757 151.484C234.761 151.947 234.865 152.367 235.069 152.745C235.277 153.122 235.559 153.422 235.915 153.642C236.276 153.863 236.687 153.972 237.15 153.972C237.493 153.972 237.814 153.906 238.11 153.775C238.407 153.644 238.666 153.461 238.887 153.228C239.112 152.99 239.286 152.721 239.408 152.42C239.536 152.118 239.598 151.801 239.594 151.465C239.594 151.02 239.487 150.608 239.275 150.231C239.067 149.854 238.78 149.55 238.416 149.321C238.056 149.092 237.641 148.978 237.176 148.978ZM246.128 158.497L246.046 159.197C245.986 159.731 245.879 160.275 245.727 160.826C245.579 161.382 245.421 161.892 245.256 162.359C245.091 162.826 244.957 163.194 244.855 163.46H243.303C243.362 163.202 243.442 162.849 243.545 162.404C243.65 161.959 243.752 161.458 243.849 160.902C243.947 160.346 244.013 159.782 244.047 159.21L244.091 158.497H246.128ZM252.656 147.068C253.28 147.072 253.886 147.183 254.477 147.399C255.07 147.612 255.605 147.959 256.079 148.443C256.555 148.922 256.933 149.565 257.212 150.371C257.492 151.177 257.632 152.174 257.632 153.362C257.636 154.482 257.518 155.483 257.276 156.365C257.038 157.243 256.697 157.986 256.252 158.592C255.807 159.199 255.269 159.661 254.642 159.98C254.014 160.298 253.308 160.457 252.522 160.457C251.7 160.457 250.97 160.296 250.333 159.973C249.701 159.651 249.19 159.21 248.8 158.65C248.41 158.09 248.17 157.449 248.081 156.728H250.404C250.522 157.245 250.764 157.657 251.129 157.962C251.498 158.264 251.963 158.414 252.522 158.414C253.426 158.414 254.122 158.022 254.61 157.237C255.098 156.452 255.342 155.362 255.342 153.966H255.252C255.045 154.339 254.775 154.662 254.445 154.934C254.113 155.201 253.738 155.407 253.318 155.551C252.903 155.695 252.461 155.767 251.995 155.767C251.231 155.767 250.543 155.585 249.933 155.219C249.326 154.855 248.845 154.354 248.489 153.718C248.136 153.082 247.958 152.354 247.954 151.535C247.954 150.687 248.149 149.925 248.539 149.251C248.934 148.572 249.483 148.038 250.187 147.648C250.892 147.252 251.714 147.06 252.656 147.068ZM252.663 148.978C252.205 148.978 251.791 149.09 251.421 149.315C251.057 149.535 250.768 149.837 250.556 150.218C250.348 150.595 250.245 151.017 250.245 151.484C250.249 151.947 250.353 152.367 250.556 152.745C250.764 153.122 251.046 153.422 251.402 153.642C251.763 153.863 252.175 153.972 252.637 153.972C252.98 153.972 253.301 153.906 253.599 153.775C253.895 153.644 254.154 153.461 254.374 153.228C254.599 152.99 254.773 152.721 254.896 152.42C255.023 152.118 255.085 151.801 255.081 151.465C255.081 151.02 254.974 150.608 254.762 150.231C254.554 149.854 254.269 149.55 253.903 149.321C253.543 149.092 253.13 148.978 252.663 148.978ZM263.917 147.068C264.541 147.072 265.148 147.183 265.737 147.399C266.331 147.612 266.866 147.959 267.341 148.443C267.817 148.922 268.194 149.565 268.474 150.371C268.753 151.177 268.894 152.174 268.894 153.362C268.898 154.482 268.779 155.483 268.537 156.365C268.299 157.243 267.958 157.986 267.513 158.592C267.067 159.199 266.53 159.661 265.903 159.98C265.275 160.298 264.568 160.457 263.784 160.457C262.96 160.457 262.231 160.296 261.595 159.973C260.962 159.651 260.452 159.21 260.062 158.65C259.671 158.09 259.431 157.449 259.342 156.728H261.665C261.784 157.245 262.026 157.657 262.39 157.962C262.759 158.264 263.224 158.414 263.784 158.414C264.688 158.414 265.384 158.022 265.871 157.237C266.359 156.452 266.603 155.362 266.603 153.966H266.513C266.306 154.339 266.037 154.662 265.706 154.934C265.375 155.201 264.999 155.407 264.579 155.551C264.164 155.695 263.722 155.767 263.256 155.767C262.493 155.767 261.805 155.585 261.194 155.219C260.587 154.855 260.106 154.354 259.75 153.718C259.398 153.082 259.219 152.354 259.215 151.535C259.215 150.687 259.41 149.925 259.801 149.251C260.195 148.572 260.744 148.038 261.448 147.648C262.153 147.252 262.975 147.06 263.917 147.068ZM263.924 148.978C263.466 148.978 263.052 149.09 262.683 149.315C262.318 149.535 262.03 149.837 261.818 150.218C261.61 150.595 261.506 151.017 261.506 151.484C261.51 151.947 261.614 152.367 261.818 152.745C262.026 153.122 262.307 153.422 262.664 153.642C263.024 153.863 263.436 153.972 263.898 153.972C264.242 153.972 264.562 153.906 264.859 153.775C265.157 153.644 265.415 153.461 265.635 153.228C265.86 152.99 266.035 152.721 266.157 152.42C266.285 152.118 266.346 151.801 266.342 151.465C266.342 151.02 266.236 150.608 266.024 150.231C265.816 149.854 265.53 149.55 265.165 149.321C264.804 149.092 264.391 148.978 263.924 148.978ZM275.178 147.068C275.803 147.072 276.409 147.183 276.998 147.399C277.593 147.612 278.127 147.959 278.602 148.443C279.077 148.922 279.455 149.565 279.735 150.371C280.015 151.177 280.155 152.174 280.155 153.362C280.159 154.482 280.041 155.483 279.799 156.365C279.561 157.243 279.219 157.986 278.774 158.592C278.328 159.199 277.792 159.661 277.165 159.98C276.536 160.298 275.83 160.457 275.045 160.457C274.222 160.457 273.492 160.296 272.856 159.973C272.224 159.651 271.713 159.21 271.323 158.65C270.933 158.09 270.693 157.449 270.603 156.728H272.926C273.045 157.245 273.287 157.657 273.651 157.962C274.021 158.264 274.486 158.414 275.045 158.414C275.949 158.414 276.645 158.022 277.133 157.237C277.62 156.452 277.864 155.362 277.864 153.966H277.775C277.567 154.339 277.298 154.662 276.966 154.934C276.636 155.201 276.261 155.407 275.84 155.551C275.424 155.695 274.983 155.767 274.516 155.767C273.753 155.767 273.066 155.585 272.455 155.219C271.848 154.855 271.367 154.354 271.01 153.718C270.659 153.082 270.481 152.354 270.477 151.535C270.477 150.687 270.672 149.925 271.062 149.251C271.456 148.572 272.006 148.038 272.71 147.648C273.414 147.252 274.237 147.06 275.178 147.068ZM275.185 148.978C274.727 148.978 274.313 149.09 273.944 149.315C273.58 149.535 273.291 149.837 273.079 150.218C272.871 150.595 272.767 151.017 272.767 151.484C272.771 151.947 272.875 152.367 273.079 152.745C273.287 153.122 273.569 153.422 273.925 153.642C274.285 153.863 274.698 153.972 275.16 153.972C275.503 153.972 275.824 153.906 276.12 153.775C276.418 153.644 276.676 153.461 276.897 153.228C277.122 152.99 277.296 152.721 277.418 152.42C277.546 152.118 277.608 151.801 277.604 151.465C277.604 151.02 277.497 150.608 277.285 150.231C277.077 149.854 276.791 149.55 276.426 149.321C276.066 149.092 275.651 148.978 275.185 148.978ZM282.853 160.419C282.467 160.419 282.135 160.283 281.859 160.012C281.584 159.74 281.448 159.409 281.452 159.018C281.448 158.637 281.584 158.311 281.859 158.039C282.135 157.767 282.467 157.632 282.853 157.632C283.226 157.632 283.551 157.767 283.827 158.039C284.106 158.311 284.249 158.637 284.253 159.018C284.249 159.277 284.18 159.513 284.049 159.725C283.921 159.937 283.752 160.106 283.54 160.234C283.332 160.357 283.103 160.419 282.853 160.419ZM290.556 160.527C289.509 160.527 288.609 160.262 287.858 159.731C287.112 159.197 286.537 158.427 286.134 157.422C285.735 156.412 285.536 155.197 285.536 153.775C285.54 152.354 285.742 151.145 286.14 150.148C286.543 149.147 287.118 148.383 287.864 147.858C288.616 147.331 289.513 147.068 290.556 147.068C291.601 147.068 292.498 147.331 293.248 147.858C293.999 148.383 294.574 149.147 294.972 150.148C295.376 151.15 295.578 152.358 295.578 153.775C295.578 155.201 295.376 156.418 294.972 157.428C294.574 158.433 293.999 159.202 293.248 159.731C292.502 160.262 291.605 160.527 290.556 160.527ZM290.556 158.536C291.372 158.536 292.014 158.134 292.485 157.332C292.959 156.527 293.197 155.341 293.197 153.775C293.197 152.741 293.089 151.871 292.873 151.167C292.657 150.462 292.351 149.932 291.957 149.576C291.562 149.214 291.096 149.034 290.556 149.034C289.746 149.034 289.106 149.437 288.635 150.244C288.164 151.045 287.926 152.223 287.922 153.775C287.918 154.814 288.022 155.688 288.234 156.397C288.451 157.105 288.755 157.64 289.151 158.001C289.545 158.357 290.014 158.536 290.556 158.536ZM302.15 160.527C301.103 160.527 300.203 160.262 299.452 159.731C298.706 159.197 298.131 158.427 297.728 157.422C297.329 156.412 297.13 155.197 297.13 153.775C297.134 152.354 297.336 151.145 297.734 150.148C298.137 149.147 298.712 148.383 299.458 147.858C300.21 147.331 301.107 147.068 302.15 147.068C303.193 147.068 304.091 147.331 304.842 147.858C305.593 148.383 306.168 149.147 306.566 150.148C306.969 151.15 307.171 152.358 307.171 153.775C307.171 155.201 306.969 156.418 306.566 157.428C306.168 158.433 305.593 159.202 304.842 159.731C304.095 160.262 303.198 160.527 302.15 160.527ZM302.15 158.536C302.964 158.536 303.608 158.134 304.078 157.332C304.553 156.527 304.791 155.341 304.791 153.775C304.791 152.741 304.683 151.871 304.467 151.167C304.251 150.462 303.945 149.932 303.55 149.576C303.156 149.214 302.689 149.034 302.15 149.034C301.34 149.034 300.7 149.437 300.229 150.244C299.758 151.045 299.52 152.223 299.516 153.775C299.512 154.814 299.616 155.688 299.828 156.397C300.044 157.105 300.349 157.64 300.744 158.001C301.139 158.357 301.608 158.536 302.15 158.536Z" fill="url(#paint7_linear_1_1591)"/>
<path d="M316.706 151.184L313.905 161.585H312.989L315.789 151.184H316.706ZM320.91 160.279V151.591H323.947C324.552 151.591 325.052 151.695 325.445 151.904C325.837 152.11 326.13 152.389 326.323 152.741C326.515 153.088 326.611 153.474 326.611 153.898C326.611 154.272 326.545 154.58 326.412 154.823C326.281 155.066 326.109 155.258 325.894 155.4C325.682 155.541 325.452 155.647 325.203 155.714V155.799C325.469 155.816 325.736 155.909 326.005 156.079C326.273 156.249 326.498 156.492 326.68 156.808C326.86 157.125 326.95 157.513 326.95 157.971C326.95 158.406 326.852 158.798 326.654 159.146C326.456 159.494 326.143 159.77 325.716 159.973C325.289 160.177 324.733 160.279 324.049 160.279H320.91ZM321.962 159.345H324.049C324.736 159.345 325.224 159.212 325.513 158.947C325.804 158.678 325.95 158.352 325.95 157.971C325.95 157.676 325.874 157.406 325.725 157.157C325.575 156.905 325.362 156.704 325.084 156.554C324.807 156.401 324.479 156.324 324.1 156.324H321.962V159.345ZM321.962 155.409H323.913C324.23 155.409 324.515 155.346 324.77 155.221C325.028 155.097 325.231 154.922 325.381 154.696C325.534 154.47 325.61 154.204 325.61 153.898C325.61 153.516 325.477 153.193 325.211 152.927C324.945 152.658 324.524 152.524 323.947 152.524H321.962V155.409ZM327.966 152.524V151.591H334.482V152.524H331.75V160.279H330.698V152.524H327.966ZM342.496 154.306H341.444C341.381 154.003 341.273 153.737 341.118 153.508C340.964 153.279 340.778 153.087 340.557 152.931C340.339 152.772 340.097 152.654 339.831 152.574C339.566 152.496 339.289 152.456 339 152.456C338.475 152.456 337.998 152.589 337.571 152.855C337.147 153.121 336.808 153.512 336.557 154.03C336.308 154.547 336.184 155.183 336.184 155.934C336.184 156.687 336.308 157.322 336.557 157.84C336.808 158.357 337.147 158.749 337.571 159.014C337.998 159.28 338.475 159.414 339 159.414C339.289 159.414 339.566 159.374 339.831 159.294C340.097 159.215 340.339 159.098 340.557 158.943C340.778 158.784 340.964 158.59 341.118 158.361C341.273 158.129 341.381 157.864 341.444 157.564H342.496C342.417 158.008 342.272 158.405 342.063 158.756C341.854 159.106 341.594 159.405 341.283 159.65C340.971 159.894 340.622 160.08 340.235 160.207C339.85 160.333 339.438 160.397 339 160.397C338.26 160.397 337.6 160.217 337.023 159.855C336.447 159.492 335.993 158.978 335.661 158.311C335.331 157.643 335.165 156.851 335.165 155.934C335.165 155.018 335.331 154.226 335.661 153.559C335.993 152.892 336.447 152.376 337.023 152.015C337.6 151.652 338.26 151.471 339 151.471C339.438 151.471 339.85 151.535 340.235 151.662C340.622 151.79 340.971 151.977 341.283 152.223C341.594 152.466 341.854 152.762 342.063 153.114C342.272 153.461 342.417 153.859 342.496 154.306Z" fill="url(#paint8_linear_1_1591)"/>
<g filter="url(#filter0_d_1_1591)">
<path d="M118.092 150.543C126.827 150.543 133.909 143.634 133.909 135.112C133.909 126.59 126.827 119.681 118.092 119.681C109.356 119.681 102.274 126.59 102.274 135.112C102.274 143.634 109.356 150.543 118.092 150.543Z" fill="#1F3924"/>
</g>
<g filter="url(#filter1_d_1_1591)">
<path d="M134.094 159.987C137.618 157.831 140.644 154.984 142.984 151.63C145.324 148.275 146.925 144.483 147.687 140.494C148.45 136.505 148.356 132.404 147.414 128.452C146.47 124.5 144.697 120.781 142.207 117.53C139.717 114.28 136.564 111.568 132.946 109.566C129.327 107.564 125.323 106.315 121.186 105.898C117.047 105.482 112.866 105.906 108.905 107.145C104.944 108.383 101.289 110.409 98.1709 113.095L104.092 119.639C106.284 117.751 108.852 116.326 111.636 115.456C114.42 114.586 117.359 114.288 120.267 114.58C123.175 114.874 125.989 115.751 128.532 117.158C131.074 118.565 133.29 120.471 135.04 122.756C136.79 125.04 138.037 127.653 138.7 130.431C139.362 133.208 139.428 136.09 138.892 138.894C138.356 141.697 137.231 144.362 135.587 146.721C133.942 149.078 131.815 151.078 129.339 152.594L134.094 159.987Z" fill="#319766"/>
</g>
<g filter="url(#filter2_d_1_1591)">
<path d="M104.471 113.931C103.158 111.89 100.369 111.251 98.4943 112.82C96.482 114.504 94.7015 116.444 93.2031 118.592C90.8635 121.948 89.2619 125.74 88.4997 129.729C87.7373 133.718 87.8307 137.818 88.7739 141.77C89.7172 145.722 91.4897 149.441 93.9798 152.692C96.4699 155.942 99.6236 158.654 103.241 160.656C106.86 162.658 110.864 163.907 115.001 164.324C119.14 164.741 123.321 164.317 127.282 163.077C129.819 162.285 132.23 161.168 134.456 159.762C136.529 158.453 136.691 155.662 135.056 153.856C133.42 152.049 130.609 151.926 128.455 153.106C127.217 153.785 125.909 154.341 124.551 154.766C121.767 155.637 118.828 155.934 115.92 155.642C113.012 155.349 110.198 154.471 107.655 153.064C105.113 151.658 102.897 149.751 101.147 147.467C99.3963 145.183 98.1505 142.569 97.4877 139.791C96.8248 137.013 96.7592 134.132 97.2949 131.329C97.8307 128.525 98.9562 125.86 100.6 123.502C101.403 122.351 102.32 121.285 103.338 120.32C105.108 118.639 105.784 115.973 104.471 113.931Z" fill="#A4D963"/>
</g>
<path d="M108.871 137.552V133.149H109.869V137.552H108.871ZM107.168 135.851V134.851H111.572V135.851H107.168ZM112.11 138.596V137.743L114.372 135.526C114.588 135.307 114.769 135.113 114.913 134.944C115.057 134.773 115.165 134.609 115.237 134.45C115.31 134.292 115.346 134.121 115.346 133.941C115.346 133.735 115.299 133.559 115.205 133.413C115.113 133.264 114.984 133.15 114.821 133.069C114.658 132.989 114.472 132.949 114.264 132.949C114.049 132.949 113.862 132.994 113.701 133.082C113.54 133.169 113.414 133.293 113.326 133.454C113.238 133.616 113.195 133.808 113.195 134.03H112.071C112.071 133.617 112.166 133.257 112.355 132.952C112.543 132.646 112.803 132.41 113.135 132.242C113.467 132.075 113.849 131.991 114.279 131.991C114.716 131.991 115.101 132.073 115.431 132.236C115.763 132.399 116.02 132.623 116.202 132.907C116.386 133.192 116.479 133.516 116.479 133.881C116.479 134.124 116.432 134.364 116.338 134.6C116.246 134.835 116.08 135.096 115.845 135.383C115.612 135.668 115.284 136.016 114.862 136.423L113.739 137.565V137.61H116.577V138.596H112.11ZM119.31 131.991C119.621 131.993 119.925 132.048 120.22 132.156C120.516 132.263 120.784 132.436 121.021 132.678C121.259 132.918 121.448 133.239 121.588 133.643C121.728 134.045 121.798 134.544 121.798 135.138C121.8 135.697 121.741 136.198 121.619 136.639C121.501 137.078 121.33 137.449 121.108 137.753C120.885 138.056 120.616 138.288 120.302 138.447C119.989 138.605 119.635 138.685 119.243 138.685C118.832 138.685 118.467 138.604 118.148 138.443C117.832 138.282 117.577 138.062 117.381 137.782C117.186 137.501 117.067 137.182 117.022 136.82H118.184C118.243 137.079 118.364 137.285 118.546 137.438C118.73 137.589 118.963 137.663 119.243 137.663C119.695 137.663 120.043 137.467 120.286 137.075C120.53 136.683 120.653 136.137 120.653 135.439H120.608C120.504 135.627 120.369 135.788 120.204 135.923C120.039 136.057 119.85 136.16 119.64 136.232C119.433 136.305 119.212 136.34 118.979 136.34C118.597 136.34 118.254 136.249 117.948 136.067C117.644 135.884 117.404 135.634 117.226 135.316C117.05 134.997 116.96 134.634 116.958 134.224C116.958 133.8 117.056 133.42 117.251 133.082C117.448 132.743 117.723 132.476 118.075 132.281C118.428 132.083 118.839 131.987 119.31 131.991ZM119.313 132.946C119.084 132.946 118.877 133.001 118.693 133.114C118.51 133.224 118.366 133.375 118.26 133.566C118.156 133.754 118.104 133.965 118.104 134.199C118.106 134.43 118.158 134.64 118.26 134.829C118.364 135.017 118.504 135.167 118.683 135.277C118.863 135.388 119.069 135.442 119.3 135.442C119.472 135.442 119.632 135.41 119.781 135.344C119.929 135.278 120.058 135.188 120.169 135.071C120.281 134.952 120.368 134.817 120.43 134.667C120.493 134.516 120.524 134.357 120.522 134.189C120.522 133.967 120.469 133.761 120.363 133.572C120.259 133.384 120.116 133.231 119.933 133.117C119.753 133.002 119.547 132.946 119.313 132.946ZM125.714 137.374V137.03C125.714 136.778 125.767 136.546 125.873 136.333C125.982 136.121 126.138 135.951 126.344 135.822C126.55 135.692 126.799 135.628 127.092 135.628C127.393 135.628 127.645 135.692 127.849 135.822C128.052 135.949 128.207 136.118 128.31 136.33C128.417 136.543 128.47 136.776 128.47 137.03V137.374C128.47 137.627 128.417 137.859 128.31 138.071C128.205 138.283 128.048 138.454 127.842 138.583C127.639 138.713 127.388 138.777 127.092 138.777C126.795 138.777 126.543 138.713 126.338 138.583C126.132 138.454 125.976 138.283 125.87 138.071C125.766 137.859 125.714 137.627 125.714 137.374ZM126.544 137.03V137.374C126.544 137.542 126.585 137.695 126.666 137.836C126.746 137.976 126.889 138.046 127.092 138.046C127.298 138.046 127.438 137.977 127.515 137.839C127.594 137.698 127.632 137.544 127.632 137.374V137.03C127.632 136.861 127.596 136.706 127.522 136.566C127.447 136.424 127.304 136.353 127.092 136.353C126.893 136.353 126.751 136.424 126.669 136.566C126.586 136.706 126.544 136.861 126.544 137.03ZM122.402 133.646V133.302C122.402 133.047 122.456 132.813 122.564 132.601C122.673 132.389 122.829 132.22 123.035 132.093C123.241 131.963 123.49 131.898 123.783 131.898C124.082 131.898 124.333 131.963 124.537 132.093C124.742 132.22 124.898 132.389 125.001 132.601C125.106 132.813 125.157 133.047 125.157 133.302V133.646C125.157 133.899 125.105 134.133 124.998 134.345C124.895 134.555 124.739 134.724 124.533 134.851C124.328 134.979 124.077 135.042 123.783 135.042C123.484 135.042 123.231 134.979 123.026 134.851C122.822 134.724 122.667 134.554 122.561 134.342C122.455 134.13 122.402 133.897 122.402 133.646ZM123.239 133.302V133.646C123.239 133.815 123.278 133.97 123.357 134.109C123.437 134.248 123.58 134.317 123.783 134.317C123.987 134.317 124.126 134.248 124.203 134.109C124.281 133.97 124.32 133.815 124.32 133.646V133.302C124.32 133.132 124.283 132.978 124.209 132.837C124.135 132.695 123.993 132.624 123.783 132.624C123.582 132.624 123.44 132.695 123.36 132.837C123.279 132.98 123.239 133.134 123.239 133.302ZM122.764 138.596L127.244 132.08H128.04L123.56 138.596H122.764Z" fill="url(#paint9_linear_1_1591)"/>
<path d="M338.169 176.705H113.89C105.367 176.705 98.459 183.613 98.459 192.135V254.853C98.459 263.375 105.367 270.284 113.89 270.284H338.169C346.691 270.284 353.6 263.375 353.6 254.853V192.135C353.6 183.613 346.691 176.705 338.169 176.705Z" fill="url(#paint10_linear_1_1591)" stroke="url(#paint11_linear_1_1591)" stroke-width="0.99552"/>
<path d="M120.687 203.086H117.559V192.95H120.826C121.809 192.95 122.651 193.153 123.35 193.559C124.05 193.961 124.585 194.54 124.959 195.296C125.331 196.048 125.518 196.949 125.518 197.998C125.518 199.054 125.33 199.963 124.954 200.726C124.577 201.484 124.03 202.069 123.31 202.477C122.591 202.883 121.717 203.086 120.687 203.086ZM118.787 201.997H120.608C121.447 201.997 122.14 201.836 122.692 201.512C123.243 201.189 123.654 200.729 123.924 200.131C124.195 199.534 124.331 198.823 124.331 197.998C124.331 197.18 124.196 196.476 123.929 195.884C123.662 195.291 123.262 194.835 122.732 194.519C122.2 194.199 121.539 194.039 120.747 194.039H118.787V201.997ZM130.328 203.244C129.595 203.244 128.963 203.083 128.431 202.759C127.904 202.433 127.496 201.977 127.209 201.394C126.925 200.806 126.784 200.123 126.784 199.344C126.784 198.565 126.925 197.879 127.209 197.285C127.496 196.688 127.896 196.223 128.407 195.889C128.922 195.553 129.522 195.385 130.208 195.385C130.604 195.385 130.996 195.45 131.381 195.583C131.767 195.715 132.119 195.929 132.435 196.226C132.753 196.52 133.005 196.909 133.193 197.395C133.381 197.879 133.474 198.477 133.474 199.186V199.681H127.615V198.671H132.287C132.287 198.242 132.201 197.86 132.03 197.523C131.862 197.187 131.621 196.921 131.307 196.727C130.997 196.532 130.63 196.434 130.208 196.434C129.743 196.434 129.341 196.549 129.001 196.78C128.664 197.008 128.405 197.305 128.224 197.671C128.042 198.038 127.951 198.43 127.951 198.849V199.522C127.951 200.096 128.051 200.583 128.248 200.982C128.45 201.379 128.729 201.68 129.085 201.888C129.442 202.092 129.856 202.195 130.328 202.195C130.634 202.195 130.911 202.152 131.159 202.067C131.41 201.977 131.626 201.846 131.807 201.67C131.988 201.492 132.129 201.271 132.228 201.007L133.356 201.324C133.238 201.707 133.037 202.044 132.758 202.333C132.477 202.621 132.131 202.845 131.718 203.006C131.305 203.166 130.842 203.244 130.328 203.244ZM138.279 195.484V196.474H134.34V195.484H138.279ZM135.487 193.662H136.656V200.908C136.656 201.238 136.704 201.486 136.799 201.65C136.898 201.813 137.023 201.921 137.176 201.977C137.33 202.03 137.493 202.057 137.666 202.057C137.794 202.057 137.9 202.05 137.982 202.037C138.065 202.02 138.131 202.007 138.18 201.997L138.417 203.046C138.339 203.076 138.228 203.106 138.086 203.136C137.944 203.169 137.764 203.185 137.546 203.185C137.217 203.185 136.893 203.114 136.576 202.973C136.263 202.83 136.002 202.614 135.795 202.323C135.59 202.034 135.487 201.667 135.487 201.225V193.662ZM141.994 203.264C141.512 203.264 141.075 203.174 140.683 202.992C140.29 202.807 139.978 202.541 139.747 202.195C139.516 201.846 139.401 201.423 139.401 200.928C139.401 200.493 139.486 200.139 139.659 199.868C139.83 199.595 140.059 199.381 140.347 199.225C140.633 199.07 140.95 198.955 141.296 198.879C141.647 198.8 141.998 198.738 142.351 198.691C142.812 198.632 143.188 198.587 143.474 198.557C143.765 198.525 143.976 198.47 144.108 198.394C144.243 198.318 144.311 198.186 144.311 197.998V197.958C144.311 197.47 144.177 197.091 143.91 196.82C143.646 196.549 143.245 196.414 142.707 196.414C142.149 196.414 141.712 196.536 141.396 196.78C141.079 197.024 140.856 197.285 140.728 197.563L139.619 197.167C139.817 196.705 140.081 196.345 140.41 196.088C140.744 195.827 141.107 195.646 141.499 195.543C141.896 195.437 142.285 195.385 142.668 195.385C142.912 195.385 143.192 195.415 143.509 195.474C143.829 195.53 144.137 195.647 144.434 195.826C144.735 196.004 144.984 196.273 145.182 196.632C145.38 196.991 145.478 197.473 145.478 198.078V203.086H144.311V202.057H144.251C144.172 202.222 144.04 202.398 143.856 202.586C143.671 202.774 143.425 202.935 143.118 203.066C142.811 203.199 142.436 203.264 141.994 203.264ZM142.172 202.215C142.634 202.215 143.023 202.124 143.341 201.943C143.661 201.761 143.902 201.527 144.063 201.24C144.228 200.953 144.311 200.651 144.311 200.334V199.265C144.261 199.325 144.152 199.379 143.984 199.428C143.819 199.474 143.628 199.516 143.41 199.552C143.196 199.585 142.986 199.615 142.782 199.642C142.58 199.664 142.417 199.684 142.292 199.7C141.988 199.74 141.704 199.805 141.441 199.893C141.18 199.979 140.969 200.109 140.806 200.285C140.648 200.456 140.57 200.691 140.57 200.987C140.57 201.394 140.719 201.7 141.02 201.908C141.323 202.112 141.707 202.215 142.172 202.215ZM147.332 203.086V195.484H148.5V203.086H147.332ZM147.925 194.217C147.698 194.217 147.502 194.139 147.337 193.984C147.175 193.829 147.094 193.643 147.094 193.424C147.094 193.207 147.175 193.02 147.337 192.866C147.502 192.711 147.698 192.633 147.925 192.633C148.153 192.633 148.349 192.711 148.51 192.866C148.675 193.02 148.758 193.207 148.758 193.424C148.758 193.643 148.675 193.829 148.51 193.984C148.349 194.139 148.153 194.217 147.925 194.217ZM151.528 192.95V203.086H150.36V192.95H151.528ZM158.775 197.187L157.725 197.483C157.659 197.308 157.561 197.139 157.433 196.974C157.307 196.805 157.136 196.667 156.918 196.557C156.7 196.449 156.421 196.394 156.082 196.394C155.617 196.394 155.229 196.502 154.919 196.717C154.611 196.928 154.458 197.197 154.458 197.523C154.458 197.814 154.564 198.043 154.775 198.211C154.987 198.379 155.316 198.52 155.765 198.632L156.893 198.909C157.573 199.074 158.08 199.326 158.413 199.666C158.746 200.003 158.913 200.437 158.913 200.968C158.913 201.404 158.788 201.793 158.537 202.135C158.289 202.479 157.942 202.75 157.497 202.948C157.051 203.146 156.534 203.244 155.943 203.244C155.168 203.244 154.526 203.076 154.018 202.74C153.509 202.403 153.188 201.911 153.052 201.264L154.161 200.987C154.267 201.397 154.467 201.703 154.761 201.908C155.057 202.112 155.445 202.215 155.923 202.215C156.468 202.215 156.9 202.099 157.22 201.868C157.543 201.635 157.705 201.354 157.705 201.027C157.705 200.763 157.613 200.542 157.428 200.364C157.243 200.182 156.96 200.047 156.576 199.958L155.309 199.661C154.613 199.496 154.102 199.24 153.775 198.894C153.452 198.544 153.29 198.107 153.29 197.583C153.29 197.154 153.411 196.774 153.652 196.444C153.896 196.114 154.227 195.856 154.646 195.667C155.068 195.479 155.547 195.385 156.082 195.385C156.834 195.385 157.425 195.55 157.854 195.879C158.286 196.21 158.592 196.645 158.775 197.187Z" fill="url(#paint12_linear_1_1591)"/>
<path d="M280.413 219.783C283.838 218.887 287.429 218.772 290.906 219.447C294.383 220.122 297.656 221.569 300.469 223.674C303.282 225.781 305.561 228.49 307.129 231.592C308.698 234.695 309.513 238.107 309.513 241.567H286.396L280.413 219.783Z" fill="#A4D963"/>
<path d="M332.67 222.996C332.67 228.756 331.017 234.402 327.899 239.293C324.781 244.185 320.322 248.127 315.027 250.675C309.731 253.222 303.811 254.274 297.934 253.709C292.058 253.145 286.462 250.986 281.778 247.48C277.093 243.974 273.508 239.258 271.428 233.867C269.349 228.477 268.857 222.625 270.009 216.975C271.161 211.326 273.91 206.104 277.946 201.9C281.983 197.696 287.145 194.678 292.848 193.187L301.035 222.996H332.67Z" fill="#319766" fill-opacity="0.25"/>
<path d="M303.57 192.904C306.995 192.008 310.585 191.893 314.064 192.568C317.541 193.243 320.813 194.69 323.627 196.795C326.44 198.902 328.719 201.611 330.287 204.713C331.856 207.816 332.671 211.228 332.671 214.688H309.553L303.57 192.904Z" fill="#A4D963"/>
<path d="M129.224 222.001V221.053L131.738 218.589C131.979 218.346 132.179 218.131 132.339 217.942C132.5 217.754 132.62 217.571 132.7 217.395C132.78 217.217 132.82 217.029 132.82 216.829C132.82 216.6 132.768 216.405 132.665 216.242C132.561 216.077 132.418 215.95 132.237 215.86C132.056 215.771 131.85 215.726 131.619 215.726C131.38 215.726 131.172 215.775 130.992 215.874C130.813 215.971 130.674 216.108 130.575 216.288C130.479 216.467 130.43 216.681 130.43 216.928H129.183C129.183 216.468 129.287 216.069 129.497 215.729C129.707 215.39 129.996 215.127 130.363 214.941C130.734 214.754 131.158 214.662 131.636 214.662C132.121 214.662 132.548 214.752 132.916 214.934C133.283 215.116 133.569 215.364 133.771 215.68C133.976 215.996 134.079 216.356 134.079 216.761C134.079 217.032 134.027 217.299 133.923 217.561C133.82 217.823 133.637 218.112 133.375 218.43C133.116 218.748 132.752 219.134 132.283 219.587L131.035 220.855V220.905H134.188V222.001H129.224ZM137.783 222.099C137.257 222.099 136.79 222.012 136.382 221.835C135.977 221.658 135.659 221.416 135.428 221.11C135.2 220.801 135.086 220.451 135.089 220.06C135.086 219.756 135.153 219.476 135.287 219.222C135.421 218.967 135.603 218.755 135.831 218.586C136.062 218.414 136.318 218.304 136.602 218.257V218.208C136.229 218.125 135.927 217.935 135.696 217.638C135.468 217.339 135.355 216.993 135.358 216.602C135.355 216.23 135.458 215.898 135.668 215.606C135.878 215.313 136.166 215.084 136.532 214.917C136.896 214.746 137.314 214.662 137.783 214.662C138.247 214.662 138.66 214.746 139.023 214.917C139.389 215.084 139.676 215.313 139.886 215.606C140.098 215.898 140.204 216.23 140.204 216.602C140.204 216.993 140.088 217.339 139.855 217.638C139.624 217.935 139.325 218.125 138.96 218.208V218.257C139.242 218.304 139.497 218.414 139.723 218.586C139.952 218.755 140.133 218.967 140.268 219.222C140.404 219.476 140.473 219.756 140.473 220.06C140.473 220.451 140.357 220.801 140.126 221.11C139.895 221.416 139.577 221.658 139.172 221.835C138.768 222.012 138.306 222.099 137.783 222.099ZM137.783 221.089C138.054 221.089 138.29 221.043 138.49 220.951C138.69 220.857 138.845 220.725 138.957 220.555C139.067 220.385 139.124 220.19 139.126 219.968C139.124 219.737 139.063 219.533 138.946 219.357C138.83 219.178 138.671 219.037 138.469 218.936C138.268 218.834 138.04 218.783 137.783 218.783C137.523 218.783 137.292 218.834 137.09 218.936C136.887 219.037 136.727 219.178 136.609 219.357C136.494 219.533 136.437 219.737 136.439 219.968C136.437 220.19 136.491 220.385 136.602 220.555C136.713 220.723 136.868 220.853 137.068 220.948C137.271 221.041 137.509 221.089 137.783 221.089ZM137.783 217.791C138.004 217.791 138.2 217.746 138.369 217.656C138.541 217.567 138.677 217.441 138.775 217.281C138.875 217.121 138.926 216.936 138.928 216.727C138.926 216.519 138.876 216.337 138.779 216.182C138.683 216.024 138.548 215.902 138.376 215.818C138.204 215.73 138.007 215.687 137.783 215.687C137.554 215.687 137.353 215.73 137.178 215.818C137.006 215.902 136.872 216.024 136.775 216.182C136.681 216.337 136.635 216.519 136.637 216.727C136.635 216.936 136.682 217.121 136.778 217.281C136.878 217.439 137.013 217.564 137.185 217.656C137.36 217.746 137.559 217.791 137.783 217.791ZM145.307 220.643V220.262C145.307 219.981 145.366 219.723 145.484 219.487C145.604 219.251 145.778 219.062 146.007 218.918C146.236 218.774 146.513 218.703 146.838 218.703C147.173 218.703 147.453 218.774 147.679 218.918C147.905 219.059 148.077 219.248 148.192 219.484C148.31 219.719 148.368 219.979 148.368 220.262V220.643C148.368 220.924 148.31 221.182 148.192 221.417C148.074 221.653 147.9 221.843 147.672 221.987C147.445 222.13 147.168 222.202 146.838 222.202C146.508 222.202 146.229 222.13 146 221.987C145.771 221.843 145.598 221.653 145.48 221.417C145.365 221.182 145.307 220.924 145.307 220.643ZM146.23 220.262V220.643C146.23 220.829 146.275 221 146.364 221.156C146.454 221.312 146.611 221.39 146.838 221.39C147.066 221.39 147.223 221.313 147.308 221.16C147.396 221.004 147.438 220.832 147.438 220.643V220.262C147.438 220.073 147.398 219.901 147.315 219.745C147.232 219.588 147.073 219.508 146.838 219.508C146.616 219.508 146.46 219.588 146.367 219.745C146.276 219.901 146.23 220.073 146.23 220.262ZM141.627 216.5V216.118C141.627 215.836 141.687 215.576 141.807 215.341C141.927 215.105 142.101 214.917 142.33 214.774C142.559 214.631 142.836 214.559 143.161 214.559C143.493 214.559 143.773 214.631 143.999 214.774C144.228 214.917 144.4 215.105 144.516 215.341C144.631 215.576 144.689 215.836 144.689 216.118V216.5C144.689 216.783 144.629 217.042 144.512 217.278C144.396 217.511 144.224 217.698 143.996 217.84C143.767 217.981 143.489 218.052 143.161 218.052C142.829 218.052 142.548 217.981 142.319 217.84C142.094 217.698 141.921 217.51 141.804 217.274C141.685 217.038 141.627 216.78 141.627 216.5ZM142.556 216.118V216.5C142.556 216.689 142.6 216.861 142.688 217.016C142.777 217.17 142.935 217.246 143.161 217.246C143.388 217.246 143.543 217.17 143.628 217.016C143.715 216.861 143.759 216.689 143.759 216.5V216.118C143.759 215.93 143.717 215.758 143.635 215.602C143.552 215.444 143.395 215.366 143.161 215.366C142.938 215.366 142.78 215.444 142.691 215.602C142.601 215.76 142.556 215.932 142.556 216.118ZM142.03 222.001L147.007 214.76H147.891L142.914 222.001H142.03Z" fill="url(#paint13_linear_1_1591)"/>
<path d="M156.756 227.974H120.815C118.341 227.974 116.335 229.98 116.335 232.454C116.335 234.928 118.341 236.934 120.815 236.934H156.756C159.23 236.934 161.236 234.928 161.236 232.454C161.236 229.98 159.23 227.974 156.756 227.974Z" fill="#A4D963"/>
<path d="M182.901 239.023C182.554 239.021 182.216 238.962 181.886 238.843C181.556 238.724 181.259 238.528 180.995 238.26C180.732 237.989 180.522 237.629 180.366 237.182C180.21 236.732 180.133 236.174 180.136 235.51C180.136 234.89 180.202 234.337 180.334 233.852C180.466 233.366 180.656 232.956 180.903 232.621C181.151 232.285 181.448 232.028 181.798 231.851C182.149 231.674 182.541 231.586 182.975 231.586C183.429 231.586 183.833 231.675 184.184 231.854C184.538 232.034 184.822 232.279 185.039 232.589C185.256 232.898 185.391 233.247 185.442 233.636H184.152C184.087 233.358 183.95 233.137 183.745 232.971C183.543 232.804 183.286 232.721 182.975 232.721C182.473 232.721 182.087 232.939 181.816 233.375C181.547 233.811 181.412 234.409 181.409 235.171H181.458C181.574 234.963 181.723 234.785 181.907 234.636C182.092 234.488 182.299 234.374 182.53 234.294C182.762 234.211 183.009 234.17 183.268 234.17C183.692 234.17 184.074 234.272 184.41 234.474C184.75 234.677 185.018 234.956 185.216 235.312C185.415 235.665 185.512 236.071 185.509 236.527C185.512 237.004 185.404 237.431 185.185 237.811C184.966 238.188 184.66 238.485 184.269 238.702C183.877 238.919 183.422 239.026 182.901 239.023ZM182.894 237.963C183.151 237.963 183.38 237.9 183.583 237.776C183.786 237.65 183.946 237.482 184.064 237.27C184.181 237.058 184.239 236.82 184.237 236.556C184.239 236.297 184.183 236.063 184.068 235.852C183.954 235.642 183.798 235.476 183.597 235.354C183.397 235.231 183.168 235.171 182.911 235.171C182.721 235.171 182.542 235.206 182.377 235.28C182.212 235.353 182.069 235.454 181.946 235.584C181.824 235.711 181.727 235.859 181.656 236.03C181.588 236.197 181.553 236.376 181.55 236.566C181.553 236.819 181.612 237.051 181.727 237.263C181.843 237.475 182.002 237.644 182.204 237.772C182.407 237.899 182.637 237.963 182.894 237.963ZM186.506 238.925V237.977L189.019 235.513C189.259 235.27 189.459 235.055 189.62 234.866C189.78 234.678 189.9 234.495 189.981 234.318C190.061 234.141 190.1 233.953 190.1 233.753C190.1 233.524 190.049 233.329 189.945 233.166C189.842 233 189.699 232.874 189.517 232.784C189.336 232.695 189.13 232.65 188.899 232.65C188.661 232.65 188.452 232.699 188.273 232.798C188.093 232.895 187.955 233.032 187.856 233.211C187.759 233.391 187.711 233.605 187.711 233.852H186.463C186.463 233.392 186.567 232.992 186.777 232.653C186.987 232.313 187.276 232.051 187.644 231.864C188.014 231.678 188.438 231.586 188.917 231.586C189.402 231.586 189.829 231.676 190.196 231.857C190.563 232.04 190.849 232.288 191.052 232.604C191.256 232.92 191.359 233.28 191.359 233.685C191.359 233.956 191.307 234.223 191.203 234.485C191.1 234.746 190.918 235.036 190.656 235.354C190.396 235.672 190.033 236.058 189.563 236.511L188.315 237.779V237.829H191.469V238.925H186.506ZM196.36 237.567V237.186C196.36 236.905 196.419 236.647 196.537 236.411C196.657 236.175 196.832 235.986 197.06 235.842C197.289 235.698 197.566 235.627 197.891 235.627C198.226 235.627 198.507 235.698 198.733 235.842C198.959 235.983 199.13 236.172 199.245 236.408C199.363 236.643 199.422 236.903 199.422 237.186V237.567C199.422 237.848 199.363 238.105 199.245 238.341C199.128 238.577 198.955 238.766 198.726 238.911C198.5 239.054 198.221 239.126 197.891 239.126C197.561 239.126 197.282 239.054 197.053 238.911C196.825 238.766 196.652 238.577 196.534 238.341C196.418 238.105 196.36 237.848 196.36 237.567ZM197.283 237.186V237.567C197.283 237.753 197.328 237.924 197.418 238.079C197.507 238.236 197.665 238.313 197.891 238.313C198.119 238.313 198.277 238.237 198.361 238.083C198.449 237.928 198.493 237.756 198.493 237.567V237.186C198.493 236.996 198.451 236.825 198.368 236.669C198.286 236.512 198.127 236.432 197.891 236.432C197.669 236.432 197.513 236.512 197.422 236.669C197.329 236.825 197.283 236.996 197.283 237.186ZM192.68 233.423V233.042C192.68 232.759 192.741 232.5 192.861 232.265C192.981 232.029 193.155 231.841 193.384 231.698C193.613 231.555 193.889 231.483 194.215 231.483C194.546 231.483 194.826 231.555 195.052 231.698C195.281 231.841 195.453 232.029 195.569 232.265C195.684 232.5 195.742 232.759 195.742 233.042V233.423C195.742 233.707 195.683 233.966 195.565 234.202C195.449 234.435 195.277 234.622 195.049 234.763C194.82 234.905 194.542 234.975 194.215 234.975C193.882 234.975 193.602 234.905 193.373 234.763C193.147 234.622 192.975 234.434 192.857 234.198C192.74 233.962 192.68 233.704 192.68 233.423ZM193.61 233.042V233.423C193.61 233.613 193.653 233.785 193.741 233.94C193.831 234.093 193.988 234.17 194.215 234.17C194.441 234.17 194.596 234.093 194.681 233.94C194.768 233.785 194.812 233.613 194.812 233.423V233.042C194.812 232.854 194.77 232.682 194.688 232.525C194.606 232.368 194.448 232.29 194.215 232.29C193.991 232.29 193.834 232.368 193.744 232.525C193.654 232.684 193.61 232.856 193.61 233.042ZM193.083 238.925L198.061 231.684H198.945L193.967 238.925H193.083Z" fill="url(#paint14_linear_1_1591)"/>
<path d="M226.147 244.898H120.815C118.341 244.898 116.335 246.904 116.335 249.378C116.335 251.852 118.341 253.858 120.815 253.858H226.147C228.621 253.858 230.627 251.852 230.627 249.378C230.627 246.904 228.621 244.898 226.147 244.898Z" fill="#3D6B3B"/>
<path d="M366.993 17.9193H355.047C353.398 17.9193 352.061 19.2564 352.061 20.9059V24.8879C352.061 26.5374 353.398 27.8745 355.047 27.8745H366.993C368.643 27.8745 369.98 26.5374 369.98 24.8879V20.9059C369.98 19.2564 368.643 17.9193 366.993 17.9193Z" fill="#ECFF77"/>
<path d="M355.464 24.888V24.4128L356.935 22.8899C357.092 22.7244 357.221 22.5795 357.323 22.455C357.426 22.3292 357.503 22.2097 357.554 22.0965C357.605 21.9835 357.631 21.8632 357.631 21.736C357.631 21.5917 357.597 21.4673 357.528 21.3626C357.46 21.2566 357.368 21.1753 357.25 21.1187C357.133 21.0607 357.002 21.0317 356.854 21.0317C356.699 21.0317 356.562 21.0636 356.447 21.1272C356.331 21.1908 356.242 21.2806 356.179 21.3966C356.118 21.5126 356.087 21.6483 356.087 21.8039H355.46C355.46 21.5395 355.521 21.3082 355.643 21.1103C355.764 20.9123 355.931 20.7589 356.143 20.65C356.355 20.5397 356.596 20.4845 356.867 20.4845C357.14 20.4845 357.38 20.539 357.588 20.6479C357.797 20.7553 357.96 20.9023 358.078 21.089C358.195 21.2742 358.254 21.4836 358.254 21.7169C358.254 21.8781 358.224 22.0357 358.163 22.1899C358.104 22.344 357.999 22.5159 357.851 22.7053C357.702 22.8934 357.496 23.1218 357.231 23.3904L356.368 24.2941V24.3259H358.324V24.888H355.464ZM360.274 20.4845C360.468 20.4859 360.658 20.5212 360.846 20.5905C361.034 20.6598 361.205 20.773 361.356 20.9299C361.508 21.0869 361.63 21.299 361.72 21.5663C361.812 21.8321 361.859 22.163 361.861 22.559C361.861 22.9394 361.822 23.278 361.746 23.575C361.67 23.8706 361.56 24.1201 361.417 24.3237C361.275 24.5274 361.104 24.6822 360.902 24.7883C360.7 24.8944 360.472 24.9474 360.219 24.9474C359.96 24.9474 359.73 24.8964 359.529 24.7946C359.328 24.6929 359.165 24.5521 359.039 24.3725C358.913 24.1915 358.835 23.9837 358.803 23.7489H359.45C359.493 23.9356 359.58 24.0869 359.709 24.2029C359.841 24.3174 360.011 24.3747 360.219 24.3747C360.537 24.3747 360.784 24.2361 360.963 23.959C361.141 23.6803 361.231 23.2915 361.232 22.7923H361.199C361.125 22.9139 361.033 23.0186 360.923 23.1062C360.814 23.1939 360.692 23.2618 360.556 23.3099C360.42 23.358 360.275 23.382 360.121 23.382C359.871 23.382 359.643 23.3204 359.438 23.1974C359.233 23.0744 359.069 22.9054 358.948 22.6905C358.826 22.4755 358.766 22.2302 358.766 21.9545C358.766 21.6801 358.828 21.4312 358.953 21.2078C359.078 20.9844 359.253 20.8076 359.478 20.6775C359.704 20.546 359.97 20.4817 360.274 20.4845ZM360.276 21.036C360.111 21.036 359.961 21.077 359.829 21.1591C359.696 21.2396 359.593 21.3492 359.516 21.4878C359.441 21.625 359.402 21.7777 359.402 21.9459C359.402 22.1143 359.439 22.267 359.512 22.4042C359.587 22.5398 359.689 22.6481 359.818 22.7287C359.948 22.8078 360.097 22.8475 360.263 22.8475C360.387 22.8475 360.504 22.8234 360.611 22.7753C360.719 22.7272 360.812 22.6608 360.893 22.576C360.974 22.4897 361.036 22.3921 361.082 22.2832C361.127 22.1743 361.15 22.0598 361.15 21.9397C361.15 21.7798 361.112 21.6313 361.035 21.4942C360.961 21.357 360.857 21.2467 360.726 21.1632C360.594 21.0784 360.444 21.036 360.276 21.036ZM364.595 24.0734V23.8444C364.595 23.6803 364.629 23.5305 364.697 23.3947C364.767 23.2575 364.867 23.1479 364.999 23.0659C365.131 22.9825 365.292 22.9407 365.48 22.9407C365.672 22.9407 365.834 22.9818 365.963 23.0638C366.094 23.1458 366.192 23.2554 366.259 23.3926C366.327 23.5298 366.36 23.6803 366.36 23.8444V24.0734C366.36 24.2375 366.327 24.3881 366.259 24.5253C366.19 24.661 366.091 24.7706 365.959 24.854C365.829 24.9361 365.67 24.9771 365.48 24.9771C365.289 24.9771 365.128 24.9361 364.997 24.854C364.865 24.7706 364.766 24.661 364.697 24.5253C364.629 24.3881 364.595 24.2375 364.595 24.0734ZM365.09 23.8444V24.0734C365.09 24.1951 365.119 24.3054 365.177 24.4044C365.234 24.5033 365.336 24.5529 365.48 24.5529C365.623 24.5529 365.722 24.5033 365.779 24.4044C365.836 24.3054 365.864 24.1951 365.864 24.0734V23.8444C365.864 23.7227 365.837 23.6124 365.781 23.5135C365.727 23.4145 365.627 23.365 365.48 23.365C365.339 23.365 365.238 23.4145 365.179 23.5135C365.119 23.6124 365.09 23.7227 365.09 23.8444ZM362.411 21.5875V21.3584C362.411 21.1944 362.445 21.0438 362.513 20.9066C362.581 20.7694 362.682 20.6598 362.813 20.5779C362.947 20.4958 363.107 20.4548 363.295 20.4548C363.487 20.4548 363.649 20.4958 363.779 20.5779C363.908 20.6598 364.007 20.7694 364.074 20.9066C364.14 21.0438 364.173 21.1944 364.173 21.3584V21.5875C364.173 21.7515 364.139 21.9021 364.072 22.0393C364.005 22.1751 363.906 22.2846 363.775 22.3681C363.645 22.4501 363.484 22.4911 363.295 22.4911C363.103 22.4911 362.941 22.4501 362.809 22.3681C362.679 22.2846 362.58 22.1751 362.513 22.0393C362.445 21.9021 362.411 21.7515 362.411 21.5875ZM362.907 21.3584V21.5875C362.907 21.7091 362.936 21.8194 362.992 21.9183C363.05 22.0174 363.151 22.0669 363.295 22.0669C363.437 22.0669 363.535 22.0174 363.592 21.9183C363.651 21.8194 363.679 21.7091 363.679 21.5875V21.3584C363.679 21.2368 363.652 21.1265 363.597 21.0276C363.541 20.9285 363.441 20.879 363.295 20.879C363.154 20.879 363.053 20.9285 362.994 21.0276C362.936 21.1265 362.907 21.2368 362.907 21.3584ZM362.612 24.888L365.599 20.5439H366.106L363.119 24.888H362.612Z" fill="#0F1A10"/>
<path d="M361.244 29.8656L359.204 27.8745H363.286L361.244 29.8656Z" fill="#ECFF77"/>
<path d="M282.743 55.7491H276.471C274.822 55.7491 273.484 57.0863 273.484 58.7357V75.6595C273.484 77.309 274.822 78.6461 276.471 78.6461H282.743C284.393 78.6461 285.73 77.309 285.73 75.6595V58.7357C285.73 57.0863 284.393 55.7491 282.743 55.7491Z" fill="#319766"/>
<path d="M303.151 26.879H296.879C295.229 26.879 293.892 28.2162 293.892 29.8656V75.6595C293.892 77.3089 295.229 78.6461 296.879 78.6461H303.151C304.801 78.6461 306.138 77.3089 306.138 75.6595V29.8656C306.138 28.2162 304.801 26.879 303.151 26.879Z" fill="#A4D963"/>
<path d="M323.564 40.8163H317.291C315.642 40.8163 314.305 42.1534 314.305 43.8028V75.6595C314.305 77.3089 315.642 78.646 317.291 78.646H323.564C325.213 78.646 326.55 77.3089 326.55 75.6595V43.8028C326.55 42.1534 325.213 40.8163 323.564 40.8163Z" fill="#319766"/>
<path d="M343.971 62.7178H337.699C336.05 62.7178 334.712 64.0549 334.712 65.7043V75.6595C334.712 77.309 336.05 78.6461 337.699 78.6461H343.971C345.621 78.6461 346.958 77.309 346.958 75.6595V65.7043C346.958 64.0549 345.621 62.7178 343.971 62.7178Z" fill="#A4D963"/>
<path d="M364.38 31.8567H358.107C356.458 31.8567 355.121 33.1938 355.121 34.8432V75.6596C355.121 77.309 356.458 78.6461 358.107 78.6461H364.38C366.029 78.6461 367.366 77.309 367.366 75.6596V34.8432C367.366 33.1938 366.029 31.8567 364.38 31.8567Z" fill="#319766"/>
<path d="M384.788 47.7849H378.515C376.866 47.7849 375.529 49.122 375.529 50.7715V75.6595C375.529 77.3089 376.866 78.646 378.515 78.646H384.788C386.437 78.646 387.774 77.3089 387.774 75.6595V50.7715C387.774 49.122 386.437 47.7849 384.788 47.7849Z" fill="#A4D963"/>
<path d="M0 10.9507H447.984V253.857C447.984 267.053 437.287 277.75 424.091 277.75H23.8925C10.6971 277.75 0 267.053 0 253.857V10.9507Z" fill="url(#paint15_linear_1_1591)"/>
</g>
<defs>
<filter id="filter0_d_1_1591" x="94.1984" y="111.605" width="47.7862" height="47.013" filterUnits="userSpaceOnUse" color-interpolation-filters="sRGB">
<feFlood flood-opacity="0" result="BackgroundImageFix"/>
<feColorMatrix in="SourceAlpha" type="matrix" values="0 0 0 0 0 0 0 0 0 0 0 0 0 0 0 0 0 0 127 0" result="hardAlpha"/>
<feOffset/>
<feGaussianBlur stdDeviation="4.03799"/>
<feComposite in2="hardAlpha" operator="out"/>
<feColorMatrix type="matrix" values="0 0 0 0 0.0587153 0 0 0 0 0.158333 0 0 0 0 0.110517 0 0 0 1 0"/>
<feBlend mode="normal" in2="BackgroundImageFix" result="effect1_dropShadow_1_1591"/>
<feBlend mode="normal" in="SourceGraphic" in2="effect1_dropShadow_1_1591" result="shape"/>
</filter>
<filter id="filter1_d_1_1591" x="90.0949" y="97.6674" width="66.1783" height="70.3955" filterUnits="userSpaceOnUse" color-interpolation-filters="sRGB">
<feFlood flood-opacity="0" result="BackgroundImageFix"/>
<feColorMatrix in="SourceAlpha" type="matrix" values="0 0 0 0 0 0 0 0 0 0 0 0 0 0 0 0 0 0 127 0" result="hardAlpha"/>
<feOffset/>
<feGaussianBlur stdDeviation="4.03799"/>
<feComposite in2="hardAlpha" operator="out"/>
<feColorMatrix type="matrix" values="0 0 0 0 0.0587153 0 0 0 0 0.158333 0 0 0 0 0.110517 0 0 0 1 0"/>
<feBlend mode="normal" in2="BackgroundImageFix" result="effect1_dropShadow_1_1591"/>
<feBlend mode="normal" in="SourceGraphic" in2="effect1_dropShadow_1_1591" result="shape"/>
</filter>
<filter id="filter2_d_1_1591" x="79.9138" y="103.868" width="64.3233" height="68.687" filterUnits="userSpaceOnUse" color-interpolation-filters="sRGB">
<feFlood flood-opacity="0" result="BackgroundImageFix"/>
<feColorMatrix in="SourceAlpha" type="matrix" values="0 0 0 0 0 0 0 0 0 0 0 0 0 0 0 0 0 0 127 0" result="hardAlpha"/>
<feOffset/>
<feGaussianBlur stdDeviation="4.03799"/>
<feComposite in2="hardAlpha" operator="out"/>
<feColorMatrix type="matrix" values="0 0 0 0 0.0587153 0 0 0 0 0.158333 0 0 0 0 0.110517 0 0 0 1 0"/>
<feBlend mode="normal" in2="BackgroundImageFix" result="effect1_dropShadow_1_1591"/>
<feBlend mode="normal" in="SourceGraphic" in2="effect1_dropShadow_1_1591" result="shape"/>
</filter>
<linearGradient id="paint0_linear_1_1591" x1="225.52" y1="4.28819e-05" x2="225.52" y2="94.5744" gradientUnits="userSpaceOnUse">
<stop stop-color="#1F2321"/>
<stop offset="1" stop-color="#020B05" stop-opacity="0.7"/>
</linearGradient>
<linearGradient id="paint1_linear_1_1591" x1="55.2462" y1="-4.9257" x2="439.609" y2="108.24" gradientUnits="userSpaceOnUse">
<stop stop-color="white" stop-opacity="0.04"/>
<stop offset="1" stop-color="white" stop-opacity="0.12"/>
</linearGradient>
<linearGradient id="paint2_linear_1_1591" x1="107.148" y1="53.758" x2="107.148" y2="88.0288" gradientUnits="userSpaceOnUse">
<stop stop-color="#F1F1EF"/>
<stop offset="1" stop-color="#F1F1EF" stop-opacity="0"/>
</linearGradient>
<linearGradient id="paint3_linear_1_1591" x1="175.007" y1="60.7267" x2="175.007" y2="83.5739" gradientUnits="userSpaceOnUse">
<stop stop-color="#F1F1EF"/>
<stop offset="1" stop-color="#F1F1EF" stop-opacity="0"/>
</linearGradient>
<linearGradient id="paint4_linear_1_1591" x1="226.032" y1="87.6058" x2="226.032" y2="182.18" gradientUnits="userSpaceOnUse">
<stop stop-color="#1F2321"/>
<stop offset="1" stop-color="#020B05" stop-opacity="0.7"/>
</linearGradient>
<linearGradient id="paint5_linear_1_1591" x1="79.7465" y1="82.68" x2="417.006" y2="167.988" gradientUnits="userSpaceOnUse">
<stop stop-color="white" stop-opacity="0.04"/>
<stop offset="1" stop-color="white" stop-opacity="0.12"/>
</linearGradient>
<linearGradient id="paint6_linear_1_1591" x1="254.042" y1="103.534" x2="254.042" y2="137.805" gradientUnits="userSpaceOnUse">
<stop stop-color="#F1F1EF"/>
<stop offset="1" stop-color="#F1F1EF" stop-opacity="0"/>
</linearGradient>
<linearGradient id="paint7_linear_1_1591" x1="259.654" y1="141.364" x2="259.654" y2="175.635" gradientUnits="userSpaceOnUse">
<stop stop-color="#F1F1EF"/>
<stop offset="1" stop-color="#F1F1EF" stop-opacity="0"/>
</linearGradient>
<linearGradient id="paint8_linear_1_1591" x1="328.534" y1="148.332" x2="328.534" y2="171.18" gradientUnits="userSpaceOnUse">
<stop stop-color="#F1F1EF"/>
<stop offset="1" stop-color="#F1F1EF" stop-opacity="0"/>
</linearGradient>
<linearGradient id="paint9_linear_1_1591" x1="118.092" y1="129.637" x2="118.092" y2="145.344" gradientUnits="userSpaceOnUse">
<stop stop-color="#F1F1EF"/>
<stop offset="1" stop-color="#F1F1EF" stop-opacity="0"/>
</linearGradient>
<linearGradient id="paint10_linear_1_1591" x1="226.03" y1="176.207" x2="226.03" y2="270.781" gradientUnits="userSpaceOnUse">
<stop stop-color="#1F2321" stop-opacity="0.7"/>
<stop offset="1" stop-color="#020B05"/>
</linearGradient>
<linearGradient id="paint11_linear_1_1591" x1="107.967" y1="171.281" x2="385.989" y2="228.038" gradientUnits="userSpaceOnUse">
<stop stop-color="white" stop-opacity="0.04"/>
<stop offset="1" stop-color="white" stop-opacity="0.12"/>
</linearGradient>
<linearGradient id="paint12_linear_1_1591" x1="138.783" y1="192.135" x2="138.783" y2="209.271" gradientUnits="userSpaceOnUse">
<stop stop-color="#F1F1EF"/>
<stop offset="1" stop-color="#F1F1EF" stop-opacity="0"/>
</linearGradient>
<linearGradient id="paint13_linear_1_1591" x1="139.296" y1="212.046" x2="139.296" y2="229.182" gradientUnits="userSpaceOnUse">
<stop stop-color="#F1F1EF"/>
<stop offset="1" stop-color="#F1F1EF" stop-opacity="0"/>
</linearGradient>
<linearGradient id="paint14_linear_1_1591" x1="190.32" y1="228.969" x2="190.32" y2="246.105" gradientUnits="userSpaceOnUse">
<stop stop-color="#F1F1EF"/>
<stop offset="1" stop-color="#F1F1EF" stop-opacity="0"/>
</linearGradient>
<linearGradient id="paint15_linear_1_1591" x1="217.404" y1="10.9507" x2="217.404" y2="277.75" gradientUnits="userSpaceOnUse">
<stop stop-color="#0F1611" stop-opacity="0"/>
<stop offset="1" stop-color="#030C06" stop-opacity="0.9"/>
</linearGradient>
<clipPath id="clip0_1_1591">
<rect width="447.984" height="277.75" fill="white"/>
</clipPath>
</defs>
</svg>
