<svg width="445" height="444" viewBox="0 0 445 444" fill="none" xmlns="http://www.w3.org/2000/svg">
<g clip-path="url(#clip0_1_1777)">
<path d="M421 0H24C10.7452 0 0 10.7452 0 24V420C0 433.255 10.7452 444 24 444H421C434.255 444 445 433.255 445 420V24C445 10.7452 434.255 0 421 0Z" fill="url(#paint0_linear_1_1777)" fill-opacity="0.24"/>
<path d="M421 0.5H24C11.0213 0.5 0.5 11.0213 0.5 24V420C0.5 432.979 11.0213 443.5 24 443.5H421C433.979 443.5 444.5 432.979 444.5 420V24C444.5 11.0213 433.979 0.5 421 0.5Z" stroke="url(#paint1_linear_1_1777)"/>
<path d="M81.0566 45.8126V43.5456H94.5651V45.8126H89.1191V61.0001H86.4941V45.8126H81.0566ZM100.482 61.2643C99.2542 61.2643 98.1832 60.9831 97.2684 60.4206C96.3536 59.8581 95.6434 59.0711 95.1377 58.0598C94.632 57.0484 94.3792 55.8666 94.3792 54.5143C94.3792 53.1563 94.632 51.9688 95.1377 50.9518C95.6434 49.9348 96.3536 49.145 97.2684 48.5825C98.1832 48.02 99.2542 47.7387 100.482 47.7387C101.709 47.7387 102.78 48.02 103.695 48.5825C104.609 49.145 105.32 49.9348 105.825 50.9518C106.331 51.9688 106.584 53.1563 106.584 54.5143C106.584 55.8666 106.331 57.0484 105.825 58.0598C105.32 59.0711 104.609 59.8581 103.695 60.4206C102.78 60.9831 101.709 61.2643 100.482 61.2643ZM100.49 59.1251C101.286 59.1251 101.945 58.9149 102.467 58.4944C102.99 58.074 103.377 57.5143 103.627 56.8154C103.882 56.1166 104.01 55.3467 104.01 54.5058C104.01 53.6706 103.882 52.9035 103.627 52.2046C103.377 51.5001 102.99 50.9348 102.467 50.5086C101.945 50.0825 101.286 49.8694 100.49 49.8694C99.6888 49.8694 99.0241 50.0825 98.4957 50.5086C97.9729 50.9348 97.5837 51.5001 97.328 52.2046C97.078 52.9035 96.953 53.6706 96.953 54.5058C96.953 55.3467 97.078 56.1166 97.328 56.8154C97.5837 57.5143 97.9729 58.074 98.4957 58.4944C99.0241 58.9149 99.6888 59.1251 100.49 59.1251ZM115.059 47.9092V49.9546H107.909V47.9092H115.059ZM109.826 44.7728H112.375V57.1563C112.375 57.6507 112.448 58.0228 112.596 58.2728C112.744 58.5171 112.934 58.6848 113.167 58.7757C113.406 58.8609 113.664 58.9035 113.943 58.9035C114.147 58.9035 114.326 58.8893 114.48 58.8609C114.633 58.8325 114.752 58.8098 114.838 58.7927L115.298 60.8978C115.15 60.9546 114.94 61.0115 114.667 61.0683C114.394 61.1308 114.053 61.1649 113.644 61.1706C112.974 61.1819 112.349 61.0626 111.769 60.8126C111.19 60.5626 110.721 60.1762 110.363 59.6535C110.005 59.1308 109.826 58.4745 109.826 57.6848V44.7728ZM121.208 61.2899C120.378 61.2899 119.628 61.1365 118.958 60.8296C118.287 60.5171 117.756 60.0654 117.364 59.4745C116.978 58.8836 116.784 58.1592 116.784 57.3012C116.784 56.5626 116.926 55.9546 117.211 55.4774C117.495 55.0001 117.878 54.6223 118.361 54.3439C118.844 54.0654 119.384 53.8552 119.98 53.7132C120.577 53.5711 121.185 53.4632 121.804 53.3893C122.588 53.2984 123.225 53.2245 123.713 53.1677C124.202 53.1052 124.557 53.0058 124.779 52.8694C125 52.7331 125.111 52.5115 125.111 52.2046V52.145C125.111 51.4007 124.901 50.824 124.48 50.4149C124.066 50.0058 123.446 49.8012 122.623 49.8012C121.765 49.8012 121.088 49.9916 120.594 50.3723C120.105 50.7473 119.767 51.1649 119.58 51.6251L117.185 51.0796C117.469 50.2842 117.884 49.6421 118.429 49.1535C118.98 48.6592 119.614 48.3012 120.33 48.0796C121.046 47.8524 121.799 47.7387 122.588 47.7387C123.111 47.7387 123.665 47.8012 124.25 47.9262C124.841 48.0456 125.392 48.2671 125.904 48.591C126.421 48.9149 126.844 49.3779 127.174 49.9802C127.503 50.5768 127.668 51.3524 127.668 52.3069V61.0001H125.179V59.2103H125.077C124.912 59.5399 124.665 59.8637 124.336 60.1819C124.006 60.5001 123.583 60.7643 123.066 60.9745C122.549 61.1848 121.929 61.2899 121.208 61.2899ZM121.762 59.2444C122.466 59.2444 123.069 59.1052 123.569 58.8268C124.074 58.5484 124.458 58.1848 124.719 57.7359C124.986 57.2813 125.12 56.7956 125.12 56.2785V54.591C125.029 54.6819 124.853 54.7671 124.591 54.8467C124.336 54.9206 124.043 54.9859 123.713 55.0427C123.384 55.0938 123.063 55.1421 122.75 55.1876C122.438 55.2274 122.176 55.2615 121.966 55.2899C121.472 55.3524 121.02 55.4575 120.611 55.6052C120.208 55.7529 119.884 55.966 119.64 56.2444C119.401 56.5171 119.282 56.8808 119.282 57.3353C119.282 57.966 119.515 58.4433 119.98 58.7671C120.446 59.0853 121.04 59.2444 121.762 59.2444ZM133.13 43.5456V61.0001H130.582V43.5456H133.13ZM151.675 48.1308C151.584 47.324 151.209 46.699 150.55 46.2558C149.891 45.8069 149.061 45.5825 148.061 45.5825C147.345 45.5825 146.726 45.6961 146.203 45.9234C145.68 46.145 145.274 46.4518 144.984 46.8439C144.7 47.2302 144.558 47.6706 144.558 48.1649C144.558 48.5796 144.655 48.9376 144.848 49.2387C145.047 49.5399 145.305 49.7927 145.624 49.9973C145.947 50.1961 146.294 50.3637 146.663 50.5001C147.033 50.6308 147.388 50.7387 147.729 50.824L149.433 51.2671C149.99 51.4035 150.561 51.5882 151.146 51.8211C151.732 52.0541 152.274 52.3609 152.774 52.7416C153.274 53.1223 153.678 53.5939 153.984 54.1563C154.297 54.7189 154.453 55.3921 154.453 56.1762C154.453 57.1649 154.197 58.0427 153.686 58.8098C153.18 59.5768 152.445 60.1819 151.479 60.6251C150.518 61.0683 149.357 61.2899 147.993 61.2899C146.686 61.2899 145.555 61.0825 144.601 60.6677C143.646 60.2529 142.899 59.6649 142.359 58.9035C141.82 58.1365 141.521 57.2274 141.464 56.1762H144.107C144.158 56.8069 144.362 57.3325 144.72 57.7529C145.084 58.1677 145.547 58.4774 146.109 58.6819C146.678 58.8808 147.3 58.9802 147.976 58.9802C148.72 58.9802 149.382 58.8637 149.962 58.6308C150.547 58.3921 151.007 58.0626 151.342 57.6421C151.678 57.216 151.845 56.7188 151.845 56.1507C151.845 55.6336 151.697 55.2103 151.402 54.8808C151.112 54.5512 150.717 54.2785 150.217 54.0626C149.723 53.8467 149.163 53.6563 148.538 53.4916L146.476 52.9291C145.078 52.5484 143.97 51.9887 143.152 51.2501C142.339 50.5115 141.933 49.5342 141.933 48.3183C141.933 47.3126 142.206 46.4348 142.751 45.6848C143.297 44.9348 144.035 44.3524 144.967 43.9376C145.899 43.5171 146.95 43.3069 148.121 43.3069C149.303 43.3069 150.345 43.5143 151.249 43.9291C152.158 44.3439 152.874 44.9149 153.396 45.6421C153.919 46.3637 154.192 47.1933 154.214 48.1308H151.675ZM160.725 61.2899C159.896 61.2899 159.146 61.1365 158.475 60.8296C157.805 60.5171 157.274 60.0654 156.881 59.4745C156.495 58.8836 156.302 58.1592 156.302 57.3012C156.302 56.5626 156.444 55.9546 156.728 55.4774C157.012 55.0001 157.396 54.6223 157.879 54.3439C158.362 54.0654 158.901 53.8552 159.498 53.7132C160.095 53.5711 160.702 53.4632 161.322 53.3893C162.106 53.2984 162.742 53.2245 163.231 53.1677C163.72 53.1052 164.075 53.0058 164.296 52.8694C164.518 52.7331 164.629 52.5115 164.629 52.2046V52.145C164.629 51.4007 164.418 50.824 163.998 50.4149C163.583 50.0058 162.964 49.8012 162.14 49.8012C161.282 49.8012 160.606 49.9916 160.112 50.3723C159.623 50.7473 159.285 51.1649 159.097 51.6251L156.702 51.0796C156.987 50.2842 157.401 49.6421 157.947 49.1535C158.498 48.6592 159.131 48.3012 159.847 48.0796C160.563 47.8524 161.316 47.7387 162.106 47.7387C162.629 47.7387 163.183 47.8012 163.768 47.9262C164.359 48.0456 164.91 48.2671 165.421 48.591C165.938 48.9149 166.362 49.3779 166.691 49.9802C167.021 50.5768 167.185 51.3524 167.185 52.3069V61.0001H164.697V59.2103H164.595C164.43 59.5399 164.183 59.8637 163.853 60.1819C163.524 60.5001 163.1 60.7643 162.583 60.9745C162.066 61.1848 161.447 61.2899 160.725 61.2899ZM161.279 59.2444C161.984 59.2444 162.586 59.1052 163.086 58.8268C163.592 58.5484 163.975 58.1848 164.237 57.7359C164.504 57.2813 164.637 56.7956 164.637 56.2785V54.591C164.546 54.6819 164.37 54.7671 164.109 54.8467C163.853 54.9206 163.56 54.9859 163.231 55.0427C162.901 55.0938 162.58 55.1421 162.268 55.1876C161.955 55.2274 161.694 55.2615 161.484 55.2899C160.989 55.3524 160.538 55.4575 160.129 55.6052C159.725 55.7529 159.401 55.966 159.157 56.2444C158.918 56.5171 158.799 56.8808 158.799 57.3353C158.799 57.966 159.032 58.4433 159.498 58.7671C159.964 59.0853 160.558 59.2444 161.279 59.2444ZM172.648 43.5456V61.0001H170.1V43.5456H172.648ZM181.238 61.2643C179.948 61.2643 178.838 60.9887 177.906 60.4376C176.98 59.8808 176.264 59.0995 175.758 58.0939C175.258 57.0825 175.008 55.8978 175.008 54.5399C175.008 53.199 175.258 52.0171 175.758 50.9944C176.264 49.9717 176.968 49.1734 177.872 48.5995C178.781 48.0257 179.843 47.7387 181.059 47.7387C181.798 47.7387 182.514 47.8609 183.207 48.1052C183.9 48.3495 184.522 48.7331 185.073 49.2558C185.625 49.7785 186.059 50.4575 186.377 51.2927C186.696 52.1223 186.855 53.1308 186.855 54.3183V55.2217H176.448V53.3126H184.358C184.358 52.6421 184.221 52.0484 183.948 51.5313C183.676 51.0086 183.292 50.5967 182.798 50.2956C182.309 49.9944 181.735 49.8439 181.076 49.8439C180.36 49.8439 179.735 50.02 179.201 50.3723C178.673 50.7188 178.264 51.1734 177.974 51.7359C177.69 52.2927 177.548 52.8978 177.548 53.5512V55.0427C177.548 55.9177 177.701 56.662 178.008 57.2757C178.321 57.8893 178.755 58.3581 179.312 58.6819C179.869 59.0001 180.519 59.1592 181.264 59.1592C181.747 59.1592 182.187 59.091 182.585 58.9546C182.983 58.8126 183.326 58.6024 183.616 58.324C183.906 58.0456 184.127 57.7018 184.281 57.2927L186.693 57.7274C186.5 58.4376 186.153 59.0598 185.653 59.5939C185.159 60.1223 184.537 60.5342 183.787 60.8296C183.042 61.1194 182.193 61.2643 181.238 61.2643ZM199.012 51.1052L196.702 51.5143C196.606 51.2188 196.452 50.9376 196.242 50.6706C196.037 50.4035 195.759 50.1848 195.407 50.0143C195.054 49.8438 194.614 49.7586 194.086 49.7586C193.364 49.7586 192.762 49.9206 192.279 50.2444C191.796 50.5626 191.554 50.9745 191.554 51.4802C191.554 51.9177 191.716 52.27 192.04 52.537C192.364 52.8041 192.887 53.0228 193.608 53.1933L195.688 53.6706C196.892 53.949 197.79 54.3779 198.381 54.9575C198.972 55.537 199.267 56.2899 199.267 57.216C199.267 58.0001 199.04 58.699 198.586 59.3126C198.137 59.9206 197.509 60.3978 196.702 60.7444C195.901 61.091 194.972 61.2643 193.915 61.2643C192.449 61.2643 191.253 60.9518 190.327 60.3268C189.401 59.6961 188.833 58.8012 188.623 57.6421L191.086 57.2671C191.239 57.9092 191.554 58.395 192.032 58.7245C192.509 59.0484 193.131 59.2103 193.898 59.2103C194.733 59.2103 195.401 59.037 195.901 58.6904C196.401 58.3382 196.651 57.9092 196.651 57.4035C196.651 56.9944 196.498 56.6507 196.191 56.3723C195.89 56.0938 195.427 55.8836 194.802 55.7416L192.586 55.2558C191.364 54.9774 190.461 54.5342 189.875 53.9262C189.296 53.3183 189.006 52.5484 189.006 51.6166C189.006 50.8438 189.222 50.1677 189.654 49.5882C190.086 49.0086 190.682 48.5569 191.444 48.2331C192.205 47.9035 193.077 47.7387 194.06 47.7387C195.475 47.7387 196.588 48.0456 197.401 48.6592C198.213 49.2671 198.75 50.0825 199.012 51.1052Z" fill="url(#paint2_linear_1_1777)"/>
<g filter="url(#filter0_f_1_1777)">
<path d="M35 57.1148C35 50.2248 43.2155 46.6488 48.2582 51.3437L49.5 52.4999C53.8953 57.2774 50.5065 64.9999 44.0147 64.9999H42.8851C38.5303 64.9999 35 61.4696 35 57.1148Z" fill="#A4D963" fill-opacity="0.82"/>
</g>
<path d="M60 32H36C31.5817 32 28 35.5817 28 40V64C28 68.4183 31.5817 72 36 72H60C64.4183 72 68 68.4183 68 64V40C68 35.5817 64.4183 32 60 32Z" fill="url(#paint3_linear_1_1777)"/>
<mask id="mask0_1_1777" style="mask-type:luminance" maskUnits="userSpaceOnUse" x="36" y="40" width="24" height="24">
<path d="M60 40H36V64H60V40Z" fill="white"/>
</mask>
<g mask="url(#mask0_1_1777)">
<path d="M55.4606 45.985C53.5172 45.0138 50.9372 44.5 48 44.5C45.0628 44.5 42.4828 45.0138 40.5394 45.985C38.5959 46.9562 37.5 48.3231 37.5 49.75V54.25C37.5 55.6769 38.6081 57.0484 40.5394 58.015C42.4706 58.9816 45.0628 59.5 48 59.5C50.9372 59.5 53.5172 58.9862 55.4606 58.015C57.4041 57.0438 58.5 55.6769 58.5 54.25V49.75C58.5 48.3231 57.3919 46.9516 55.4606 45.985ZM47.25 54.985V57.985C45.4688 57.9269 43.9688 57.6644 42.75 57.2828V54.3484C44.2192 54.7399 45.7299 54.9542 47.25 54.9869V54.985ZM48.75 54.985C50.2701 54.9523 51.7808 54.738 53.25 54.3466V57.2819C52.0312 57.6634 50.5312 57.9259 48.75 57.9841V54.985ZM39 54.25V52.5184C39.472 52.9102 39.9887 53.2447 40.5394 53.515C40.7672 53.6284 41.0081 53.7353 41.25 53.8366V56.6875C39.7659 55.9525 39 55.0272 39 54.25ZM54.75 56.6875V53.8366C54.9947 53.7353 55.2328 53.6284 55.4606 53.515C56.0113 53.2447 56.528 52.9102 57 52.5184V54.25C57 55.0272 56.2341 55.9525 54.75 56.6875Z" fill="#F1F1EF"/>
</g>
<path d="M407 32H336C332.686 32 330 34.6863 330 38V58C330 61.3137 332.686 64 336 64H407C410.314 64 413 61.3137 413 58V38C413 34.6863 410.314 32 407 32Z" fill="#1B251B"/>
<path d="M343.227 53.9999V45.2726H344.523V46.6363H344.636C344.818 46.1704 345.112 45.8086 345.517 45.551C345.922 45.2897 346.409 45.159 346.977 45.159C347.553 45.159 348.032 45.2897 348.415 45.551C348.801 45.8086 349.102 46.1704 349.318 46.6363H349.409C349.633 46.1855 349.968 45.8276 350.415 45.5624C350.862 45.2935 351.398 45.159 352.023 45.159C352.803 45.159 353.441 45.4033 353.938 45.8919C354.434 46.3768 354.682 47.1325 354.682 48.159V53.9999H353.341V48.159C353.341 47.5151 353.165 47.0548 352.812 46.7783C352.46 46.5018 352.045 46.3635 351.568 46.3635C350.955 46.3635 350.479 46.5491 350.142 46.9204C349.805 47.2878 349.636 47.7537 349.636 48.3181V53.9999H348.273V48.0226C348.273 47.5264 348.112 47.1268 347.79 46.8238C347.468 46.5169 347.053 46.3635 346.545 46.3635C346.197 46.3635 345.871 46.4563 345.568 46.6419C345.269 46.8276 345.027 47.0851 344.841 47.4147C344.659 47.7404 344.568 48.1173 344.568 48.5454V53.9999H343.227ZM360.199 54.1817C359.411 54.1817 358.72 53.9942 358.125 53.6192C357.534 53.2442 357.072 52.7196 356.739 52.0454C356.409 51.3711 356.244 50.5832 356.244 49.6817C356.244 48.7726 356.409 47.9791 356.739 47.301C357.072 46.623 357.534 46.0965 358.125 45.7215C358.72 45.3465 359.411 45.159 360.199 45.159C360.987 45.159 361.676 45.3465 362.267 45.7215C362.862 46.0965 363.324 46.623 363.654 47.301C363.987 47.9791 364.154 48.7726 364.154 49.6817C364.154 50.5832 363.987 51.3711 363.654 52.0454C363.324 52.7196 362.862 53.2442 362.267 53.6192C361.676 53.9942 360.987 54.1817 360.199 54.1817ZM360.199 52.9772C360.797 52.9772 361.29 52.8238 361.676 52.5169C362.063 52.2101 362.349 51.8067 362.534 51.3067C362.72 50.8067 362.813 50.2651 362.813 49.6817C362.813 49.0984 362.72 48.5548 362.534 48.051C362.349 47.5472 362.063 47.1401 361.676 46.8294C361.29 46.5188 360.797 46.3635 360.199 46.3635C359.6 46.3635 359.108 46.5188 358.722 46.8294C358.335 47.1401 358.049 47.5472 357.864 48.051C357.678 48.5548 357.585 49.0984 357.585 49.6817C357.585 50.2651 357.678 50.8067 357.864 51.3067C358.049 51.8067 358.335 52.2101 358.722 52.5169C359.108 52.8238 359.6 52.9772 360.199 52.9772ZM367.061 48.7499V53.9999H365.72V45.2726H367.016V46.6363H367.129C367.334 46.1931 367.645 45.837 368.061 45.5681C368.478 45.2954 369.016 45.159 369.675 45.159C370.266 45.159 370.783 45.2802 371.226 45.5226C371.669 45.7613 372.014 46.1249 372.26 46.6135C372.506 47.0984 372.629 47.712 372.629 48.4544V53.9999H371.289V48.5454C371.289 47.8597 371.111 47.3257 370.754 46.9431C370.398 46.5567 369.91 46.3635 369.289 46.3635C368.861 46.3635 368.478 46.4563 368.141 46.6419C367.808 46.8276 367.544 47.0984 367.351 47.4544C367.158 47.8105 367.061 48.2423 367.061 48.7499ZM378.395 45.2726V46.409H373.872V45.2726H378.395ZM375.191 43.1817H376.532V51.4999C376.532 51.8787 376.587 52.1628 376.696 52.3522C376.81 52.5378 376.954 52.6628 377.128 52.7272C377.306 52.7878 377.494 52.8181 377.691 52.8181C377.838 52.8181 377.96 52.8105 378.054 52.7954C378.149 52.7764 378.225 52.7613 378.282 52.7499L378.554 53.9544C378.463 53.9885 378.337 54.0226 378.174 54.0567C378.011 54.0946 377.804 54.1135 377.554 54.1135C377.176 54.1135 376.804 54.0321 376.441 53.8692C376.081 53.7063 375.782 53.4582 375.543 53.1249C375.308 52.7916 375.191 52.3711 375.191 51.8635V43.1817ZM381.461 48.7499V53.9999H380.12V42.3635H381.461V46.6363H381.574C381.779 46.1855 382.086 45.8276 382.495 45.5624C382.908 45.2935 383.457 45.159 384.143 45.159C384.737 45.159 385.258 45.2783 385.705 45.5169C386.152 45.7518 386.499 46.1135 386.745 46.6022C386.995 47.087 387.12 47.7044 387.12 48.4544V53.9999H385.779V48.5454C385.779 47.8522 385.599 47.3162 385.239 46.9374C384.883 46.5548 384.389 46.3635 383.756 46.3635C383.317 46.3635 382.923 46.4563 382.574 46.6419C382.23 46.8276 381.957 47.0984 381.756 47.4544C381.559 47.8105 381.461 48.2423 381.461 48.7499ZM390.434 42.3635V53.9999H389.093V42.3635H390.434ZM393.273 57.2726C393.046 57.2726 392.843 57.2537 392.665 57.2158C392.487 57.1817 392.364 57.1476 392.296 57.1135L392.637 55.9317C392.963 56.0151 393.251 56.0454 393.501 56.0226C393.751 55.9999 393.972 55.8882 394.165 55.6874C394.362 55.4904 394.542 55.1704 394.705 54.7272L394.955 54.0454L391.728 45.2726H393.182L395.592 52.2272H395.682L398.092 45.2726H399.546L395.842 55.2726C395.675 55.7234 395.468 56.0965 395.222 56.3919C394.976 56.6912 394.69 56.9128 394.364 57.0567C394.042 57.2007 393.679 57.2726 393.273 57.2726Z" fill="#F1F1EF"/>
<path d="M39.5909 138.636V102.273H41.9205V138.636H39.5909ZM47.4318 113.182C47.2614 111.742 46.5701 110.625 45.358 109.83C44.1458 109.034 42.6591 108.636 40.8977 108.636C39.6098 108.636 38.483 108.845 37.517 109.261C36.5606 109.678 35.8125 110.251 35.2727 110.98C34.7424 111.709 34.4773 112.538 34.4773 113.466C34.4773 114.242 34.6619 114.91 35.0312 115.469C35.41 116.018 35.893 116.477 36.4801 116.847C37.0672 117.206 37.6828 117.505 38.3267 117.741C38.9706 117.969 39.5625 118.153 40.1023 118.295L43.0568 119.091C43.8144 119.29 44.6572 119.564 45.5852 119.915C46.5227 120.265 47.4176 120.743 48.2699 121.349C49.1316 121.946 49.8419 122.713 50.4006 123.651C50.9593 124.588 51.2386 125.739 51.2386 127.102C51.2386 128.674 50.8267 130.095 50.0028 131.364C49.1884 132.633 47.9953 133.641 46.4233 134.389C44.8608 135.137 42.9621 135.511 40.7273 135.511C38.6439 135.511 36.84 135.175 35.3153 134.503C33.8002 133.83 32.607 132.893 31.7358 131.69C30.8741 130.488 30.3864 129.091 30.2727 127.5H33.9091C34.0038 128.598 34.3731 129.508 35.017 130.227C35.6705 130.937 36.4943 131.468 37.4886 131.818C38.4924 132.159 39.572 132.33 40.7273 132.33C42.072 132.33 43.2794 132.112 44.3494 131.676C45.4195 131.231 46.267 130.616 46.892 129.83C47.517 129.034 47.8295 128.106 47.8295 127.045C47.8295 126.08 47.5597 125.294 47.0199 124.688C46.4801 124.081 45.7699 123.589 44.8892 123.21C44.0085 122.831 43.0568 122.5 42.0341 122.216L38.4545 121.193C36.1818 120.54 34.3826 119.607 33.0568 118.395C31.7311 117.183 31.0682 115.597 31.0682 113.636C31.0682 112.008 31.5085 110.587 32.3892 109.375C33.2794 108.153 34.4725 107.206 35.9688 106.534C37.4744 105.852 39.1553 105.511 41.0114 105.511C42.8864 105.511 44.553 105.848 46.0114 106.52C47.4697 107.183 48.625 108.092 49.4773 109.247C50.339 110.402 50.7936 111.714 50.8409 113.182H47.4318ZM65.1487 135.398C63.2737 135.398 61.6023 135.076 60.1345 134.432C58.6762 133.788 57.5161 132.893 56.6544 131.747C55.8021 130.592 55.3381 129.252 55.2624 127.727H58.8419C58.9177 128.665 59.2396 129.474 59.8078 130.156C60.376 130.829 61.1194 131.349 62.0379 131.719C62.9565 132.088 63.9745 132.273 65.0919 132.273C66.3419 132.273 67.4499 132.055 68.4158 131.619C69.3817 131.184 70.1393 130.578 70.6885 129.801C71.2377 129.025 71.5124 128.125 71.5124 127.102C71.5124 126.032 71.2472 125.09 70.7169 124.276C70.1866 123.452 69.4101 122.808 68.3874 122.344C67.3646 121.88 66.1146 121.648 64.6374 121.648H62.3078V118.523H64.6374C65.7927 118.523 66.8059 118.314 67.6771 117.898C68.5578 117.481 69.2444 116.894 69.7368 116.136C70.2387 115.379 70.4896 114.489 70.4896 113.466C70.4896 112.481 70.2718 111.624 69.8362 110.895C69.4006 110.166 68.7851 109.598 67.9896 109.19C67.2036 108.783 66.2756 108.58 65.2055 108.58C64.2018 108.58 63.2548 108.764 62.3646 109.134C61.4839 109.493 60.7643 110.019 60.2055 110.71C59.6468 111.392 59.3438 112.216 59.2964 113.182H55.8874C55.9442 111.657 56.4035 110.322 57.2652 109.176C58.1269 108.021 59.2538 107.121 60.6459 106.477C62.0474 105.833 63.5862 105.511 65.2624 105.511C67.0616 105.511 68.6052 105.876 69.893 106.605C71.1809 107.325 72.1705 108.277 72.8618 109.46C73.5531 110.644 73.8987 111.922 73.8987 113.295C73.8987 114.934 73.4679 116.33 72.6061 117.486C71.7538 118.641 70.5938 119.441 69.126 119.886V120.114C70.9631 120.417 72.3978 121.198 73.43 122.457C74.4622 123.707 74.9783 125.256 74.9783 127.102C74.9783 128.684 74.5474 130.104 73.6857 131.364C72.8334 132.614 71.6686 133.598 70.1913 134.318C68.7141 135.038 67.0332 135.398 65.1487 135.398ZM89.247 135.398C88.0538 135.379 86.8607 135.152 85.6675 134.716C84.4743 134.28 83.3853 133.546 82.4004 132.514C81.4156 131.473 80.6249 130.066 80.0283 128.295C79.4317 126.515 79.1334 124.28 79.1334 121.591C79.1334 119.015 79.3749 116.733 79.8578 114.744C80.3408 112.746 81.0415 111.065 81.9601 109.702C82.8786 108.329 83.9866 107.287 85.2839 106.577C86.5908 105.866 88.0633 105.511 89.7016 105.511C91.3303 105.511 92.7792 105.838 94.0482 106.491C95.3266 107.135 96.3682 108.035 97.1732 109.19C97.9781 110.346 98.4989 111.676 98.7357 113.182H95.2697C94.9478 111.875 94.3228 110.791 93.3947 109.929C92.4667 109.067 91.2357 108.636 89.7016 108.636C87.4478 108.636 85.6722 109.616 84.3749 111.577C83.087 113.537 82.4383 116.288 82.4288 119.83H82.6561C83.1864 119.025 83.8161 118.338 84.5453 117.77C85.2839 117.192 86.0983 116.747 86.9885 116.435C87.8786 116.122 88.8209 115.966 89.8152 115.966C91.4819 115.966 93.0065 116.383 94.3891 117.216C95.7716 118.04 96.8796 119.181 97.7129 120.639C98.5463 122.088 98.9629 123.75 98.9629 125.625C98.9629 127.424 98.5605 129.072 97.7555 130.568C96.9506 132.055 95.819 133.239 94.3607 134.119C92.9118 134.991 91.2072 135.417 89.247 135.398ZM89.247 132.273C90.4402 132.273 91.5103 131.974 92.4572 131.378C93.4137 130.781 94.1665 129.981 94.7158 128.977C95.2745 127.973 95.5538 126.856 95.5538 125.625C95.5538 124.422 95.2839 123.329 94.7442 122.344C94.2139 121.349 93.48 120.559 92.5425 119.972C91.6144 119.384 90.5538 119.091 89.3607 119.091C88.461 119.091 87.623 119.271 86.8464 119.631C86.0699 119.981 85.3881 120.464 84.801 121.08C84.2233 121.695 83.7688 122.401 83.4374 123.196C83.1059 123.982 82.9402 124.811 82.9402 125.682C82.9402 126.837 83.2101 127.917 83.7499 128.92C84.2991 129.924 85.0472 130.734 85.9942 131.349C86.9506 131.965 88.0349 132.273 89.247 132.273ZM107.038 131.023L106.811 132.557C106.65 133.636 106.404 134.792 106.073 136.023C105.751 137.254 105.414 138.414 105.064 139.503C104.714 140.592 104.425 141.458 104.198 142.102H101.641C101.764 141.496 101.925 140.696 102.124 139.702C102.323 138.707 102.521 137.595 102.72 136.364C102.929 135.142 103.099 133.892 103.232 132.614L103.402 131.023H107.038ZM112.316 135L125.327 109.261V109.034H110.327V105.909H128.963V109.205L116.009 135H112.316ZM141.79 135.398C139.84 135.398 138.116 135.052 136.62 134.361C135.133 133.66 133.973 132.699 133.14 131.477C132.307 130.246 131.895 128.845 131.904 127.273C131.895 126.042 132.136 124.905 132.629 123.864C133.121 122.812 133.793 121.937 134.646 121.236C135.507 120.526 136.469 120.076 137.529 119.886V119.716C136.137 119.356 135.029 118.575 134.205 117.372C133.381 116.16 132.974 114.782 132.984 113.239C132.974 111.761 133.348 110.44 134.106 109.276C134.863 108.111 135.905 107.192 137.231 106.52C138.566 105.848 140.086 105.511 141.79 105.511C143.476 105.511 144.982 105.848 146.308 106.52C147.633 107.192 148.675 108.111 149.433 109.276C150.2 110.44 150.588 111.761 150.597 113.239C150.588 114.782 150.166 116.16 149.333 117.372C148.509 118.575 147.415 119.356 146.052 119.716V119.886C147.103 120.076 148.05 120.526 148.893 121.236C149.736 121.937 150.408 122.812 150.91 123.864C151.412 124.905 151.667 126.042 151.677 127.273C151.667 128.845 151.241 130.246 150.398 131.477C149.565 132.699 148.405 133.66 146.918 134.361C145.441 135.052 143.732 135.398 141.79 135.398ZM141.79 132.273C143.107 132.273 144.243 132.06 145.2 131.634C146.156 131.207 146.895 130.606 147.415 129.83C147.936 129.053 148.201 128.144 148.211 127.102C148.201 126.004 147.917 125.033 147.359 124.19C146.8 123.348 146.038 122.685 145.072 122.202C144.115 121.719 143.022 121.477 141.79 121.477C140.55 121.477 139.442 121.719 138.467 122.202C137.501 122.685 136.738 123.348 136.18 124.19C135.63 125.033 135.361 126.004 135.37 127.102C135.361 128.144 135.612 129.053 136.123 129.83C136.644 130.606 137.387 131.207 138.353 131.634C139.319 132.06 140.465 132.273 141.79 132.273ZM141.79 118.466C142.832 118.466 143.755 118.258 144.56 117.841C145.375 117.424 146.014 116.842 146.478 116.094C146.942 115.346 147.179 114.47 147.188 113.466C147.179 112.481 146.947 111.624 146.492 110.895C146.038 110.156 145.408 109.588 144.603 109.19C143.798 108.783 142.861 108.58 141.79 108.58C140.701 108.58 139.75 108.783 138.935 109.19C138.121 109.588 137.491 110.156 137.046 110.895C136.601 111.624 136.383 112.481 136.393 113.466C136.383 114.47 136.606 115.346 137.06 116.094C137.524 116.842 138.164 117.424 138.978 117.841C139.792 118.258 140.73 118.466 141.79 118.466ZM165.012 135.398C163.345 135.398 161.844 135.066 160.509 134.403C159.174 133.741 158.104 132.831 157.299 131.676C156.494 130.521 156.053 129.205 155.978 127.727H159.387C159.519 129.044 160.116 130.133 161.176 130.994C162.246 131.847 163.525 132.273 165.012 132.273C166.205 132.273 167.265 131.993 168.193 131.435C169.131 130.876 169.865 130.109 170.395 129.134C170.935 128.149 171.205 127.036 171.205 125.795C171.205 124.527 170.925 123.395 170.367 122.401C169.818 121.397 169.06 120.606 168.094 120.028C167.128 119.451 166.025 119.157 164.784 119.148C163.894 119.138 162.98 119.276 162.043 119.56C161.105 119.834 160.334 120.189 159.728 120.625L156.432 120.227L158.193 105.909H173.307V109.034H161.148L160.125 117.614H160.296C160.892 117.14 161.64 116.747 162.54 116.435C163.44 116.122 164.377 115.966 165.353 115.966C167.133 115.966 168.719 116.392 170.111 117.244C171.513 118.087 172.611 119.242 173.407 120.71C174.211 122.178 174.614 123.854 174.614 125.739C174.614 127.595 174.197 129.252 173.364 130.71C172.54 132.159 171.404 133.305 169.955 134.148C168.506 134.981 166.858 135.398 165.012 135.398ZM180.463 135.227C179.762 135.227 179.161 134.976 178.659 134.474C178.157 133.973 177.906 133.371 177.906 132.67C177.906 131.97 178.157 131.368 178.659 130.866C179.161 130.365 179.762 130.114 180.463 130.114C181.164 130.114 181.765 130.365 182.267 130.866C182.769 131.368 183.02 131.97 183.02 132.67C183.02 133.134 182.901 133.561 182.665 133.949C182.437 134.337 182.13 134.65 181.741 134.886C181.363 135.114 180.936 135.227 180.463 135.227ZM196.252 135.398C194.111 135.398 192.288 134.815 190.783 133.651C189.277 132.476 188.127 130.777 187.331 128.551C186.536 126.316 186.138 123.617 186.138 120.455C186.138 117.311 186.536 114.626 187.331 112.401C188.136 110.166 189.291 108.461 190.797 107.287C192.312 106.103 194.13 105.511 196.252 105.511C198.373 105.511 200.186 106.103 201.692 107.287C203.207 108.461 204.362 110.166 205.158 112.401C205.963 114.626 206.365 117.311 206.365 120.455C206.365 123.617 205.967 126.316 205.172 128.551C204.377 130.777 203.226 132.476 201.72 133.651C200.215 134.815 198.392 135.398 196.252 135.398ZM196.252 132.273C198.373 132.273 200.02 131.25 201.195 129.205C202.369 127.159 202.956 124.242 202.956 120.455C202.956 117.936 202.686 115.791 202.146 114.02C201.616 112.249 200.849 110.9 199.845 109.972C198.851 109.044 197.653 108.58 196.252 108.58C194.149 108.58 192.506 109.616 191.323 111.69C190.139 113.755 189.547 116.676 189.547 120.455C189.547 122.973 189.812 125.114 190.342 126.875C190.873 128.636 191.635 129.976 192.629 130.895C193.633 131.813 194.841 132.273 196.252 132.273ZM220.052 135.398C217.911 135.398 216.088 134.815 214.583 133.651C213.077 132.476 211.927 130.777 211.131 128.551C210.336 126.316 209.938 123.617 209.938 120.455C209.938 117.311 210.336 114.626 211.131 112.401C211.936 110.166 213.091 108.461 214.597 107.287C216.112 106.103 217.93 105.511 220.052 105.511C222.173 105.511 223.986 106.103 225.492 107.287C227.007 108.461 228.162 110.166 228.958 112.401C229.763 114.626 230.165 117.311 230.165 120.455C230.165 123.617 229.767 126.316 228.972 128.551C228.177 130.777 227.026 132.476 225.52 133.651C224.015 134.815 222.192 135.398 220.052 135.398ZM220.052 132.273C222.173 132.273 223.82 131.25 224.995 129.205C226.169 127.159 226.756 124.242 226.756 120.455C226.756 117.936 226.486 115.791 225.946 114.02C225.416 112.249 224.649 110.9 223.645 109.972C222.651 109.044 221.453 108.58 220.052 108.58C217.949 108.58 216.306 109.616 215.123 111.69C213.939 113.755 213.347 116.676 213.347 120.455C213.347 122.973 213.612 125.114 214.142 126.875C214.673 128.636 215.435 129.976 216.429 130.895C217.433 131.813 218.641 132.273 220.052 132.273Z" fill="url(#paint4_linear_1_1777)"/>
<path d="M182 168H36C31.5817 168 28 171.582 28 176V190C28 194.418 31.5817 198 36 198H182C186.418 198 190 194.418 190 190V176C190 171.582 186.418 168 182 168Z" fill="#319766"/>
<path d="M310 168H206C201.582 168 198 171.582 198 176V190C198 194.418 201.582 198 206 198H310C314.418 198 318 194.418 318 190V176C318 171.582 314.418 168 310 168Z" fill="#A4D963"/>
<path d="M409 168H334C329.582 168 326 171.582 326 176V190C326 194.418 329.582 198 334 198H409C413.418 198 417 194.418 417 190V176C417 171.582 413.418 168 409 168Z" fill="#ECFF77"/>
<path d="M79.5112 189V177.364H86.5339V178.614H80.9203V182.545H86.1703V183.795H80.9203V187.75H86.6248V189H79.5112ZM90.98 189.205C90.427 189.205 89.9251 189.1 89.4743 188.892C89.0236 188.68 88.6656 188.375 88.4005 187.977C88.1353 187.576 88.0028 187.091 88.0028 186.523C88.0028 186.023 88.1012 185.617 88.2982 185.307C88.4952 184.992 88.7584 184.746 89.088 184.568C89.4175 184.39 89.7812 184.258 90.1789 184.17C90.5804 184.08 90.9838 184.008 91.3891 183.955C91.9194 183.886 92.3493 183.835 92.6789 183.801C93.0122 183.763 93.2547 183.701 93.4062 183.614C93.5615 183.527 93.6391 183.375 93.6391 183.159V183.114C93.6391 182.553 93.4857 182.117 93.1789 181.807C92.8759 181.496 92.4156 181.341 91.7982 181.341C91.1581 181.341 90.6562 181.481 90.2925 181.761C89.9289 182.042 89.6732 182.341 89.5255 182.659L88.2528 182.205C88.48 181.674 88.7831 181.261 89.1618 180.966C89.5444 180.667 89.9611 180.458 90.4118 180.341C90.8664 180.22 91.3134 180.159 91.7528 180.159C92.0331 180.159 92.355 180.193 92.7187 180.261C93.0861 180.326 93.4403 180.46 93.7812 180.665C94.1259 180.869 94.4118 181.178 94.6391 181.591C94.8664 182.004 94.98 182.557 94.98 183.25V189H93.6391V187.818H93.5709C93.48 188.008 93.3285 188.21 93.1164 188.426C92.9043 188.642 92.6221 188.826 92.2698 188.977C91.9175 189.129 91.4876 189.205 90.98 189.205ZM91.1846 188C91.7149 188 92.1618 187.896 92.5255 187.688C92.8929 187.479 93.1694 187.21 93.355 186.881C93.5444 186.551 93.6391 186.205 93.6391 185.841V184.614C93.5823 184.682 93.4573 184.744 93.2641 184.801C93.0747 184.854 92.855 184.902 92.605 184.943C92.3588 184.981 92.1183 185.015 91.8834 185.045C91.6524 185.072 91.4649 185.095 91.3209 185.114C90.9725 185.159 90.6467 185.233 90.3437 185.335C90.0444 185.434 89.802 185.583 89.6164 185.784C89.4346 185.981 89.3437 186.25 89.3437 186.591C89.3437 187.057 89.516 187.409 89.8607 187.648C90.2092 187.883 90.6505 188 91.1846 188ZM96.9475 189V180.273H98.2429V181.591H98.3338C98.4929 181.159 98.7808 180.809 99.1975 180.54C99.6141 180.271 100.084 180.136 100.606 180.136C100.705 180.136 100.828 180.138 100.976 180.142C101.123 180.146 101.235 180.152 101.311 180.159V181.523C101.265 181.511 101.161 181.494 100.998 181.472C100.839 181.445 100.671 181.432 100.493 181.432C100.068 181.432 99.6899 181.521 99.3566 181.699C99.027 181.873 98.7657 182.116 98.5725 182.426C98.3831 182.733 98.2884 183.083 98.2884 183.477V189H96.9475ZM103.761 183.75V189H102.42V180.273H103.716V181.636H103.829C104.034 181.193 104.345 180.837 104.761 180.568C105.178 180.295 105.716 180.159 106.375 180.159C106.966 180.159 107.483 180.28 107.926 180.523C108.369 180.761 108.714 181.125 108.96 181.614C109.206 182.098 109.329 182.712 109.329 183.455V189H107.989V183.545C107.989 182.86 107.811 182.326 107.454 181.943C107.098 181.557 106.61 181.364 105.989 181.364C105.561 181.364 105.178 181.456 104.841 181.642C104.508 181.828 104.244 182.098 104.051 182.455C103.858 182.811 103.761 183.242 103.761 183.75ZM111.3 189V180.273H112.641V189H111.3ZM111.982 178.818C111.72 178.818 111.495 178.729 111.305 178.551C111.12 178.373 111.027 178.159 111.027 177.909C111.027 177.659 111.12 177.445 111.305 177.267C111.495 177.089 111.72 177 111.982 177C112.243 177 112.466 177.089 112.652 177.267C112.841 177.445 112.936 177.659 112.936 177.909C112.936 178.159 112.841 178.373 112.652 178.551C112.466 178.729 112.243 178.818 111.982 178.818ZM115.958 183.75V189H114.617V180.273H115.912V181.636H116.026C116.23 181.193 116.541 180.837 116.958 180.568C117.374 180.295 117.912 180.159 118.571 180.159C119.162 180.159 119.679 180.28 120.122 180.523C120.566 180.761 120.91 181.125 121.156 181.614C121.403 182.098 121.526 182.712 121.526 183.455V189H120.185V183.545C120.185 182.86 120.007 182.326 119.651 181.943C119.295 181.557 118.806 181.364 118.185 181.364C117.757 181.364 117.374 181.456 117.037 181.642C116.704 181.828 116.441 182.098 116.247 182.455C116.054 182.811 115.958 183.242 115.958 183.75ZM127.019 192.455C126.371 192.455 125.814 192.371 125.348 192.205C124.882 192.042 124.494 191.826 124.184 191.557C123.877 191.292 123.632 191.008 123.451 190.705L124.519 189.955C124.64 190.114 124.793 190.295 124.979 190.5C125.165 190.708 125.418 190.888 125.74 191.04C126.066 191.195 126.492 191.273 127.019 191.273C127.723 191.273 128.305 191.102 128.763 190.761C129.221 190.42 129.451 189.886 129.451 189.159V187.386H129.337C129.238 187.545 129.098 187.742 128.916 187.977C128.738 188.208 128.481 188.415 128.144 188.597C127.81 188.775 127.36 188.864 126.791 188.864C126.087 188.864 125.454 188.697 124.894 188.364C124.337 188.03 123.896 187.545 123.57 186.909C123.248 186.273 123.087 185.5 123.087 184.591C123.087 183.697 123.244 182.919 123.559 182.256C123.873 181.589 124.31 181.074 124.871 180.71C125.432 180.343 126.079 180.159 126.814 180.159C127.382 180.159 127.833 180.254 128.166 180.443C128.504 180.629 128.761 180.841 128.939 181.08C129.121 181.314 129.261 181.508 129.36 181.659H129.496V180.273H130.791V189.25C130.791 190 130.621 190.61 130.28 191.08C129.943 191.553 129.488 191.9 128.916 192.119C128.348 192.343 127.716 192.455 127.019 192.455ZM126.973 187.659C127.511 187.659 127.966 187.536 128.337 187.29C128.708 187.044 128.99 186.689 129.184 186.227C129.377 185.765 129.473 185.212 129.473 184.568C129.473 183.939 129.379 183.384 129.189 182.903C129 182.422 128.72 182.045 128.348 181.773C127.977 181.5 127.519 181.364 126.973 181.364C126.405 181.364 125.932 181.508 125.553 181.795C125.178 182.083 124.896 182.47 124.706 182.955C124.521 183.439 124.428 183.977 124.428 184.568C124.428 185.174 124.523 185.71 124.712 186.176C124.905 186.638 125.189 187.002 125.564 187.267C125.943 187.528 126.413 187.659 126.973 187.659ZM138.948 182.227L137.743 182.568C137.668 182.367 137.556 182.172 137.408 181.983C137.264 181.79 137.067 181.631 136.817 181.506C136.567 181.381 136.247 181.318 135.857 181.318C135.323 181.318 134.878 181.441 134.522 181.688C134.169 181.93 133.993 182.239 133.993 182.614C133.993 182.947 134.115 183.21 134.357 183.403C134.599 183.597 134.978 183.758 135.493 183.886L136.789 184.205C137.569 184.394 138.15 184.684 138.533 185.074C138.916 185.46 139.107 185.958 139.107 186.568C139.107 187.068 138.963 187.515 138.675 187.909C138.391 188.303 137.993 188.614 137.482 188.841C136.971 189.068 136.376 189.182 135.698 189.182C134.808 189.182 134.071 188.989 133.488 188.602C132.904 188.216 132.535 187.652 132.38 186.909L133.652 186.591C133.774 187.061 134.003 187.413 134.34 187.648C134.681 187.883 135.126 188 135.675 188C136.3 188 136.796 187.867 137.164 187.602C137.535 187.333 137.721 187.011 137.721 186.636C137.721 186.333 137.615 186.08 137.402 185.875C137.19 185.667 136.865 185.511 136.425 185.409L134.971 185.068C134.171 184.879 133.584 184.585 133.209 184.188C132.838 183.786 132.652 183.284 132.652 182.682C132.652 182.189 132.791 181.754 133.067 181.375C133.347 180.996 133.728 180.699 134.209 180.483C134.694 180.267 135.243 180.159 135.857 180.159C136.721 180.159 137.399 180.348 137.891 180.727C138.387 181.106 138.74 181.606 138.948 182.227Z" fill="url(#paint5_linear_1_1777)"/>
<path d="M238.174 180.273C238.105 179.697 237.829 179.25 237.344 178.932C236.859 178.614 236.265 178.455 235.56 178.455C235.045 178.455 234.594 178.538 234.208 178.705C233.825 178.871 233.526 179.1 233.31 179.392C233.098 179.684 232.992 180.015 232.992 180.386C232.992 180.697 233.066 180.964 233.213 181.188C233.365 181.407 233.558 181.591 233.793 181.739C234.028 181.883 234.274 182.002 234.532 182.097C234.789 182.187 235.026 182.261 235.242 182.318L236.424 182.636C236.727 182.716 237.064 182.826 237.435 182.966C237.81 183.106 238.168 183.297 238.509 183.54C238.854 183.778 239.138 184.085 239.361 184.46C239.585 184.835 239.696 185.295 239.696 185.841C239.696 186.47 239.532 187.038 239.202 187.545C238.876 188.053 238.399 188.456 237.77 188.756C237.145 189.055 236.386 189.205 235.492 189.205C234.659 189.205 233.937 189.07 233.327 188.801C232.721 188.532 232.244 188.157 231.895 187.676C231.551 187.195 231.355 186.636 231.31 186H232.765C232.802 186.439 232.95 186.803 233.208 187.091C233.469 187.375 233.799 187.587 234.196 187.727C234.598 187.864 235.03 187.932 235.492 187.932C236.03 187.932 236.513 187.845 236.941 187.67C237.369 187.492 237.708 187.246 237.958 186.932C238.208 186.614 238.333 186.242 238.333 185.818C238.333 185.432 238.225 185.117 238.009 184.875C237.793 184.633 237.509 184.436 237.157 184.284C236.804 184.133 236.424 184 236.015 183.886L234.583 183.477C233.674 183.216 232.954 182.843 232.424 182.358C231.893 181.873 231.628 181.239 231.628 180.455C231.628 179.803 231.804 179.235 232.157 178.75C232.513 178.261 232.99 177.883 233.588 177.614C234.191 177.341 234.863 177.205 235.605 177.205C236.355 177.205 237.022 177.339 237.605 177.608C238.189 177.873 238.651 178.237 238.992 178.699C239.337 179.161 239.518 179.686 239.537 180.273H238.174ZM243.92 189.205C243.366 189.205 242.865 189.1 242.414 188.892C241.963 188.68 241.605 188.375 241.34 187.977C241.075 187.576 240.942 187.091 240.942 186.523C240.942 186.023 241.041 185.617 241.238 185.307C241.435 184.992 241.698 184.746 242.027 184.568C242.357 184.39 242.721 184.258 243.118 184.17C243.52 184.08 243.923 184.008 244.329 183.955C244.859 183.886 245.289 183.835 245.618 183.801C245.952 183.763 246.194 183.701 246.346 183.614C246.501 183.527 246.579 183.375 246.579 183.159V183.114C246.579 182.553 246.425 182.117 246.118 181.807C245.815 181.496 245.355 181.341 244.738 181.341C244.098 181.341 243.596 181.481 243.232 181.761C242.868 182.042 242.613 182.341 242.465 182.659L241.192 182.205C241.42 181.674 241.723 181.261 242.101 180.966C242.484 180.667 242.901 180.458 243.351 180.341C243.806 180.22 244.253 180.159 244.692 180.159C244.973 180.159 245.295 180.193 245.658 180.261C246.026 180.326 246.38 180.46 246.721 180.665C247.065 180.869 247.351 181.178 247.579 181.591C247.806 182.004 247.92 182.557 247.92 183.25V189H246.579V187.818H246.51C246.42 188.008 246.268 188.21 246.056 188.426C245.844 188.642 245.562 188.826 245.209 188.977C244.857 189.129 244.427 189.205 243.92 189.205ZM244.124 188C244.654 188 245.101 187.896 245.465 187.688C245.832 187.479 246.109 187.21 246.295 186.881C246.484 186.551 246.579 186.205 246.579 185.841V184.614C246.522 184.682 246.397 184.744 246.204 184.801C246.014 184.854 245.795 184.902 245.545 184.943C245.298 184.981 245.058 185.015 244.823 185.045C244.592 185.072 244.404 185.095 244.26 185.114C243.912 185.159 243.586 185.233 243.283 185.335C242.984 185.434 242.741 185.583 242.556 185.784C242.374 185.981 242.283 186.25 242.283 186.591C242.283 187.057 242.456 187.409 242.8 187.648C243.149 187.883 243.59 188 244.124 188ZM256.711 180.273L253.484 189H252.12L248.893 180.273H250.347L252.756 187.227H252.847L255.256 180.273H256.711ZM258.001 189V180.273H259.342V189H258.001ZM258.683 178.818C258.421 178.818 258.196 178.729 258.006 178.551C257.821 178.373 257.728 178.159 257.728 177.909C257.728 177.659 257.821 177.445 258.006 177.267C258.196 177.089 258.421 177 258.683 177C258.944 177 259.167 177.089 259.353 177.267C259.542 177.445 259.637 177.659 259.637 177.909C259.637 178.159 259.542 178.373 259.353 178.551C259.167 178.729 258.944 178.818 258.683 178.818ZM262.658 183.75V189H261.318V180.273H262.613V181.636H262.727C262.931 181.193 263.242 180.837 263.658 180.568C264.075 180.295 264.613 180.159 265.272 180.159C265.863 180.159 266.38 180.28 266.823 180.523C267.266 180.761 267.611 181.125 267.857 181.614C268.104 182.098 268.227 182.712 268.227 183.455V189H266.886V183.545C266.886 182.86 266.708 182.326 266.352 181.943C265.996 181.557 265.507 181.364 264.886 181.364C264.458 181.364 264.075 181.456 263.738 181.642C263.405 181.828 263.141 182.098 262.948 182.455C262.755 182.811 262.658 183.242 262.658 183.75ZM273.72 192.455C273.072 192.455 272.515 192.371 272.049 192.205C271.583 192.042 271.195 191.826 270.884 191.557C270.578 191.292 270.333 191.008 270.152 190.705L271.22 189.955C271.341 190.114 271.494 190.295 271.68 190.5C271.866 190.708 272.119 190.888 272.441 191.04C272.767 191.195 273.193 191.273 273.72 191.273C274.424 191.273 275.006 191.102 275.464 190.761C275.922 190.42 276.152 189.886 276.152 189.159V187.386H276.038C275.939 187.545 275.799 187.742 275.617 187.977C275.439 188.208 275.182 188.415 274.845 188.597C274.511 188.775 274.061 188.864 273.492 188.864C272.788 188.864 272.155 188.697 271.595 188.364C271.038 188.03 270.597 187.545 270.271 186.909C269.949 186.273 269.788 185.5 269.788 184.591C269.788 183.697 269.945 182.919 270.259 182.256C270.574 181.589 271.011 181.074 271.572 180.71C272.133 180.343 272.78 180.159 273.515 180.159C274.083 180.159 274.534 180.254 274.867 180.443C275.205 180.629 275.462 180.841 275.64 181.08C275.822 181.314 275.962 181.508 276.061 181.659H276.197V180.273H277.492V189.25C277.492 190 277.322 190.61 276.981 191.08C276.644 191.553 276.189 191.9 275.617 192.119C275.049 192.343 274.417 192.455 273.72 192.455ZM273.674 187.659C274.212 187.659 274.667 187.536 275.038 187.29C275.409 187.044 275.691 186.689 275.884 186.227C276.078 185.765 276.174 185.212 276.174 184.568C276.174 183.939 276.08 183.384 275.89 182.903C275.701 182.422 275.42 182.045 275.049 181.773C274.678 181.5 274.22 181.364 273.674 181.364C273.106 181.364 272.633 181.508 272.254 181.795C271.879 182.083 271.597 182.47 271.407 182.955C271.222 183.439 271.129 183.977 271.129 184.568C271.129 185.174 271.223 185.71 271.413 186.176C271.606 186.638 271.89 187.002 272.265 187.267C272.644 187.528 273.114 187.659 273.674 187.659ZM285.649 182.227L284.444 182.568C284.368 182.367 284.257 182.172 284.109 181.983C283.965 181.79 283.768 181.631 283.518 181.506C283.268 181.381 282.948 181.318 282.558 181.318C282.024 181.318 281.579 181.441 281.223 181.688C280.87 181.93 280.694 182.239 280.694 182.614C280.694 182.947 280.815 183.21 281.058 183.403C281.3 183.597 281.679 183.758 282.194 183.886L283.49 184.205C284.27 184.394 284.851 184.684 285.234 185.074C285.617 185.46 285.808 185.958 285.808 186.568C285.808 187.068 285.664 187.515 285.376 187.909C285.092 188.303 284.694 188.614 284.183 188.841C283.672 189.068 283.077 189.182 282.399 189.182C281.509 189.182 280.772 188.989 280.189 188.602C279.605 188.216 279.236 187.652 279.081 186.909L280.353 186.591C280.475 187.061 280.704 187.413 281.041 187.648C281.382 187.883 281.827 188 282.376 188C283.001 188 283.497 187.867 283.865 187.602C284.236 187.333 284.422 187.011 284.422 186.636C284.422 186.333 284.315 186.08 284.103 185.875C283.891 185.667 283.565 185.511 283.126 185.409L281.672 185.068C280.872 184.879 280.285 184.585 279.91 184.188C279.539 183.786 279.353 183.284 279.353 182.682C279.353 182.189 279.492 181.754 279.768 181.375C280.048 180.996 280.429 180.699 280.91 180.483C281.395 180.267 281.944 180.159 282.558 180.159C283.422 180.159 284.1 180.348 284.592 180.727C285.088 181.106 285.44 181.606 285.649 182.227Z" fill="url(#paint6_linear_1_1777)"/>
<path d="M338.409 189V177.364H345.432V178.614H339.818V182.545H345.068V183.795H339.818V187.75H345.523V189H338.409ZM348.31 180.273L350.401 183.841L352.492 180.273H354.037L351.219 184.636L354.037 189H352.492L350.401 185.614L348.31 189H346.764L349.537 184.636L346.764 180.273H348.31ZM355.47 192.273V180.273H356.766V181.659H356.925C357.023 181.508 357.16 181.314 357.334 181.08C357.512 180.841 357.766 180.629 358.095 180.443C358.429 180.254 358.879 180.159 359.448 180.159C360.183 180.159 360.83 180.343 361.391 180.71C361.951 181.078 362.389 181.598 362.703 182.273C363.018 182.947 363.175 183.742 363.175 184.659C363.175 185.583 363.018 186.384 362.703 187.062C362.389 187.737 361.953 188.259 361.397 188.631C360.84 188.998 360.198 189.182 359.47 189.182C358.91 189.182 358.461 189.089 358.124 188.903C357.787 188.714 357.527 188.5 357.345 188.261C357.164 188.019 357.023 187.818 356.925 187.659H356.811V192.273H355.47ZM356.789 184.636C356.789 185.295 356.885 185.877 357.078 186.381C357.272 186.881 357.554 187.273 357.925 187.557C358.296 187.837 358.751 187.977 359.289 187.977C359.849 187.977 360.317 187.83 360.692 187.534C361.071 187.235 361.355 186.833 361.544 186.33C361.737 185.822 361.834 185.258 361.834 184.636C361.834 184.023 361.739 183.47 361.55 182.977C361.364 182.481 361.082 182.089 360.703 181.801C360.328 181.509 359.857 181.364 359.289 181.364C358.743 181.364 358.285 181.502 357.914 181.778C357.542 182.051 357.262 182.434 357.073 182.926C356.883 183.415 356.789 183.985 356.789 184.636ZM368.399 189.182C367.559 189.182 366.833 188.996 366.223 188.625C365.617 188.25 365.149 187.727 364.82 187.057C364.494 186.383 364.331 185.598 364.331 184.705C364.331 183.811 364.494 183.023 364.82 182.341C365.149 181.655 365.608 181.121 366.195 180.739C366.786 180.352 367.475 180.159 368.263 180.159C368.718 180.159 369.167 180.235 369.61 180.386C370.053 180.538 370.456 180.784 370.82 181.125C371.184 181.462 371.473 181.909 371.689 182.466C371.905 183.023 372.013 183.708 372.013 184.523V185.091H365.286V183.932H370.649C370.649 183.439 370.551 183 370.354 182.614C370.161 182.227 369.884 181.922 369.524 181.699C369.168 181.475 368.748 181.364 368.263 181.364C367.729 181.364 367.267 181.496 366.877 181.761C366.49 182.023 366.193 182.364 365.985 182.784C365.776 183.205 365.672 183.655 365.672 184.136V184.909C365.672 185.568 365.786 186.127 366.013 186.585C366.244 187.04 366.564 187.386 366.973 187.625C367.382 187.86 367.858 187.977 368.399 187.977C368.752 187.977 369.07 187.928 369.354 187.83C369.642 187.727 369.89 187.576 370.098 187.375C370.307 187.17 370.468 186.917 370.581 186.614L371.877 186.977C371.74 187.417 371.511 187.803 371.189 188.136C370.867 188.466 370.47 188.723 369.996 188.909C369.523 189.091 368.99 189.182 368.399 189.182ZM374.914 183.75V189H373.573V180.273H374.868V181.636H374.982C375.187 181.193 375.497 180.837 375.914 180.568C376.33 180.295 376.868 180.159 377.527 180.159C378.118 180.159 378.635 180.28 379.079 180.523C379.522 180.761 379.866 181.125 380.113 181.614C380.359 182.098 380.482 182.712 380.482 183.455V189H379.141V183.545C379.141 182.86 378.963 182.326 378.607 181.943C378.251 181.557 377.762 181.364 377.141 181.364C376.713 181.364 376.33 181.456 375.993 181.642C375.66 181.828 375.397 182.098 375.204 182.455C375.01 182.811 374.914 183.242 374.914 183.75ZM388.634 182.227L387.43 182.568C387.354 182.367 387.242 182.172 387.094 181.983C386.95 181.79 386.753 181.631 386.503 181.506C386.253 181.381 385.933 181.318 385.543 181.318C385.009 181.318 384.564 181.441 384.208 181.688C383.856 181.93 383.68 182.239 383.68 182.614C383.68 182.947 383.801 183.21 384.043 183.403C384.286 183.597 384.664 183.758 385.18 183.886L386.475 184.205C387.255 184.394 387.837 184.684 388.219 185.074C388.602 185.46 388.793 185.958 388.793 186.568C388.793 187.068 388.649 187.515 388.361 187.909C388.077 188.303 387.68 188.614 387.168 188.841C386.657 189.068 386.062 189.182 385.384 189.182C384.494 189.182 383.757 188.989 383.174 188.602C382.591 188.216 382.221 187.652 382.066 186.909L383.339 186.591C383.46 187.061 383.689 187.413 384.026 187.648C384.367 187.883 384.812 188 385.361 188C385.986 188 386.483 187.867 386.85 187.602C387.221 187.333 387.407 187.011 387.407 186.636C387.407 186.333 387.301 186.08 387.089 185.875C386.877 185.667 386.551 185.511 386.111 185.409L384.657 185.068C383.858 184.879 383.27 184.585 382.895 184.188C382.524 183.786 382.339 183.284 382.339 182.682C382.339 182.189 382.477 181.754 382.753 181.375C383.034 180.996 383.414 180.699 383.895 180.483C384.38 180.267 384.93 180.159 385.543 180.159C386.407 180.159 387.085 180.348 387.577 180.727C388.073 181.106 388.426 181.606 388.634 182.227ZM393.991 189.182C393.15 189.182 392.424 188.996 391.815 188.625C391.209 188.25 390.741 187.727 390.411 187.057C390.085 186.383 389.923 185.598 389.923 184.705C389.923 183.811 390.085 183.023 390.411 182.341C390.741 181.655 391.199 181.121 391.786 180.739C392.377 180.352 393.066 180.159 393.854 180.159C394.309 180.159 394.758 180.235 395.201 180.386C395.644 180.538 396.048 180.784 396.411 181.125C396.775 181.462 397.065 181.909 397.281 182.466C397.496 183.023 397.604 183.708 397.604 184.523V185.091H390.877V183.932H396.241C396.241 183.439 396.142 183 395.945 182.614C395.752 182.227 395.476 181.922 395.116 181.699C394.76 181.475 394.339 181.364 393.854 181.364C393.32 181.364 392.858 181.496 392.468 181.761C392.082 182.023 391.784 182.364 391.576 182.784C391.368 183.205 391.263 183.655 391.263 184.136V184.909C391.263 185.568 391.377 186.127 391.604 186.585C391.835 187.04 392.156 187.386 392.565 187.625C392.974 187.86 393.449 187.977 393.991 187.977C394.343 187.977 394.661 187.928 394.945 187.83C395.233 187.727 395.481 187.576 395.69 187.375C395.898 187.17 396.059 186.917 396.173 186.614L397.468 186.977C397.332 187.417 397.102 187.803 396.781 188.136C396.459 188.466 396.061 188.723 395.587 188.909C395.114 189.091 394.582 189.182 393.991 189.182ZM405.346 182.227L404.141 182.568C404.066 182.367 403.954 182.172 403.806 181.983C403.662 181.79 403.465 181.631 403.215 181.506C402.965 181.381 402.645 181.318 402.255 181.318C401.721 181.318 401.276 181.441 400.92 181.688C400.568 181.93 400.391 182.239 400.391 182.614C400.391 182.947 400.513 183.21 400.755 183.403C400.997 183.597 401.376 183.758 401.891 183.886L403.187 184.205C403.967 184.394 404.549 184.684 404.931 185.074C405.314 185.46 405.505 185.958 405.505 186.568C405.505 187.068 405.361 187.515 405.073 187.909C404.789 188.303 404.391 188.614 403.88 188.841C403.369 189.068 402.774 189.182 402.096 189.182C401.206 189.182 400.469 188.989 399.886 188.602C399.302 188.216 398.933 187.652 398.778 186.909L400.051 186.591C400.172 187.061 400.401 187.413 400.738 187.648C401.079 187.883 401.524 188 402.073 188C402.698 188 403.194 187.867 403.562 187.602C403.933 187.333 404.119 187.011 404.119 186.636C404.119 186.333 404.013 186.08 403.801 185.875C403.588 185.667 403.263 185.511 402.823 185.409L401.369 185.068C400.569 184.879 399.982 184.585 399.607 184.188C399.236 183.786 399.051 183.284 399.051 182.682C399.051 182.189 399.189 181.754 399.465 181.375C399.746 180.996 400.126 180.699 400.607 180.483C401.092 180.267 401.641 180.159 402.255 180.159C403.119 180.159 403.797 180.348 404.289 180.727C404.785 181.106 405.138 181.606 405.346 182.227Z" fill="url(#paint7_linear_1_1777)"/>
<path d="M94 248H80C75.5817 248 72 251.582 72 256V384C72 388.418 75.5817 392 80 392H94C98.4183 392 102 388.418 102 384V256C102 251.582 98.4183 248 94 248Z" fill="#319766"/>
<path d="M97 402H77C74.2386 402 72 404.239 72 407C72 409.761 74.2386 412 77 412H97C99.7614 412 102 409.761 102 407C102 404.239 99.7614 402 97 402Z" fill="#319766"/>
<path d="M151 402H131C128.239 402 126 404.239 126 407C126 409.761 128.239 412 131 412H151C153.761 412 156 409.761 156 407C156 404.239 153.761 402 151 402Z" fill="#A4D963"/>
<path d="M205 402H185C182.239 402 180 404.239 180 407C180 409.761 182.239 412 185 412H205C207.761 412 210 409.761 210 407C210 404.239 207.761 402 205 402Z" fill="#ECFF77"/>
<path d="M259 402H239C236.239 402 234 404.239 234 407C234 409.761 236.239 412 239 412H259C261.761 412 264 409.761 264 407C264 404.239 261.761 402 259 402Z" fill="#319766"/>
<path d="M313 402H293C290.239 402 288 404.239 288 407C288 409.761 290.239 412 293 412H313C315.761 412 318 409.761 318 407C318 404.239 315.761 402 313 402Z" fill="#A4D963"/>
<path d="M367 402H347C344.239 402 342 404.239 342 407C342 409.761 344.239 412 347 412H367C369.761 412 372 409.761 372 407C372 404.239 369.761 402 367 402Z" fill="#ECFF77"/>
<path d="M148 328H134C129.582 328 126 331.582 126 336V384C126 388.418 129.582 392 134 392H148C152.418 392 156 388.418 156 384V336C156 331.582 152.418 328 148 328Z" fill="#A4D963"/>
<path d="M202 275H188C183.582 275 180 278.582 180 283V384C180 388.418 183.582 392 188 392H202C206.418 392 210 388.418 210 384V283C210 278.582 206.418 275 202 275Z" fill="#ECFF77"/>
<path d="M256 344H242C237.582 344 234 347.582 234 352V384C234 388.418 237.582 392 242 392H256C260.418 392 264 388.418 264 384V352C264 347.582 260.418 344 256 344Z" fill="#319766"/>
<path d="M310 252H296C291.582 252 288 255.582 288 260V384C288 388.418 291.582 392 296 392H310C314.418 392 318 388.418 318 384V260C318 255.582 314.418 252 310 252Z" fill="#A4D963"/>
<path d="M364 309H350C345.582 309 342 312.582 342 317V384C342 388.418 345.582 392 350 392H364C368.418 392 372 388.418 372 384V317C372 312.582 368.418 309 364 309Z" fill="#ECFF77"/>
<path d="M39.9715 376.273V385H38.9147V377.381H38.8635L36.7329 378.795V377.722L38.9147 376.273H39.9715ZM44.968 385.119C44.326 385.119 43.7791 384.945 43.3274 384.595C42.8757 384.243 42.5305 383.733 42.2919 383.065C42.0533 382.395 41.9339 381.585 41.9339 380.636C41.9339 379.693 42.0533 378.888 42.2919 378.22C42.5334 377.55 42.88 377.038 43.3317 376.686C43.7862 376.331 44.3317 376.153 44.968 376.153C45.6044 376.153 46.1484 376.331 46.6001 376.686C47.0547 377.038 47.4013 377.55 47.6399 378.22C47.8814 378.888 48.0021 379.693 48.0021 380.636C48.0021 381.585 47.8828 382.395 47.6442 383.065C47.4055 383.733 47.0604 384.243 46.6086 384.595C46.1569 384.945 45.6101 385.119 44.968 385.119ZM44.968 384.182C45.6044 384.182 46.0987 383.875 46.451 383.261C46.8033 382.648 46.9794 381.773 46.9794 380.636C46.9794 379.881 46.8984 379.237 46.7365 378.706C46.5774 378.175 46.3473 377.77 46.0461 377.491C45.7479 377.213 45.3885 377.074 44.968 377.074C44.3373 377.074 43.8444 377.385 43.4893 378.007C43.1342 378.626 42.9567 379.503 42.9567 380.636C42.9567 381.392 43.0362 382.034 43.1953 382.562C43.3544 383.091 43.5831 383.493 43.8814 383.768C44.1825 384.044 44.5447 384.182 44.968 384.182ZM53.7103 383.364V382.903C53.7103 382.585 53.7756 382.294 53.9063 382.03C54.0398 381.763 54.233 381.55 54.4859 381.391C54.7415 381.229 55.0512 381.148 55.4148 381.148C55.7842 381.148 56.0938 381.229 56.3438 381.391C56.5938 381.55 56.7827 381.763 56.9106 382.03C57.0384 382.294 57.1023 382.585 57.1023 382.903V383.364C57.1023 383.682 57.037 383.974 56.9063 384.241C56.7785 384.506 56.5881 384.719 56.3353 384.881C56.0853 385.04 55.7785 385.119 55.4148 385.119C55.0455 385.119 54.7344 385.04 54.4816 384.881C54.2288 384.719 54.037 384.506 53.9063 384.241C53.7756 383.974 53.7103 383.682 53.7103 383.364ZM54.5796 382.903V383.364C54.5796 383.628 54.6421 383.865 54.7671 384.075C54.8921 384.283 55.108 384.386 55.4148 384.386C55.7131 384.386 55.9234 384.283 56.0455 384.075C56.1705 383.865 56.233 383.628 56.233 383.364V382.903C56.233 382.639 56.1734 382.403 56.054 382.196C55.9347 381.986 55.7217 381.881 55.4148 381.881C55.1165 381.881 54.9021 381.986 54.7714 382.196C54.6435 382.403 54.5796 382.639 54.5796 382.903ZM49.3637 378.369V377.909C49.3637 377.591 49.429 377.3 49.5597 377.036C49.6933 376.768 49.8864 376.555 50.1393 376.396C50.395 376.234 50.7046 376.153 51.0683 376.153C51.4376 376.153 51.7472 376.234 51.9972 376.396C52.2472 376.555 52.4361 376.768 52.564 377.036C52.6918 377.3 52.7558 377.591 52.7558 377.909V378.369C52.7558 378.687 52.6904 378.98 52.5597 379.247C52.4319 379.511 52.2415 379.724 51.9887 379.886C51.7387 380.045 51.4319 380.125 51.0683 380.125C50.6989 380.125 50.3879 380.045 50.135 379.886C49.8822 379.724 49.6904 379.511 49.5597 379.247C49.429 378.98 49.3637 378.687 49.3637 378.369ZM50.233 377.909V378.369C50.233 378.634 50.2955 378.871 50.4205 379.081C50.5455 379.288 50.7614 379.392 51.0683 379.392C51.3665 379.392 51.5768 379.288 51.6989 379.081C51.8239 378.871 51.8864 378.634 51.8864 378.369V377.909C51.8864 377.645 51.8268 377.409 51.7075 377.202C51.5881 376.991 51.3751 376.886 51.0683 376.886C50.77 376.886 50.5555 376.991 50.4248 377.202C50.2969 377.409 50.233 377.645 50.233 377.909ZM49.6876 385L55.6876 376.273H56.6592L50.6592 385H49.6876Z" fill="url(#paint8_linear_1_1777)"/>
<path d="M39.8521 343.119C39.2896 343.119 38.7882 343.023 38.3478 342.83C37.9103 342.636 37.5623 342.368 37.3038 342.024C37.0481 341.678 36.9089 341.276 36.8862 340.818H37.96C37.9828 341.099 38.0793 341.342 38.2498 341.547C38.4203 341.749 38.6433 341.905 38.9188 342.016C39.1944 342.126 39.4998 342.182 39.835 342.182C40.21 342.182 40.5424 342.116 40.8322 341.986C41.122 341.855 41.3492 341.673 41.514 341.44C41.6788 341.207 41.7612 340.938 41.7612 340.631C41.7612 340.31 41.6816 340.027 41.5225 339.783C41.3634 339.536 41.1305 339.342 40.8237 339.203C40.5168 339.064 40.1418 338.994 39.6987 338.994H38.9998V338.057H39.6987C40.0453 338.057 40.3492 337.994 40.6106 337.869C40.8748 337.744 41.0808 337.568 41.2285 337.341C41.3791 337.114 41.4543 336.847 41.4543 336.54C41.4543 336.244 41.389 335.987 41.2583 335.768C41.1276 335.55 40.943 335.379 40.7043 335.257C40.4686 335.135 40.1901 335.074 39.8691 335.074C39.568 335.074 39.2839 335.129 39.0168 335.24C38.7526 335.348 38.5367 335.506 38.3691 335.713C38.2015 335.918 38.1106 336.165 38.0964 336.455H37.0737C37.0907 335.997 37.2285 335.597 37.487 335.253C37.7455 334.906 38.0836 334.636 38.5012 334.443C38.9217 334.25 39.3833 334.153 39.8862 334.153C40.4259 334.153 40.889 334.263 41.2754 334.482C41.6617 334.697 41.9586 334.983 42.166 335.338C42.3734 335.693 42.4771 336.077 42.4771 336.489C42.4771 336.98 42.3478 337.399 42.0893 337.746C41.8336 338.092 41.4856 338.332 41.0453 338.466V338.534C41.5964 338.625 42.0268 338.859 42.3364 339.237C42.6461 339.612 42.8009 340.077 42.8009 340.631C42.8009 341.105 42.6717 341.531 42.4132 341.909C42.1575 342.284 41.808 342.58 41.3649 342.795C40.9217 343.011 40.4174 343.119 39.8521 343.119ZM47.0304 343.119C46.3884 343.119 45.8415 342.945 45.3898 342.595C44.9381 342.243 44.5929 341.733 44.3543 341.065C44.1157 340.395 43.9963 339.585 43.9963 338.636C43.9963 337.693 44.1157 336.888 44.3543 336.22C44.5958 335.55 44.9424 335.038 45.3941 334.686C45.8486 334.331 46.3941 334.153 47.0304 334.153C47.6668 334.153 48.2108 334.331 48.6625 334.686C49.1171 335.038 49.4637 335.55 49.7023 336.22C49.9438 336.888 50.0645 337.693 50.0645 338.636C50.0645 339.585 49.9452 340.395 49.7066 341.065C49.4679 341.733 49.1228 342.243 48.671 342.595C48.2193 342.945 47.6725 343.119 47.0304 343.119ZM47.0304 342.182C47.6668 342.182 48.1611 341.875 48.5134 341.261C48.8657 340.648 49.0418 339.773 49.0418 338.636C49.0418 337.881 48.9608 337.237 48.7989 336.706C48.6398 336.175 48.4097 335.77 48.1085 335.491C47.8103 335.213 47.4509 335.074 47.0304 335.074C46.3997 335.074 45.9068 335.385 45.5517 336.007C45.1966 336.626 45.0191 337.503 45.0191 338.636C45.0191 339.392 45.0986 340.034 45.2577 340.562C45.4168 341.091 45.6455 341.493 45.9438 341.768C46.2449 342.044 46.6071 342.182 47.0304 342.182ZM55.7727 341.364V340.903C55.7727 340.585 55.838 340.294 55.9687 340.03C56.1022 339.763 56.2954 339.55 56.5483 339.391C56.8039 339.229 57.1136 339.148 57.4772 339.148C57.8466 339.148 58.1562 339.229 58.4062 339.391C58.6562 339.55 58.8451 339.763 58.973 340.03C59.1008 340.294 59.1647 340.585 59.1647 340.903V341.364C59.1647 341.682 59.0994 341.974 58.9687 342.241C58.8409 342.506 58.6505 342.719 58.3977 342.881C58.1477 343.04 57.8409 343.119 57.4772 343.119C57.1079 343.119 56.7968 343.04 56.544 342.881C56.2912 342.719 56.0994 342.506 55.9687 342.241C55.838 341.974 55.7727 341.682 55.7727 341.364ZM56.642 340.903V341.364C56.642 341.628 56.7045 341.865 56.8295 342.075C56.9545 342.283 57.1704 342.386 57.4772 342.386C57.7755 342.386 57.9858 342.283 58.1079 342.075C58.2329 341.865 58.2954 341.628 58.2954 341.364V340.903C58.2954 340.639 58.2358 340.403 58.1164 340.196C57.9971 339.986 57.7841 339.881 57.4772 339.881C57.1789 339.881 56.9645 339.986 56.8338 340.196C56.7059 340.403 56.642 340.639 56.642 340.903ZM51.4261 336.369V335.909C51.4261 335.591 51.4914 335.3 51.6221 335.036C51.7557 334.768 51.9488 334.555 52.2017 334.396C52.4574 334.234 52.767 334.153 53.1307 334.153C53.5 334.153 53.8096 334.234 54.0596 334.396C54.3096 334.555 54.4985 334.768 54.6264 335.036C54.7542 335.3 54.8182 335.591 54.8182 335.909V336.369C54.8182 336.687 54.7528 336.98 54.6221 337.247C54.4943 337.511 54.3039 337.724 54.0511 337.886C53.8011 338.045 53.4943 338.125 53.1307 338.125C52.7613 338.125 52.4503 338.045 52.1974 337.886C51.9446 337.724 51.7528 337.511 51.6221 337.247C51.4914 336.98 51.4261 336.687 51.4261 336.369ZM52.2954 335.909V336.369C52.2954 336.634 52.3579 336.871 52.4829 337.081C52.6079 337.288 52.8238 337.392 53.1307 337.392C53.4289 337.392 53.6392 337.288 53.7613 337.081C53.8863 336.871 53.9488 336.634 53.9488 336.369V335.909C53.9488 335.645 53.8892 335.409 53.7699 335.202C53.6505 334.991 53.4375 334.886 53.1307 334.886C52.8324 334.886 52.6179 334.991 52.4872 335.202C52.3593 335.409 52.2954 335.645 52.2954 335.909ZM51.75 343L57.75 334.273H58.7216L52.7216 343H51.75Z" fill="url(#paint9_linear_1_1777)"/>
<path d="M37.1762 301L41.0796 293.278V293.21H36.5796V292.273H42.1706V293.261L38.2842 301H37.1762ZM46.0581 301.119C45.416 301.119 44.8691 300.945 44.4174 300.595C43.9657 300.243 43.6206 299.733 43.3819 299.065C43.1433 298.395 43.024 297.585 43.024 296.636C43.024 295.693 43.1433 294.888 43.3819 294.22C43.6234 293.55 43.97 293.038 44.4217 292.686C44.8763 292.331 45.4217 292.153 46.0581 292.153C46.6944 292.153 47.2385 292.331 47.6902 292.686C48.1447 293.038 48.4913 293.55 48.7299 294.22C48.9714 294.888 49.0922 295.693 49.0922 296.636C49.0922 297.585 48.9728 298.395 48.7342 299.065C48.4956 299.733 48.1504 300.243 47.6987 300.595C47.247 300.945 46.7001 301.119 46.0581 301.119ZM46.0581 300.182C46.6944 300.182 47.1888 299.875 47.541 299.261C47.8933 298.648 48.0694 297.773 48.0694 296.636C48.0694 295.881 47.9885 295.237 47.8265 294.706C47.6674 294.175 47.4373 293.77 47.1362 293.491C46.8379 293.213 46.4785 293.074 46.0581 293.074C45.4274 293.074 44.9345 293.385 44.5794 294.007C44.2243 294.626 44.0467 295.503 44.0467 296.636C44.0467 297.392 44.1263 298.034 44.2853 298.562C44.4444 299.091 44.6731 299.493 44.9714 299.768C45.2726 300.044 45.6348 300.182 46.0581 300.182ZM54.8003 299.364V298.903C54.8003 298.585 54.8657 298.294 54.9964 298.03C55.1299 297.763 55.3231 297.55 55.5759 297.391C55.8316 297.229 56.1413 297.148 56.5049 297.148C56.8742 297.148 57.1839 297.229 57.4339 297.391C57.6839 297.55 57.8728 297.763 58.0006 298.03C58.1285 298.294 58.1924 298.585 58.1924 298.903V299.364C58.1924 299.682 58.127 299.974 57.9964 300.241C57.8685 300.506 57.6782 300.719 57.4253 300.881C57.1753 301.04 56.8685 301.119 56.5049 301.119C56.1356 301.119 55.8245 301.04 55.5716 300.881C55.3188 300.719 55.127 300.506 54.9964 300.241C54.8657 299.974 54.8003 299.682 54.8003 299.364ZM55.6697 298.903V299.364C55.6697 299.628 55.7322 299.865 55.8572 300.075C55.9822 300.283 56.1981 300.386 56.5049 300.386C56.8032 300.386 57.0134 300.283 57.1356 300.075C57.2606 299.865 57.3231 299.628 57.3231 299.364V298.903C57.3231 298.639 57.2634 298.403 57.1441 298.196C57.0248 297.986 56.8117 297.881 56.5049 297.881C56.2066 297.881 55.9921 297.986 55.8614 298.196C55.7336 298.403 55.6697 298.639 55.6697 298.903ZM50.4538 294.369V293.909C50.4538 293.591 50.5191 293.3 50.6498 293.036C50.7833 292.768 50.9765 292.555 51.2293 292.396C51.485 292.234 51.7947 292.153 52.1583 292.153C52.5276 292.153 52.8373 292.234 53.0873 292.396C53.3373 292.555 53.5262 292.768 53.654 293.036C53.7819 293.3 53.8458 293.591 53.8458 293.909V294.369C53.8458 294.687 53.7805 294.98 53.6498 295.247C53.5219 295.511 53.3316 295.724 53.0788 295.886C52.8288 296.045 52.5219 296.125 52.1583 296.125C51.789 296.125 51.4779 296.045 51.2251 295.886C50.9722 295.724 50.7805 295.511 50.6498 295.247C50.5191 294.98 50.4538 294.687 50.4538 294.369ZM51.3231 293.909V294.369C51.3231 294.634 51.3856 294.871 51.5106 295.081C51.6356 295.288 51.8515 295.392 52.1583 295.392C52.4566 295.392 52.6668 295.288 52.789 295.081C52.914 294.871 52.9765 294.634 52.9765 294.369V293.909C52.9765 293.645 52.9168 293.409 52.7975 293.202C52.6782 292.991 52.4651 292.886 52.1583 292.886C51.86 292.886 51.6455 292.991 51.5148 293.202C51.387 293.409 51.3231 293.645 51.3231 293.909ZM50.7776 301L56.7776 292.273H57.7492L51.7492 301H50.7776Z" fill="url(#paint10_linear_1_1777)"/>
<path d="M39.6819 250.153C40.0399 250.156 40.3978 250.224 40.7558 250.358C41.1137 250.491 41.4404 250.713 41.7359 251.023C42.0314 251.33 42.2686 251.749 42.4475 252.28C42.6265 252.811 42.716 253.477 42.716 254.278C42.716 255.054 42.6421 255.743 42.4944 256.345C42.3495 256.945 42.1393 257.45 41.8637 257.862C41.591 258.274 41.2586 258.587 40.8666 258.8C40.4774 259.013 40.037 259.119 39.5456 259.119C39.0569 259.119 38.6208 259.023 38.2373 258.83C37.8566 258.634 37.5441 258.362 37.2998 258.016C37.0583 257.666 36.9035 257.261 36.8353 256.801H37.8751C37.9689 257.202 38.1549 257.533 38.4333 257.794C38.7146 258.053 39.0853 258.182 39.5456 258.182C40.2189 258.182 40.7501 257.888 41.1393 257.3C41.5314 256.712 41.7274 255.881 41.7274 254.807H41.6592C41.5001 255.045 41.3112 255.251 41.0924 255.425C40.8737 255.598 40.6308 255.732 40.3637 255.825C40.0967 255.919 39.8126 255.966 39.5115 255.966C39.0115 255.966 38.5527 255.842 38.135 255.595C37.7203 255.345 37.3879 255.003 37.1379 254.568C36.8907 254.131 36.7671 253.631 36.7671 253.068C36.7671 252.534 36.8865 252.045 37.1251 251.602C37.3666 251.156 37.7046 250.801 38.1393 250.537C38.5768 250.273 39.091 250.145 39.6819 250.153ZM39.6819 251.091C39.324 251.091 39.0015 251.18 38.7146 251.359C38.4305 251.536 38.2046 251.774 38.037 252.075C37.8723 252.374 37.7899 252.705 37.7899 253.068C37.7899 253.432 37.8694 253.763 38.0285 254.061C38.1904 254.357 38.4106 254.592 38.689 254.768C38.9703 254.942 39.2899 255.028 39.6478 255.028C39.9177 255.028 40.1691 254.976 40.4021 254.871C40.635 254.763 40.8382 254.616 41.0115 254.432C41.1876 254.244 41.3254 254.033 41.4248 253.797C41.5242 253.558 41.574 253.31 41.574 253.051C41.574 252.71 41.4916 252.391 41.3268 252.092C41.1649 251.794 40.9404 251.553 40.6535 251.368C40.3694 251.183 40.0456 251.091 39.6819 251.091ZM46.8102 250.153C47.1682 250.156 47.5261 250.224 47.8841 250.358C48.242 250.491 48.5687 250.713 48.8642 251.023C49.1596 251.33 49.3968 251.749 49.5758 252.28C49.7548 252.811 49.8443 253.477 49.8443 254.278C49.8443 255.054 49.7704 255.743 49.6227 256.345C49.4778 256.945 49.2676 257.45 48.992 257.862C48.7193 258.274 48.3869 258.587 47.9949 258.8C47.6057 259.013 47.1653 259.119 46.6738 259.119C46.1852 259.119 45.7491 259.023 45.3656 258.83C44.9849 258.634 44.6724 258.362 44.4281 258.016C44.1866 257.666 44.0318 257.261 43.9636 256.801H45.0034C45.0971 257.202 45.2832 257.533 45.5616 257.794C45.8429 258.053 46.2136 258.182 46.6738 258.182C47.3471 258.182 47.8784 257.888 48.2676 257.3C48.6596 256.712 48.8557 255.881 48.8557 254.807H48.7875C48.6284 255.045 48.4395 255.251 48.2207 255.425C48.002 255.598 47.7591 255.732 47.492 255.825C47.225 255.919 46.9409 255.966 46.6397 255.966C46.1397 255.966 45.6809 255.842 45.2633 255.595C44.8486 255.345 44.5162 255.003 44.2662 254.568C44.019 254.131 43.8954 253.631 43.8954 253.068C43.8954 252.534 44.0147 252.045 44.2534 251.602C44.4949 251.156 44.8329 250.801 45.2676 250.537C45.7051 250.273 46.2193 250.145 46.8102 250.153ZM46.8102 251.091C46.4522 251.091 46.1298 251.18 45.8429 251.359C45.5588 251.536 45.3329 251.774 45.1653 252.075C45.0005 252.374 44.9182 252.705 44.9182 253.068C44.9182 253.432 44.9977 253.763 45.1568 254.061C45.3187 254.357 45.5389 254.592 45.8173 254.768C46.0986 254.942 46.4182 255.028 46.7761 255.028C47.046 255.028 47.2974 254.976 47.5304 254.871C47.7633 254.763 47.9664 254.616 48.1397 254.432C48.3159 254.244 48.4537 254.033 48.5531 253.797C48.6525 253.558 48.7022 253.31 48.7022 253.051C48.7022 252.71 48.6199 252.391 48.4551 252.092C48.2932 251.794 48.0687 251.553 47.7818 251.368C47.4977 251.183 47.1738 251.091 46.8102 251.091ZM55.6089 257.364V256.903C55.6089 256.585 55.6743 256.294 55.805 256.03C55.9385 255.763 56.1317 255.55 56.3845 255.391C56.6402 255.229 56.9498 255.148 57.3135 255.148C57.6828 255.148 57.9925 255.229 58.2425 255.391C58.4925 255.55 58.6814 255.763 58.8092 256.03C58.9371 256.294 59.001 256.585 59.001 256.903V257.364C59.001 257.682 58.9356 257.974 58.805 258.241C58.6771 258.506 58.4868 258.719 58.2339 258.881C57.9839 259.04 57.6771 259.119 57.3135 259.119C56.9442 259.119 56.6331 259.04 56.3802 258.881C56.1274 258.719 55.9356 258.506 55.805 258.241C55.6743 257.974 55.6089 257.682 55.6089 257.364ZM56.4783 256.903V257.364C56.4783 257.628 56.5408 257.865 56.6658 258.075C56.7908 258.283 57.0067 258.386 57.3135 258.386C57.6118 258.386 57.822 258.283 57.9442 258.075C58.0692 257.865 58.1317 257.628 58.1317 257.364V256.903C58.1317 256.639 58.072 256.403 57.9527 256.196C57.8334 255.986 57.6203 255.881 57.3135 255.881C57.0152 255.881 56.8007 255.986 56.67 256.196C56.5422 256.403 56.4783 256.639 56.4783 256.903ZM51.2623 252.369V251.909C51.2623 251.591 51.3277 251.3 51.4584 251.036C51.5919 250.768 51.7851 250.555 52.0379 250.396C52.2936 250.234 52.6033 250.153 52.9669 250.153C53.3362 250.153 53.6459 250.234 53.8959 250.396C54.1459 250.555 54.3348 250.768 54.4626 251.036C54.5905 251.3 54.6544 251.591 54.6544 251.909V252.369C54.6544 252.687 54.589 252.98 54.4584 253.247C54.3305 253.511 54.1402 253.724 53.8873 253.886C53.6373 254.045 53.3305 254.125 52.9669 254.125C52.5976 254.125 52.2865 254.045 52.0337 253.886C51.7808 253.724 51.589 253.511 51.4584 253.247C51.3277 252.98 51.2623 252.687 51.2623 252.369ZM52.1317 251.909V252.369C52.1317 252.634 52.1942 252.871 52.3192 253.081C52.4442 253.288 52.6601 253.392 52.9669 253.392C53.2652 253.392 53.4754 253.288 53.5976 253.081C53.7226 252.871 53.7851 252.634 53.7851 252.369V251.909C53.7851 251.645 53.7254 251.409 53.6061 251.202C53.4868 250.991 53.2737 250.886 52.9669 250.886C52.6686 250.886 52.4541 250.991 52.3234 251.202C52.1956 251.409 52.1317 251.645 52.1317 251.909ZM51.5862 259L57.5862 250.273H58.5578L52.5578 259H51.5862Z" fill="url(#paint11_linear_1_1777)"/>
</g>
<defs>
<filter id="filter0_f_1_1777" x="26" y="40.2141" width="34.4829" height="33.7859" filterUnits="userSpaceOnUse" color-interpolation-filters="sRGB">
<feFlood flood-opacity="0" result="BackgroundImageFix"/>
<feBlend mode="normal" in="SourceGraphic" in2="BackgroundImageFix" result="shape"/>
<feGaussianBlur stdDeviation="4.5" result="effect1_foregroundBlur_1_1777"/>
</filter>
<linearGradient id="paint0_linear_1_1777" x1="222.5" y1="0" x2="222.5" y2="444" gradientUnits="userSpaceOnUse">
<stop stop-color="#1F2321"/>
<stop offset="1" stop-color="#020B05"/>
</linearGradient>
<linearGradient id="paint1_linear_1_1777" x1="17.3828" y1="-23.125" x2="517.68" y2="14.6708" gradientUnits="userSpaceOnUse">
<stop stop-color="white" stop-opacity="0.04"/>
<stop offset="1" stop-color="white" stop-opacity="0.12"/>
</linearGradient>
<linearGradient id="paint2_linear_1_1777" x1="140.5" y1="36.0001" x2="140.5" y2="81.9001" gradientUnits="userSpaceOnUse">
<stop stop-color="#F1F1EF"/>
<stop offset="1" stop-color="#F1F1EF" stop-opacity="0"/>
</linearGradient>
<linearGradient id="paint3_linear_1_1777" x1="29.5625" y1="29.9167" x2="74.5342" y2="33.3065" gradientUnits="userSpaceOnUse">
<stop stop-color="white" stop-opacity="0.04"/>
<stop offset="1" stop-color="white" stop-opacity="0.12"/>
</linearGradient>
<linearGradient id="paint4_linear_1_1777" x1="130.5" y1="95.9999" x2="130.5" y2="164.85" gradientUnits="userSpaceOnUse">
<stop stop-color="#F1F1EF"/>
<stop offset="1" stop-color="#F1F1EF" stop-opacity="0"/>
</linearGradient>
<linearGradient id="paint5_linear_1_1777" x1="109" y1="173" x2="109" y2="193" gradientUnits="userSpaceOnUse">
<stop stop-color="#1F2321"/>
<stop offset="1" stop-color="#020B05"/>
</linearGradient>
<linearGradient id="paint6_linear_1_1777" x1="258.5" y1="173" x2="258.5" y2="193" gradientUnits="userSpaceOnUse">
<stop stop-color="#1F2321"/>
<stop offset="1" stop-color="#020B05"/>
</linearGradient>
<linearGradient id="paint7_linear_1_1777" x1="372" y1="173" x2="372" y2="193" gradientUnits="userSpaceOnUse">
<stop stop-color="#1F2321"/>
<stop offset="1" stop-color="#020B05"/>
</linearGradient>
<linearGradient id="paint8_linear_1_1777" x1="47.4999" y1="374" x2="47.4999" y2="394.081" gradientUnits="userSpaceOnUse">
<stop stop-color="#F1F1EF"/>
<stop offset="1" stop-color="#F1F1EF" stop-opacity="0"/>
</linearGradient>
<linearGradient id="paint9_linear_1_1777" x1="48.4998" y1="332" x2="48.4998" y2="352.081" gradientUnits="userSpaceOnUse">
<stop stop-color="#F1F1EF"/>
<stop offset="1" stop-color="#F1F1EF" stop-opacity="0"/>
</linearGradient>
<linearGradient id="paint10_linear_1_1777" x1="48.0001" y1="290" x2="48.0001" y2="310.081" gradientUnits="userSpaceOnUse">
<stop stop-color="#F1F1EF"/>
<stop offset="1" stop-color="#F1F1EF" stop-opacity="0"/>
</linearGradient>
<linearGradient id="paint11_linear_1_1777" x1="48.5001" y1="248" x2="48.5001" y2="268.081" gradientUnits="userSpaceOnUse">
<stop stop-color="#F1F1EF"/>
<stop offset="1" stop-color="#F1F1EF" stop-opacity="0"/>
</linearGradient>
<clipPath id="clip0_1_1777">
<rect width="445" height="444" fill="white"/>
</clipPath>
</defs>
</svg>
